999
dxfrw 0.6.3
  0
SECTION
  2
HEADER
  9
$ACADVER
  1
AC1021
  9
$DWGCODEPAGE
  3
ANSI_1250
  9
$INSBASE
 10
0
 20
0
 30
0
  9
$EXTMIN
 10
-0.07620000000000005
 20
-0.07620000000000005
 30
0
  9
$EXTMAX
 10
80.0762
 20
93.96388268
 30
0
  9
$LIMMIN
 10
0
 20
0
  9
$LIMMAX
 10
420
 20
297
  9
$ORTHOMODE
 70
    0
  9
$REGENMODE
 70
    1
  9
$FILLMODE
 70
    0
  9
$QTEXTMODE
 70
    0
  9
$MIRRTEXT
 70
    0
  9
$LTSCALE
 40
1
  9
$ATTMODE
 70
    0
  9
$TEXTSIZE
 40
2.5
  9
$TRACEWID
 40
15.68
  9
$TEXTSTYLE
  7
STANDARD
  9
$CLAYER
  8
0
  9
$CELTYPE
  6
BYLAYER
  9
$CECOLOR
 62
  256
  9
$CELTSCALE
 40
1
  9
$DISPSILH
 70
    0
  9
$DIMSCALE
 40
2.5
  9
$DIMASZ
 40
2.5
  9
$DIMEXO
 40
0.625
  9
$DIMDLI
 40
3.75
  9
$DIMRND
 40
0
  9
$DIMDLE
 40
0
  9
$DIMEXE
 40
1.25
  9
$DIMTP
 40
0
  9
$DIMTM
 40
0
  9
$DIMTXT
 40
2.5
  9
$DIMCEN
 40
2.5
  9
$DIMTSZ
 40
0
  9
$DIMTOL
 70
    0
  9
$DIMLIM
 70
    0
  9
$DIMTIH
 70
    0
  9
$DIMTOH
 70
    0
  9
$DIMSE1
 70
    0
  9
$DIMSE2
 70
    0
  9
$DIMTAD
 70
    1
  9
$DIMZIN
 70
    8
  9
$DIMBLK
  1

  9
$DIMASO
 70
    1
  9
$DIMSHO
 70
    1
  9
$DIMPOST
  1

  9
$DIMAPOST
  1

  9
$DIMALT
 70
    0
  9
$DIMALTD
 70
    3
  9
$DIMALTF
 40
0.03937
  9
$DIMLFAC
 40
1
  9
$DIMTOFL
 70
    1
  9
$DIMTVP
 40
0
  9
$DIMTIX
 70
    0
  9
$DIMSOXD
 70
    0
  9
$DIMSAH
 70
    0
  9
$DIMBLK1
  1

  9
$DIMBLK2
  1

  9
$DIMSTYLE
  2
STANDARD
  9
$DIMCLRD
 70
    0
  9
$DIMCLRE
 70
    0
  9
$DIMCLRT
 70
    0
  9
$DIMTFAC
 40
1
  9
$DIMGAP
 40
0.625
  9
$DIMJUST
 70
    0
  9
$DIMSD1
 70
    0
  9
$DIMSD2
 70
    0
  9
$DIMTOLJ
 70
    0
  9
$DIMTZIN
 70
    8
  9
$DIMALTZ
 70
    0
  9
$DIMALTTZ
 70
    0
  9
$DIMUPT
 70
    0
  9
$DIMDEC
 70
    2
  9
$DIMTDEC
 70
    2
  9
$DIMALTU
 70
    2
  9
$DIMALTTD
 70
    3
  9
$DIMTXSTY
  7
STANDARD
  9
$DIMAUNIT
 70
    0
  9
$DIMADEC
 70
    0
  9
$DIMALTRND
 40
0
  9
$DIMAZIN
 70
    0
  9
$DIMDSEP
 70
   44
  9
$DIMATFIT
 70
    3
  9
$DIMFRAC
 70
    0
  9
$DIMLDRBLK
  1
STANDARD
  9
$DIMLUNIT
 70
    2
  9
$DIMLWD
 70
   -2
  9
$DIMLWE
 70
   -2
  9
$DIMTMOVE
 70
    0
  9
$DIMFXL
 40
1
  9
$DIMFXLON
 70
    0
  9
$DIMJOGANG
 40
0.7854
  9
$DIMTFILL
 70
    0
  9
$DIMTFILLCLR
 70
    0
  9
$DIMARCSYM
 70
    0
  9
$DIMLTYPE
  6

  9
$DIMLTEX1
  6

  9
$DIMLTEX2
  6

  9
$LUNITS
 70
    2
  9
$LUPREC
 70
    4
  9
$SKETCHINC
 40
1
  9
$FILLETRAD
 40
0
  9
$AUNITS
 70
    0
  9
$AUPREC
 70
    2
  9
$MENU
  1
.
  9
$ELEVATION
 40
0
  9
$PELEVATION
 40
0
  9
$THICKNESS
 40
0
  9
$LIMCHECK
 70
    0
  9
$CHAMFERA
 40
0
  9
$CHAMFERB
 40
0
  9
$CHAMFERC
 40
0
  9
$CHAMFERD
 40
0
  9
$SKPOLY
 70
    0
  9
$USRTIMER
 70
    1
  9
$ANGBASE
 50
0
  9
$ANGDIR
 70
    0
  9
$PDMODE
 70
   34
  9
$PDSIZE
 40
0
  9
$PLINEWID
 40
0
  9
$SPLFRAME
 70
    0
  9
$SPLINETYPE
 70
    2
  9
$SPLINESEGS
 70
    8
  9
$HANDSEED
  5
20000
  9
$SURFTAB1
 70
    6
  9
$SURFTAB2
 70
    6
  9
$SURFTYPE
 70
    6
  9
$SURFU
 70
    6
  9
$SURFV
 70
    6
  9
$UCSBASE
  2

  9
$UCSNAME
  2

  9
$UCSORG
 10
0
 20
0
 30
0
  9
$UCSXDIR
 10
1
 20
0
 30
0
  9
$UCSYDIR
 10
0
 20
1
 30
0
  9
$UCSORTHOREF
  2

  9
$UCSORTHOVIEW
 70
    0
  9
$UCSORGTOP
 10
0
 20
0
 30
0
  9
$UCSORGBOTTOM
 10
0
 20
0
 30
0
  9
$UCSORGLEFT
 10
0
 20
0
 30
0
  9
$UCSORGRIGHT
 10
0
 20
0
 30
0
  9
$UCSORGFRONT
 10
0
 20
0
 30
0
  9
$UCSORGBACK
 10
0
 20
0
 30
0
  9
$PUCSBASE
  2

  9
$PUCSNAME
  2

  9
$PUCSORG
 10
0
 20
0
 30
0
  9
$PUCSXDIR
 10
1
 20
0
 30
0
  9
$PUCSYDIR
 10
0
 20
1
 30
0
  9
$PUCSORTHOREF
  2

  9
$PUCSORTHOVIEW
 70
    0
  9
$PUCSORGTOP
 10
0
 20
0
 30
0
  9
$PUCSORGBOTTOM
 10
0
 20
0
 30
0
  9
$PUCSORGLEFT
 10
0
 20
0
 30
0
  9
$PUCSORGRIGHT
 10
0
 20
0
 30
0
  9
$PUCSORGFRONT
 10
0
 20
0
 30
0
  9
$PUCSORGBACK
 10
0
 20
0
 30
0
  9
$USERI1
 70
    0
  9
$USERI2
 70
    0
  9
$USERI3
 70
    0
  9
$USERI4
 70
    0
  9
$USERI5
 70
    0
  9
$USERR1
 40
0
  9
$USERR2
 40
0
  9
$USERR3
 40
0
  9
$USERR4
 40
0
  9
$USERR5
 40
0
  9
$WORLDVIEW
 70
    1
  9
$SHADEDGE
 70
    3
  9
$SHADEDIF
 70
   70
  9
$TILEMODE
 70
    1
  9
$MAXACTVP
 70
   64
  9
$PINSBASE
 10
0
 20
0
 30
0
  9
$PLIMCHECK
 70
    0
  9
$PEXTMIN
 10
0
 20
0
 30
0
  9
$PEXTMAX
 10
0
 20
0
 30
0
  9
$PLIMMIN
 10
0
 20
0
  9
$PLIMMAX
 10
210
 20
297
  9
$UNITMODE
 70
    0
  9
$VISRETAIN
 70
    1
  9
$PLINEGEN
 70
    0
  9
$PSLTSCALE
 70
    1
  9
$TREEDEPTH
 70
 3020
  9
$CMLSTYLE
  2
Standard
  9
$CMLJUST
 70
    0
  9
$CMLSCALE
 40
20
  9
$PROXYGRAPHICS
 70
    1
  9
$MEASUREMENT
 70
    1
  9
$CELWEIGHT
370
   -1
  9
$ENDCAPS
280
    0
  9
$JOINSTYLE
280
    0
  9
$LWDISPLAY
290
    0
  9
$INSUNITS
 70
    0
  9
$HYPERLINKBASE
  1

  9
$STYLESHEET
  1

  9
$XEDIT
290
    1
  9
$CEPSNTYPE
380
    0
  9
$PSTYLEMODE
290
    1
  9
$EXTNAMES
290
    1
  9
$PSVPSCALE
 40
1
  9
$OLESTARTUP
290
    0
  9
$SORTENTS
280
  127
  9
$INDEXCTL
280
    0
  9
$HIDETEXT
280
    1
  9
$XCLIPFRAME
290
    0
  9
$HALOGAP
280
    0
  9
$OBSCOLOR
 70
  257
  9
$OBSLTYPE
280
    0
  9
$INTERSECTIONDISPLAY
280
    0
  9
$INTERSECTIONCOLOR
 70
  257
  9
$DIMASSOC
280
    1
  9
$PROJECTNAME
  1

  9
$CAMERADISPLAY
290
    0
  9
$LENSLENGTH
 40
50
  9
$CAMERAHEIGHT
 40
0
  9
$STEPSPERSEC
 40
2
  9
$STEPSIZE
 40
50
  9
$3DDWFPREC
 40
2
  9
$PSOLWIDTH
 40
5
  9
$PSOLHEIGHT
 40
80
  9
$LOFTANG1
 40
1.570796326794897
  9
$LOFTANG2
 40
1.570796326794897
  9
$LOFTMAG1
 40
0
  9
$LOFTMAG2
 40
0
  9
$LOFTPARAM
 70
    7
  9
$LOFTNORMALS
280
    1
  9
$LATITUDE
 40
1
  9
$LONGITUDE
 40
1
  9
$NORTHDIRECTION
 40
0
  9
$TIMEZONE
 70
-8000
  9
$LIGHTGLYPHDISPLAY
280
    1
  9
$TILEMODELIGHTSYNCH
280
    1
  9
$SOLIDHIST
280
    1
  9
$SHOWHIST
280
    1
  9
$DWFFRAME
280
    2
  9
$DGNFRAME
280
    0
  9
$REALWORLDSCALE
290
    1
  9
$INTERFERECOLOR
 62
    1
  9
$CSHADOW
280
    0
  9
$SHADOWPLANELOCATION
 40
0
  0
ENDSEC
  0
SECTION
  2
CLASSES
  0
ENDSEC
  0
SECTION
  2
TABLES
  0
TABLE
  2
VPORT
  5
8
330
0
100
AcDbSymbolTable
 70
    1
  0
VPORT
  5
31
330
2
100
AcDbSymbolTableRecord
100
AcDbViewportTableRecord
  2
*ACTIVE
 70
    0
 10
0
 20
0
 11
1
 21
1
 12
22.76390290802415
 22
7.07150910580855
 13
0
 23
0
 14
10
 24
10
 15
10
 25
10
 16
0
 26
0
 36
1
 17
0
 27
0
 37
0
 40
12.29568577667273
 41
0.6768982229402262
 42
50
 43
0
 44
0
 50
0
 51
0
 71
    0
 72
  100
 73
    1
 74
    3
 75
    0
 76
    1
 77
    0
 78
    0
281
    0
 65
    1
110
0
120
0
130
0
111
1
121
0
131
0
112
0
122
1
132
0
 79
    0
146
0
348
10020
 60
    7
 61
    5
292
1
282
    1
141
0
142
0
 63
  250
421
3358443
  0
ENDTAB
  0
TABLE
  2
LTYPE
  5
5
330
0
100
AcDbSymbolTable
 70
    4
  0
LTYPE
  5
14
330
5
100
AcDbSymbolTableRecord
100
AcDbLinetypeTableRecord
  2
ByBlock
 70
    0
  3

 72
   65
 73
    0
 40
0
  0
LTYPE
  5
15
330
5
100
AcDbSymbolTableRecord
100
AcDbLinetypeTableRecord
  2
ByLayer
 70
    0
  3

 72
   65
 73
    0
 40
0
  0
LTYPE
  5
16
330
5
100
AcDbSymbolTableRecord
100
AcDbLinetypeTableRecord
  2
Continuous
 70
    0
  3
Solid line
 72
   65
 73
    0
 40
0
  0
LTYPE
  5
32
330
5
100
AcDbSymbolTableRecord
100
AcDbLinetypeTableRecord
  2
DOT
 70
    0
  3
Dot . . . . . . . . . . . . . . . . . . . . . .
 72
   65
 73
    2
 40
6.35
 49
0
 74
    0
 49
-6.35
 74
    0
  0
LTYPE
  5
33
330
5
100
AcDbSymbolTableRecord
100
AcDbLinetypeTableRecord
  2
DOTTINY
 70
    0
  3
Dot (.15x) .....................................
 72
   65
 73
    2
 40
0.9525
 49
0
 74
    0
 49
-0.9525
 74
    0
  0
LTYPE
  5
34
330
5
100
AcDbSymbolTableRecord
100
AcDbLinetypeTableRecord
  2
DOT2
 70
    0
  3
Dot (.5x) .....................................
 72
   65
 73
    2
 40
3.175
 49
0
 74
    0
 49
-3.175
 74
    0
  0
LTYPE
  5
35
330
5
100
AcDbSymbolTableRecord
100
AcDbLinetypeTableRecord
  2
DOTX2
 70
    0
  3
Dot (2x) .  .  .  .  .  .  .  .  .  .  .  .  .
 72
   65
 73
    2
 40
12.7
 49
0
 74
    0
 49
-12.7
 74
    0
  0
LTYPE
  5
36
330
5
100
AcDbSymbolTableRecord
100
AcDbLinetypeTableRecord
  2
DASHED
 70
    0
  3
Dashed _ _ _ _ _ _ _ _ _ _ _ _ _ _ _ _ _
 72
   65
 73
    2
 40
19.05
 49
12.7
 74
    0
 49
-6.35
 74
    0
  0
LTYPE
  5
37
330
5
100
AcDbSymbolTableRecord
100
AcDbLinetypeTableRecord
  2
DASHEDTINY
 70
    0
  3
Dashed (.15x) _ _ _ _ _ _ _ _ _ _ _ _ _ _ _ _ _
 72
   65
 73
    2
 40
2.8575
 49
1.905
 74
    0
 49
-0.9525
 74
    0
  0
LTYPE
  5
38
330
5
100
AcDbSymbolTableRecord
100
AcDbLinetypeTableRecord
  2
DASHED2
 70
    0
  3
Dashed (.5x) _ _ _ _ _ _ _ _ _ _ _ _ _ _ _ _ _
 72
   65
 73
    2
 40
9.524999999999999
 49
6.35
 74
    0
 49
-3.175
 74
    0
  0
LTYPE
  5
39
330
5
100
AcDbSymbolTableRecord
100
AcDbLinetypeTableRecord
  2
DASHEDX2
 70
    0
  3
Dashed (2x) ____  ____  ____  ____  ____  ___
 72
   65
 73
    2
 40
38.09999999999999
 49
25.4
 74
    0
 49
-12.7
 74
    0
  0
LTYPE
  5
3A
330
5
100
AcDbSymbolTableRecord
100
AcDbLinetypeTableRecord
  2
DASHDOT
 70
    0
  3
Dash dot __ . __ . __ . __ . __ . __ . __ . __
 72
   65
 73
    4
 40
25.4
 49
12.7
 74
    0
 49
-6.35
 74
    0
 49
0
 74
    0
 49
-6.35
 74
    0
  0
LTYPE
  5
3B
330
5
100
AcDbSymbolTableRecord
100
AcDbLinetypeTableRecord
  2
DASHDOTTINY
 70
    0
  3
Dash dot (.15x) _._._._._._._._._._._._._._._.
 72
   65
 73
    4
 40
3.81
 49
1.905
 74
    0
 49
-0.9525
 74
    0
 49
0
 74
    0
 49
-0.9525
 74
    0
  0
LTYPE
  5
3C
330
5
100
AcDbSymbolTableRecord
100
AcDbLinetypeTableRecord
  2
DASHDOT2
 70
    0
  3
Dash dot (.5x) _._._._._._._._._._._._._._._.
 72
   65
 73
    4
 40
12.7
 49
6.35
 74
    0
 49
-3.175
 74
    0
 49
0
 74
    0
 49
-3.175
 74
    0
  0
LTYPE
  5
3D
330
5
100
AcDbSymbolTableRecord
100
AcDbLinetypeTableRecord
  2
DASHDOTX2
 70
    0
  3
Dash dot (2x) ____  .  ____  .  ____  .  ___
 72
   65
 73
    4
 40
50.8
 49
25.4
 74
    0
 49
-12.7
 74
    0
 49
0
 74
    0
 49
-12.7
 74
    0
  0
LTYPE
  5
3E
330
5
100
AcDbSymbolTableRecord
100
AcDbLinetypeTableRecord
  2
DIVIDE
 70
    0
  3
Divide ____ . . ____ . . ____ . . ____ . . ____
 72
   65
 73
    6
 40
31.75
 49
12.7
 74
    0
 49
-6.35
 74
    0
 49
0
 74
    0
 49
-6.35
 74
    0
 49
0
 74
    0
 49
-6.35
 74
    0
  0
LTYPE
  5
3F
330
5
100
AcDbSymbolTableRecord
100
AcDbLinetypeTableRecord
  2
DIVIDETINY
 70
    0
  3
Divide (.15x) __..__..__..__..__..__..__..__.._
 72
   65
 73
    6
 40
4.7625
 49
1.905
 74
    0
 49
-0.9525
 74
    0
 49
0
 74
    0
 49
-0.9525
 74
    0
 49
0
 74
    0
 49
-0.9525
 74
    0
  0
LTYPE
  5
40
330
5
100
AcDbSymbolTableRecord
100
AcDbLinetypeTableRecord
  2
DIVIDE2
 70
    0
  3
Divide (.5x) __..__..__..__..__..__..__..__.._
 72
   65
 73
    6
 40
15.875
 49
6.35
 74
    0
 49
-3.175
 74
    0
 49
0
 74
    0
 49
-3.175
 74
    0
 49
0
 74
    0
 49
-3.175
 74
    0
  0
LTYPE
  5
41
330
5
100
AcDbSymbolTableRecord
100
AcDbLinetypeTableRecord
  2
DIVIDEX2
 70
    0
  3
Divide (2x) ________  .  .  ________  .  .  _
 72
   65
 73
    6
 40
63.5
 49
25.4
 74
    0
 49
-12.7
 74
    0
 49
0
 74
    0
 49
-12.7
 74
    0
 49
0
 74
    0
 49
-12.7
 74
    0
  0
LTYPE
  5
42
330
5
100
AcDbSymbolTableRecord
100
AcDbLinetypeTableRecord
  2
BORDER
 70
    0
  3
Border __ __ . __ __ . __ __ . __ __ . __ __ .
 72
   65
 73
    6
 40
44.45
 49
12.7
 74
    0
 49
-6.35
 74
    0
 49
12.7
 74
    0
 49
-6.35
 74
    0
 49
0
 74
    0
 49
-6.35
 74
    0
  0
LTYPE
  5
43
330
5
100
AcDbSymbolTableRecord
100
AcDbLinetypeTableRecord
  2
BORDERTINY
 70
    0
  3
Border (.15x) __.__.__.__.__.__.__.__.__.__.__.
 72
   65
 73
    6
 40
6.6675
 49
1.905
 74
    0
 49
-0.9525
 74
    0
 49
1.905
 74
    0
 49
-0.9525
 74
    0
 49
0
 74
    0
 49
-0.9525
 74
    0
  0
LTYPE
  5
44
330
5
100
AcDbSymbolTableRecord
100
AcDbLinetypeTableRecord
  2
BORDER2
 70
    0
  3
Border (.5x) __.__.__.__.__.__.__.__.__.__.__.
 72
   65
 73
    6
 40
22.225
 49
6.35
 74
    0
 49
-3.175
 74
    0
 49
6.35
 74
    0
 49
-3.175
 74
    0
 49
0
 74
    0
 49
-3.175
 74
    0
  0
LTYPE
  5
45
330
5
100
AcDbSymbolTableRecord
100
AcDbLinetypeTableRecord
  2
BORDERX2
 70
    0
  3
Border (2x) ____  ____  .  ____  ____  .  ___
 72
   65
 73
    6
 40
88.89999999999999
 49
25.4
 74
    0
 49
-12.7
 74
    0
 49
25.4
 74
    0
 49
-12.7
 74
    0
 49
0
 74
    0
 49
-12.7
 74
    0
  0
LTYPE
  5
46
330
5
100
AcDbSymbolTableRecord
100
AcDbLinetypeTableRecord
  2
CENTER
 70
    0
  3
Center ____ _ ____ _ ____ _ ____ _ ____ _ ____
 72
   65
 73
    4
 40
50.8
 49
31.75
 74
    0
 49
-6.35
 74
    0
 49
6.35
 74
    0
 49
-6.35
 74
    0
  0
LTYPE
  5
47
330
5
100
AcDbSymbolTableRecord
100
AcDbLinetypeTableRecord
  2
CENTERTINY
 70
    0
  3
Center (.15x) ___ _ ___ _ ___ _ ___ _ ___ _ ___
 72
   65
 73
    4
 40
7.619999999999999
 49
4.7625
 74
    0
 49
-0.9525
 74
    0
 49
0.9525
 74
    0
 49
-0.9525
 74
    0
  0
LTYPE
  5
48
330
5
100
AcDbSymbolTableRecord
100
AcDbLinetypeTableRecord
  2
CENTER2
 70
    0
  3
Center (.5x) ___ _ ___ _ ___ _ ___ _ ___ _ ___
 72
   65
 73
    4
 40
28.575
 49
19.05
 74
    0
 49
-3.175
 74
    0
 49
3.175
 74
    0
 49
-3.175
 74
    0
  0
LTYPE
  5
49
330
5
100
AcDbSymbolTableRecord
100
AcDbLinetypeTableRecord
  2
CENTERX2
 70
    0
  3
Center (2x) ________  __  ________  __  _____
 72
   65
 73
    4
 40
101.6
 49
63.5
 74
    0
 49
-12.7
 74
    0
 49
12.7
 74
    0
 49
-12.7
 74
    0
  0
ENDTAB
  0
TABLE
  2
LAYER
  5
2
330
0
100
AcDbSymbolTable
 70
    1
  0
LAYER
  5
10
330
2
100
AcDbSymbolTableRecord
100
AcDbLayerTableRecord
  2
0
 70
    0
 62
    7
  6
CONTINUOUS
370
    0
390
F
  0
LAYER
  5
4A
330
2
100
AcDbSymbolTableRecord
100
AcDbLayerTableRecord
  2
19
 70
    0
 62
   53
  6
CONTINUOUS
370
   -3
390
F
  0
LAYER
  5
4B
330
2
100
AcDbSymbolTableRecord
100
AcDbLayerTableRecord
  2
20
 70
    0
 62
   31
  6
CONTINUOUS
370
   -3
390
F
  0
LAYER
  5
4C
330
2
100
AcDbSymbolTableRecord
100
AcDbLayerTableRecord
  2
21
 70
    0
 62
  253
  6
CONTINUOUS
370
   -3
390
F
  0
LAYER
  5
4D
330
2
100
AcDbSymbolTableRecord
100
AcDbLayerTableRecord
  2
22
 70
    0
 62
  253
  6
CONTINUOUS
370
   -3
390
F
  0
ENDTAB
  0
TABLE
  2
STYLE
  5
3
330
0
100
AcDbSymbolTable
 70
    3
  0
STYLE
  5
4E
330
2
100
AcDbSymbolTableRecord
100
AcDbTextStyleTableRecord
  2
Standard
 70
    0
 40
0
 41
1
 50
0
 71
    0
 42
1
  3
txt
  4

  0
ENDTAB
  0
TABLE
  2
VIEW
  5
6
330
0
100
AcDbSymbolTable
 70
    0
  0
ENDTAB
  0
TABLE
  2
UCS
  5
7
330
0
100
AcDbSymbolTable
 70
    0
  0
ENDTAB
  0
TABLE
  2
APPID
  5
9
330
0
100
AcDbSymbolTable
 70
    1
  0
APPID
  5
12
330
9
100
AcDbSymbolTableRecord
100
AcDbRegAppTableRecord
  2
ACAD
 70
    0
  0
APPID
  5
4F
330
9
100
AcDbSymbolTableRecord
100
AcDbRegAppTableRecord
  2
LibreCad
 70
    0
  0
ENDTAB
  0
TABLE
  2
DIMSTYLE
  5
A
330
0
100
AcDbSymbolTable
 70
    1
100
AcDbDimStyleTable
 71
    1
  0
DIMSTYLE
105
50
330
A
100
AcDbSymbolTableRecord
100
AcDbDimStyleTableRecord
  2
Standard
 70
    0
 40
1
 41
2.5
 42
0.625
 43
0.38
 44
1.25
 45
0
 46
0
 47
0
 48
0
 49
1
140
2.5
141
0.09
142
2.5
143
25.4
144
1
145
0
146
1
147
0.625
148
0
 71
    0
 72
    0
 73
    0
 74
    1
 75
    0
 76
    0
 77
    0
 78
    1
 79
    0
170
    0
171
    2
172
    0
173
    0
174
    0
175
    0
176
    0
177
    0
178
    0
179
    0
271
    2
272
    4
273
    2
274
    2
275
    0
276
    0
277
    2
278
    0
279
    0
280
    0
281
    0
282
    0
283
    1
284
    0
285
    0
286
    0
288
    0
289
    3
340
standard
341

371
   -2
372
   -2
  0
ENDTAB
  0
TABLE
  2
BLOCK_RECORD
  5
1
330
0
100
AcDbSymbolTable
 70
    2
  0
BLOCK_RECORD
  5
1F
330
1
100
AcDbSymbolTableRecord
100
AcDbBlockTableRecord
  2
*Model_Space
 70
    0
280
    1
281
    0
  0
BLOCK_RECORD
  5
1E
330
1
100
AcDbSymbolTableRecord
100
AcDbBlockTableRecord
  2
*Paper_Space
 70
    0
280
    1
281
    0
  0
BLOCK_RECORD
  5
51
330
1
100
AcDbSymbolTableRecord
100
AcDbBlockTableRecord
  2
RECT
 70
    0
280
    1
281
    0
  0
BLOCK_RECORD
  5
54
330
1
100
AcDbSymbolTableRecord
100
AcDbBlockTableRecord
  2
PIE
 70
    0
280
    1
281
    0
  0
BLOCK_RECORD
  5
57
330
1
100
AcDbSymbolTableRecord
100
AcDbBlockTableRecord
  2
OCTAGONP
 70
    0
280
    1
281
    0
  0
BLOCK_RECORD
  5
5A
330
1
100
AcDbSymbolTableRecord
100
AcDbBlockTableRecord
  2
SQUAREP
 70
    0
280
    1
281
    0
  0
BLOCK_RECORD
  5
5D
330
1
100
AcDbSymbolTableRecord
100
AcDbBlockTableRecord
  2
ROUNDP
 70
    0
280
    1
281
    0
  0
BLOCK_RECORD
  5
60
330
1
100
AcDbSymbolTableRecord
100
AcDbBlockTableRecord
  2
ANNULUSP
 70
    0
280
    1
281
    0
  0
BLOCK_RECORD
  5
63
330
1
100
AcDbSymbolTableRecord
100
AcDbBlockTableRecord
  2
THERMALP
 70
    0
280
    1
281
    0
  0
BLOCK_RECORD
  5
66
330
1
100
AcDbSymbolTableRecord
100
AcDbBlockTableRecord
  2
OCTAGONV
 70
    0
280
    1
281
    0
  0
BLOCK_RECORD
  5
69
330
1
100
AcDbSymbolTableRecord
100
AcDbBlockTableRecord
  2
SQUAREV
 70
    0
280
    1
281
    0
  0
BLOCK_RECORD
  5
6C
330
1
100
AcDbSymbolTableRecord
100
AcDbBlockTableRecord
  2
ROUNDV
 70
    0
280
    1
281
    0
  0
BLOCK_RECORD
  5
6F
330
1
100
AcDbSymbolTableRecord
100
AcDbBlockTableRecord
  2
ANNULUSV
 70
    0
280
    1
281
    0
  0
BLOCK_RECORD
  5
72
330
1
100
AcDbSymbolTableRecord
100
AcDbBlockTableRecord
  2
THERMALV
 70
    0
280
    1
281
    0
  0
BLOCK_RECORD
  5
75
330
1
100
AcDbSymbolTableRecord
100
AcDbBlockTableRecord
  2
LONGP100
 70
    0
280
    1
281
    0
  0
BLOCK_RECORD
  5
78
330
1
100
AcDbSymbolTableRecord
100
AcDbBlockTableRecord
  2
OFFSETP100
 70
    0
280
    1
281
    0
  0
ENDTAB
  0
ENDSEC
  0
SECTION
  2
BLOCKS
  0
BLOCK
  5
20
330
1F
100
AcDbEntity
  8
0
100
AcDbBlockBegin
  2
*Model_Space
 70
    0
 10
0
 20
0
 30
0
  3
*Model_Space
  1

  0
ENDBLK
  5
21
330
1F
100
AcDbEntity
  8
0
100
AcDbBlockEnd
  0
BLOCK
  5
1C
330
1B
100
AcDbEntity
  8
0
100
AcDbBlockBegin
  2
*Paper_Space
 70
    0
 10
0
 20
0
 30
0
  3
*Paper_Space
  1

  0
ENDBLK
  5
1D
330
1F
100
AcDbEntity
  8
0
100
AcDbBlockEnd
  0
BLOCK
  5
52
330
51
100
AcDbEntity
  8
0
100
AcDbBlockBegin
  2
RECT
 70
    0
 10
0
 20
0
  3
RECT
  1

  0
SOLID
  5
7B
100
AcDbEntity
  8
0
  6
ByLayer
 62
  256
370
   -1
100
AcDbTrace
 10
-0.5
 20
-0.5
 30
0
 11
0.5
 21
-0.5
 31
0
 12
-0.5
 22
0.5
 32
0
 13
0.5
 23
0.5
 33
0
  0
ENDBLK
  5
53
330
51
100
AcDbEntity
  8
0
100
AcDbBlockEnd
  0
BLOCK
  5
55
330
54
100
AcDbEntity
  8
0
100
AcDbBlockBegin
  2
PIE
 70
    0
 10
0
 20
0
  3
PIE
  1

  0
CIRCLE
  5
7C
100
AcDbEntity
  8
0
  6
ByLayer
 62
  256
370
   -1
100
AcDbCircle
 10
0
 20
0
 40
0.5
  0
ENDBLK
  5
56
330
54
100
AcDbEntity
  8
0
100
AcDbBlockEnd
  0
BLOCK
  5
58
330
57
100
AcDbEntity
  8
0
100
AcDbBlockBegin
  2
OCTAGONP
 70
    0
 10
0
 20
0
  3
OCTAGONP
  1

  0
LWPOLYLINE
  5
7D
100
AcDbEntity
  8
0
  6
ByLayer
 62
  256
370
   -1
100
AcDbPolyline
 90
    8
 70
    1
 43
0
 10
-0.5
 20
-0.2071
 10
-0.5
 20
0.2071
 10
-0.2071
 20
0.5
 10
0.2071
 20
0.5
 10
0.5
 20
0.2071
 10
0.5
 20
-0.2071
 10
0.2071
 20
-0.5
 10
-0.2071
 20
-0.5
  0
ENDBLK
  5
59
330
57
100
AcDbEntity
  8
0
100
AcDbBlockEnd
  0
BLOCK
  5
5B
330
5A
100
AcDbEntity
  8
0
100
AcDbBlockBegin
  2
SQUAREP
 70
    0
 10
0
 20
0
  3
SQUAREP
  1

  0
SOLID
  5
7E
100
AcDbEntity
  8
0
  6
ByLayer
 62
  256
370
   -1
100
AcDbTrace
 10
-0.5
 20
-0.5
 30
0
 11
0.5
 21
-0.5
 31
0
 12
-0.5
 22
0.5
 32
0
 13
0.5
 23
0.5
 33
0
  0
ENDBLK
  5
5C
330
5A
100
AcDbEntity
  8
0
100
AcDbBlockEnd
  0
BLOCK
  5
5E
330
5D
100
AcDbEntity
  8
0
100
AcDbBlockBegin
  2
ROUNDP
 70
    0
 10
0
 20
0
  3
ROUNDP
  1

  0
CIRCLE
  5
7F
100
AcDbEntity
  8
0
  6
ByLayer
 62
  256
370
   -1
100
AcDbCircle
 10
0
 20
0
 40
0.5
  0
ENDBLK
  5
5F
330
5D
100
AcDbEntity
  8
0
100
AcDbBlockEnd
  0
BLOCK
  5
61
330
60
100
AcDbEntity
  8
0
100
AcDbBlockBegin
  2
ANNULUSP
 70
    0
 10
0
 20
0
  3
ANNULUSP
  1

  0
CIRCLE
  5
80
100
AcDbEntity
  8
0
  6
ByLayer
 62
  256
370
   -1
100
AcDbCircle
 10
0
 20
0
 40
0.5
  0
ENDBLK
  5
62
330
60
100
AcDbEntity
  8
0
100
AcDbBlockEnd
  0
BLOCK
  5
64
330
63
100
AcDbEntity
  8
0
100
AcDbBlockBegin
  2
THERMALP
 70
    0
 10
0
 20
0
  3
THERMALP
  1

  0
LWPOLYLINE
  5
81
100
AcDbEntity
  8
0
  6
ByLayer
 62
  256
370
   -1
100
AcDbPolyline
 90
    4
 70
    1
 43
0
 10
-0.2379
 20
0.4
 10
0.2379
 20
0.4
 42
0.9999999999999999
 10
0.2379
 20
0.5
 10
-0.2379
 20
0.5
 42
0.9999999999999999
  0
LWPOLYLINE
  5
82
100
AcDbEntity
  8
0
  6
ByLayer
 62
  256
370
   -1
100
AcDbPolyline
 90
    4
 70
    1
 43
0
 10
0.4
 20
0.2379
 10
0.4
 20
-0.2379
 42
0.9999999999999999
 10
0.5
 20
-0.2379
 10
0.5
 20
0.2379
 42
0.9999999999999999
  0
LWPOLYLINE
  5
83
100
AcDbEntity
  8
0
  6
ByLayer
 62
  256
370
   -1
100
AcDbPolyline
 90
    4
 70
    1
 43
0
 10
0.2379
 20
-0.4
 10
-0.2379
 20
-0.4
 42
0.9999999999999999
 10
-0.2379
 20
-0.5
 10
0.2379
 20
-0.5
 42
0.9999999999999999
  0
LWPOLYLINE
  5
84
100
AcDbEntity
  8
0
  6
ByLayer
 62
  256
370
   -1
100
AcDbPolyline
 90
    4
 70
    1
 43
0
 10
-0.4
 20
-0.2379
 10
-0.4
 20
0.2379
 42
0.9999999999999999
 10
-0.5
 20
0.2379
 10
-0.5
 20
-0.2379
 42
0.9999999999999999
  0
ENDBLK
  5
65
330
63
100
AcDbEntity
  8
0
100
AcDbBlockEnd
  0
BLOCK
  5
67
330
66
100
AcDbEntity
  8
0
100
AcDbBlockBegin
  2
OCTAGONV
 70
    0
 10
0
 20
0
  3
OCTAGONV
  1

  0
LWPOLYLINE
  5
85
100
AcDbEntity
  8
0
  6
ByLayer
 62
  256
370
   -1
100
AcDbPolyline
 90
    8
 70
    1
 43
0
 10
-0.5
 20
-0.2071
 10
-0.5
 20
0.2071
 10
-0.2071
 20
0.5
 10
0.2071
 20
0.5
 10
0.5
 20
0.2071
 10
0.5
 20
-0.2071
 10
0.2071
 20
-0.5
 10
-0.2071
 20
-0.5
  0
ENDBLK
  5
68
330
66
100
AcDbEntity
  8
0
100
AcDbBlockEnd
  0
BLOCK
  5
6A
330
69
100
AcDbEntity
  8
0
100
AcDbBlockBegin
  2
SQUAREV
 70
    0
 10
0
 20
0
  3
SQUAREV
  1

  0
SOLID
  5
86
100
AcDbEntity
  8
0
  6
ByLayer
 62
  256
370
   -1
100
AcDbTrace
 10
-0.5
 20
-0.5
 30
0
 11
0.5
 21
-0.5
 31
0
 12
-0.5
 22
0.5
 32
0
 13
0.5
 23
0.5
 33
0
  0
ENDBLK
  5
6B
330
69
100
AcDbEntity
  8
0
100
AcDbBlockEnd
  0
BLOCK
  5
6D
330
6C
100
AcDbEntity
  8
0
100
AcDbBlockBegin
  2
ROUNDV
 70
    0
 10
0
 20
0
  3
ROUNDV
  1

  0
CIRCLE
  5
87
100
AcDbEntity
  8
0
  6
ByLayer
 62
  256
370
   -1
100
AcDbCircle
 10
0
 20
0
 40
0.5
  0
ENDBLK
  5
6E
330
6C
100
AcDbEntity
  8
0
100
AcDbBlockEnd
  0
BLOCK
  5
70
330
6F
100
AcDbEntity
  8
0
100
AcDbBlockBegin
  2
ANNULUSV
 70
    0
 10
0
 20
0
  3
ANNULUSV
  1

  0
CIRCLE
  5
88
100
AcDbEntity
  8
0
  6
ByLayer
 62
  256
370
   -1
100
AcDbCircle
 10
0
 20
0
 40
0.5
  0
ENDBLK
  5
71
330
6F
100
AcDbEntity
  8
0
100
AcDbBlockEnd
  0
BLOCK
  5
73
330
72
100
AcDbEntity
  8
0
100
AcDbBlockBegin
  2
THERMALV
 70
    0
 10
0
 20
0
  3
THERMALV
  1

  0
LWPOLYLINE
  5
89
100
AcDbEntity
  8
0
  6
ByLayer
 62
  256
370
   -1
100
AcDbPolyline
 90
    4
 70
    1
 43
0
 10
-0.2379
 20
0.4
 10
0.2379
 20
0.4
 42
0.9999999999999999
 10
0.2379
 20
0.5
 10
-0.2379
 20
0.5
 42
0.9999999999999999
  0
LWPOLYLINE
  5
8A
100
AcDbEntity
  8
0
  6
ByLayer
 62
  256
370
   -1
100
AcDbPolyline
 90
    4
 70
    1
 43
0
 10
0.4
 20
0.2379
 10
0.4
 20
-0.2379
 42
0.9999999999999999
 10
0.5
 20
-0.2379
 10
0.5
 20
0.2379
 42
0.9999999999999999
  0
LWPOLYLINE
  5
8B
100
AcDbEntity
  8
0
  6
ByLayer
 62
  256
370
   -1
100
AcDbPolyline
 90
    4
 70
    1
 43
0
 10
0.2379
 20
-0.4
 10
-0.2379
 20
-0.4
 42
0.9999999999999999
 10
-0.2379
 20
-0.5
 10
0.2379
 20
-0.5
 42
0.9999999999999999
  0
LWPOLYLINE
  5
8C
100
AcDbEntity
  8
0
  6
ByLayer
 62
  256
370
   -1
100
AcDbPolyline
 90
    4
 70
    1
 43
0
 10
-0.4
 20
-0.2379
 10
-0.4
 20
0.2379
 42
0.9999999999999999
 10
-0.5
 20
0.2379
 10
-0.5
 20
-0.2379
 42
0.9999999999999999
  0
ENDBLK
  5
74
330
72
100
AcDbEntity
  8
0
100
AcDbBlockEnd
  0
BLOCK
  5
76
330
75
100
AcDbEntity
  8
0
100
AcDbBlockBegin
  2
LONGP100
 70
    0
 10
0
 20
0
  3
LONGP100
  1

  0
LWPOLYLINE
  5
8D
100
AcDbEntity
  8
0
  6
ByLayer
 62
  256
370
   -1
100
AcDbPolyline
 90
    4
 70
    1
 43
0
 10
-0.5
 20
-0.5
 10
0.4999999999999999
 20
-0.5
 42
0.9999999999999999
 10
0.5
 20
0.5
 10
-0.4999999999999999
 20
0.5
 42
0.9999999999999999
  0
ENDBLK
  5
77
330
75
100
AcDbEntity
  8
0
100
AcDbBlockEnd
  0
BLOCK
  5
79
330
78
100
AcDbEntity
  8
0
100
AcDbBlockBegin
  2
OFFSETP100
 70
    0
 10
0
 20
0
  3
OFFSETP100
  1

  0
LWPOLYLINE
  5
8E
100
AcDbEntity
  8
0
  6
ByLayer
 62
  256
370
   -1
100
AcDbPolyline
 90
    4
 70
    1
 43
0
 10
0
 20
-0.5
 10
0.9999999999999999
 20
-0.5
 42
0.9999999999999999
 10
1
 20
0.5
 10
3.061616997868383e-17
 20
0.5
 42
0.9999999999999999
  0
ENDBLK
  5
7A
330
78
100
AcDbEntity
  8
0
100
AcDbBlockEnd
  0
ENDSEC
  0
SECTION
  2
ENTITIES
  0
LWPOLYLINE
  5
8F
100
AcDbEntity
  8
0
  6
ByLayer
 62
  256
370
   -1
100
AcDbPolyline
 90
    4
 70
    1
 43
0
 10
9
 20
-0.0762
 10
30
 20
-0.0762
 42
0.9999999999999999
 10
30
 20
0.0762
 10
9
 20
0.0762
 42
0.9999999999999999
  0
LWPOLYLINE
  5
90
100
AcDbEntity
  8
0
  6
ByLayer
 62
  256
370
   -1
100
AcDbPolyline
 90
    4
 70
    1
 43
0
 10
50
 20
-0.0762
 10
51
 20
-0.0762
 42
0.9999999999999999
 10
51
 20
0.0762
 10
50
 20
0.0762
 42
0.9999999999999999
  0
LWPOLYLINE
  5
91
100
AcDbEntity
  8
0
  6
ByLayer
 62
  256
370
   -1
100
AcDbPolyline
 90
    4
 70
    1
 43
0
 10
51
 20
-0.0762
 10
71
 20
-0.0762
 42
0.9999999999999999
 10
71
 20
0.0762
 10
51
 20
0.0762
 42
0.9999999999999999
  0
LWPOLYLINE
  5
92
100
AcDbEntity
  8
0
  6
ByLayer
 62
  256
370
   -1
100
AcDbPolyline
 90
    4
 70
    1
 43
0
 10
8.9238
 20
9.331808609502837e-18
 42
0.9999999999999999
 10
9.076199999999998
 20
8.893981471441714e-16
 42
0.4142
 10
3
 20
6.0762
 42
1.000000000000003
 10
3
 20
5.9238
 42
-0.4142
  0
LWPOLYLINE
  5
93
100
AcDbEntity
  8
0
  6
ByLayer
 62
  256
370
   -1
100
AcDbPolyline
 90
    4
 70
    1
 43
0
 10
77
 20
5.9238
 42
0.9999999999999999
 10
77
 20
6.076199999999998
 42
0.4142000000000003
 10
70.9238
 20
7.542347760434056e-16
 42
0.9999999999999997
 10
71.0762
 20
1.149471143269132e-15
 42
-0.4141999999999999
  0
LWPOLYLINE
  5
94
100
AcDbEntity
  8
0
  6
ByLayer
 62
  256
370
   -1
100
AcDbPolyline
 90
    4
 70
    1
 43
0
 10
3
 20
68.0762
 42
0.9999999999999999
 10
2.999999999999997
 20
67.9238
 42
0.4142000000000006
 10
9.0762
 20
74
 42
0.9999999999999999
 10
8.9238
 20
74
 42
-0.4142
  0
LWPOLYLINE
  5
95
100
AcDbEntity
  8
0
  6
ByLayer
 62
  256
370
   -1
100
AcDbPolyline
 90
    4
 70
    1
 43
0
 10
71.0762
 20
74
 42
0.9999999999999999
 10
70.9238
 20
74
 42
0.4142000000000008
 10
77
 20
67.9238
 42
0.9999999999999999
 10
77
 20
68.0762
 42
-0.4141999999999998
  0
LWPOLYLINE
  5
96
100
AcDbEntity
  8
0
  6
ByLayer
 62
  256
370
   -1
100
AcDbPolyline
 90
    4
 70
    1
 43
0
 10
8.9238
 20
85
 10
8.9238
 20
74
 42
0.9999999999999999
 10
9.0762
 20
74
 10
9.0762
 20
85
 42
0.9999999999999999
  0
LWPOLYLINE
  5
97
100
AcDbEntity
  8
0
  6
ByLayer
 62
  256
370
   -1
100
AcDbPolyline
 90
    4
 70
    1
 43
0
 10
70.9238
 20
85
 10
70.9238
 20
74
 42
0.9999999999999999
 10
71.0762
 20
74
 10
71.0762
 20
85
 42
0.9999999999999999
  0
LWPOLYLINE
  5
98
100
AcDbEntity
  8
0
  6
ByLayer
 62
  256
370
   -1
100
AcDbPolyline
 90
    4
 70
    1
 43
0
 10
70.95959999999999
 20
84.9354
 42
1
 10
71.04039999999999
 20
85.06460000000001
 42
0.2866999999999999
 10
8.959600000000009
 20
85.06460000000001
 42
1.00000000000004
 10
9.040399999999998
 20
84.93539999999999
 42
-0.2867
  0
LWPOLYLINE
  5
99
100
AcDbEntity
  8
0
  6
ByLayer
 62
  256
370
   -1
100
AcDbPolyline
 90
    4
 70
    1
 43
0
 10
3
 20
68.0762
 10
4.665904304751419e-18
 20
68.0762
 42
0.9999999999999999
 10
-1.399771291425425e-17
 20
67.9238
 10
3
 20
67.9238
 42
0.9999999999999999
  0
LWPOLYLINE
  5
9A
100
AcDbEntity
  8
0
  6
ByLayer
 62
  256
370
   -1
100
AcDbPolyline
 90
    4
 70
    1
 43
0
 10
-0.0762
 20
68
 10
-0.0762
 20
6
 42
0.9999999999999999
 10
0.0762
 20
6
 10
0.0762
 20
68
 42
0.9999999999999999
  0
LWPOLYLINE
  5
9B
100
AcDbEntity
  8
0
  6
ByLayer
 62
  256
370
   -1
100
AcDbPolyline
 90
    4
 70
    1
 43
0
 10
0
 20
5.9238
 10
3
 20
5.9238
 42
0.9999999999999999
 10
3
 20
6.0762
 10
4.665904304751419e-18
 20
6.0762
 42
0.9999999999999999
  0
LWPOLYLINE
  5
9C
100
AcDbEntity
  8
0
  6
ByLayer
 62
  256
370
   -1
100
AcDbPolyline
 90
    4
 70
    1
 43
0
 10
77
 20
5.9238
 10
80
 20
5.9238
 42
0.9999999999999999
 10
80
 20
6.0762
 10
77
 20
6.0762
 42
0.9999999999999999
  0
LWPOLYLINE
  5
9D
100
AcDbEntity
  8
0
  6
ByLayer
 62
  256
370
   -1
100
AcDbPolyline
 90
    4
 70
    1
 43
0
 10
80.0762
 20
6
 10
80.0762
 20
68
 42
0.9999999999999999
 10
79.9238
 20
68
 10
79.9238
 20
6
 42
0.9999999999999999
  0
LWPOLYLINE
  5
9E
100
AcDbEntity
  8
0
  6
ByLayer
 62
  256
370
   -1
100
AcDbPolyline
 90
    4
 70
    1
 43
0
 10
80
 20
68.0762
 10
77
 20
68.0762
 42
0.9999999999999999
 10
77
 20
67.9238
 10
80
 20
67.9238
 42
0.9999999999999999
  0
LWPOLYLINE
  5
9F
100
AcDbEntity
  8
0
  6
ByLayer
 62
  256
370
   -1
100
AcDbPolyline
 90
    4
 70
    1
 43
0
 10
49.9238
 20
9.331808609502837e-18
 42
0.9999999999999999
 10
50.0762
 20
0
 42
0.9999999999999999
 10
29.9238
 20
1.235433872718277e-15
 42
0.9999999999999999
 10
30.0762
 20
1.209921453752389e-15
 42
-0.9999999999999999
  0
LWPOLYLINE
  5
A0
100
AcDbEntity
  8
0
  6
ByLayer
 62
  256
370
   -1
100
AcDbPolyline
 90
    4
 70
    1
 43
0
 10
64.8935
 20
80.7415
 42
1
 10
65.56649999999999
 20
81.8185
 42
0.2866999999999999
 10
15.36350000000001
 20
81.8185
 42
0.9999999999999999
 10
16.0365
 20
80.7415
 42
-0.2867
  0
LWPOLYLINE
  5
A1
100
AcDbEntity
  8
0
  6
ByLayer
 62
  256
370
   -1
100
AcDbPolyline
 90
    4
 70
    1
 43
0
 10
13.335
 20
20.32
 10
13.335
 20
45.72
 42
0.9999999999999999
 10
12.065
 20
45.72
 10
12.065
 20
20.32
 42
0.9999999999999999
  0
LWPOLYLINE
  5
A2
100
AcDbEntity
  8
0
  6
ByLayer
 62
  256
370
   -1
100
AcDbPolyline
 90
    4
 70
    1
 43
0
 10
15.288
 20
58.3438
 10
15.669
 20
58.3438
 42
0.9999999999999999
 10
15.669
 20
58.4962
 10
15.288
 20
58.4962
 42
0.9999999999999999
  0
LWPOLYLINE
  5
A3
100
AcDbEntity
  8
0
  6
ByLayer
 62
  256
370
   -1
100
AcDbPolyline
 90
    4
 70
    1
 43
0
 10
15.7452
 20
58.039
 10
15.7452
 20
58.42
 42
0.9999999999999999
 10
15.5928
 20
58.42
 10
15.5928
 20
58.039
 42
0.9999999999999999
  0
LWPOLYLINE
  5
A4
100
AcDbEntity
  8
0
  6
ByLayer
 62
  256
370
   -1
100
AcDbPolyline
 90
    4
 70
    1
 43
0
 10
15.669
 20
58.3438
 10
16.05
 20
58.3438
 42
0.9999999999999999
 10
16.05
 20
58.4962
 10
15.669
 20
58.4962
 42
0.9999999999999999
  0
LWPOLYLINE
  5
A5
100
AcDbEntity
  8
0
  6
ByLayer
 62
  256
370
   -1
100
AcDbPolyline
 90
    4
 70
    1
 43
0
 10
15.7452
 20
58.42
 10
15.7452
 20
58.801
 42
0.9999999999999999
 10
15.5928
 20
58.801
 10
15.5928
 20
58.42
 42
0.9999999999999999
  0
CIRCLE
  5
A6
100
AcDbEntity
  8
21
  6
ByLayer
 62
  256
370
   -1
100
AcDbCircle
 10
17.32
 20
57.15
 40
2.7178
  0
CIRCLE
  5
A7
100
AcDbEntity
  8
21
  6
ByLayer
 62
  256
370
   -1
100
AcDbCircle
 10
17.32
 20
57.15
 40
2.8702
  0
LWPOLYLINE
  5
A8
100
AcDbEntity
  8
0
  6
ByLayer
 62
  256
370
   -1
100
AcDbPolyline
 90
    4
 70
    1
 43
0
 10
28.908
 20
21.5138
 10
29.289
 20
21.5138
 42
0.9999999999999999
 10
29.289
 20
21.6662
 10
28.908
 20
21.6662
 42
0.9999999999999999
  0
LWPOLYLINE
  5
A9
100
AcDbEntity
  8
0
  6
ByLayer
 62
  256
370
   -1
100
AcDbPolyline
 90
    4
 70
    1
 43
0
 10
29.3652
 20
21.209
 10
29.3652
 20
21.59
 42
0.9999999999999999
 10
29.2128
 20
21.59
 10
29.2128
 20
21.209
 42
0.9999999999999999
  0
LWPOLYLINE
  5
AA
100
AcDbEntity
  8
0
  6
ByLayer
 62
  256
370
   -1
100
AcDbPolyline
 90
    4
 70
    1
 43
0
 10
29.289
 20
21.5138
 10
29.67
 20
21.5138
 42
0.9999999999999999
 10
29.67
 20
21.6662
 10
29.289
 20
21.6662
 42
0.9999999999999999
  0
LWPOLYLINE
  5
AB
100
AcDbEntity
  8
0
  6
ByLayer
 62
  256
370
   -1
100
AcDbPolyline
 90
    4
 70
    1
 43
0
 10
29.3652
 20
21.59
 10
29.3652
 20
21.971
 42
0.9999999999999999
 10
29.2128
 20
21.971
 10
29.2128
 20
21.59
 42
0.9999999999999999
  0
CIRCLE
  5
AC
100
AcDbEntity
  8
21
  6
ByLayer
 62
  256
370
   -1
100
AcDbCircle
 10
30.94
 20
20.32
 40
2.7178
  0
CIRCLE
  5
AD
100
AcDbEntity
  8
21
  6
ByLayer
 62
  256
370
   -1
100
AcDbCircle
 10
30.94
 20
20.32
 40
2.8702
  0
LWPOLYLINE
  5
AE
100
AcDbEntity
  8
0
  6
ByLayer
 62
  256
370
   -1
100
AcDbPolyline
 90
    4
 70
    1
 43
0
 10
49.911
 20
20.1168
 10
50.673
 20
20.1168
 42
0.9999999999999999
 10
50.673
 20
20.2692
 10
49.911
 20
20.2692
 42
0.9999999999999999
  0
LWPOLYLINE
  5
AF
100
AcDbEntity
  8
0
  6
ByLayer
 62
  256
370
   -1
100
AcDbPolyline
 90
    4
 70
    1
 43
0
 10
50.3682
 20
19.812
 10
50.3682
 20
20.574
 42
0.9999999999999999
 10
50.2158
 20
20.574
 10
50.2158
 20
19.812
 42
0.9999999999999999
  0
CIRCLE
  5
B0
100
AcDbEntity
  8
21
  6
ByLayer
 62
  256
370
   -1
100
AcDbCircle
 10
53.34
 20
19.05
 40
3.9878
  0
CIRCLE
  5
B1
100
AcDbEntity
  8
21
  6
ByLayer
 62
  256
370
   -1
100
AcDbCircle
 10
53.34
 20
19.05
 40
4.1402
  0
LWPOLYLINE
  5
B2
100
AcDbEntity
  8
0
  6
ByLayer
 62
  256
370
   -1
100
AcDbPolyline
 90
    4
 70
    1
 43
0
 10
64.3434
 20
84.51949999999999
 10
64.4704
 20
84.73950000000001
 42
0.9999999999999653
 10
64.2944
 20
84.8411
 10
64.1674
 20
84.6211
 42
0.9999999999999042
  0
LWPOLYLINE
  5
B3
100
AcDbEntity
  8
0
  6
ByLayer
 62
  256
370
   -1
100
AcDbPolyline
 90
    4
 70
    1
 43
0
 10
64.33159999999999
 20
84.70229999999999
 10
64.37560000000001
 20
84.6769
 42
0.9999999999999653
 10
64.4772
 20
84.85290000000001
 10
64.4332
 20
84.8783
 42
1.000000000000095
  0
LWPOLYLINE
  5
B4
100
AcDbEntity
  8
0
  6
ByLayer
 62
  256
370
   -1
100
AcDbPolyline
 90
    4
 70
    1
 43
0
 10
64.33839999999999
 20
84.81570000000001
 10
64.33589999999998
 20
84.8113
 42
0.9999999999999741
 10
64.51179999999998
 20
84.7097
 10
64.51439999999999
 20
84.7141
 42
1.000000000000096
  0
LWPOLYLINE
  5
B5
100
AcDbEntity
  8
0
  6
ByLayer
 62
  256
370
   -1
100
AcDbPolyline
 90
    4
 70
    1
 43
0
 10
64.373
 20
84.6725
 10
68.66030000000001
 20
82.1973
 42
0.9999999999999653
 10
68.7619
 20
82.3733
 10
64.4746
 20
84.8485
 42
1.000000000000035
  0
LWPOLYLINE
  5
B6
100
AcDbEntity
  8
0
  6
ByLayer
 62
  256
370
   -1
100
AcDbPolyline
 90
    4
 70
    1
 43
0
 10
68.62309999999999
 20
82.3361
 10
68.50749999999998
 20
82.13590000000001
 42
0.9999999999999741
 10
68.68349999999998
 20
82.0343
 10
68.79909999999998
 20
82.2345
 42
1.000000000000026
  0
LWPOLYLINE
  5
B7
100
AcDbEntity
  8
0
  6
ByLayer
 62
  256
370
   -1
100
AcDbPolyline
 90
    4
 70
    1
 43
0
 10
61.8092
 20
80.5772
 10
61.6733
 20
80.3419
 42
0.9999999999999999
 10
61.8493
 20
80.2403
 10
61.9852
 20
80.4756
 42
0.9999999999999395
  0
LWPOLYLINE
  5
B8
100
AcDbEntity
  8
0
  6
ByLayer
 62
  256
370
   -1
100
AcDbPolyline
 90
    4
 70
    1
 43
0
 10
61.7105
 20
80.20310000000001
 10
61.7545
 20
80.1777
 42
1.000000000000066
 10
61.8561
 20
80.3536
 10
61.81210000000001
 20
80.379
 42
1.000000000000005
  0
LWPOLYLINE
  5
B9
100
AcDbEntity
  8
0
  6
ByLayer
 62
  256
370
   -1
100
AcDbPolyline
 90
    4
 70
    1
 43
0
 10
61.7173
 20
80.3164
 10
61.716
 20
80.3142
 42
0.9999999999999393
 10
61.892
 20
80.2127
 10
61.8933
 20
80.2149
 42
0.9999999999999395
  0
LWPOLYLINE
  5
BA
100
AcDbEntity
  8
0
  6
ByLayer
 62
  256
370
   -1
100
AcDbPolyline
 90
    4
 70
    1
 43
0
 10
61.7532
 20
80.1755
 10
66.0558
 20
77.6914
 42
1.000000000000036
 10
66.1574
 20
77.8673
 10
61.8548
 20
80.3514
 42
1.000000000000005
  0
LWPOLYLINE
  5
BB
100
AcDbEntity
  8
0
  6
ByLayer
 62
  256
370
   -1
100
AcDbPolyline
 90
    4
 70
    1
 43
0
 10
66.19459999999999
 20
77.7285
 10
66.3077
 20
77.9243
 42
0.9999999999999653
 10
66.1317
 20
78.02589999999999
 10
66.01860000000001
 20
77.8301
 42
0.999999999999939
  0
LWPOLYLINE
  5
BC
100
AcDbEntity
  8
0
  6
ByLayer
 62
  256
370
   -1
100
AcDbPolyline
 90
    4
 70
    1
 43
0
 10
62.6738
 20
81.72929999999999
 10
63.5247
 20
83.20310000000001
 42
0.9999999999999999
 10
63.3487
 20
83.3047
 10
62.4978
 20
81.8309
 42
0.999999999999939
  0
LWPOLYLINE
  5
BD
100
AcDbEntity
  8
0
  6
ByLayer
 62
  256
370
   -1
100
AcDbPolyline
 90
    4
 70
    1
 43
0
 10
67.7735
 20
80.8087
 10
67.3417
 20
80.0608
 42
1.000000000000095
 10
67.5177
 20
79.9592
 10
67.9495
 20
80.7071
 42
1.000000000000096
  0
LWPOLYLINE
  5
BE
100
AcDbEntity
  8
0
  6
ByLayer
 62
  256
370
   -1
100
AcDbPolyline
 90
    4
 70
    1
 43
0
 10
67.3417
 20
80.0608
 10
66.90989999999998
 20
79.3129
 42
0.9999999999999741
 10
67.08589999999998
 20
79.21129999999999
 10
67.5177
 20
79.9592
 42
0.9999999999999049
  0
LWPOLYLINE
  5
BF
100
AcDbEntity
  8
0
  6
ByLayer
 62
  256
370
   -1
100
AcDbPolyline
 90
    4
 70
    1
 43
0
 10
67.4034
 20
80.10809999999999
 10
63.9337
 20
79.1784
 42
1.000000000000018
 10
63.9863
 20
78.98220000000001
 10
67.456
 20
79.9119
 42
0.9999999999999142
  0
CIRCLE
  5
C0
100
AcDbEntity
  8
21
  6
ByLayer
 62
  256
370
   -1
100
AcDbCircle
 10
66.27589999999999
 20
77.3766
 40
0.2032
  0
LWPOLYLINE
  5
C1
100
AcDbEntity
  8
0
  6
ByLayer
 62
  256
370
   -1
100
AcDbPolyline
 90
    4
 70
    1
 43
0
 10
52.1051
 20
89.2597
 10
52.1709
 20
89.505
 42
0.9999999999999235
 10
51.9746
 20
89.55759999999999
 10
51.9089
 20
89.31229999999999
 42
0.9999999999999235
  0
LWPOLYLINE
  5
C2
100
AcDbEntity
  8
0
  6
ByLayer
 62
  256
370
   -1
100
AcDbPolyline
 90
    4
 70
    1
 43
0
 10
52.0464
 20
89.4332
 10
52.0955
 20
89.42
 42
1.000000000000018
 10
52.1481
 20
89.6163
 10
52.099
 20
89.6294
 42
0.9999999999999999
  0
LWPOLYLINE
  5
C3
100
AcDbEntity
  8
0
  6
ByLayer
 62
  256
370
   -1
100
AcDbPolyline
 90
    4
 70
    1
 43
0
 10
52.0237
 20
89.5445
 10
52.0224
 20
89.5395
 42
0.9999999999999997
 10
52.2186
 20
89.48699999999999
 10
52.2199
 20
89.4919
 42
1.000000000000068
  0
LWPOLYLINE
  5
C4
100
AcDbEntity
  8
0
  6
ByLayer
 62
  256
370
   -1
100
AcDbPolyline
 90
    4
 70
    1
 43
0
 10
52.0942
 20
89.4151
 10
56.876
 20
88.13379999999999
 42
0.9999999999999661
 10
56.9286
 20
88.3301
 10
52.1468
 20
89.6114
 42
0.9999999999999999
  0
LWPOLYLINE
  5
C5
100
AcDbEntity
  8
0
  6
ByLayer
 62
  256
370
   -1
100
AcDbPolyline
 90
    4
 70
    1
 43
0
 10
56.8041
 20
88.25830000000001
 10
56.7443
 20
88.035
 42
0.9999999999999415
 10
56.9406
 20
87.9824
 10
57.0004
 20
88.20569999999999
 42
0.999999999999991
  0
LWPOLYLINE
  5
C6
100
AcDbEntity
  8
0
  6
ByLayer
 62
  256
370
   -1
100
AcDbPolyline
 90
    4
 70
    1
 43
0
 10
50.6776
 20
84.7958
 10
50.6073
 20
84.5333
 42
0.9999999999999415
 10
50.8036
 20
84.4807
 10
50.87390000000001
 20
84.7432
 42
0.9999999999999413
  0
LWPOLYLINE
  5
C7
100
AcDbEntity
  8
0
  6
ByLayer
 62
  256
370
   -1
100
AcDbPolyline
 90
    4
 70
    1
 43
0
 10
50.6791
 20
84.4088
 10
50.7282
 20
84.39570000000001
 42
0.9999999999999817
 10
50.7808
 20
84.592
 10
50.7317
 20
84.60509999999999
 42
0.9999999999999817
  0
LWPOLYLINE
  5
C8
100
AcDbEntity
  8
0
  6
ByLayer
 62
  256
370
   -1
100
AcDbPolyline
 90
    4
 70
    1
 43
0
 10
50.6564
 20
84.5201
 10
50.6557
 20
84.5176
 42
0.9999999999999319
 10
50.852
 20
84.46510000000001
 10
50.85269999999999
 20
84.4676
 42
1.000000000000059
  0
LWPOLYLINE
  5
C9
100
AcDbEntity
  8
0
  6
ByLayer
 62
  256
370
   -1
100
AcDbPolyline
 90
    4
 70
    1
 43
0
 10
50.7276
 20
84.39319999999999
 10
55.5265
 20
83.1074
 42
0.9999999999999999
 10
55.5791
 20
83.30370000000001
 10
50.7801
 20
84.5895
 42
0.9999999999999999
  0
LWPOLYLINE
  5
CA
100
AcDbEntity
  8
0
  6
ByLayer
 62
  256
370
   -1
100
AcDbPolyline
 90
    4
 70
    1
 43
0
 10
55.6509
 20
83.17919999999999
 10
55.7094
 20
83.3976
 42
1.000000000000068
 10
55.5132
 20
83.4502
 10
55.4547
 20
83.23180000000001
 42
0.999999999999991
  0
LWPOLYLINE
  5
CB
100
AcDbEntity
  8
0
  6
ByLayer
 62
  256
370
   -1
100
AcDbPolyline
 90
    4
 70
    1
 43
0
 10
51.2146
 20
86.1324
 10
51.6551
 20
87.7762
 42
1.000000000000076
 10
51.4588
 20
87.8288
 10
51.0183
 20
86.185
 42
0.9999999999999326
  0
LWPOLYLINE
  5
CC
100
AcDbEntity
  8
0
  6
ByLayer
 62
  256
370
   -1
100
AcDbPolyline
 90
    4
 70
    1
 43
0
 10
56.3788
 20
86.56310000000001
 10
56.1553
 20
85.7289
 42
1.000000000000059
 10
56.3516
 20
85.6763
 10
56.5751
 20
86.51049999999999
 42
1.000000000000009
  0
LWPOLYLINE
  5
CD
100
AcDbEntity
  8
0
  6
ByLayer
 62
  256
370
   -1
100
AcDbPolyline
 90
    4
 70
    1
 43
0
 10
56.1553
 20
85.7289
 10
55.9318
 20
84.8947
 42
0.9999999999999415
 10
56.1281
 20
84.8421
 10
56.3516
 20
85.6763
 42
0.9999999999999413
  0
LWPOLYLINE
  5
CE
100
AcDbEntity
  8
0
  6
ByLayer
 62
  256
370
   -1
100
AcDbPolyline
 90
    4
 70
    1
 43
0
 10
56.2027
 20
85.7906
 10
53.0918
 20
83.9945
 42
0.9999999999999344
 10
53.1934
 20
83.8186
 10
56.3042
 20
85.6146
 42
0.9999999999999653
  0
CIRCLE
  5
CF
100
AcDbEntity
  8
21
  6
ByLayer
 62
  256
370
   -1
100
AcDbCircle
 10
55.8206
 20
82.8603
 40
0.2032
  0
LWPOLYLINE
  5
D0
100
AcDbEntity
  8
0
  6
ByLayer
 62
  256
370
   -1
100
AcDbPolyline
 90
    4
 70
    1
 43
0
 10
37.4424
 20
91.26220000000001
 10
37.44240000000001
 20
91.5162
 42
0.9999999999999999
 10
37.2392
 20
91.5162
 10
37.2392
 20
91.26220000000001
 42
0.9999999999999999
  0
LWPOLYLINE
  5
D1
100
AcDbEntity
  8
0
  6
ByLayer
 62
  256
370
   -1
100
AcDbPolyline
 90
    4
 70
    1
 43
0
 10
37.3408
 20
91.41459999999999
 10
37.3916
 20
91.41459999999999
 42
0.9999999999999999
 10
37.3916
 20
91.6178
 10
37.3408
 20
91.6178
 42
0.9999999999999999
  0
LWPOLYLINE
  5
D2
100
AcDbEntity
  8
0
  6
ByLayer
 62
  256
370
   -1
100
AcDbPolyline
 90
    4
 70
    1
 43
0
 10
37.29
 20
91.5162
 10
37.28999999999999
 20
91.5111
 42
0.9999999999999999
 10
37.4932
 20
91.5111
 10
37.4932
 20
91.5162
 42
0.9999999999999999
  0
LWPOLYLINE
  5
D3
100
AcDbEntity
  8
0
  6
ByLayer
 62
  256
370
   -1
100
AcDbPolyline
 90
    4
 70
    1
 43
0
 10
37.3916
 20
91.40949999999999
 10
42.3421
 20
91.40949999999999
 42
0.9999999999999999
 10
42.3421
 20
91.6127
 10
37.3916
 20
91.6127
 42
0.9999999999999999
  0
LWPOLYLINE
  5
D4
100
AcDbEntity
  8
0
  6
ByLayer
 62
  256
370
   -1
100
AcDbPolyline
 90
    4
 70
    1
 43
0
 10
42.2405
 20
91.5111
 10
42.2405
 20
91.28
 42
0.9999999999999999
 10
42.44370000000001
 20
91.28
 10
42.44370000000001
 20
91.5111
 42
0.9999999999999999
  0
LWPOLYLINE
  5
D5
100
AcDbEntity
  8
0
  6
ByLayer
 62
  256
370
   -1
100
AcDbPolyline
 90
    4
 70
    1
 43
0
 10
37.2189
 20
86.581
 10
37.21889999999999
 20
86.3092
 42
0.9999999999999999
 10
37.4221
 20
86.3092
 10
37.4221
 20
86.581
 42
0.9999999999999999
  0
LWPOLYLINE
  5
D6
100
AcDbEntity
  8
0
  6
ByLayer
 62
  256
370
   -1
100
AcDbPolyline
 90
    4
 70
    1
 43
0
 10
37.3205
 20
86.2076
 10
37.3713
 20
86.20760000000001
 42
0.9999999999999999
 10
37.3713
 20
86.41079999999999
 10
37.3205
 20
86.41079999999999
 42
0.9999999999999999
  0
LWPOLYLINE
  5
D7
100
AcDbEntity
  8
0
  6
ByLayer
 62
  256
370
   -1
100
AcDbPolyline
 90
    4
 70
    1
 43
0
 10
37.2697
 20
86.3092
 10
37.2697
 20
86.30670000000001
 42
0.9999999999999999
 10
37.47290000000001
 20
86.30670000000001
 10
37.47290000000001
 20
86.3092
 42
0.9999999999999999
  0
LWPOLYLINE
  5
D8
100
AcDbEntity
  8
0
  6
ByLayer
 62
  256
370
   -1
100
AcDbPolyline
 90
    4
 70
    1
 43
0
 10
37.3713
 20
86.2051
 10
42.3395
 20
86.20510000000002
 42
0.9999999999999999
 10
42.3395
 20
86.4083
 10
37.3713
 20
86.4083
 42
0.9999999999999999
  0
LWPOLYLINE
  5
D9
100
AcDbEntity
  8
0
  6
ByLayer
 62
  256
370
   -1
100
AcDbPolyline
 90
    4
 70
    1
 43
0
 10
42.4411
 20
86.30670000000001
 10
42.4411
 20
86.53270000000001
 42
0.9999999999999999
 10
42.2379
 20
86.53270000000001
 10
42.2379
 20
86.30670000000001
 42
0.9999999999999999
  0
LWPOLYLINE
  5
DA
100
AcDbEntity
  8
0
  6
ByLayer
 62
  256
370
   -1
100
AcDbPolyline
 90
    4
 70
    1
 43
0
 10
37.3916
 20
88.011
 10
37.3916
 20
89.7128
 42
0.9999999999999999
 10
37.1884
 20
89.7128
 10
37.1884
 20
88.011
 42
0.9999999999999999
  0
LWPOLYLINE
  5
DB
100
AcDbEntity
  8
0
  6
ByLayer
 62
  256
370
   -1
100
AcDbPolyline
 90
    4
 70
    1
 43
0
 10
42.2684
 20
89.7636
 10
42.2684
 20
88.90000000000001
 42
0.9999999999999999
 10
42.47160000000001
 20
88.90000000000001
 10
42.47160000000001
 20
89.7636
 42
0.9999999999999999
  0
LWPOLYLINE
  5
DC
100
AcDbEntity
  8
0
  6
ByLayer
 62
  256
370
   -1
100
AcDbPolyline
 90
    4
 70
    1
 43
0
 10
42.2684
 20
88.90000000000001
 10
42.2684
 20
88.0364
 42
0.9999999999999999
 10
42.47160000000001
 20
88.0364
 10
42.47160000000001
 20
88.90000000000001
 42
0.9999999999999999
  0
LWPOLYLINE
  5
DD
100
AcDbEntity
  8
0
  6
ByLayer
 62
  256
370
   -1
100
AcDbPolyline
 90
    4
 70
    1
 43
0
 10
42.2982
 20
88.9718
 10
39.7582
 20
86.4318
 42
1.000000000000024
 10
39.9018
 20
86.2882
 10
42.4418
 20
88.8282
 42
1.000000000000074
  0
CIRCLE
  5
DE
100
AcDbEntity
  8
21
  6
ByLayer
 62
  256
370
   -1
100
AcDbCircle
 10
42.6875
 20
86.0425
 40
0.2032
  0
LWPOLYLINE
  5
DF
100
AcDbEntity
  8
0
  6
ByLayer
 62
  256
370
   -1
100
AcDbPolyline
 90
    4
 70
    1
 43
0
 10
24.2124
 20
88.02379999999999
 10
24.1466
 20
88.26909999999999
 42
0.9999999999999368
 10
23.95039999999999
 20
88.2165
 10
24.0161
 20
87.9712
 42
0.9999999999999279
  0
LWPOLYLINE
  5
E0
100
AcDbEntity
  8
0
  6
ByLayer
 62
  256
370
   -1
100
AcDbPolyline
 90
    4
 70
    1
 43
0
 10
24.0748
 20
88.1447
 10
24.1239
 20
88.15779999999999
 42
0.9999999999999999
 10
24.0713
 20
88.3541
 10
24.0222
 20
88.3409
 42
0.9999999999999999
  0
LWPOLYLINE
  5
E1
100
AcDbEntity
  8
0
  6
ByLayer
 62
  256
370
   -1
100
AcDbPolyline
 90
    4
 70
    1
 43
0
 10
23.9994
 20
88.22969999999999
 10
24.0007
 20
88.2247
 42
0.9999999999999324
 10
24.197
 20
88.2773
 10
24.1957
 20
88.2822
 42
1.000000000000005
  0
LWPOLYLINE
  5
E2
100
AcDbEntity
  8
0
  6
ByLayer
 62
  256
370
   -1
100
AcDbPolyline
 90
    4
 70
    1
 43
0
 10
24.1252
 20
88.1529
 10
28.9069
 20
89.4342
 42
1.000000000000018
 10
28.8544
 20
89.6305
 10
24.0726
 20
88.3492
 42
1.000000000000018
  0
LWPOLYLINE
  5
E3
100
AcDbEntity
  8
0
  6
ByLayer
 62
  256
370
   -1
100
AcDbPolyline
 90
    4
 70
    1
 43
0
 10
28.7825
 20
89.506
 10
28.8423
 20
89.28279999999999
 42
0.999999999999995
 10
29.0386
 20
89.3353
 10
28.9788
 20
89.5586
 42
0.9999999999999322
  0
LWPOLYLINE
  5
E4
100
AcDbEntity
  8
0
  6
ByLayer
 62
  256
370
   -1
100
AcDbPolyline
 90
    4
 70
    1
 43
0
 10
25.2081
 20
83.4442
 10
25.2784
 20
83.18170000000001
 42
1.000000000000072
 10
25.4747
 20
83.2343
 10
25.4043
 20
83.49679999999999
 42
0.9999999999999322
  0
LWPOLYLINE
  5
E5
100
AcDbEntity
  8
0
  6
ByLayer
 62
  256
370
   -1
100
AcDbPolyline
 90
    4
 70
    1
 43
0
 10
25.4028
 20
83.10980000000001
 10
25.4519
 20
83.123
 42
0.9999999999999817
 10
25.3993
 20
83.3193
 10
25.3502
 20
83.3061
 42
0.9999999999999817
  0
LWPOLYLINE
  5
E6
100
AcDbEntity
  8
0
  6
ByLayer
 62
  256
370
   -1
100
AcDbPolyline
 90
    4
 70
    1
 43
0
 10
25.3275
 20
83.1948
 10
25.3281
 20
83.1923
 42
1.000000000000068
 10
25.5244
 20
83.245
 10
25.5237
 20
83.2475
 42
0.9999999999999277
  0
LWPOLYLINE
  5
E7
100
AcDbEntity
  8
0
  6
ByLayer
 62
  256
370
   -1
100
AcDbPolyline
 90
    4
 70
    1
 43
0
 10
25.4526
 20
83.12050000000001
 10
30.2515
 20
84.4064
 42
0.9999999999999986
 10
30.1989
 20
84.6027
 10
25.4
 20
83.3168
 42
1.000000000000035
  0
LWPOLYLINE
  5
E8
100
AcDbEntity
  8
0
  6
ByLayer
 62
  256
370
   -1
100
AcDbPolyline
 90
    4
 70
    1
 43
0
 10
30.3234
 20
84.5308
 10
30.2648
 20
84.7492
 42
1.000000000000072
 10
30.0686
 20
84.6966
 10
30.1271
 20
84.4782
 42
0.9999999999999324
  0
LWPOLYLINE
  5
E9
100
AcDbEntity
  8
0
  6
ByLayer
 62
  256
370
   -1
100
AcDbPolyline
 90
    4
 70
    1
 43
0
 10
25.0048
 20
84.8702
 10
24.5643
 20
86.514
 42
0.9999999999999322
 10
24.36799999999999
 20
86.4614
 10
24.8085
 20
84.8176
 42
1.000000000000068
  0
LWPOLYLINE
  5
EA
100
AcDbEntity
  8
0
  6
ByLayer
 62
  256
370
   -1
100
AcDbPolyline
 90
    4
 70
    1
 43
0
 10
29.2618
 20
87.8253
 10
29.4853
 20
86.9911
 42
0.9999999999999324
 10
29.6816
 20
87.0437
 10
29.4581
 20
87.8779
 42
0.9999999999999322
  0
LWPOLYLINE
  5
EB
100
AcDbEntity
  8
0
  6
ByLayer
 62
  256
370
   -1
100
AcDbPolyline
 90
    4
 70
    1
 43
0
 10
29.4853
 20
86.9911
 10
29.7088
 20
86.15689999999999
 42
0.9999999999999999
 10
29.9051
 20
86.20950000000001
 10
29.6816
 20
87.0437
 42
1.000000000000067
  0
LWPOLYLINE
  5
EC
100
AcDbEntity
  8
0
  6
ByLayer
 62
  256
370
   -1
100
AcDbPolyline
 90
    4
 70
    1
 43
0
 10
29.4955
 20
87.0682
 10
27.6994
 20
83.9573
 42
1.000000000000069
 10
27.8754
 20
83.8557
 10
29.67139999999999
 20
86.9666
 42
1.00000000000006
  0
CIRCLE
  5
ED
100
AcDbEntity
  8
21
  6
ByLayer
 62
  256
370
   -1
100
AcDbCircle
 10
30.6297
 20
84.3394
 40
0.2032
  0
LWPOLYLINE
  5
EE
100
AcDbEntity
  8
0
  6
ByLayer
 62
  256
370
   -1
100
AcDbPolyline
 90
    4
 70
    1
 43
0
 10
12.4512
 20
82.1319
 10
12.3242
 20
82.3519
 42
0.9999999999999351
 10
12.1482
 20
82.2503
 10
12.2752
 20
82.0303
 42
1.000000000000057
  0
LWPOLYLINE
  5
EF
100
AcDbEntity
  8
0
  6
ByLayer
 62
  256
370
   -1
100
AcDbPolyline
 90
    4
 70
    1
 43
0
 10
12.287
 20
82.2131
 10
12.331
 20
82.2385
 42
1.000000000000043
 10
12.2294
 20
82.4145
 10
12.1854
 20
82.3891
 42
1.000000000000035
  0
LWPOLYLINE
  5
F0
100
AcDbEntity
  8
0
  6
ByLayer
 62
  256
370
   -1
100
AcDbPolyline
 90
    4
 70
    1
 43
0
 10
12.1922
 20
82.2757
 10
12.1947
 20
82.2713
 42
0.9999999999999351
 10
12.3707
 20
82.3729
 10
12.3682
 20
82.37730000000001
 42
1.000000000000056
  0
LWPOLYLINE
  5
F1
100
AcDbEntity
  8
0
  6
ByLayer
 62
  256
370
   -1
100
AcDbPolyline
 90
    4
 70
    1
 43
0
 10
12.3335
 20
82.2341
 10
16.6207
 20
84.7093
 42
1.000000000000035
 10
16.5191
 20
84.8853
 10
12.2319
 20
82.4101
 42
0.999999999999965
  0
LWPOLYLINE
  5
F2
100
AcDbEntity
  8
0
  6
ByLayer
 62
  256
370
   -1
100
AcDbPolyline
 90
    4
 70
    1
 43
0
 10
16.482
 20
84.7465
 10
16.5975
 20
84.54640000000001
 42
0.9999999999999915
 10
16.7735
 20
84.648
 10
16.6579
 20
84.8481
 42
1.000000000000069
  0
LWPOLYLINE
  5
F3
100
AcDbEntity
  8
0
  6
ByLayer
 62
  256
370
   -1
100
AcDbPolyline
 90
    4
 70
    1
 43
0
 10
14.5982
 20
77.9661
 10
14.7341
 20
77.7307
 42
1.000000000000057
 10
14.9101
 20
77.8323
 10
14.7742
 20
78.0677
 42
0.9999999999999433
  0
LWPOLYLINE
  5
F4
100
AcDbEntity
  8
0
  6
ByLayer
 62
  256
370
   -1
100
AcDbPolyline
 90
    4
 70
    1
 43
0
 10
14.8729
 20
77.6936
 10
14.9169
 20
77.71899999999999
 42
0.9999999999999919
 10
14.8153
 20
77.89490000000001
 10
14.7713
 20
77.8695
 42
0.9999999999999726
  0
LWPOLYLINE
  5
F5
100
AcDbEntity
  8
0
  6
ByLayer
 62
  256
370
   -1
100
AcDbPolyline
 90
    4
 70
    1
 43
0
 10
14.7781
 20
77.7561
 10
14.7794
 20
77.7539
 42
0.9999999999999999
 10
14.9553
 20
77.8556
 10
14.954
 20
77.8578
 42
0.9999999999999954
  0
LWPOLYLINE
  5
F6
100
AcDbEntity
  8
0
  6
ByLayer
 62
  256
370
   -1
100
AcDbPolyline
 90
    4
 70
    1
 43
0
 10
14.9182
 20
77.71680000000001
 10
19.2208
 20
80.2009
 42
0.9999999999999803
 10
19.1192
 20
80.3768
 10
14.8166
 20
77.8927
 42
0.999999999999965
  0
LWPOLYLINE
  5
F7
100
AcDbEntity
  8
0
  6
ByLayer
 62
  256
370
   -1
100
AcDbPolyline
 90
    4
 70
    1
 43
0
 10
19.258
 20
80.33969999999999
 10
19.1449
 20
80.5354
 42
0.9999999999999999
 10
18.969
 20
80.43380000000001
 10
19.082
 20
80.2381
 42
1.000000000000009
  0
LWPOLYLINE
  5
F8
100
AcDbEntity
  8
0
  6
ByLayer
 62
  256
370
   -1
100
AcDbPolyline
 90
    4
 70
    1
 43
0
 10
14.0328
 20
79.29089999999999
 10
13.1819
 20
80.7647
 42
0.9999999999999351
 10
13.0059
 20
80.6631
 10
13.8568
 20
79.1893
 42
1.000000000000004
  0
LWPOLYLINE
  5
F9
100
AcDbEntity
  8
0
  6
ByLayer
 62
  256
370
   -1
100
AcDbPolyline
 90
    4
 70
    1
 43
0
 10
17.3799
 20
83.2471
 10
17.8117
 20
82.4992
 42
0.9999999999999395
 10
17.9877
 20
82.60080000000001
 10
17.5559
 20
83.34869999999999
 42
0.9999999999999999
  0
LWPOLYLINE
  5
FA
100
AcDbEntity
  8
0
  6
ByLayer
 62
  256
370
   -1
100
AcDbPolyline
 90
    4
 70
    1
 43
0
 10
17.8117
 20
82.4992
 10
18.2435
 20
81.7513
 42
1.000000000000052
 10
18.4195
 20
81.85290000000001
 10
17.9877
 20
82.60080000000001
 42
1.00000000000006
  0
LWPOLYLINE
  5
FB
100
AcDbEntity
  8
0
  6
ByLayer
 62
  256
370
   -1
100
AcDbPolyline
 90
    4
 70
    1
 43
0
 10
17.8016
 20
82.5763
 10
16.8719
 20
79.1066
 42
1.000000000000072
 10
17.0681
 20
79.054
 10
17.9978
 20
82.52370000000001
 42
1.000000000000072
  0
CIRCLE
  5
FC
100
AcDbEntity
  8
21
  6
ByLayer
 62
  256
370
   -1
100
AcDbCircle
 10
19.6034
 20
80.2341
 40
0.2032
  0
CIRCLE
  5
FD
100
AcDbEntity
  8
21
  6
ByLayer
 62
  256
370
   -1
100
AcDbCircle
 10
75
 20
63
 40
3.3528
  0
CIRCLE
  5
FE
100
AcDbEntity
  8
21
  6
ByLayer
 62
  256
370
   -1
100
AcDbCircle
 10
75
 20
63
 40
3.5052
  0
CIRCLE
  5
FF
100
AcDbEntity
  8
21
  6
ByLayer
 62
  256
370
   -1
100
AcDbCircle
 10
75
 20
63
 40
1.4984
  0
CIRCLE
  5
100
100
AcDbEntity
  8
21
  6
ByLayer
 62
  256
370
   -1
100
AcDbCircle
 10
75
 20
63
 40
1.7016
  0
CIRCLE
  5
101
100
AcDbEntity
  8
21
  6
ByLayer
 62
  256
370
   -1
100
AcDbCircle
 10
5
 20
63
 40
3.3528
  0
CIRCLE
  5
102
100
AcDbEntity
  8
21
  6
ByLayer
 62
  256
370
   -1
100
AcDbCircle
 10
5
 20
63
 40
3.5052
  0
CIRCLE
  5
103
100
AcDbEntity
  8
21
  6
ByLayer
 62
  256
370
   -1
100
AcDbCircle
 10
5
 20
63
 40
1.4984
  0
CIRCLE
  5
104
100
AcDbEntity
  8
21
  6
ByLayer
 62
  256
370
   -1
100
AcDbCircle
 10
5
 20
63
 40
1.7016
  0
CIRCLE
  5
105
100
AcDbEntity
  8
21
  6
ByLayer
 62
  256
370
   -1
100
AcDbCircle
 10
75
 20
11
 40
3.3528
  0
CIRCLE
  5
106
100
AcDbEntity
  8
21
  6
ByLayer
 62
  256
370
   -1
100
AcDbCircle
 10
75
 20
11
 40
3.5052
  0
CIRCLE
  5
107
100
AcDbEntity
  8
21
  6
ByLayer
 62
  256
370
   -1
100
AcDbCircle
 10
75
 20
11
 40
1.4984
  0
CIRCLE
  5
108
100
AcDbEntity
  8
21
  6
ByLayer
 62
  256
370
   -1
100
AcDbCircle
 10
75
 20
11
 40
1.7016
  0
CIRCLE
  5
109
100
AcDbEntity
  8
21
  6
ByLayer
 62
  256
370
   -1
100
AcDbCircle
 10
5
 20
11
 40
3.3528
  0
CIRCLE
  5
10A
100
AcDbEntity
  8
21
  6
ByLayer
 62
  256
370
   -1
100
AcDbCircle
 10
5
 20
11
 40
3.5052
  0
CIRCLE
  5
10B
100
AcDbEntity
  8
21
  6
ByLayer
 62
  256
370
   -1
100
AcDbCircle
 10
5
 20
11
 40
1.4984
  0
CIRCLE
  5
10C
100
AcDbEntity
  8
21
  6
ByLayer
 62
  256
370
   -1
100
AcDbCircle
 10
5
 20
11
 40
1.7016
  0
LWPOLYLINE
  5
10D
100
AcDbEntity
  8
0
  6
ByLayer
 62
  256
370
   -1
100
AcDbPolyline
 90
    4
 70
    1
 43
0
 10
11.5062
 20
20.145
 10
11.5062
 20
21.415
 42
0.9999999999999999
 10
11.3538
 20
21.415
 10
11.3538
 20
20.145
 42
0.9999999999999999
  0
LWPOLYLINE
  5
10E
100
AcDbEntity
  8
0
  6
ByLayer
 62
  256
370
   -1
100
AcDbPolyline
 90
    4
 70
    1
 43
0
 10
11.4839
 20
21.3611
 10
12.1189
 20
21.9961
 42
0.9999999999999919
 10
12.0111
 20
22.1039
 10
11.3761
 20
21.4689
 42
1.000000000000017
  0
LWPOLYLINE
  5
10F
100
AcDbEntity
  8
0
  6
ByLayer
 62
  256
370
   -1
100
AcDbPolyline
 90
    4
 70
    1
 43
0
 10
12.065
 20
21.9738
 10
13.335
 20
21.9738
 42
0.9999999999999999
 10
13.335
 20
22.1262
 10
12.065
 20
22.1262
 42
0.9999999999999999
  0
LWPOLYLINE
  5
110
100
AcDbEntity
  8
0
  6
ByLayer
 62
  256
370
   -1
100
AcDbPolyline
 90
    4
 70
    1
 43
0
 10
13.2811
 20
21.9961
 10
13.9161
 20
21.3611
 42
1.000000000000008
 10
14.0239
 20
21.4689
 10
13.3889
 20
22.1039
 42
0.999999999999975
  0
LWPOLYLINE
  5
111
100
AcDbEntity
  8
0
  6
ByLayer
 62
  256
370
   -1
100
AcDbPolyline
 90
    4
 70
    1
 43
0
 10
12.065
 20
19.4338
 10
13.335
 20
19.4338
 42
0.9999999999999999
 10
13.335
 20
19.5862
 10
12.065
 20
19.5862
 42
0.9999999999999999
  0
LWPOLYLINE
  5
112
100
AcDbEntity
  8
0
  6
ByLayer
 62
  256
370
   -1
100
AcDbPolyline
 90
    4
 70
    1
 43
0
 10
11.3761
 20
20.0911
 10
12.0111
 20
19.4561
 42
1.000000000000025
 10
12.1189
 20
19.5639
 10
11.4839
 20
20.1989
 42
0.9999999999999997
  0
LWPOLYLINE
  5
113
100
AcDbEntity
  8
0
  6
ByLayer
 62
  256
370
   -1
100
AcDbPolyline
 90
    4
 70
    1
 43
0
 10
13.3889
 20
19.4561
 10
14.0239
 20
20.0911
 42
0.9999999999999915
 10
13.9161
 20
20.1989
 10
13.2811
 20
19.5639
 42
1.000000000000008
  0
LWPOLYLINE
  5
114
100
AcDbEntity
  8
0
  6
ByLayer
 62
  256
370
   -1
100
AcDbPolyline
 90
    4
 70
    1
 43
0
 10
13.8938
 20
21.415
 10
13.8938
 20
20.145
 42
0.9999999999999999
 10
14.0462
 20
20.145
 10
14.0462
 20
21.415
 42
0.9999999999999999
  0
LWPOLYLINE
  5
115
100
AcDbEntity
  8
0
  6
ByLayer
 62
  256
370
   -1
100
AcDbPolyline
 90
    4
 70
    1
 43
0
 10
12.1189
 20
22.1039
 10
11.4839
 20
22.7389
 42
1.000000000000017
 10
11.3761
 20
22.6311
 10
12.0111
 20
21.9961
 42
1.000000000000025
  0
LWPOLYLINE
  5
116
100
AcDbEntity
  8
0
  6
ByLayer
 62
  256
370
   -1
100
AcDbPolyline
 90
    4
 70
    1
 43
0
 10
11.5062
 20
22.685
 10
11.5062
 20
23.955
 42
0.9999999999999999
 10
11.3538
 20
23.955
 10
11.3538
 20
22.685
 42
0.9999999999999999
  0
LWPOLYLINE
  5
117
100
AcDbEntity
  8
0
  6
ByLayer
 62
  256
370
   -1
100
AcDbPolyline
 90
    4
 70
    1
 43
0
 10
11.4839
 20
23.9011
 10
12.1189
 20
24.5361
 42
1.000000000000008
 10
12.0111
 20
24.6439
 10
11.3761
 20
24.0089
 42
1.000000000000017
  0
LWPOLYLINE
  5
118
100
AcDbEntity
  8
0
  6
ByLayer
 62
  256
370
   -1
100
AcDbPolyline
 90
    4
 70
    1
 43
0
 10
12.065
 20
24.5138
 10
13.335
 20
24.5138
 42
0.9999999999999999
 10
13.335
 20
24.6662
 10
12.065
 20
24.6662
 42
0.9999999999999999
  0
LWPOLYLINE
  5
119
100
AcDbEntity
  8
0
  6
ByLayer
 62
  256
370
   -1
100
AcDbPolyline
 90
    4
 70
    1
 43
0
 10
13.2811
 20
24.5361
 10
13.9161
 20
23.9011
 42
1.000000000000008
 10
14.0239
 20
24.0089
 10
13.3889
 20
24.6439
 42
0.9999999999999915
  0
LWPOLYLINE
  5
11A
100
AcDbEntity
  8
0
  6
ByLayer
 62
  256
370
   -1
100
AcDbPolyline
 90
    4
 70
    1
 43
0
 10
13.8938
 20
23.955
 10
13.8938
 20
22.685
 42
0.9999999999999999
 10
14.0462
 20
22.685
 10
14.0462
 20
23.955
 42
0.9999999999999999
  0
LWPOLYLINE
  5
11B
100
AcDbEntity
  8
0
  6
ByLayer
 62
  256
370
   -1
100
AcDbPolyline
 90
    4
 70
    1
 43
0
 10
13.9161
 20
22.7389
 10
13.2811
 20
22.1039
 42
1.000000000000008
 10
13.3889
 20
21.9961
 10
14.0239
 20
22.6311
 42
1.000000000000008
  0
LWPOLYLINE
  5
11C
100
AcDbEntity
  8
0
  6
ByLayer
 62
  256
370
   -1
100
AcDbPolyline
 90
    4
 70
    1
 43
0
 10
11.5062
 20
41.735
 10
11.5062
 20
43.005
 42
0.9999999999999999
 10
11.3538
 20
43.005
 10
11.3538
 20
41.735
 42
0.9999999999999999
  0
LWPOLYLINE
  5
11D
100
AcDbEntity
  8
0
  6
ByLayer
 62
  256
370
   -1
100
AcDbPolyline
 90
    4
 70
    1
 43
0
 10
11.4839
 20
42.9511
 10
12.1189
 20
43.5861
 42
1.000000000000008
 10
12.0111
 20
43.6939
 10
11.3761
 20
43.0589
 42
1.000000000000033
  0
LWPOLYLINE
  5
11E
100
AcDbEntity
  8
0
  6
ByLayer
 62
  256
370
   -1
100
AcDbPolyline
 90
    4
 70
    1
 43
0
 10
12.065
 20
43.5638
 10
13.335
 20
43.5638
 42
0.9999999999999999
 10
13.335
 20
43.7162
 10
12.065
 20
43.7162
 42
0.9999999999999999
  0
LWPOLYLINE
  5
11F
100
AcDbEntity
  8
0
  6
ByLayer
 62
  256
370
   -1
100
AcDbPolyline
 90
    4
 70
    1
 43
0
 10
13.2811
 20
43.5861
 10
13.9161
 20
42.9511
 42
1.000000000000025
 10
14.0239
 20
43.0589
 10
13.3889
 20
43.6939
 42
0.9999999999999915
  0
LWPOLYLINE
  5
120
100
AcDbEntity
  8
0
  6
ByLayer
 62
  256
370
   -1
100
AcDbPolyline
 90
    4
 70
    1
 43
0
 10
12.065
 20
41.0238
 10
13.335
 20
41.0238
 42
0.9999999999999999
 10
13.335
 20
41.1762
 10
12.065
 20
41.1762
 42
0.9999999999999999
  0
LWPOLYLINE
  5
121
100
AcDbEntity
  8
0
  6
ByLayer
 62
  256
370
   -1
100
AcDbPolyline
 90
    4
 70
    1
 43
0
 10
11.3761
 20
41.6811
 10
12.0111
 20
41.0461
 42
1.000000000000008
 10
12.1189
 20
41.1539
 10
11.4839
 20
41.7889
 42
0.9999999999999997
  0
LWPOLYLINE
  5
122
100
AcDbEntity
  8
0
  6
ByLayer
 62
  256
370
   -1
100
AcDbPolyline
 90
    4
 70
    1
 43
0
 10
13.3889
 20
41.0461
 10
14.0239
 20
41.6811
 42
0.9999999999999915
 10
13.9161
 20
41.7889
 10
13.2811
 20
41.1539
 42
0.9999999999999917
  0
LWPOLYLINE
  5
123
100
AcDbEntity
  8
0
  6
ByLayer
 62
  256
370
   -1
100
AcDbPolyline
 90
    4
 70
    1
 43
0
 10
13.8938
 20
43.005
 10
13.8938
 20
41.735
 42
0.9999999999999999
 10
14.0462
 20
41.735
 10
14.0462
 20
43.005
 42
0.9999999999999999
  0
LWPOLYLINE
  5
124
100
AcDbEntity
  8
0
  6
ByLayer
 62
  256
370
   -1
100
AcDbPolyline
 90
    4
 70
    1
 43
0
 10
12.1189
 20
43.6939
 10
11.4839
 20
44.3289
 42
0.9999999999999997
 10
11.3761
 20
44.2211
 10
12.0111
 20
43.5861
 42
1.000000000000008
  0
LWPOLYLINE
  5
125
100
AcDbEntity
  8
0
  6
ByLayer
 62
  256
370
   -1
100
AcDbPolyline
 90
    4
 70
    1
 43
0
 10
11.5062
 20
44.275
 10
11.5062
 20
45.545
 42
0.9999999999999999
 10
11.3538
 20
45.545
 10
11.3538
 20
44.275
 42
0.9999999999999999
  0
LWPOLYLINE
  5
126
100
AcDbEntity
  8
0
  6
ByLayer
 62
  256
370
   -1
100
AcDbPolyline
 90
    4
 70
    1
 43
0
 10
11.4839
 20
45.4911
 10
12.1189
 20
46.1261
 42
1.000000000000008
 10
12.0111
 20
46.2339
 10
11.3761
 20
45.5989
 42
1
  0
LWPOLYLINE
  5
127
100
AcDbEntity
  8
0
  6
ByLayer
 62
  256
370
   -1
100
AcDbPolyline
 90
    4
 70
    1
 43
0
 10
12.065
 20
46.1038
 10
13.335
 20
46.1038
 42
0.9999999999999999
 10
13.335
 20
46.2562
 10
12.065
 20
46.2562
 42
0.9999999999999999
  0
LWPOLYLINE
  5
128
100
AcDbEntity
  8
0
  6
ByLayer
 62
  256
370
   -1
100
AcDbPolyline
 90
    4
 70
    1
 43
0
 10
13.2811
 20
46.1261
 10
13.9161
 20
45.4911
 42
0.9999999999999919
 10
14.0239
 20
45.5989
 10
13.3889
 20
46.2339
 42
0.9999999999999915
  0
LWPOLYLINE
  5
129
100
AcDbEntity
  8
0
  6
ByLayer
 62
  256
370
   -1
100
AcDbPolyline
 90
    4
 70
    1
 43
0
 10
13.8938
 20
45.545
 10
13.8938
 20
44.275
 42
0.9999999999999999
 10
14.0462
 20
44.275
 10
14.0462
 20
45.545
 42
0.9999999999999999
  0
LWPOLYLINE
  5
12A
100
AcDbEntity
  8
0
  6
ByLayer
 62
  256
370
   -1
100
AcDbPolyline
 90
    4
 70
    1
 43
0
 10
13.9161
 20
44.3289
 10
13.2811
 20
43.6939
 42
0.9999999999999917
 10
13.3889
 20
43.5861
 10
14.0239
 20
44.2211
 42
0.9999999999999915
  0
LWPOLYLINE
  5
12B
100
AcDbEntity
  8
0
  6
ByLayer
 62
  256
370
   -1
100
AcDbPolyline
 90
    4
 70
    1
 43
0
 10
62.9038
 20
13.683
 10
62.9038
 20
10.635
 42
0.9999999999999999
 10
63.0562
 20
10.635
 10
63.0562
 20
13.683
 42
0.9999999999999999
  0
LWPOLYLINE
  5
12C
100
AcDbEntity
  8
0
  6
ByLayer
 62
  256
370
   -1
100
AcDbPolyline
 90
    4
 70
    1
 43
0
 10
62.98
 20
13.7592
 10
52.82
 20
13.7592
 42
0.9999999999999999
 10
52.82
 20
13.6068
 10
62.98
 20
13.6068
 42
0.9999999999999999
  0
LWPOLYLINE
  5
12D
100
AcDbEntity
  8
0
  6
ByLayer
 62
  256
370
   -1
100
AcDbPolyline
 90
    4
 70
    1
 43
0
 10
62.98
 20
13.6068
 10
63.488
 20
13.6068
 42
0.9999999999999999
 10
63.488
 20
13.7592
 10
62.98
 20
13.7592
 42
0.9999999999999999
  0
LWPOLYLINE
  5
12E
100
AcDbEntity
  8
0
  6
ByLayer
 62
  256
370
   -1
100
AcDbPolyline
 90
    4
 70
    1
 43
0
 10
63.4118
 20
13.683
 10
63.4118
 20
8.856999999999999
 42
0.9999999999999999
 10
63.5642
 20
8.856999999999999
 10
63.5642
 20
13.683
 42
0.9999999999999999
  0
LWPOLYLINE
  5
12F
100
AcDbEntity
  8
0
  6
ByLayer
 62
  256
370
   -1
100
AcDbPolyline
 90
    4
 70
    1
 43
0
 10
63.5221
 20
8.9252
 10
63.0141
 20
9.179200000000002
 42
0.9999999999999635
 10
62.9459
 20
9.042800000000002
 10
63.4539
 20
8.7888
 42
1.000000000000005
  0
LWPOLYLINE
  5
130
100
AcDbEntity
  8
0
  6
ByLayer
 62
  256
370
   -1
100
AcDbPolyline
 90
    4
 70
    1
 43
0
 10
63.5221
 20
2.0672
 10
63.0141
 20
2.321200000000001
 42
0.9999999999999584
 10
62.9459
 20
2.184800000000001
 10
63.4539
 20
1.9308
 42
0.9999999999999999
  0
LWPOLYLINE
  5
131
100
AcDbEntity
  8
0
  6
ByLayer
 62
  256
370
   -1
100
AcDbPolyline
 90
    4
 70
    1
 43
0
 10
62.9038
 20
2.253
 10
62.9038
 20
1.237
 42
0.9999999999999999
 10
63.0562
 20
1.237
 10
63.0562
 20
2.253
 42
0.9999999999999999
  0
LWPOLYLINE
  5
132
100
AcDbEntity
  8
0
  6
ByLayer
 62
  256
370
   -1
100
AcDbPolyline
 90
    4
 70
    1
 43
0
 10
63.4539
 20
3.7182
 10
62.9459
 20
3.464199999999999
 42
0.9999999999999579
 10
63.0141
 20
3.327799999999999
 10
63.5221
 20
3.5818
 42
0.9999999999999999
  0
LWPOLYLINE
  5
133
100
AcDbEntity
  8
0
  6
ByLayer
 62
  256
370
   -1
100
AcDbPolyline
 90
    4
 70
    1
 43
0
 10
62.9038
 20
3.396
 10
62.9038
 20
2.253
 42
0.9999999999999999
 10
63.0562
 20
2.253
 10
63.0562
 20
3.396
 42
0.9999999999999999
  0
LWPOLYLINE
  5
134
100
AcDbEntity
  8
0
  6
ByLayer
 62
  256
370
   -1
100
AcDbPolyline
 90
    4
 70
    1
 43
0
 10
63.4118
 20
3.65
 10
63.4118
 20
1.999
 42
0.9999999999999999
 10
63.5642
 20
1.999
 10
63.5642
 20
3.65
 42
0.9999999999999999
  0
LWPOLYLINE
  5
135
100
AcDbEntity
  8
0
  6
ByLayer
 62
  256
370
   -1
100
AcDbPolyline
 90
    4
 70
    1
 43
0
 10
58.4334
 20
1.237
 10
58.4334
 20
3.142
 42
0.9999999999999999
 10
58.281
 20
3.142
 10
58.281
 20
1.237
 42
0.9999999999999999
  0
LWPOLYLINE
  5
136
100
AcDbEntity
  8
0
  6
ByLayer
 62
  256
370
   -1
100
AcDbPolyline
 90
    4
 70
    1
 43
0
 10
62.345
 20
7.714
 10
62.345
 20
3.142
 42
0.9999999999999999
 10
62.4974
 20
3.142
 10
62.4974
 20
7.714
 42
0.9999999999999999
  0
LWPOLYLINE
  5
137
100
AcDbEntity
  8
0
  6
ByLayer
 62
  256
370
   -1
100
AcDbPolyline
 90
    4
 70
    1
 43
0
 10
58.3572
 20
1.1608
 10
62.4212
 20
1.1608
 42
0.9999999999999999
 10
62.4212
 20
1.3132
 10
58.3572
 20
1.3132
 42
0.9999999999999999
  0
LWPOLYLINE
  5
138
100
AcDbEntity
  8
0
  6
ByLayer
 62
  256
370
   -1
100
AcDbPolyline
 90
    4
 70
    1
 43
0
 10
62.4212
 20
1.1608
 10
62.98
 20
1.1608
 42
0.9999999999999999
 10
62.98
 20
1.3132
 10
62.4212
 20
1.3132
 42
0.9999999999999999
  0
LWPOLYLINE
  5
139
100
AcDbEntity
  8
0
  6
ByLayer
 62
  256
370
   -1
100
AcDbPolyline
 90
    4
 70
    1
 43
0
 10
57.4936
 20
1.237
 10
57.4936
 20
3.142
 42
0.9999999999999999
 10
57.3412
 20
3.142
 10
57.3412
 20
1.237
 42
0.9999999999999999
  0
LWPOLYLINE
  5
13A
100
AcDbEntity
  8
0
  6
ByLayer
 62
  256
370
   -1
100
AcDbPolyline
 90
    4
 70
    1
 43
0
 10
57.4174
 20
1.1608
 10
58.3572
 20
1.1608
 42
0.9999999999999999
 10
58.3572
 20
1.3132
 10
57.4174
 20
1.3132
 42
0.9999999999999999
  0
LWPOLYLINE
  5
13B
100
AcDbEntity
  8
0
  6
ByLayer
 62
  256
370
   -1
100
AcDbPolyline
 90
    4
 70
    1
 43
0
 10
53.2772
 20
7.714
 10
53.2772
 20
3.142
 42
0.9999999999999999
 10
53.4296
 20
3.142
 10
53.4296
 20
7.714
 42
0.9999999999999999
  0
LWPOLYLINE
  5
13C
100
AcDbEntity
  8
0
  6
ByLayer
 62
  256
370
   -1
100
AcDbPolyline
 90
    4
 70
    1
 43
0
 10
52.82
 20
1.1608
 10
53.3534
 20
1.1608
 42
0.9999999999999999
 10
53.3534
 20
1.3132
 10
52.82
 20
1.3132
 42
0.9999999999999999
  0
LWPOLYLINE
  5
13D
100
AcDbEntity
  8
0
  6
ByLayer
 62
  256
370
   -1
100
AcDbPolyline
 90
    4
 70
    1
 43
0
 10
53.3534
 20
1.1608
 10
57.4174
 20
1.1608
 42
0.9999999999999999
 10
57.4174
 20
1.3132
 10
53.3534
 20
1.3132
 42
0.9999999999999999
  0
LWPOLYLINE
  5
13E
100
AcDbEntity
  8
0
  6
ByLayer
 62
  256
370
   -1
100
AcDbPolyline
 90
    4
 70
    1
 43
0
 10
58.3572
 20
3.0658
 10
62.4212
 20
3.0658
 42
0.9999999999999999
 10
62.4212
 20
3.2182
 10
58.3572
 20
3.2182
 42
0.9999999999999999
  0
LWPOLYLINE
  5
13F
100
AcDbEntity
  8
0
  6
ByLayer
 62
  256
370
   -1
100
AcDbPolyline
 90
    4
 70
    1
 43
0
 10
58.4334
 20
3.142
 10
58.4334
 20
7.714
 42
0.9999999999999999
 10
58.281
 20
7.714
 10
58.281
 20
3.142
 42
0.9999999999999999
  0
LWPOLYLINE
  5
140
100
AcDbEntity
  8
0
  6
ByLayer
 62
  256
370
   -1
100
AcDbPolyline
 90
    4
 70
    1
 43
0
 10
62.345
 20
3.142
 10
62.345
 20
1.237
 42
0.9999999999999999
 10
62.4974
 20
1.237
 10
62.4974
 20
3.142
 42
0.9999999999999999
  0
LWPOLYLINE
  5
141
100
AcDbEntity
  8
0
  6
ByLayer
 62
  256
370
   -1
100
AcDbPolyline
 90
    4
 70
    1
 43
0
 10
57.4174
 20
3.2182
 10
53.3534
 20
3.2182
 42
0.9999999999999999
 10
53.3534
 20
3.0658
 10
57.4174
 20
3.0658
 42
0.9999999999999999
  0
LWPOLYLINE
  5
142
100
AcDbEntity
  8
0
  6
ByLayer
 62
  256
370
   -1
100
AcDbPolyline
 90
    4
 70
    1
 43
0
 10
57.4936
 20
3.142
 10
57.4936
 20
7.714
 42
0.9999999999999999
 10
57.3412
 20
7.714
 10
57.3412
 20
3.142
 42
0.9999999999999999
  0
LWPOLYLINE
  5
143
100
AcDbEntity
  8
0
  6
ByLayer
 62
  256
370
   -1
100
AcDbPolyline
 90
    4
 70
    1
 43
0
 10
53.2772
 20
3.142
 10
53.2772
 20
1.237
 42
0.9999999999999999
 10
53.4296
 20
1.237
 10
53.4296
 20
3.142
 42
0.9999999999999999
  0
LWPOLYLINE
  5
144
100
AcDbEntity
  8
0
  6
ByLayer
 62
  256
370
   -1
100
AcDbPolyline
 90
    4
 70
    1
 43
0
 10
62.1164
 20
3.777
 10
62.1164
 20
6.952
 42
0.9999999999999999
 10
61.964
 20
6.952
 10
61.964
 20
3.777
 42
0.9999999999999999
  0
LWPOLYLINE
  5
145
100
AcDbEntity
  8
0
  6
ByLayer
 62
  256
370
   -1
100
AcDbPolyline
 90
    4
 70
    1
 43
0
 10
62.0402
 20
3.8532
 10
58.7382
 20
3.8532
 42
0.9999999999999999
 10
58.7382
 20
3.7008
 10
62.0402
 20
3.7008
 42
0.9999999999999999
  0
LWPOLYLINE
  5
146
100
AcDbEntity
  8
0
  6
ByLayer
 62
  256
370
   -1
100
AcDbPolyline
 90
    4
 70
    1
 43
0
 10
58.8144
 20
3.777
 10
58.8144
 20
6.952
 42
0.9999999999999999
 10
58.662
 20
6.952
 10
58.662
 20
3.777
 42
0.9999999999999999
  0
LWPOLYLINE
  5
147
100
AcDbEntity
  8
0
  6
ByLayer
 62
  256
370
   -1
100
AcDbPolyline
 90
    4
 70
    1
 43
0
 10
57.1126
 20
3.777
 10
57.1126
 20
6.952
 42
0.9999999999999999
 10
56.9602
 20
6.952
 10
56.9602
 20
3.777
 42
0.9999999999999999
  0
LWPOLYLINE
  5
148
100
AcDbEntity
  8
0
  6
ByLayer
 62
  256
370
   -1
100
AcDbPolyline
 90
    4
 70
    1
 43
0
 10
57.0364
 20
3.8532
 10
53.7344
 20
3.8532
 42
0.9999999999999999
 10
53.7344
 20
3.7008
 10
57.0364
 20
3.7008
 42
0.9999999999999999
  0
LWPOLYLINE
  5
149
100
AcDbEntity
  8
0
  6
ByLayer
 62
  256
370
   -1
100
AcDbPolyline
 90
    4
 70
    1
 43
0
 10
53.8106
 20
3.777
 10
53.8106
 20
6.952
 42
0.9999999999999999
 10
53.6582
 20
6.952
 10
53.6582
 20
3.777
 42
0.9999999999999999
  0
LWPOLYLINE
  5
14A
100
AcDbEntity
  8
0
  6
ByLayer
 62
  256
370
   -1
100
AcDbPolyline
 90
    4
 70
    1
 43
0
 10
52.8962
 20
1.237
 10
52.8962
 20
8.095000000000001
 42
0.9999999999999999
 10
52.7438
 20
8.095000000000001
 10
52.7438
 20
1.237
 42
0.9999999999999999
  0
LWPOLYLINE
  5
14B
100
AcDbEntity
  8
0
  6
ByLayer
 62
  256
370
   -1
100
AcDbPolyline
 90
    4
 70
    1
 43
0
 10
52.8962
 20
8.095000000000001
 10
52.8962
 20
10.635
 42
0.9999999999999999
 10
52.7438
 20
10.635
 10
52.7438
 20
8.095000000000001
 42
0.9999999999999999
  0
LWPOLYLINE
  5
14C
100
AcDbEntity
  8
0
  6
ByLayer
 62
  256
370
   -1
100
AcDbPolyline
 90
    4
 70
    1
 43
0
 10
62.9038
 20
9.111000000000001
 10
62.9038
 20
8.095000000000001
 42
0.9999999999999999
 10
63.0562
 20
8.095000000000001
 10
63.0562
 20
9.111000000000001
 42
0.9999999999999999
  0
LWPOLYLINE
  5
14D
100
AcDbEntity
  8
0
  6
ByLayer
 62
  256
370
   -1
100
AcDbPolyline
 90
    4
 70
    1
 43
0
 10
62.9038
 20
8.095000000000001
 10
62.9038
 20
3.396
 42
0.9999999999999999
 10
63.0562
 20
3.396
 10
63.0562
 20
8.095000000000001
 42
0.9999999999999999
  0
LWPOLYLINE
  5
14E
100
AcDbEntity
  8
0
  6
ByLayer
 62
  256
370
   -1
100
AcDbPolyline
 90
    4
 70
    1
 43
0
 10
52.82
 20
10.5588
 10
62.98
 20
10.5588
 42
0.9999999999999999
 10
62.98
 20
10.7112
 10
52.82
 20
10.7112
 42
0.9999999999999999
  0
LWPOLYLINE
  5
14F
100
AcDbEntity
  8
0
  6
ByLayer
 62
  256
370
   -1
100
AcDbPolyline
 90
    4
 70
    1
 43
0
 10
52.8962
 20
10.635
 10
52.8962
 20
13.683
 42
0.9999999999999999
 10
52.7438
 20
13.683
 10
52.7438
 20
10.635
 42
0.9999999999999999
  0
LWPOLYLINE
  5
150
100
AcDbEntity
  8
0
  6
ByLayer
 62
  256
370
   -1
100
AcDbPolyline
 90
    4
 70
    1
 43
0
 10
62.9038
 20
10.635
 10
62.9038
 20
9.111000000000001
 42
0.9999999999999999
 10
63.0562
 20
9.111000000000001
 10
63.0562
 20
10.635
 42
0.9999999999999999
  0
LWPOLYLINE
  5
151
100
AcDbEntity
  8
0
  6
ByLayer
 62
  256
370
   -1
100
AcDbPolyline
 90
    4
 70
    1
 43
0
 10
58.4334
 20
10.889
 10
58.4334
 20
13.429
 42
0.9999999999999999
 10
58.281
 20
13.429
 10
58.281
 20
10.889
 42
0.9999999999999999
  0
LWPOLYLINE
  5
152
100
AcDbEntity
  8
0
  6
ByLayer
 62
  256
370
   -1
100
AcDbPolyline
 90
    4
 70
    1
 43
0
 10
58.3572
 20
13.3528
 10
62.4212
 20
13.3528
 42
0.9999999999999999
 10
62.4212
 20
13.5052
 10
58.3572
 20
13.5052
 42
0.9999999999999999
  0
LWPOLYLINE
  5
153
100
AcDbEntity
  8
0
  6
ByLayer
 62
  256
370
   -1
100
AcDbPolyline
 90
    4
 70
    1
 43
0
 10
62.345
 20
13.429
 10
62.345
 20
10.889
 42
0.9999999999999999
 10
62.4974
 20
10.889
 10
62.4974
 20
13.429
 42
0.9999999999999999
  0
LWPOLYLINE
  5
154
100
AcDbEntity
  8
0
  6
ByLayer
 62
  256
370
   -1
100
AcDbPolyline
 90
    4
 70
    1
 43
0
 10
62.4212
 20
10.9652
 10
58.3572
 20
10.9652
 42
0.9999999999999999
 10
58.3572
 20
10.8128
 10
62.4212
 20
10.8128
 42
0.9999999999999999
  0
LWPOLYLINE
  5
155
100
AcDbEntity
  8
0
  6
ByLayer
 62
  256
370
   -1
100
AcDbPolyline
 90
    4
 70
    1
 43
0
 10
57.4936
 20
10.889
 10
57.4936
 20
13.429
 42
0.9999999999999999
 10
57.3412
 20
13.429
 10
57.3412
 20
10.889
 42
0.9999999999999999
  0
LWPOLYLINE
  5
156
100
AcDbEntity
  8
0
  6
ByLayer
 62
  256
370
   -1
100
AcDbPolyline
 90
    4
 70
    1
 43
0
 10
57.4174
 20
10.9652
 10
53.3534
 20
10.9652
 42
0.9999999999999999
 10
53.3534
 20
10.8128
 10
57.4174
 20
10.8128
 42
0.9999999999999999
  0
LWPOLYLINE
  5
157
100
AcDbEntity
  8
0
  6
ByLayer
 62
  256
370
   -1
100
AcDbPolyline
 90
    4
 70
    1
 43
0
 10
53.4296
 20
10.889
 10
53.4296
 20
13.429
 42
0.9999999999999999
 10
53.2772
 20
13.429
 10
53.2772
 20
10.889
 42
0.9999999999999999
  0
LWPOLYLINE
  5
158
100
AcDbEntity
  8
0
  6
ByLayer
 62
  256
370
   -1
100
AcDbPolyline
 90
    4
 70
    1
 43
0
 10
57.4174
 20
13.5052
 10
53.3534
 20
13.5052
 42
0.9999999999999999
 10
53.3534
 20
13.3528
 10
57.4174
 20
13.3528
 42
0.9999999999999999
  0
LWPOLYLINE
  5
159
100
AcDbEntity
  8
0
  6
ByLayer
 62
  256
370
   -1
100
AcDbPolyline
 90
    4
 70
    1
 43
0
 10
61.807
 20
11.602
 42
1.000000000000035
 10
61.9078
 20
11.4878
 42
0.4170999999999984
 10
61.9697
 20
12.5655
 42
0.9999999999999915
 10
61.8565
 20
12.4635
 42
-0.4171000000000005
  0
LWPOLYLINE
  5
15A
100
AcDbEntity
  8
0
  6
ByLayer
 62
  256
370
   -1
100
AcDbPolyline
 90
    4
 70
    1
 43
0
 10
58.9636
 20
11.6851
 42
1.000000000000036
 10
58.8684
 20
11.5661
 42
0.342
 10
61.9495
 20
11.5179
 42
1.000000000000037
 10
61.8581
 20
11.6399
 42
-0.3420000000000002
  0
LWPOLYLINE
  5
15B
100
AcDbEntity
  8
0
  6
ByLayer
 62
  256
370
   -1
100
AcDbPolyline
 90
    4
 70
    1
 43
0
 10
61.8603
 20
12.4686
 42
1.000000000000009
 10
61.9753
 20
12.5686
 42
0.4664000000000001
 10
58.7044
 20
12.5117
 42
1.000000000000029
 10
58.82279999999999
 20
12.41590000000001
 42
-0.4664
  0
LWPOLYLINE
  5
15C
100
AcDbEntity
  8
0
  6
ByLayer
 62
  256
370
   -1
100
AcDbPolyline
 90
    4
 70
    1
 43
0
 10
58.8699
 20
12.4624
 42
1.000000000000008
 10
58.7589
 20
12.5668
 42
0.4888999999999995
 10
58.9211
 20
11.5231
 42
0.9999999999999946
 10
58.9951
 20
11.6563
 42
-0.4888999999999997
  0
LWPOLYLINE
  5
15D
100
AcDbEntity
  8
0
  6
ByLayer
 62
  256
370
   -1
100
AcDbPolyline
 90
    4
 70
    1
 43
0
 10
58.7791
 20
11.8304
 10
61.8271
 20
12.4654
 42
0.9999999999999519
 10
61.7961
 20
12.6146
 10
58.7481
 20
11.9796
 42
1.000000000000045
  0
LWPOLYLINE
  5
15E
100
AcDbEntity
  8
0
  6
ByLayer
 62
  256
370
   -1
100
AcDbPolyline
 90
    4
 70
    1
 43
0
 10
58.9061
 20
11.7034
 10
61.9541
 20
12.3384
 42
0.9999999999999546
 10
61.9231
 20
12.4876
 10
58.8751
 20
11.8526
 42
0.9999999999999539
  0
LWPOLYLINE
  5
15F
100
AcDbEntity
  8
0
  6
ByLayer
 62
  256
370
   -1
100
AcDbPolyline
 90
    4
 70
    1
 43
0
 10
56.8032
 20
11.602
 42
0.9999999999999999
 10
56.904
 20
11.4878
 42
0.417100000000001
 10
56.9659
 20
12.5655
 42
0.999999999999977
 10
56.8527
 20
12.4635
 42
-0.4171000000000039
  0
LWPOLYLINE
  5
160
100
AcDbEntity
  8
0
  6
ByLayer
 62
  256
370
   -1
100
AcDbPolyline
 90
    4
 70
    1
 43
0
 10
53.9598
 20
11.6851
 42
1.000000000000036
 10
53.8646
 20
11.5661
 42
0.3419999999999997
 10
56.9457
 20
11.5178
 42
1.00000000000003
 10
56.8543
 20
11.6398
 42
-0.3419999999999997
  0
LWPOLYLINE
  5
161
100
AcDbEntity
  8
0
  6
ByLayer
 62
  256
370
   -1
100
AcDbPolyline
 90
    4
 70
    1
 43
0
 10
56.8567
 20
12.4688
 42
0.9999999999999781
 10
56.97170000000001
 20
12.5688
 42
0.4664
 10
53.70060000000001
 20
12.5117
 42
0.9999999999999908
 10
53.819
 20
12.4159
 42
-0.4664000000000003
  0
LWPOLYLINE
  5
162
100
AcDbEntity
  8
0
  6
ByLayer
 62
  256
370
   -1
100
AcDbPolyline
 90
    4
 70
    1
 43
0
 10
53.8661
 20
12.4624
 42
1.000000000000008
 10
53.7551
 20
12.5668
 42
0.4889000000000021
 10
53.9173
 20
11.5231
 42
1.000000000000041
 10
53.9913
 20
11.6563
 42
-0.4888999999999988
  0
LWPOLYLINE
  5
163
100
AcDbEntity
  8
0
  6
ByLayer
 62
  256
370
   -1
100
AcDbPolyline
 90
    4
 70
    1
 43
0
 10
53.7753
 20
11.8304
 10
56.8233
 20
12.4654
 42
0.9999999999999972
 10
56.7923
 20
12.6146
 10
53.7443
 20
11.9796
 42
1.000000000000045
  0
LWPOLYLINE
  5
164
100
AcDbEntity
  8
0
  6
ByLayer
 62
  256
370
   -1
100
AcDbPolyline
 90
    4
 70
    1
 43
0
 10
53.9023
 20
11.7034
 10
56.9503
 20
12.3384
 42
0.9999999999999546
 10
56.9193
 20
12.4876
 10
53.8713
 20
11.8526
 42
1.000000000000045
  0
LWPOLYLINE
  5
165
100
AcDbEntity
  8
0
  6
ByLayer
 62
  256
370
   -1
100
AcDbPolyline
 90
    4
 70
    1
 43
0
 10
53.3534
 20
7.6378
 10
53.7344
 20
7.6378
 42
0.9999999999999999
 10
53.7344
 20
7.7902
 10
53.3534
 20
7.7902
 42
0.9999999999999999
  0
LWPOLYLINE
  5
166
100
AcDbEntity
  8
0
  6
ByLayer
 62
  256
370
   -1
100
AcDbPolyline
 90
    4
 70
    1
 43
0
 10
57.4174
 20
7.7902
 10
57.0364
 20
7.7902
 42
0.9999999999999999
 10
57.0364
 20
7.6378
 10
57.4174
 20
7.6378
 42
0.9999999999999999
  0
LWPOLYLINE
  5
167
100
AcDbEntity
  8
0
  6
ByLayer
 62
  256
370
   -1
100
AcDbPolyline
 90
    4
 70
    1
 43
0
 10
52.82
 20
8.018800000000001
 10
53.7344
 20
8.018800000000001
 42
0.9999999999999999
 10
53.7344
 20
8.171200000000001
 10
52.82
 20
8.171200000000001
 42
0.9999999999999999
  0
LWPOLYLINE
  5
168
100
AcDbEntity
  8
0
  6
ByLayer
 62
  256
370
   -1
100
AcDbPolyline
 90
    4
 70
    1
 43
0
 10
57.0364
 20
8.018800000000001
 10
58.7382
 20
8.018800000000001
 42
0.9999999999999999
 10
58.7382
 20
8.171200000000001
 10
57.0364
 20
8.171200000000001
 42
0.9999999999999999
  0
LWPOLYLINE
  5
169
100
AcDbEntity
  8
0
  6
ByLayer
 62
  256
370
   -1
100
AcDbPolyline
 90
    4
 70
    1
 43
0
 10
62.98
 20
8.171200000000001
 10
62.0402
 20
8.171200000000001
 42
0.9999999999999999
 10
62.0402
 20
8.018800000000001
 10
62.98
 20
8.018800000000001
 42
0.9999999999999999
  0
LWPOLYLINE
  5
16A
100
AcDbEntity
  8
0
  6
ByLayer
 62
  256
370
   -1
100
AcDbPolyline
 90
    4
 70
    1
 43
0
 10
62.4212
 20
7.7902
 10
62.0402
 20
7.7902
 42
0.9999999999999999
 10
62.0402
 20
7.6378
 10
62.4212
 20
7.6378
 42
0.9999999999999999
  0
LWPOLYLINE
  5
16B
100
AcDbEntity
  8
0
  6
ByLayer
 62
  256
370
   -1
100
AcDbPolyline
 90
    4
 70
    1
 43
0
 10
58.3572
 20
7.6378
 10
58.7382
 20
7.6378
 42
0.9999999999999999
 10
58.7382
 20
7.7902
 10
58.3572
 20
7.7902
 42
0.9999999999999999
  0
LWPOLYLINE
  5
16C
100
AcDbEntity
  8
0
  6
ByLayer
 62
  256
370
   -1
100
AcDbPolyline
 90
    4
 70
    1
 43
0
 10
53.5074
 20
9.632899999999999
 10
53.8249
 20
9.886899999999999
 42
1.000000000000044
 10
53.7455
 20
9.986099999999999
 10
53.428
 20
9.732100000000003
 42
1.000000000000035
  0
LWPOLYLINE
  5
16D
100
AcDbEntity
  8
0
  6
ByLayer
 62
  256
370
   -1
100
AcDbPolyline
 90
    4
 70
    1
 43
0
 10
53.7217
 20
9.936500000000001
 10
53.7217
 20
8.7935
 42
0.9999999999999999
 10
53.84870000000001
 20
8.7935
 10
53.84870000000001
 20
9.936500000000001
 42
0.9999999999999999
  0
LWPOLYLINE
  5
16E
100
AcDbEntity
  8
0
  6
ByLayer
 62
  256
370
   -1
100
AcDbPolyline
 90
    4
 70
    1
 43
0
 10
53.4677
 20
8.73
 10
54.1027
 20
8.73
 42
0.9999999999999999
 10
54.1027
 20
8.856999999999999
 10
53.4677
 20
8.856999999999999
 42
0.9999999999999999
  0
LWPOLYLINE
  5
16F
100
AcDbEntity
  8
0
  6
ByLayer
 62
  256
370
   -1
100
AcDbPolyline
 90
    4
 70
    1
 43
0
 10
59.11919999999999
 20
9.6508
 42
0.9999999999999999
 10
59.24620000000001
 20
9.6508
 42
0.4142000000000032
 10
58.897
 20
10
 42
0.9999999999999999
 10
58.897
 20
9.872999999999998
 42
-0.4141999999999957
  0
LWPOLYLINE
  5
170
100
AcDbEntity
  8
0
  6
ByLayer
 62
  256
370
   -1
100
AcDbPolyline
 90
    4
 70
    1
 43
0
 10
58.8969
 20
9.872999999999998
 42
1.000000000000056
 10
58.897
 20
10
 42
0.3252000000000015
 10
58.4873
 20
9.7021
 42
0.9999999999999866
 10
58.60809999999999
 20
9.662900000000002
 42
-0.3252000000000042
  0
LWPOLYLINE
  5
171
100
AcDbEntity
  8
0
  6
ByLayer
 62
  256
370
   -1
100
AcDbPolyline
 90
    4
 70
    1
 43
0
 10
59.0437
 20
9.474499999999999
 42
0.9999999999999688
 10
59.1312
 20
9.382500000000002
 42
0.2052999999999966
 10
59.24619999999999
 20
9.6508
 42
0.9999999999999999
 10
59.11920000000001
 20
9.650700000000001
 42
-0.2053000000000054
  0
LWPOLYLINE
  5
172
100
AcDbEntity
  8
0
  6
ByLayer
 62
  256
370
   -1
100
AcDbPolyline
 90
    4
 70
    1
 43
0
 10
59.0391
 20
9.4696
 10
58.4993
 20
8.8346
 42
0.9999999999999994
 10
58.5961
 20
8.7524
 10
59.1358
 20
9.387399999999998
 42
1.000000000000036
  0
LWPOLYLINE
  5
173
100
AcDbEntity
  8
0
  6
ByLayer
 62
  256
370
   -1
100
AcDbPolyline
 90
    4
 70
    1
 43
0
 10
58.5477
 20
8.73
 10
59.1827
 20
8.73
 42
0.9999999999999999
 10
59.1827
 20
8.856999999999999
 10
58.5477
 20
8.856999999999999
 42
0.9999999999999999
  0
LWPOLYLINE
  5
174
100
AcDbEntity
  8
0
  6
ByLayer
 62
  256
370
   -1
100
AcDbPolyline
 90
    4
 70
    1
 43
0
 10
76.72
 20
49.5716
 10
75.12
 20
49.5716
 42
0.9999999999999999
 10
75.12
 20
49.3684
 10
76.72
 20
49.3684
 42
0.9999999999999999
  0
LWPOLYLINE
  5
175
100
AcDbEntity
  8
0
  6
ByLayer
 62
  256
370
   -1
100
AcDbPolyline
 90
    4
 70
    1
 43
0
 10
73.12
 20
49.5716
 10
71.52
 20
49.5716
 42
0.9999999999999999
 10
71.52
 20
49.3684
 10
73.12
 20
49.3684
 42
0.9999999999999999
  0
LWPOLYLINE
  5
176
100
AcDbEntity
  8
0
  6
ByLayer
 62
  256
370
   -1
100
AcDbPolyline
 90
    4
 70
    1
 43
0
 10
71.6216
 20
49.47
 10
71.6216
 20
54.67
 42
0.9999999999999999
 10
71.41840000000002
 20
54.67
 10
71.41840000000002
 20
49.47
 42
0.9999999999999999
  0
LWPOLYLINE
  5
177
100
AcDbEntity
  8
0
  6
ByLayer
 62
  256
370
   -1
100
AcDbPolyline
 90
    4
 70
    1
 43
0
 10
71.52
 20
54.5684
 10
73.12
 20
54.5684
 42
0.9999999999999999
 10
73.12
 20
54.77160000000001
 10
71.52
 20
54.77160000000001
 42
0.9999999999999999
  0
LWPOLYLINE
  5
178
100
AcDbEntity
  8
0
  6
ByLayer
 62
  256
370
   -1
100
AcDbPolyline
 90
    4
 70
    1
 43
0
 10
75.12
 20
54.5684
 10
76.72
 20
54.5684
 42
0.9999999999999999
 10
76.72
 20
54.77160000000001
 10
75.12
 20
54.77160000000001
 42
0.9999999999999999
  0
LWPOLYLINE
  5
179
100
AcDbEntity
  8
0
  6
ByLayer
 62
  256
370
   -1
100
AcDbPolyline
 90
    4
 70
    1
 43
0
 10
76.61839999999999
 20
54.67
 10
76.61839999999999
 20
49.47
 42
0.9999999999999999
 10
76.8216
 20
49.47
 10
76.8216
 20
54.67
 42
0.9999999999999999
  0
LWPOLYLINE
  5
17A
100
AcDbEntity
  8
0
  6
ByLayer
 62
  256
370
   -1
100
AcDbPolyline
 90
    4
 70
    1
 43
0
 10
71.62
 20
53.9684
 10
72.12
 20
53.9684
 42
0.9999999999999999
 10
72.12
 20
54.1716
 10
71.62
 20
54.1716
 42
0.9999999999999999
  0
LWPOLYLINE
  5
17B
100
AcDbEntity
  8
0
  6
ByLayer
 62
  256
370
   -1
100
AcDbPolyline
 90
    4
 70
    1
 43
0
 10
72.0184
 20
54.07
 10
72.01840000000001
 20
50.07
 42
0.9999999999999999
 10
72.2216
 20
50.07
 10
72.2216
 20
54.07
 42
0.9999999999999999
  0
LWPOLYLINE
  5
17C
100
AcDbEntity
  8
0
  6
ByLayer
 62
  256
370
   -1
100
AcDbPolyline
 90
    4
 70
    1
 43
0
 10
72.12
 20
49.9684
 10
72.62
 20
49.9684
 42
0.9999999999999999
 10
72.62
 20
50.1716
 10
72.12
 20
50.1716
 42
0.9999999999999999
  0
LWPOLYLINE
  5
17D
100
AcDbEntity
  8
0
  6
ByLayer
 62
  256
370
   -1
100
AcDbPolyline
 90
    4
 70
    1
 43
0
 10
72.7216
 20
50.07
 10
72.7216
 20
54.07
 42
0.9999999999999999
 10
72.51840000000001
 20
54.07
 10
72.51840000000001
 20
50.07
 42
0.9999999999999999
  0
LWPOLYLINE
  5
17E
100
AcDbEntity
  8
0
  6
ByLayer
 62
  256
370
   -1
100
AcDbPolyline
 90
    4
 70
    1
 43
0
 10
72.62
 20
53.9684
 10
73.12
 20
53.9684
 42
0.9999999999999999
 10
73.12
 20
54.1716
 10
72.62
 20
54.1716
 42
0.9999999999999999
  0
LWPOLYLINE
  5
17F
100
AcDbEntity
  8
0
  6
ByLayer
 62
  256
370
   -1
100
AcDbPolyline
 90
    4
 70
    1
 43
0
 10
73.0184
 20
54.07
 10
73.01840000000001
 20
50.57
 42
0.9999999999999999
 10
73.2216
 20
50.57
 10
73.2216
 20
54.07
 42
0.9999999999999999
  0
LWPOLYLINE
  5
180
100
AcDbEntity
  8
0
  6
ByLayer
 62
  256
370
   -1
100
AcDbPolyline
 90
    4
 70
    1
 43
0
 10
73.12
 20
50.4684
 10
73.62
 20
50.4684
 42
0.9999999999999999
 10
73.62
 20
50.6716
 10
73.12
 20
50.6716
 42
0.9999999999999999
  0
LWPOLYLINE
  5
181
100
AcDbEntity
  8
0
  6
ByLayer
 62
  256
370
   -1
100
AcDbPolyline
 90
    4
 70
    1
 43
0
 10
73.7216
 20
50.57
 10
73.7216
 20
53.57
 42
0.9999999999999999
 10
73.51840000000001
 20
53.57
 10
73.51840000000001
 20
50.57
 42
0.9999999999999999
  0
LWPOLYLINE
  5
182
100
AcDbEntity
  8
0
  6
ByLayer
 62
  256
370
   -1
100
AcDbPolyline
 90
    4
 70
    1
 43
0
 10
73.62
 20
53.4684
 10
74.12
 20
53.4684
 42
0.9999999999999999
 10
74.12
 20
53.6716
 10
73.62
 20
53.6716
 42
0.9999999999999999
  0
LWPOLYLINE
  5
183
100
AcDbEntity
  8
0
  6
ByLayer
 62
  256
370
   -1
100
AcDbPolyline
 90
    4
 70
    1
 43
0
 10
74.0184
 20
53.57
 10
74.01840000000001
 20
50.57
 42
0.9999999999999999
 10
74.2216
 20
50.57
 10
74.2216
 20
53.57
 42
0.9999999999999999
  0
LWPOLYLINE
  5
184
100
AcDbEntity
  8
0
  6
ByLayer
 62
  256
370
   -1
100
AcDbPolyline
 90
    4
 70
    1
 43
0
 10
74.12
 20
50.4684
 10
74.62
 20
50.4684
 42
0.9999999999999999
 10
74.62
 20
50.6716
 10
74.12
 20
50.6716
 42
0.9999999999999999
  0
LWPOLYLINE
  5
185
100
AcDbEntity
  8
0
  6
ByLayer
 62
  256
370
   -1
100
AcDbPolyline
 90
    4
 70
    1
 43
0
 10
74.7216
 20
50.57
 10
74.7216
 20
53.57
 42
0.9999999999999999
 10
74.51840000000001
 20
53.57
 10
74.51840000000001
 20
50.57
 42
0.9999999999999999
  0
LWPOLYLINE
  5
186
100
AcDbEntity
  8
0
  6
ByLayer
 62
  256
370
   -1
100
AcDbPolyline
 90
    4
 70
    1
 43
0
 10
74.62
 20
53.4684
 10
75.12
 20
53.4684
 42
0.9999999999999999
 10
75.12
 20
53.6716
 10
74.62
 20
53.6716
 42
0.9999999999999999
  0
LWPOLYLINE
  5
187
100
AcDbEntity
  8
0
  6
ByLayer
 62
  256
370
   -1
100
AcDbPolyline
 90
    4
 70
    1
 43
0
 10
75.0184
 20
53.57
 10
75.01840000000001
 20
50.07
 42
0.9999999999999999
 10
75.2216
 20
50.07
 10
75.2216
 20
53.57
 42
0.9999999999999999
  0
LWPOLYLINE
  5
188
100
AcDbEntity
  8
0
  6
ByLayer
 62
  256
370
   -1
100
AcDbPolyline
 90
    4
 70
    1
 43
0
 10
75.12
 20
49.9684
 10
75.62
 20
49.9684
 42
0.9999999999999999
 10
75.62
 20
50.1716
 10
75.12
 20
50.1716
 42
0.9999999999999999
  0
LWPOLYLINE
  5
189
100
AcDbEntity
  8
0
  6
ByLayer
 62
  256
370
   -1
100
AcDbPolyline
 90
    4
 70
    1
 43
0
 10
75.7216
 20
50.07
 10
75.7216
 20
54.07
 42
0.9999999999999999
 10
75.51840000000001
 20
54.07
 10
75.51840000000001
 20
50.07
 42
0.9999999999999999
  0
LWPOLYLINE
  5
18A
100
AcDbEntity
  8
0
  6
ByLayer
 62
  256
370
   -1
100
AcDbPolyline
 90
    4
 70
    1
 43
0
 10
75.62
 20
53.9684
 10
76.12
 20
53.9684
 42
0.9999999999999999
 10
76.12
 20
54.1716
 10
75.62
 20
54.1716
 42
0.9999999999999999
  0
LWPOLYLINE
  5
18B
100
AcDbEntity
  8
0
  6
ByLayer
 62
  256
370
   -1
100
AcDbPolyline
 90
    4
 70
    1
 43
0
 10
76.0184
 20
54.07
 10
76.01840000000001
 20
50.07
 42
0.9999999999999999
 10
76.2216
 20
50.07
 10
76.2216
 20
54.07
 42
0.9999999999999999
  0
LWPOLYLINE
  5
18C
100
AcDbEntity
  8
0
  6
ByLayer
 62
  256
370
   -1
100
AcDbPolyline
 90
    4
 70
    1
 43
0
 10
76.12
 20
49.9684
 10
76.62
 20
49.9684
 42
0.9999999999999999
 10
76.62
 20
50.1716
 10
76.12
 20
50.1716
 42
0.9999999999999999
  0
LWPOLYLINE
  5
18D
100
AcDbEntity
  8
0
  6
ByLayer
 62
  256
370
   -1
100
AcDbPolyline
 90
    4
 70
    1
 43
0
 10
77.1918
 20
55.4982
 10
77.6918
 20
55.99819999999999
 42
1.00000000000005
 10
77.54819999999999
 20
56.1418
 10
77.04819999999999
 20
55.6418
 42
0.9999999999999502
  0
LWPOLYLINE
  5
18E
100
AcDbEntity
  8
0
  6
ByLayer
 62
  256
370
   -1
100
AcDbPolyline
 90
    4
 70
    1
 43
0
 10
77.54819999999999
 20
55.9982
 10
78.04819999999999
 20
55.4982
 42
1.00000000000005
 10
78.1918
 20
55.64180000000001
 10
77.6918
 20
56.14180000000001
 42
0.9999999999999502
  0
LWPOLYLINE
  5
18F
100
AcDbEntity
  8
0
  6
ByLayer
 62
  256
370
   -1
100
AcDbPolyline
 90
    4
 70
    1
 43
0
 10
78.04819999999999
 20
55.6418
 10
77.54819999999999
 20
55.1418
 42
0.9999999999999502
 10
77.6918
 20
54.99819999999999
 10
78.1918
 20
55.49819999999999
 42
1.00000000000005
  0
CIRCLE
  5
190
100
AcDbEntity
  8
21
  6
ByLayer
 62
  256
370
   -1
100
AcDbCircle
 10
74.12
 20
52.07
 40
3.8246
  0
CIRCLE
  5
191
100
AcDbEntity
  8
21
  6
ByLayer
 62
  256
370
   -1
100
AcDbCircle
 10
74.12
 20
52.07
 40
4.0278
  0
CIRCLE
  5
192
100
AcDbEntity
  8
21
  6
ByLayer
 62
  256
370
   -1
100
AcDbCircle
 10
74.12
 20
52.07
 40
4.4484
  0
CIRCLE
  5
193
100
AcDbEntity
  8
21
  6
ByLayer
 62
  256
370
   -1
100
AcDbCircle
 10
74.12
 20
52.07
 40
4.6516
  0
LWPOLYLINE
  5
194
100
AcDbEntity
  8
0
  6
ByLayer
 62
  256
370
   -1
100
AcDbPolyline
 90
    4
 70
    1
 43
0
 10
27.9138
 20
13.683
 10
27.9138
 20
10.635
 42
0.9999999999999999
 10
28.0662
 20
10.635
 10
28.0662
 20
13.683
 42
0.9999999999999999
  0
LWPOLYLINE
  5
195
100
AcDbEntity
  8
0
  6
ByLayer
 62
  256
370
   -1
100
AcDbPolyline
 90
    4
 70
    1
 43
0
 10
27.99
 20
13.7592
 10
17.83
 20
13.7592
 42
0.9999999999999999
 10
17.83
 20
13.6068
 10
27.99
 20
13.6068
 42
0.9999999999999999
  0
LWPOLYLINE
  5
196
100
AcDbEntity
  8
0
  6
ByLayer
 62
  256
370
   -1
100
AcDbPolyline
 90
    4
 70
    1
 43
0
 10
27.99
 20
13.6068
 10
28.498
 20
13.6068
 42
0.9999999999999999
 10
28.498
 20
13.7592
 10
27.99
 20
13.7592
 42
0.9999999999999999
  0
LWPOLYLINE
  5
197
100
AcDbEntity
  8
0
  6
ByLayer
 62
  256
370
   -1
100
AcDbPolyline
 90
    4
 70
    1
 43
0
 10
28.4218
 20
13.683
 10
28.4218
 20
8.856999999999999
 42
0.9999999999999999
 10
28.5742
 20
8.856999999999999
 10
28.5742
 20
13.683
 42
0.9999999999999999
  0
LWPOLYLINE
  5
198
100
AcDbEntity
  8
0
  6
ByLayer
 62
  256
370
   -1
100
AcDbPolyline
 90
    4
 70
    1
 43
0
 10
28.5321
 20
8.9252
 10
28.0241
 20
9.179200000000002
 42
0.9999999999999843
 10
27.9559
 20
9.042800000000002
 10
28.4639
 20
8.788799999999998
 42
0.9999999999999848
  0
LWPOLYLINE
  5
199
100
AcDbEntity
  8
0
  6
ByLayer
 62
  256
370
   -1
100
AcDbPolyline
 90
    4
 70
    1
 43
0
 10
28.5321
 20
2.0672
 10
28.0241
 20
2.321200000000001
 42
0.999999999999979
 10
27.9559
 20
2.184800000000001
 10
28.4639
 20
1.930799999999999
 42
0.9999999999999795
  0
LWPOLYLINE
  5
19A
100
AcDbEntity
  8
0
  6
ByLayer
 62
  256
370
   -1
100
AcDbPolyline
 90
    4
 70
    1
 43
0
 10
27.9138
 20
2.253
 10
27.9138
 20
1.237
 42
0.9999999999999999
 10
28.0662
 20
1.237
 10
28.0662
 20
2.253
 42
0.9999999999999999
  0
LWPOLYLINE
  5
19B
100
AcDbEntity
  8
0
  6
ByLayer
 62
  256
370
   -1
100
AcDbPolyline
 90
    4
 70
    1
 43
0
 10
28.4639
 20
3.7182
 10
27.9559
 20
3.464199999999999
 42
0.9999999999999788
 10
28.0241
 20
3.327799999999999
 10
28.5321
 20
3.581800000000001
 42
0.9999999999999795
  0
LWPOLYLINE
  5
19C
100
AcDbEntity
  8
0
  6
ByLayer
 62
  256
370
   -1
100
AcDbPolyline
 90
    4
 70
    1
 43
0
 10
27.9138
 20
3.396
 10
27.9138
 20
2.253
 42
0.9999999999999999
 10
28.0662
 20
2.253
 10
28.0662
 20
3.396
 42
0.9999999999999999
  0
LWPOLYLINE
  5
19D
100
AcDbEntity
  8
0
  6
ByLayer
 62
  256
370
   -1
100
AcDbPolyline
 90
    4
 70
    1
 43
0
 10
28.4218
 20
3.65
 10
28.4218
 20
1.999
 42
0.9999999999999999
 10
28.5742
 20
1.999
 10
28.5742
 20
3.65
 42
0.9999999999999999
  0
LWPOLYLINE
  5
19E
100
AcDbEntity
  8
0
  6
ByLayer
 62
  256
370
   -1
100
AcDbPolyline
 90
    4
 70
    1
 43
0
 10
23.4434
 20
1.237
 10
23.4434
 20
3.142
 42
0.9999999999999999
 10
23.291
 20
3.142
 10
23.291
 20
1.237
 42
0.9999999999999999
  0
LWPOLYLINE
  5
19F
100
AcDbEntity
  8
0
  6
ByLayer
 62
  256
370
   -1
100
AcDbPolyline
 90
    4
 70
    1
 43
0
 10
27.355
 20
7.714
 10
27.355
 20
3.142
 42
0.9999999999999999
 10
27.5074
 20
3.142
 10
27.5074
 20
7.714
 42
0.9999999999999999
  0
LWPOLYLINE
  5
1A0
100
AcDbEntity
  8
0
  6
ByLayer
 62
  256
370
   -1
100
AcDbPolyline
 90
    4
 70
    1
 43
0
 10
23.3672
 20
1.1608
 10
27.4312
 20
1.1608
 42
0.9999999999999999
 10
27.4312
 20
1.3132
 10
23.3672
 20
1.3132
 42
0.9999999999999999
  0
LWPOLYLINE
  5
1A1
100
AcDbEntity
  8
0
  6
ByLayer
 62
  256
370
   -1
100
AcDbPolyline
 90
    4
 70
    1
 43
0
 10
27.4312
 20
1.1608
 10
27.99
 20
1.1608
 42
0.9999999999999999
 10
27.99
 20
1.3132
 10
27.4312
 20
1.3132
 42
0.9999999999999999
  0
LWPOLYLINE
  5
1A2
100
AcDbEntity
  8
0
  6
ByLayer
 62
  256
370
   -1
100
AcDbPolyline
 90
    4
 70
    1
 43
0
 10
22.5036
 20
1.237
 10
22.5036
 20
3.142
 42
0.9999999999999999
 10
22.3512
 20
3.142
 10
22.3512
 20
1.237
 42
0.9999999999999999
  0
LWPOLYLINE
  5
1A3
100
AcDbEntity
  8
0
  6
ByLayer
 62
  256
370
   -1
100
AcDbPolyline
 90
    4
 70
    1
 43
0
 10
22.4274
 20
1.1608
 10
23.3672
 20
1.1608
 42
0.9999999999999999
 10
23.3672
 20
1.3132
 10
22.4274
 20
1.3132
 42
0.9999999999999999
  0
LWPOLYLINE
  5
1A4
100
AcDbEntity
  8
0
  6
ByLayer
 62
  256
370
   -1
100
AcDbPolyline
 90
    4
 70
    1
 43
0
 10
18.2872
 20
7.714
 10
18.2872
 20
3.142
 42
0.9999999999999999
 10
18.4396
 20
3.142
 10
18.4396
 20
7.714
 42
0.9999999999999999
  0
LWPOLYLINE
  5
1A5
100
AcDbEntity
  8
0
  6
ByLayer
 62
  256
370
   -1
100
AcDbPolyline
 90
    4
 70
    1
 43
0
 10
17.83
 20
1.1608
 10
18.3634
 20
1.1608
 42
0.9999999999999999
 10
18.3634
 20
1.3132
 10
17.83
 20
1.3132
 42
0.9999999999999999
  0
LWPOLYLINE
  5
1A6
100
AcDbEntity
  8
0
  6
ByLayer
 62
  256
370
   -1
100
AcDbPolyline
 90
    4
 70
    1
 43
0
 10
18.3634
 20
1.1608
 10
22.4274
 20
1.1608
 42
0.9999999999999999
 10
22.4274
 20
1.3132
 10
18.3634
 20
1.3132
 42
0.9999999999999999
  0
LWPOLYLINE
  5
1A7
100
AcDbEntity
  8
0
  6
ByLayer
 62
  256
370
   -1
100
AcDbPolyline
 90
    4
 70
    1
 43
0
 10
23.3672
 20
3.0658
 10
27.4312
 20
3.0658
 42
0.9999999999999999
 10
27.4312
 20
3.2182
 10
23.3672
 20
3.2182
 42
0.9999999999999999
  0
LWPOLYLINE
  5
1A8
100
AcDbEntity
  8
0
  6
ByLayer
 62
  256
370
   -1
100
AcDbPolyline
 90
    4
 70
    1
 43
0
 10
23.4434
 20
3.142
 10
23.4434
 20
7.714
 42
0.9999999999999999
 10
23.291
 20
7.714
 10
23.291
 20
3.142
 42
0.9999999999999999
  0
LWPOLYLINE
  5
1A9
100
AcDbEntity
  8
0
  6
ByLayer
 62
  256
370
   -1
100
AcDbPolyline
 90
    4
 70
    1
 43
0
 10
27.355
 20
3.142
 10
27.355
 20
1.237
 42
0.9999999999999999
 10
27.5074
 20
1.237
 10
27.5074
 20
3.142
 42
0.9999999999999999
  0
LWPOLYLINE
  5
1AA
100
AcDbEntity
  8
0
  6
ByLayer
 62
  256
370
   -1
100
AcDbPolyline
 90
    4
 70
    1
 43
0
 10
22.4274
 20
3.2182
 10
18.3634
 20
3.2182
 42
0.9999999999999999
 10
18.3634
 20
3.0658
 10
22.4274
 20
3.0658
 42
0.9999999999999999
  0
LWPOLYLINE
  5
1AB
100
AcDbEntity
  8
0
  6
ByLayer
 62
  256
370
   -1
100
AcDbPolyline
 90
    4
 70
    1
 43
0
 10
22.5036
 20
3.142
 10
22.5036
 20
7.714
 42
0.9999999999999999
 10
22.3512
 20
7.714
 10
22.3512
 20
3.142
 42
0.9999999999999999
  0
LWPOLYLINE
  5
1AC
100
AcDbEntity
  8
0
  6
ByLayer
 62
  256
370
   -1
100
AcDbPolyline
 90
    4
 70
    1
 43
0
 10
18.2872
 20
3.142
 10
18.2872
 20
1.237
 42
0.9999999999999999
 10
18.4396
 20
1.237
 10
18.4396
 20
3.142
 42
0.9999999999999999
  0
LWPOLYLINE
  5
1AD
100
AcDbEntity
  8
0
  6
ByLayer
 62
  256
370
   -1
100
AcDbPolyline
 90
    4
 70
    1
 43
0
 10
27.1264
 20
3.777
 10
27.1264
 20
6.952
 42
0.9999999999999999
 10
26.974
 20
6.952
 10
26.974
 20
3.777
 42
0.9999999999999999
  0
LWPOLYLINE
  5
1AE
100
AcDbEntity
  8
0
  6
ByLayer
 62
  256
370
   -1
100
AcDbPolyline
 90
    4
 70
    1
 43
0
 10
27.0502
 20
3.8532
 10
23.7482
 20
3.8532
 42
0.9999999999999999
 10
23.7482
 20
3.7008
 10
27.0502
 20
3.7008
 42
0.9999999999999999
  0
LWPOLYLINE
  5
1AF
100
AcDbEntity
  8
0
  6
ByLayer
 62
  256
370
   -1
100
AcDbPolyline
 90
    4
 70
    1
 43
0
 10
23.8244
 20
3.777
 10
23.8244
 20
6.952
 42
0.9999999999999999
 10
23.672
 20
6.952
 10
23.672
 20
3.777
 42
0.9999999999999999
  0
LWPOLYLINE
  5
1B0
100
AcDbEntity
  8
0
  6
ByLayer
 62
  256
370
   -1
100
AcDbPolyline
 90
    4
 70
    1
 43
0
 10
22.1226
 20
3.777
 10
22.1226
 20
6.952
 42
0.9999999999999999
 10
21.9702
 20
6.952
 10
21.9702
 20
3.777
 42
0.9999999999999999
  0
LWPOLYLINE
  5
1B1
100
AcDbEntity
  8
0
  6
ByLayer
 62
  256
370
   -1
100
AcDbPolyline
 90
    4
 70
    1
 43
0
 10
22.0464
 20
3.8532
 10
18.7444
 20
3.8532
 42
0.9999999999999999
 10
18.7444
 20
3.7008
 10
22.0464
 20
3.7008
 42
0.9999999999999999
  0
LWPOLYLINE
  5
1B2
100
AcDbEntity
  8
0
  6
ByLayer
 62
  256
370
   -1
100
AcDbPolyline
 90
    4
 70
    1
 43
0
 10
18.8206
 20
3.777
 10
18.8206
 20
6.952
 42
0.9999999999999999
 10
18.6682
 20
6.952
 10
18.6682
 20
3.777
 42
0.9999999999999999
  0
LWPOLYLINE
  5
1B3
100
AcDbEntity
  8
0
  6
ByLayer
 62
  256
370
   -1
100
AcDbPolyline
 90
    4
 70
    1
 43
0
 10
17.9062
 20
1.237
 10
17.9062
 20
8.095000000000001
 42
0.9999999999999999
 10
17.7538
 20
8.095000000000001
 10
17.7538
 20
1.237
 42
0.9999999999999999
  0
LWPOLYLINE
  5
1B4
100
AcDbEntity
  8
0
  6
ByLayer
 62
  256
370
   -1
100
AcDbPolyline
 90
    4
 70
    1
 43
0
 10
17.9062
 20
8.095000000000001
 10
17.9062
 20
10.635
 42
0.9999999999999999
 10
17.7538
 20
10.635
 10
17.7538
 20
8.095000000000001
 42
0.9999999999999999
  0
LWPOLYLINE
  5
1B5
100
AcDbEntity
  8
0
  6
ByLayer
 62
  256
370
   -1
100
AcDbPolyline
 90
    4
 70
    1
 43
0
 10
27.9138
 20
9.111000000000001
 10
27.9138
 20
8.095000000000001
 42
0.9999999999999999
 10
28.0662
 20
8.095000000000001
 10
28.0662
 20
9.111000000000001
 42
0.9999999999999999
  0
LWPOLYLINE
  5
1B6
100
AcDbEntity
  8
0
  6
ByLayer
 62
  256
370
   -1
100
AcDbPolyline
 90
    4
 70
    1
 43
0
 10
27.9138
 20
8.095000000000001
 10
27.9138
 20
3.396
 42
0.9999999999999999
 10
28.0662
 20
3.396
 10
28.0662
 20
8.095000000000001
 42
0.9999999999999999
  0
LWPOLYLINE
  5
1B7
100
AcDbEntity
  8
0
  6
ByLayer
 62
  256
370
   -1
100
AcDbPolyline
 90
    4
 70
    1
 43
0
 10
17.83
 20
10.5588
 10
27.99
 20
10.5588
 42
0.9999999999999999
 10
27.99
 20
10.7112
 10
17.83
 20
10.7112
 42
0.9999999999999999
  0
LWPOLYLINE
  5
1B8
100
AcDbEntity
  8
0
  6
ByLayer
 62
  256
370
   -1
100
AcDbPolyline
 90
    4
 70
    1
 43
0
 10
17.9062
 20
10.635
 10
17.9062
 20
13.683
 42
0.9999999999999999
 10
17.7538
 20
13.683
 10
17.7538
 20
10.635
 42
0.9999999999999999
  0
LWPOLYLINE
  5
1B9
100
AcDbEntity
  8
0
  6
ByLayer
 62
  256
370
   -1
100
AcDbPolyline
 90
    4
 70
    1
 43
0
 10
27.9138
 20
10.635
 10
27.9138
 20
9.111000000000001
 42
0.9999999999999999
 10
28.0662
 20
9.111000000000001
 10
28.0662
 20
10.635
 42
0.9999999999999999
  0
LWPOLYLINE
  5
1BA
100
AcDbEntity
  8
0
  6
ByLayer
 62
  256
370
   -1
100
AcDbPolyline
 90
    4
 70
    1
 43
0
 10
23.4434
 20
10.889
 10
23.4434
 20
13.429
 42
0.9999999999999999
 10
23.291
 20
13.429
 10
23.291
 20
10.889
 42
0.9999999999999999
  0
LWPOLYLINE
  5
1BB
100
AcDbEntity
  8
0
  6
ByLayer
 62
  256
370
   -1
100
AcDbPolyline
 90
    4
 70
    1
 43
0
 10
23.3672
 20
13.3528
 10
27.4312
 20
13.3528
 42
0.9999999999999999
 10
27.4312
 20
13.5052
 10
23.3672
 20
13.5052
 42
0.9999999999999999
  0
LWPOLYLINE
  5
1BC
100
AcDbEntity
  8
0
  6
ByLayer
 62
  256
370
   -1
100
AcDbPolyline
 90
    4
 70
    1
 43
0
 10
27.355
 20
13.429
 10
27.355
 20
10.889
 42
0.9999999999999999
 10
27.5074
 20
10.889
 10
27.5074
 20
13.429
 42
0.9999999999999999
  0
LWPOLYLINE
  5
1BD
100
AcDbEntity
  8
0
  6
ByLayer
 62
  256
370
   -1
100
AcDbPolyline
 90
    4
 70
    1
 43
0
 10
27.4312
 20
10.9652
 10
23.3672
 20
10.9652
 42
0.9999999999999999
 10
23.3672
 20
10.8128
 10
27.4312
 20
10.8128
 42
0.9999999999999999
  0
LWPOLYLINE
  5
1BE
100
AcDbEntity
  8
0
  6
ByLayer
 62
  256
370
   -1
100
AcDbPolyline
 90
    4
 70
    1
 43
0
 10
22.5036
 20
10.889
 10
22.5036
 20
13.429
 42
0.9999999999999999
 10
22.3512
 20
13.429
 10
22.3512
 20
10.889
 42
0.9999999999999999
  0
LWPOLYLINE
  5
1BF
100
AcDbEntity
  8
0
  6
ByLayer
 62
  256
370
   -1
100
AcDbPolyline
 90
    4
 70
    1
 43
0
 10
22.4274
 20
10.9652
 10
18.3634
 20
10.9652
 42
0.9999999999999999
 10
18.3634
 20
10.8128
 10
22.4274
 20
10.8128
 42
0.9999999999999999
  0
LWPOLYLINE
  5
1C0
100
AcDbEntity
  8
0
  6
ByLayer
 62
  256
370
   -1
100
AcDbPolyline
 90
    4
 70
    1
 43
0
 10
18.4396
 20
10.889
 10
18.4396
 20
13.429
 42
0.9999999999999999
 10
18.2872
 20
13.429
 10
18.2872
 20
10.889
 42
0.9999999999999999
  0
LWPOLYLINE
  5
1C1
100
AcDbEntity
  8
0
  6
ByLayer
 62
  256
370
   -1
100
AcDbPolyline
 90
    4
 70
    1
 43
0
 10
22.4274
 20
13.5052
 10
18.3634
 20
13.5052
 42
0.9999999999999999
 10
18.3634
 20
13.3528
 10
22.4274
 20
13.3528
 42
0.9999999999999999
  0
LWPOLYLINE
  5
1C2
100
AcDbEntity
  8
0
  6
ByLayer
 62
  256
370
   -1
100
AcDbPolyline
 90
    4
 70
    1
 43
0
 10
26.817
 20
11.602
 42
0.9999999999999997
 10
26.9178
 20
11.4878
 42
0.417100000000001
 10
26.9797
 20
12.5655
 42
1.000000000000024
 10
26.8665
 20
12.4635
 42
-0.4170999999999994
  0
LWPOLYLINE
  5
1C3
100
AcDbEntity
  8
0
  6
ByLayer
 62
  256
370
   -1
100
AcDbPolyline
 90
    4
 70
    1
 43
0
 10
23.9736
 20
11.6851
 42
0.9999999999999817
 10
23.8784
 20
11.5661
 42
0.342
 10
26.9595
 20
11.5179
 42
0.9999999999999999
 10
26.8681
 20
11.6399
 42
-0.342
  0
LWPOLYLINE
  5
1C4
100
AcDbEntity
  8
0
  6
ByLayer
 62
  256
370
   -1
100
AcDbPolyline
 90
    4
 70
    1
 43
0
 10
26.8703
 20
12.4686
 42
0.9999999999999937
 10
26.9853
 20
12.5686
 42
0.4664
 10
23.7144
 20
12.5117
 42
0.9999999999999941
 10
23.8328
 20
12.4159
 42
-0.4664
  0
LWPOLYLINE
  5
1C5
100
AcDbEntity
  8
0
  6
ByLayer
 62
  256
370
   -1
100
AcDbPolyline
 90
    4
 70
    1
 43
0
 10
23.8799
 20
12.4624
 42
0.9999999999999923
 10
23.7689
 20
12.5668
 42
0.4888999999999988
 10
23.9311
 20
11.5231
 42
0.9999999999999946
 10
24.0051
 20
11.6563
 42
-0.4888999999999997
  0
LWPOLYLINE
  5
1C6
100
AcDbEntity
  8
0
  6
ByLayer
 62
  256
370
   -1
100
AcDbPolyline
 90
    4
 70
    1
 43
0
 10
23.7891
 20
11.8304
 10
26.8371
 20
12.4654
 42
0.9999999999999977
 10
26.8061
 20
12.6146
 10
23.7581
 20
11.9796
 42
0.999999999999977
  0
LWPOLYLINE
  5
1C7
100
AcDbEntity
  8
0
  6
ByLayer
 62
  256
370
   -1
100
AcDbPolyline
 90
    4
 70
    1
 43
0
 10
23.9161
 20
11.7034
 10
26.9641
 20
12.3384
 42
0.9999999999999999
 10
26.9331
 20
12.4876
 10
23.8851
 20
11.8526
 42
0.9999999999999999
  0
LWPOLYLINE
  5
1C8
100
AcDbEntity
  8
0
  6
ByLayer
 62
  256
370
   -1
100
AcDbPolyline
 90
    4
 70
    1
 43
0
 10
21.8132
 20
11.602
 42
1.000000000000018
 10
21.914
 20
11.4878
 42
0.4170999999999999
 10
21.9759
 20
12.5655
 42
0.9999999999999997
 10
21.8627
 20
12.4635
 42
-0.4171000000000005
  0
LWPOLYLINE
  5
1C9
100
AcDbEntity
  8
0
  6
ByLayer
 62
  256
370
   -1
100
AcDbPolyline
 90
    4
 70
    1
 43
0
 10
18.9698
 20
11.6851
 42
0.9999999999999999
 10
18.8746
 20
11.5661
 42
0.342
 10
21.9557
 20
11.5178
 42
0.9999999999999999
 10
21.8643
 20
11.6398
 42
-0.342
  0
LWPOLYLINE
  5
1CA
100
AcDbEntity
  8
0
  6
ByLayer
 62
  256
370
   -1
100
AcDbPolyline
 90
    4
 70
    1
 43
0
 10
21.8667
 20
12.4688
 42
0.9999999999999937
 10
21.9817
 20
12.5688
 42
0.4663999999999999
 10
18.7106
 20
12.5117
 42
1.000000000000009
 10
18.829
 20
12.4159
 42
-0.4664000000000003
  0
LWPOLYLINE
  5
1CB
100
AcDbEntity
  8
0
  6
ByLayer
 62
  256
370
   -1
100
AcDbPolyline
 90
    4
 70
    1
 43
0
 10
18.8761
 20
12.4624
 42
0.9999999999999923
 10
18.7651
 20
12.5668
 42
0.4889000000000002
 10
18.9273
 20
11.5231
 42
1.00000000000002
 10
19.0013
 20
11.6563
 42
-0.4888999999999997
  0
LWPOLYLINE
  5
1CC
100
AcDbEntity
  8
0
  6
ByLayer
 62
  256
370
   -1
100
AcDbPolyline
 90
    4
 70
    1
 43
0
 10
18.7853
 20
11.8304
 10
21.8333
 20
12.4654
 42
0.9999999999999746
 10
21.8023
 20
12.6146
 10
18.7543
 20
11.9796
 42
0.9999999999999999
  0
LWPOLYLINE
  5
1CD
100
AcDbEntity
  8
0
  6
ByLayer
 62
  256
370
   -1
100
AcDbPolyline
 90
    4
 70
    1
 43
0
 10
18.9123
 20
11.7034
 10
21.9603
 20
12.3384
 42
0.9999999999999999
 10
21.9293
 20
12.4876
 10
18.8813
 20
11.8526
 42
0.9999999999999999
  0
LWPOLYLINE
  5
1CE
100
AcDbEntity
  8
0
  6
ByLayer
 62
  256
370
   -1
100
AcDbPolyline
 90
    4
 70
    1
 43
0
 10
18.3634
 20
7.6378
 10
18.7444
 20
7.6378
 42
0.9999999999999999
 10
18.7444
 20
7.7902
 10
18.3634
 20
7.7902
 42
0.9999999999999999
  0
LWPOLYLINE
  5
1CF
100
AcDbEntity
  8
0
  6
ByLayer
 62
  256
370
   -1
100
AcDbPolyline
 90
    4
 70
    1
 43
0
 10
22.4274
 20
7.7902
 10
22.0464
 20
7.7902
 42
0.9999999999999999
 10
22.0464
 20
7.6378
 10
22.4274
 20
7.6378
 42
0.9999999999999999
  0
LWPOLYLINE
  5
1D0
100
AcDbEntity
  8
0
  6
ByLayer
 62
  256
370
   -1
100
AcDbPolyline
 90
    4
 70
    1
 43
0
 10
17.83
 20
8.018800000000001
 10
18.7444
 20
8.018800000000001
 42
0.9999999999999999
 10
18.7444
 20
8.171200000000001
 10
17.83
 20
8.171200000000001
 42
0.9999999999999999
  0
LWPOLYLINE
  5
1D1
100
AcDbEntity
  8
0
  6
ByLayer
 62
  256
370
   -1
100
AcDbPolyline
 90
    4
 70
    1
 43
0
 10
22.0464
 20
8.018800000000001
 10
23.7482
 20
8.018800000000001
 42
0.9999999999999999
 10
23.7482
 20
8.171200000000001
 10
22.0464
 20
8.171200000000001
 42
0.9999999999999999
  0
LWPOLYLINE
  5
1D2
100
AcDbEntity
  8
0
  6
ByLayer
 62
  256
370
   -1
100
AcDbPolyline
 90
    4
 70
    1
 43
0
 10
27.99
 20
8.171200000000001
 10
27.0502
 20
8.171200000000001
 42
0.9999999999999999
 10
27.0502
 20
8.018800000000001
 10
27.99
 20
8.018800000000001
 42
0.9999999999999999
  0
LWPOLYLINE
  5
1D3
100
AcDbEntity
  8
0
  6
ByLayer
 62
  256
370
   -1
100
AcDbPolyline
 90
    4
 70
    1
 43
0
 10
27.4312
 20
7.7902
 10
27.0502
 20
7.7902
 42
0.9999999999999999
 10
27.0502
 20
7.6378
 10
27.4312
 20
7.6378
 42
0.9999999999999999
  0
LWPOLYLINE
  5
1D4
100
AcDbEntity
  8
0
  6
ByLayer
 62
  256
370
   -1
100
AcDbPolyline
 90
    4
 70
    1
 43
0
 10
23.3672
 20
7.6378
 10
23.7482
 20
7.6378
 42
0.9999999999999999
 10
23.7482
 20
7.7902
 10
23.3672
 20
7.7902
 42
0.9999999999999999
  0
LWPOLYLINE
  5
1D5
100
AcDbEntity
  8
0
  6
ByLayer
 62
  256
370
   -1
100
AcDbPolyline
 90
    4
 70
    1
 43
0
 10
18.5174
 20
9.632899999999999
 10
18.8349
 20
9.886900000000001
 42
0.9999999999999999
 10
18.7555
 20
9.9861
 10
18.438
 20
9.732100000000001
 42
0.999999999999991
  0
LWPOLYLINE
  5
1D6
100
AcDbEntity
  8
0
  6
ByLayer
 62
  256
370
   -1
100
AcDbPolyline
 90
    4
 70
    1
 43
0
 10
18.7317
 20
9.936500000000001
 10
18.7317
 20
8.7935
 42
0.9999999999999999
 10
18.8587
 20
8.7935
 10
18.8587
 20
9.936500000000001
 42
0.9999999999999999
  0
LWPOLYLINE
  5
1D7
100
AcDbEntity
  8
0
  6
ByLayer
 62
  256
370
   -1
100
AcDbPolyline
 90
    4
 70
    1
 43
0
 10
18.4777
 20
8.73
 10
19.1127
 20
8.73
 42
0.9999999999999999
 10
19.1127
 20
8.856999999999999
 10
18.4777
 20
8.856999999999999
 42
0.9999999999999999
  0
LWPOLYLINE
  5
1D8
100
AcDbEntity
  8
0
  6
ByLayer
 62
  256
370
   -1
100
AcDbPolyline
 90
    4
 70
    1
 43
0
 10
24.1292
 20
9.6508
 42
0.9999999999999999
 10
24.2562
 20
9.6508
 42
0.4142000000000016
 10
23.907
 20
10
 42
0.9999999999999999
 10
23.907
 20
9.872999999999998
 42
-0.4142000000000003
  0
LWPOLYLINE
  5
1D9
100
AcDbEntity
  8
0
  6
ByLayer
 62
  256
370
   -1
100
AcDbPolyline
 90
    4
 70
    1
 43
0
 10
23.9069
 20
9.872999999999998
 42
1.000000000000028
 10
23.907
 20
10
 42
0.3252000000000015
 10
23.4973
 20
9.7021
 42
0.9999999999999952
 10
23.61809999999999
 20
9.6629
 42
-0.3251999999999998
  0
LWPOLYLINE
  5
1DA
100
AcDbEntity
  8
0
  6
ByLayer
 62
  256
370
   -1
100
AcDbPolyline
 90
    4
 70
    1
 43
0
 10
24.0537
 20
9.474499999999999
 42
0.9999999999999892
 10
24.1412
 20
9.382499999999997
 42
0.2053000000000013
 10
24.2562
 20
9.6508
 42
0.9999999999999999
 10
24.1292
 20
9.650700000000001
 42
-0.2053000000000017
  0
LWPOLYLINE
  5
1DB
100
AcDbEntity
  8
0
  6
ByLayer
 62
  256
370
   -1
100
AcDbPolyline
 90
    4
 70
    1
 43
0
 10
24.0491
 20
9.4696
 10
23.5093
 20
8.8346
 42
0.9999999999999994
 10
23.6061
 20
8.7524
 10
24.1458
 20
9.387399999999998
 42
1.000000000000018
  0
LWPOLYLINE
  5
1DC
100
AcDbEntity
  8
0
  6
ByLayer
 62
  256
370
   -1
100
AcDbPolyline
 90
    4
 70
    1
 43
0
 10
23.5577
 20
8.73
 10
24.1927
 20
8.73
 42
0.9999999999999999
 10
24.1927
 20
8.856999999999999
 10
23.5577
 20
8.856999999999999
 42
0.9999999999999999
  0
LWPOLYLINE
  5
1DD
100
AcDbEntity
  8
0
  6
ByLayer
 62
  256
370
   -1
100
AcDbPolyline
 90
    4
 70
    1
 43
0
 10
58.8283
 20
14.992
 42
0.9999999999999946
 10
58.7019
 20
14.98
 42
0.1440000000000001
 10
59.2755
 20
13.5497
 42
1.000000000000011
 10
59.3753
 20
13.6283
 42
-0.1440000000000003
  0
LWPOLYLINE
  5
1DE
100
AcDbEntity
  8
0
  6
ByLayer
 62
  256
370
   -1
100
AcDbPolyline
 90
    4
 70
    1
 43
0
 10
60.6524
 20
17.7278
 42
1.000000000000054
 10
60.615
 20
17.8492
 42
0.3556999999999996
 10
58.7019
 20
14.98
 42
1.000000000000005
 10
58.8283
 20
14.992
 42
-0.3556999999999996
  0
LWPOLYLINE
  5
1DF
100
AcDbEntity
  8
0
  6
ByLayer
 62
  256
370
   -1
100
AcDbPolyline
 90
    4
 70
    1
 43
0
 10
63.4646
 20
13.6283
 42
1.000000000000011
 10
63.5644
 20
13.5497
 42
0.5266999999999993
 10
62.225
 20
17.8491
 42
1.000000000000053
 10
62.1876
 20
17.7277
 42
-0.5266999999999989
  0
LWPOLYLINE
  5
1E0
100
AcDbEntity
  8
0
  6
ByLayer
 62
  256
370
   -1
100
AcDbPolyline
 90
    4
 70
    1
 43
0
 10
59.3255
 20
13.5255
 10
63.5145
 20
13.5255
 42
0.9999999999999999
 10
63.5145
 20
13.6525
 10
59.3255
 20
13.6525
 42
0.9999999999999999
  0
LWPOLYLINE
  5
1E1
100
AcDbEntity
  8
0
  6
ByLayer
 62
  256
370
   -1
100
AcDbPolyline
 90
    4
 70
    1
 43
0
 10
58.7651
 20
14.9225
 10
59.1663
 20
14.9225
 42
0.9999999999999999
 10
59.1663
 20
15.0495
 10
58.7651
 20
15.0495
 42
0.9999999999999999
  0
LWPOLYLINE
  5
1E2
100
AcDbEntity
  8
0
  6
ByLayer
 62
  256
370
   -1
100
AcDbPolyline
 90
    4
 70
    1
 43
0
 10
61.1337
 20
14.9225
 10
61.7063
 20
14.9225
 42
0.9999999999999999
 10
61.7063
 20
15.0495
 10
61.1337
 20
15.0495
 42
0.9999999999999999
  0
LWPOLYLINE
  5
1E3
100
AcDbEntity
  8
0
  6
ByLayer
 62
  256
370
   -1
100
AcDbPolyline
 90
    4
 70
    1
 43
0
 10
63.6737
 20
14.9225
 10
64.0749
 20
14.9225
 42
0.9999999999999999
 10
64.0749
 20
15.0495
 10
63.6737
 20
15.0495
 42
0.9999999999999999
  0
LWPOLYLINE
  5
1E4
100
AcDbEntity
  8
0
  6
ByLayer
 62
  256
370
   -1
100
AcDbPolyline
 90
    4
 70
    1
 43
0
 10
67.13500000000001
 20
24.2062
 10
65.86499999999999
 20
24.2062
 42
0.9999999999999999
 10
65.86499999999999
 20
24.0538
 10
67.13500000000001
 20
24.0538
 42
0.9999999999999999
  0
LWPOLYLINE
  5
1E5
100
AcDbEntity
  8
0
  6
ByLayer
 62
  256
370
   -1
100
AcDbPolyline
 90
    4
 70
    1
 43
0
 10
65.91889999999999
 20
24.1839
 10
65.2839
 20
24.8189
 42
1.000000000000016
 10
65.17610000000001
 20
24.7111
 10
65.8111
 20
24.0761
 42
0.9999999999999835
  0
LWPOLYLINE
  5
1E6
100
AcDbEntity
  8
0
  6
ByLayer
 62
  256
370
   -1
100
AcDbPolyline
 90
    4
 70
    1
 43
0
 10
65.3062
 20
24.765
 10
65.3062
 20
26.035
 42
0.9999999999999999
 10
65.1538
 20
26.035
 10
65.1538
 20
24.765
 42
0.9999999999999999
  0
LWPOLYLINE
  5
1E7
100
AcDbEntity
  8
0
  6
ByLayer
 62
  256
370
   -1
100
AcDbPolyline
 90
    4
 70
    1
 43
0
 10
65.2839
 20
25.9811
 10
65.91889999999999
 20
26.6161
 42
1.000000000000016
 10
65.8111
 20
26.7239
 10
65.17610000000001
 20
26.0889
 42
0.9999999999999999
  0
LWPOLYLINE
  5
1E8
100
AcDbEntity
  8
0
  6
ByLayer
 62
  256
370
   -1
100
AcDbPolyline
 90
    4
 70
    1
 43
0
 10
67.8462
 20
24.765
 10
67.8462
 20
26.035
 42
0.9999999999999999
 10
67.6938
 20
26.035
 10
67.6938
 20
24.765
 42
0.9999999999999999
  0
LWPOLYLINE
  5
1E9
100
AcDbEntity
  8
0
  6
ByLayer
 62
  256
370
   -1
100
AcDbPolyline
 90
    4
 70
    1
 43
0
 10
67.1889
 20
24.0761
 10
67.82389999999999
 20
24.7111
 42
1.000000000000016
 10
67.7161
 20
24.8189
 10
67.08110000000001
 20
24.1839
 42
0.9999999999999835
  0
LWPOLYLINE
  5
1EA
100
AcDbEntity
  8
0
  6
ByLayer
 62
  256
370
   -1
100
AcDbPolyline
 90
    4
 70
    1
 43
0
 10
67.82389999999999
 20
26.0889
 10
67.1889
 20
26.7239
 42
1.000000000000016
 10
67.08110000000001
 20
26.6161
 10
67.7161
 20
25.9811
 42
0.9999999999999999
  0
LWPOLYLINE
  5
1EB
100
AcDbEntity
  8
0
  6
ByLayer
 62
  256
370
   -1
100
AcDbPolyline
 90
    4
 70
    1
 43
0
 10
65.86499999999999
 20
26.5938
 10
67.13500000000001
 20
26.5938
 42
0.9999999999999999
 10
67.13500000000001
 20
26.7462
 10
65.86499999999999
 20
26.7462
 42
0.9999999999999999
  0
LWPOLYLINE
  5
1EC
100
AcDbEntity
  8
0
  6
ByLayer
 62
  256
370
   -1
100
AcDbPolyline
 90
    4
 70
    1
 43
0
 10
65.17610000000001
 20
24.8189
 10
64.5411
 20
24.1839
 42
0.9999999999999835
 10
64.6489
 20
24.0761
 10
65.2839
 20
24.7111
 42
1.000000000000016
  0
LWPOLYLINE
  5
1ED
100
AcDbEntity
  8
0
  6
ByLayer
 62
  256
370
   -1
100
AcDbPolyline
 90
    4
 70
    1
 43
0
 10
64.595
 20
24.2062
 10
63.325
 20
24.2062
 42
0.9999999999999999
 10
63.325
 20
24.0538
 10
64.595
 20
24.0538
 42
0.9999999999999999
  0
LWPOLYLINE
  5
1EE
100
AcDbEntity
  8
0
  6
ByLayer
 62
  256
370
   -1
100
AcDbPolyline
 90
    4
 70
    1
 43
0
 10
63.3789
 20
24.1839
 10
62.7439
 20
24.8189
 42
1.000000000000016
 10
62.6361
 20
24.7111
 10
63.2711
 20
24.0761
 42
1.000000000000016
  0
LWPOLYLINE
  5
1EF
100
AcDbEntity
  8
0
  6
ByLayer
 62
  256
370
   -1
100
AcDbPolyline
 90
    4
 70
    1
 43
0
 10
62.7662
 20
24.765
 10
62.7662
 20
26.035
 42
0.9999999999999999
 10
62.6138
 20
26.035
 10
62.6138
 20
24.765
 42
0.9999999999999999
  0
LWPOLYLINE
  5
1F0
100
AcDbEntity
  8
0
  6
ByLayer
 62
  256
370
   -1
100
AcDbPolyline
 90
    4
 70
    1
 43
0
 10
62.7439
 20
25.9811
 10
63.3789
 20
26.6161
 42
1.00000000000005
 10
63.2711
 20
26.7239
 10
62.6361
 20
26.0889
 42
0.9999999999999999
  0
LWPOLYLINE
  5
1F1
100
AcDbEntity
  8
0
  6
ByLayer
 62
  256
370
   -1
100
AcDbPolyline
 90
    4
 70
    1
 43
0
 10
63.325
 20
26.5938
 10
64.595
 20
26.5938
 42
0.9999999999999999
 10
64.595
 20
26.7462
 10
63.325
 20
26.7462
 42
0.9999999999999999
  0
LWPOLYLINE
  5
1F2
100
AcDbEntity
  8
0
  6
ByLayer
 62
  256
370
   -1
100
AcDbPolyline
 90
    4
 70
    1
 43
0
 10
64.5411
 20
26.6161
 10
65.17610000000001
 20
25.9811
 42
0.9999999999999999
 10
65.2839
 20
26.0889
 10
64.6489
 20
26.7239
 42
1.000000000000016
  0
LWPOLYLINE
  5
1F3
100
AcDbEntity
  8
0
  6
ByLayer
 62
  256
370
   -1
100
AcDbPolyline
 90
    4
 70
    1
 43
0
 10
79.27
 20
29.7335
 10
73.47
 20
29.7335
 42
0.9999999999999999
 10
73.47
 20
29.6065
 10
79.27
 20
29.6065
 42
0.9999999999999999
  0
LWPOLYLINE
  5
1F4
100
AcDbEntity
  8
0
  6
ByLayer
 62
  256
370
   -1
100
AcDbPolyline
 90
    4
 70
    1
 43
0
 10
55.3335
 20
29.67
 10
55.3335
 20
45.67
 42
0.9999999999999999
 10
55.20649999999999
 20
45.67
 10
55.20649999999999
 20
29.67
 42
0.9999999999999999
  0
LWPOLYLINE
  5
1F5
100
AcDbEntity
  8
0
  6
ByLayer
 62
  256
370
   -1
100
AcDbPolyline
 90
    4
 70
    1
 43
0
 10
55.27
 20
45.6065
 10
73.47
 20
45.6065
 42
0.9999999999999999
 10
73.47
 20
45.73350000000001
 10
55.27
 20
45.73350000000001
 42
0.9999999999999999
  0
LWPOLYLINE
  5
1F6
100
AcDbEntity
  8
0
  6
ByLayer
 62
  256
370
   -1
100
AcDbPolyline
 90
    4
 70
    1
 43
0
 10
73.47
 20
45.6065
 10
79.27
 20
45.6065
 42
0.9999999999999999
 10
79.27
 20
45.73350000000001
 10
73.47
 20
45.73350000000001
 42
0.9999999999999999
  0
LWPOLYLINE
  5
1F7
100
AcDbEntity
  8
0
  6
ByLayer
 62
  256
370
   -1
100
AcDbPolyline
 90
    4
 70
    1
 43
0
 10
79.20650000000001
 20
45.67
 10
79.20650000000001
 20
29.67
 42
0.9999999999999999
 10
79.33350000000002
 20
29.67
 10
79.33350000000002
 20
45.67
 42
0.9999999999999999
  0
LWPOLYLINE
  5
1F8
100
AcDbEntity
  8
0
  6
ByLayer
 62
  256
370
   -1
100
AcDbPolyline
 90
    4
 70
    1
 43
0
 10
73.40649999999999
 20
45.67
 10
73.40649999999999
 20
29.67
 42
0.9999999999999999
 10
73.5335
 20
29.67
 10
73.5335
 20
45.67
 42
0.9999999999999999
  0
LWPOLYLINE
  5
1F9
100
AcDbEntity
  8
0
  6
ByLayer
 62
  256
370
   -1
100
AcDbPolyline
 90
    4
 70
    1
 43
0
 10
73.47
 20
29.7335
 10
55.27
 20
29.7335
 42
0.9999999999999999
 10
55.27
 20
29.6065
 10
73.47
 20
29.6065
 42
0.9999999999999999
  0
LWPOLYLINE
  5
1FA
100
AcDbEntity
  8
0
  6
ByLayer
 62
  256
370
   -1
100
AcDbPolyline
 90
    4
 70
    1
 43
0
 10
73.67
 20
42.1652
 10
78.56999999999999
 20
42.1652
 42
0.9999999999999999
 10
78.56999999999999
 20
42.7748
 10
73.67
 20
42.7748
 42
0.9999999999999999
  0
LWPOLYLINE
  5
1FB
100
AcDbEntity
  8
0
  6
ByLayer
 62
  256
370
   -1
100
AcDbPolyline
 90
    4
 70
    1
 43
0
 10
78.26519999999999
 20
42.47
 10
78.26519999999999
 20
41.57
 42
0.9999999999999999
 10
78.87479999999999
 20
41.57
 10
78.87479999999999
 20
42.47
 42
0.9999999999999999
  0
LWPOLYLINE
  5
1FC
100
AcDbEntity
  8
0
  6
ByLayer
 62
  256
370
   -1
100
AcDbPolyline
 90
    4
 70
    1
 43
0
 10
78.56999999999999
 20
41.8748
 10
74.87
 20
41.8748
 42
0.9999999999999999
 10
74.87
 20
41.2652
 10
78.56999999999999
 20
41.2652
 42
0.9999999999999999
  0
LWPOLYLINE
  5
1FD
100
AcDbEntity
  8
0
  6
ByLayer
 62
  256
370
   -1
100
AcDbPolyline
 90
    4
 70
    1
 43
0
 10
74.5652
 20
41.57
 10
74.5652
 20
40.57
 42
0.9999999999999999
 10
75.1748
 20
40.57
 10
75.1748
 20
41.57
 42
0.9999999999999999
  0
LWPOLYLINE
  5
1FE
100
AcDbEntity
  8
0
  6
ByLayer
 62
  256
370
   -1
100
AcDbPolyline
 90
    4
 70
    1
 43
0
 10
74.87
 20
40.2652
 10
78.47
 20
40.2652
 42
0.9999999999999999
 10
78.47
 20
40.8748
 10
74.87
 20
40.8748
 42
0.9999999999999999
  0
LWPOLYLINE
  5
1FF
100
AcDbEntity
  8
0
  6
ByLayer
 62
  256
370
   -1
100
AcDbPolyline
 90
    4
 70
    1
 43
0
 10
78.1652
 20
40.57
 10
78.1652
 20
39.37
 42
0.9999999999999999
 10
78.7748
 20
39.37
 10
78.7748
 20
40.57
 42
0.9999999999999999
  0
LWPOLYLINE
  5
200
100
AcDbEntity
  8
0
  6
ByLayer
 62
  256
370
   -1
100
AcDbPolyline
 90
    4
 70
    1
 43
0
 10
78.47
 20
39.6748
 10
74.87
 20
39.6748
 42
0.9999999999999999
 10
74.87
 20
39.0652
 10
78.47
 20
39.0652
 42
0.9999999999999999
  0
LWPOLYLINE
  5
201
100
AcDbEntity
  8
0
  6
ByLayer
 62
  256
370
   -1
100
AcDbPolyline
 90
    4
 70
    1
 43
0
 10
74.5652
 20
39.37
 10
74.5652
 20
38.17
 42
0.9999999999999999
 10
75.1748
 20
38.17
 10
75.1748
 20
39.37
 42
0.9999999999999999
  0
LWPOLYLINE
  5
202
100
AcDbEntity
  8
0
  6
ByLayer
 62
  256
370
   -1
100
AcDbPolyline
 90
    4
 70
    1
 43
0
 10
74.87
 20
37.8652
 10
78.47
 20
37.8652
 42
0.9999999999999999
 10
78.47
 20
38.4748
 10
74.87
 20
38.4748
 42
0.9999999999999999
  0
LWPOLYLINE
  5
203
100
AcDbEntity
  8
0
  6
ByLayer
 62
  256
370
   -1
100
AcDbPolyline
 90
    4
 70
    1
 43
0
 10
78.1652
 20
38.17
 10
78.1652
 20
37.07
 42
0.9999999999999999
 10
78.7748
 20
37.07
 10
78.7748
 20
38.17
 42
0.9999999999999999
  0
LWPOLYLINE
  5
204
100
AcDbEntity
  8
0
  6
ByLayer
 62
  256
370
   -1
100
AcDbPolyline
 90
    4
 70
    1
 43
0
 10
78.47
 20
37.3748
 10
74.97
 20
37.3748
 42
0.9999999999999999
 10
74.97
 20
36.7652
 10
78.47
 20
36.7652
 42
0.9999999999999999
  0
LWPOLYLINE
  5
205
100
AcDbEntity
  8
0
  6
ByLayer
 62
  256
370
   -1
100
AcDbPolyline
 90
    4
 70
    1
 43
0
 10
74.6652
 20
37.07
 10
74.6652
 20
35.97
 42
0.9999999999999999
 10
75.2748
 20
35.97
 10
75.2748
 20
37.07
 42
0.9999999999999999
  0
LWPOLYLINE
  5
206
100
AcDbEntity
  8
0
  6
ByLayer
 62
  256
370
   -1
100
AcDbPolyline
 90
    4
 70
    1
 43
0
 10
74.97
 20
35.6652
 10
78.47
 20
35.6652
 42
0.9999999999999999
 10
78.47
 20
36.2748
 10
74.97
 20
36.2748
 42
0.9999999999999999
  0
LWPOLYLINE
  5
207
100
AcDbEntity
  8
0
  6
ByLayer
 62
  256
370
   -1
100
AcDbPolyline
 90
    4
 70
    1
 43
0
 10
78.1652
 20
35.97
 10
78.1652
 20
31.97
 42
0.9999999999999999
 10
78.7748
 20
31.97
 10
78.7748
 20
35.97
 42
0.9999999999999999
  0
LWPOLYLINE
  5
208
100
AcDbEntity
  8
0
  6
ByLayer
 62
  256
370
   -1
100
AcDbPolyline
 90
    4
 70
    1
 43
0
 10
73.56999999999999
 20
42.7748
 10
72.97
 20
42.7748
 42
0.9999999999999999
 10
72.97
 20
42.1652
 10
73.56999999999999
 20
42.1652
 42
0.9999999999999999
  0
LWPOLYLINE
  5
209
100
AcDbEntity
  8
0
  6
ByLayer
 62
  256
370
   -1
100
AcDbPolyline
 90
    4
 70
    1
 43
0
 10
72.6652
 20
42.47
 10
72.6652
 20
35.97
 42
0.9999999999999999
 10
73.2748
 20
35.97
 10
73.2748
 20
42.47
 42
0.9999999999999999
  0
LWPOLYLINE
  5
20A
100
AcDbEntity
  8
0
  6
ByLayer
 62
  256
370
   -1
100
AcDbPolyline
 90
    4
 70
    1
 43
0
 10
70.0484
 20
33.6518
 10
70.04839999999999
 20
33.1325
 42
0.9999999999999999
 10
70.15000000000001
 20
33.1325
 10
70.15000000000001
 20
33.6518
 42
0.9999999999999999
  0
LWPOLYLINE
  5
20B
100
AcDbEntity
  8
0
  6
ByLayer
 62
  256
370
   -1
100
AcDbPolyline
 90
    4
 70
    1
 43
0
 10
70.0992
 20
33.1833
 10
68.9308
 20
33.1833
 42
0.9999999999999999
 10
68.9308
 20
33.0817
 10
70.0992
 20
33.0817
 42
0.9999999999999999
  0
LWPOLYLINE
  5
20C
100
AcDbEntity
  8
0
  6
ByLayer
 62
  256
370
   -1
100
AcDbPolyline
 90
    4
 70
    1
 43
0
 10
68.9816
 20
33.1325
 10
68.98160000000001
 20
33.6518
 42
0.9999999999999999
 10
68.88
 20
33.6518
 10
68.88
 20
33.1325
 42
0.9999999999999999
  0
LWPOLYLINE
  5
20D
100
AcDbEntity
  8
0
  6
ByLayer
 62
  256
370
   -1
100
AcDbPolyline
 90
    4
 70
    1
 43
0
 10
69.5009
 20
33.1325
 10
69.5009
 20
33.522
 42
0.9999999999999999
 10
69.39929999999998
 20
33.522
 10
69.39929999999998
 20
33.1325
 42
0.9999999999999999
  0
LWPOLYLINE
  5
20E
100
AcDbEntity
  8
0
  6
ByLayer
 62
  256
370
   -1
100
AcDbPolyline
 90
    4
 70
    1
 43
0
 10
70.04839999999999
 20
34.4341
 42
0.9999999999999999
 10
70.14999999999999
 20
34.4341
 42
0.4141999999999884
 10
69.8396
 20
34.74459999999999
 42
0.9999999999999999
 10
69.8396
 20
34.643
 42
-0.4142000000000066
  0
LWPOLYLINE
  5
20F
100
AcDbEntity
  8
0
  6
ByLayer
 62
  256
370
   -1
100
AcDbPolyline
 90
    4
 70
    1
 43
0
 10
69.9012
 20
34.08070000000001
 42
1.00000000000005
 10
69.9727
 20
34.00860000000001
 42
0.1999999999999987
 10
70.15000000000001
 20
34.4341
 42
0.9999999999999999
 10
70.04839999999997
 20
34.4341
 42
-0.1999999999999964
  0
LWPOLYLINE
  5
210
100
AcDbEntity
  8
0
  6
ByLayer
 62
  256
370
   -1
100
AcDbPolyline
 90
    4
 70
    1
 43
0
 10
68.98160000000001
 20
34.3368
 42
0.9999999999999999
 10
68.88000000000001
 20
34.3368
 42
0.4141999999999884
 10
69.1904
 20
34.02630000000001
 42
0.9999999999999999
 10
69.1904
 20
34.1279
 42
-0.4142000000000063
  0
LWPOLYLINE
  5
211
100
AcDbEntity
  8
0
  6
ByLayer
 62
  256
370
   -1
100
AcDbPolyline
 90
    4
 70
    1
 43
0
 10
69.0688
 20
34.5984
 42
1.000000000000056
 10
68.9875
 20
34.65939999999999
 42
0.1622999999999976
 10
68.88000000000001
 20
34.3368
 42
0.9999999999999999
 10
68.9816
 20
34.3368
 42
-0.1622999999999987
  0
LWPOLYLINE
  5
212
100
AcDbEntity
  8
0
  6
ByLayer
 62
  256
370
   -1
100
AcDbPolyline
 90
    4
 70
    1
 43
0
 10
69.1904
 20
34.1279
 42
0.9999999999999999
 10
69.1904
 20
34.02630000000001
 42
0.2655999999999945
 10
69.4614
 20
34.1812
 42
1.000000000000071
 10
69.37390000000001
 20
34.2327
 42
-0.2655999999999967
  0
LWPOLYLINE
  5
213
100
AcDbEntity
  8
0
  6
ByLayer
 62
  256
370
   -1
100
AcDbPolyline
 90
    4
 70
    1
 43
0
 10
69.8396
 20
34.643
 42
0.9999999999999999
 10
69.8396
 20
34.74459999999999
 42
0.2655999999999962
 10
69.5686
 20
34.5898
 42
1.000000000000071
 10
69.6561
 20
34.5382
 42
-0.2655999999999967
  0
LWPOLYLINE
  5
214
100
AcDbEntity
  8
0
  6
ByLayer
 62
  256
370
   -1
100
AcDbPolyline
 90
    4
 70
    1
 43
0
 10
69.56780000000001
 20
34.5883
 10
69.373
 20
34.2313
 42
1.000000000000067
 10
69.4622
 20
34.1826
 10
69.657
 20
34.5396
 42
1.000000000000067
  0
LWPOLYLINE
  5
215
100
AcDbEntity
  8
0
  6
ByLayer
 62
  256
370
   -1
100
AcDbPolyline
 90
    4
 70
    1
 43
0
 10
70.0992
 20
35.2554
 10
68.9308
 20
35.2554
 42
0.9999999999999999
 10
68.9308
 20
35.1538
 10
70.0992
 20
35.1538
 42
0.9999999999999999
  0
LWPOLYLINE
  5
216
100
AcDbEntity
  8
0
  6
ByLayer
 62
  256
370
   -1
100
AcDbPolyline
 90
    4
 70
    1
 43
0
 10
68.9816
 20
35.2046
 10
68.98160000000001
 20
35.5292
 42
0.9999999999999999
 10
68.88
 20
35.5292
 10
68.88
 20
35.2046
 42
0.9999999999999999
  0
LWPOLYLINE
  5
217
100
AcDbEntity
  8
0
  6
ByLayer
 62
  256
370
   -1
100
AcDbPolyline
 90
    4
 70
    1
 43
0
 10
69.5291
 20
35.5292
 42
0.9999999999999999
 10
69.63070000000002
 20
35.5292
 42
0.9999999999999999
 10
68.88
 20
35.5292
 42
0.9999999999999999
 10
68.98160000000001
 20
35.5292
 42
-0.9999999999999999
  0
LWPOLYLINE
  5
218
100
AcDbEntity
  8
0
  6
ByLayer
 62
  256
370
   -1
100
AcDbPolyline
 90
    4
 70
    1
 43
0
 10
69.5291
 20
35.5292
 10
69.5291
 20
35.2046
 42
0.9999999999999999
 10
69.63070000000002
 20
35.2046
 10
69.63070000000002
 20
35.5292
 42
0.9999999999999999
  0
LWPOLYLINE
  5
219
100
AcDbEntity
  8
0
  6
ByLayer
 62
  256
370
   -1
100
AcDbPolyline
 90
    4
 70
    1
 43
0
 10
69.23009999999999
 20
36.9339
 10
68.9705
 20
37.2585
 42
0.9999999999998582
 10
68.89109999999999
 20
37.195
 10
69.1508
 20
36.8704
 42
0.9999999999999999
  0
LWPOLYLINE
  5
21A
100
AcDbEntity
  8
0
  6
ByLayer
 62
  256
370
   -1
100
AcDbPolyline
 90
    4
 70
    1
 43
0
 10
68.9308
 20
37.1759
 10
70.0992
 20
37.1759
 42
0.9999999999999999
 10
70.0992
 20
37.2775
 10
68.9308
 20
37.2775
 42
0.9999999999999999
  0
LWPOLYLINE
  5
21B
100
AcDbEntity
  8
0
  6
ByLayer
 62
  256
370
   -1
100
AcDbPolyline
 90
    4
 70
    1
 43
0
 10
70.15000000000001
 20
36.9022
 10
70.15000000000001
 20
37.5513
 42
0.9999999999999999
 10
70.04839999999999
 20
37.5513
 10
70.04839999999999
 20
36.9022
 42
0.9999999999999999
  0
LWPOLYLINE
  5
21C
100
AcDbEntity
  8
0
  6
ByLayer
 62
  256
370
   -1
100
AcDbPolyline
 90
    4
 70
    1
 43
0
 10
69.2229
 20
38.6435
 42
0.9999999999999999
 10
69.2229
 20
38.7451
 42
0.4142000000000083
 10
68.88
 20
38.4022
 42
0.9999999999999999
 10
68.9816
 20
38.4022
 42
-0.4142000000000239
  0
LWPOLYLINE
  5
21D
100
AcDbEntity
  8
0
  6
ByLayer
 62
  256
370
   -1
100
AcDbPolyline
 90
    4
 70
    1
 43
0
 10
68.98160000000001
 20
38.4022
 42
0.9999999999999999
 10
68.88
 20
38.4022
 42
0.3251999999999952
 10
69.1748
 20
37.99680000000001
 42
0.9999999999998453
 10
69.20610000000001
 20
38.0935
 42
-0.3252000000000042
  0
LWPOLYLINE
  5
21E
100
AcDbEntity
  8
0
  6
ByLayer
 62
  256
370
   -1
100
AcDbPolyline
 90
    4
 70
    1
 43
0
 10
69.41330000000001
 20
38.5619
 42
0.9999999999999493
 10
69.48690000000001
 20
38.6319
 42
0.2053000000000013
 10
69.2229
 20
38.74510000000001
 42
0.9999999999999999
 10
69.2229
 20
38.6435
 42
-0.2052999999999987
  0
LWPOLYLINE
  5
21F
100
AcDbEntity
  8
0
  6
ByLayer
 62
  256
370
   -1
100
AcDbPolyline
 90
    4
 70
    1
 43
0
 10
69.41719999999999
 20
38.5582
 10
70.0663
 20
38.0065
 42
1
 10
70.13209999999999
 20
38.0839
 10
69.483
 20
38.6356
 42
1.000000000000106
  0
LWPOLYLINE
  5
220
100
AcDbEntity
  8
0
  6
ByLayer
 62
  256
370
   -1
100
AcDbPolyline
 90
    4
 70
    1
 43
0
 10
70.15000000000001
 20
38.0452
 10
70.15000000000001
 20
38.6943
 42
0.9999999999999999
 10
70.04839999999999
 20
38.6943
 10
70.04839999999999
 20
38.0452
 42
0.9999999999999999
  0
LWPOLYLINE
  5
221
100
AcDbEntity
  8
0
  6
ByLayer
 62
  256
370
   -1
100
AcDbPolyline
 90
    4
 70
    1
 43
0
 10
69.6956
 20
39.1994
 10
69.69560000000001
 20
39.9784
 42
0.9999999999999999
 10
69.59399999999999
 20
39.9784
 10
69.59399999999999
 20
39.1994
 42
0.9999999999999999
  0
LWPOLYLINE
  5
222
100
AcDbEntity
  8
0
  6
ByLayer
 62
  256
370
   -1
100
AcDbPolyline
 90
    4
 70
    1
 43
0
 10
69.77460000000001
 20
40.6011
 10
69.25539999999999
 20
40.6011
 42
0.9999999999999999
 10
69.25539999999999
 20
40.4995
 10
69.77460000000001
 20
40.4995
 42
0.9999999999999999
  0
LWPOLYLINE
  5
223
100
AcDbEntity
  8
0
  6
ByLayer
 62
  256
370
   -1
100
AcDbPolyline
 90
    4
 70
    1
 43
0
 10
69.25539999999999
 20
41.1486
 42
0.9999999999999999
 10
69.25539999999999
 20
41.25019999999999
 42
0.9999999999999999
 10
69.25539999999999
 20
40.4995
 42
0.9999999999999999
 10
69.25539999999999
 20
40.6011
 42
-0.9999999999999999
  0
LWPOLYLINE
  5
224
100
AcDbEntity
  8
0
  6
ByLayer
 62
  256
370
   -1
100
AcDbPolyline
 90
    4
 70
    1
 43
0
 10
69.25539999999999
 20
41.1486
 10
69.77460000000001
 20
41.1486
 42
0.9999999999999999
 10
69.77460000000001
 20
41.25019999999999
 10
69.25539999999999
 20
41.25019999999999
 42
0.9999999999999999
  0
LWPOLYLINE
  5
225
100
AcDbEntity
  8
0
  6
ByLayer
 62
  256
370
   -1
100
AcDbPolyline
 90
    4
 70
    1
 43
0
 10
69.77460000000001
 20
40.6011
 42
0.9999999999999999
 10
69.77460000000001
 20
40.4995
 42
0.9999999999999999
 10
69.77460000000001
 20
41.25019999999999
 42
0.9999999999999999
 10
69.77460000000001
 20
41.1486
 42
-0.9999999999999999
  0
LWPOLYLINE
  5
226
100
AcDbEntity
  8
0
  6
ByLayer
 62
  256
370
   -1
100
AcDbPolyline
 90
    4
 70
    1
 43
0
 10
69.8755
 20
41.0336
 10
70.13509999999999
 20
41.2933
 42
0.9999999999999999
 10
70.0633
 20
41.3651
 10
69.8036
 20
41.1055
 42
0.9999999999999999
  0
ENDSEC
  0
SECTION
  2
OBJECTS
  0
DICTIONARY
  5
C
330
0
100
AcDbDictionary
281
    1
  3
ACAD_GROUP
350
D
  0
DICTIONARY
  5
D
330
C
100
AcDbDictionary
281
    1
  0
ENDSEC
  0
EOF
