  0
SECTION
  2
HEADER
  9
$ACADVER
  1
AC1009
  9
$FILLMODE
 70
0
  9
$EXTMIN
 10
-0.0762
 20
-0.4064
 30
0.0000
  9
$EXTMAX
 10
82.2183
 20
93.9653
 30
0.0000
  0
ENDSEC
  0
SECTION
  2
TABLES
  0
TABLE
  2
LTYPE
 70
1
  0
LTYPE
  2
CONTINUOUS
 70
64
  3
Solid line
 72
65
 73
0
 40
0
  0
ENDTAB
  0
TABLE
  2
LAYER
 70
255
  0
LAYER
  2
19
 70
64
 62
53
  6
CONTINUOUS
  0
LAYER
  2
20
 70
64
 62
31
  6
CONTINUOUS
  0
LAYER
  2
21
 70
64
 62
253
  6
CONTINUOUS
  0
LAYER
  2
22
 70
64
 62
253
  6
CONTINUOUS
  0
ENDTAB
  0
ENDSEC
  0
SECTION
  2
BLOCKS
  0
BLOCK
  8
0
  2
RECT
 70
64
 10
0.0000
 20
0.0000
 30
0.0000
  3
RECT
  0
SOLID
  8
0
 10
-0.5000
 20
-0.5000
 30
0.0000
 11
0.5000
 21
-0.5000
 31
0.0000
 12
-0.5000
 22
0.5000
 32
0.0000
 13
0.5000
 23
0.5000
 33
0.0000
  0
ENDBLK
  8
0
  0
BLOCK
  8
0
  2
PIE
 70
64
 10
0.0000
 20
0.0000
 30
0.0000
  3
PIE
  0
CIRCLE
  8
0
 10
0.0000
 20
0.0000
 30
0.0000
 40
0.5000
  0
ENDBLK
  8
0
  0
BLOCK
  8
0
  2
OCTAGONP
 70
64
 10
0.0000
 20
0.0000
 30
0.0000
  3
OCTAGONP
  0
POLYLINE
  8
0
 66
1
 10
0.0000
 20
0.0000
 30
0.0000
 40
0.0000
 41
0.0000
 70
1
  0
VERTEX
  8
0
 10
-0.5000
 20
-0.2071
 30
0.0000
  0
VERTEX
  8
0
 10
-0.5000
 20
0.2071
 30
0.0000
  0
VERTEX
  8
0
 10
-0.2071
 20
0.5000
 30
0.0000
  0
VERTEX
  8
0
 10
0.2071
 20
0.5000
 30
0.0000
  0
VERTEX
  8
0
 10
0.5000
 20
0.2071
 30
0.0000
  0
VERTEX
  8
0
 10
0.5000
 20
-0.2071
 30
0.0000
  0
VERTEX
  8
0
 10
0.2071
 20
-0.5000
 30
0.0000
  0
VERTEX
  8
0
 10
-0.2071
 20
-0.5000
 30
0.0000
  0
SEQEND
  8
0
  0
ENDBLK
  8
0
  0
BLOCK
  8
0
  2
SQUAREP
 70
64
 10
0.0000
 20
0.0000
 30
0.0000
  3
SQUAREP
  0
SOLID
  8
0
 10
-0.5000
 20
-0.5000
 30
0.0000
 11
0.5000
 21
-0.5000
 31
0.0000
 12
-0.5000
 22
0.5000
 32
0.0000
 13
0.5000
 23
0.5000
 33
0.0000
  0
ENDBLK
  8
0
  0
BLOCK
  8
0
  2
ROUNDP
 70
64
 10
0.0000
 20
0.0000
 30
0.0000
  3
ROUNDP
  0
CIRCLE
  8
0
 10
0.0000
 20
0.0000
 30
0.0000
 40
0.5000
  0
ENDBLK
  8
0
  0
BLOCK
  8
0
  2
ANNULUSP
 70
64
 10
0.0000
 20
0.0000
 30
0.0000
  3
ANNULUSP
  0
CIRCLE
  8
0
 10
0.0000
 20
0.0000
 30
0.0000
 40
0.5000
  0
ENDBLK
  8
0
  0
BLOCK
  8
0
  2
THERMALP
 70
64
 10
0.0000
 20
0.0000
 30
0.0000
  3
THERMALP
  0
POLYLINE
  8
0
 66
1
 10
0.0000
 20
0.0000
 30
0.0000
 40
0.0000
 41
0.0000
 70
1
  0
VERTEX
  8
0
 10
-0.2379
 20
0.4000
 30
0.0000
  0
VERTEX
  8
0
 10
0.2379
 20
0.4000
 30
0.0000
 42
1.0000
  0
VERTEX
  8
0
 10
0.2379
 20
0.5000
 30
0.0000
  0
VERTEX
  8
0
 10
-0.2379
 20
0.5000
 30
0.0000
 42
1.0000
  0
SEQEND
  8
0
  0
POLYLINE
  8
0
 66
1
 10
0.0000
 20
0.0000
 30
0.0000
 40
0.0000
 41
0.0000
 70
1
  0
VERTEX
  8
0
 10
0.4000
 20
0.2379
 30
0.0000
  0
VERTEX
  8
0
 10
0.4000
 20
-0.2379
 30
0.0000
 42
1.0000
  0
VERTEX
  8
0
 10
0.5000
 20
-0.2379
 30
0.0000
  0
VERTEX
  8
0
 10
0.5000
 20
0.2379
 30
0.0000
 42
1.0000
  0
SEQEND
  8
0
  0
POLYLINE
  8
0
 66
1
 10
0.0000
 20
0.0000
 30
0.0000
 40
0.0000
 41
0.0000
 70
1
  0
VERTEX
  8
0
 10
0.2379
 20
-0.4000
 30
0.0000
  0
VERTEX
  8
0
 10
-0.2379
 20
-0.4000
 30
0.0000
 42
1.0000
  0
VERTEX
  8
0
 10
-0.2379
 20
-0.5000
 30
0.0000
  0
VERTEX
  8
0
 10
0.2379
 20
-0.5000
 30
0.0000
 42
1.0000
  0
SEQEND
  8
0
  0
POLYLINE
  8
0
 66
1
 10
0.0000
 20
0.0000
 30
0.0000
 40
0.0000
 41
0.0000
 70
1
  0
VERTEX
  8
0
 10
-0.4000
 20
-0.2379
 30
0.0000
  0
VERTEX
  8
0
 10
-0.4000
 20
0.2379
 30
0.0000
 42
1.0000
  0
VERTEX
  8
0
 10
-0.5000
 20
0.2379
 30
0.0000
  0
VERTEX
  8
0
 10
-0.5000
 20
-0.2379
 30
0.0000
 42
1.0000
  0
SEQEND
  8
0
  0
ENDBLK
  8
0
  0
BLOCK
  8
0
  2
OCTAGONV
 70
64
 10
0.0000
 20
0.0000
 30
0.0000
  3
OCTAGONV
  0
POLYLINE
  8
0
 66
1
 10
0.0000
 20
0.0000
 30
0.0000
 40
0.0000
 41
0.0000
 70
1
  0
VERTEX
  8
0
 10
-0.5000
 20
-0.2071
 30
0.0000
  0
VERTEX
  8
0
 10
-0.5000
 20
0.2071
 30
0.0000
  0
VERTEX
  8
0
 10
-0.2071
 20
0.5000
 30
0.0000
  0
VERTEX
  8
0
 10
0.2071
 20
0.5000
 30
0.0000
  0
VERTEX
  8
0
 10
0.5000
 20
0.2071
 30
0.0000
  0
VERTEX
  8
0
 10
0.5000
 20
-0.2071
 30
0.0000
  0
VERTEX
  8
0
 10
0.2071
 20
-0.5000
 30
0.0000
  0
VERTEX
  8
0
 10
-0.2071
 20
-0.5000
 30
0.0000
  0
SEQEND
  8
0
  0
ENDBLK
  8
0
  0
BLOCK
  8
0
  2
SQUAREV
 70
64
 10
0.0000
 20
0.0000
 30
0.0000
  3
SQUAREV
  0
SOLID
  8
0
 10
-0.5000
 20
-0.5000
 30
0.0000
 11
0.5000
 21
-0.5000
 31
0.0000
 12
-0.5000
 22
0.5000
 32
0.0000
 13
0.5000
 23
0.5000
 33
0.0000
  0
ENDBLK
  8
0
  0
BLOCK
  8
0
  2
ROUNDV
 70
64
 10
0.0000
 20
0.0000
 30
0.0000
  3
ROUNDV
  0
CIRCLE
  8
0
 10
0.0000
 20
0.0000
 30
0.0000
 40
0.5000
  0
ENDBLK
  8
0
  0
BLOCK
  8
0
  2
ANNULUSV
 70
64
 10
0.0000
 20
0.0000
 30
0.0000
  3
ANNULUSV
  0
CIRCLE
  8
0
 10
0.0000
 20
0.0000
 30
0.0000
 40
0.5000
  0
ENDBLK
  8
0
  0
BLOCK
  8
0
  2
THERMALV
 70
64
 10
0.0000
 20
0.0000
 30
0.0000
  3
THERMALV
  0
POLYLINE
  8
0
 66
1
 10
0.0000
 20
0.0000
 30
0.0000
 40
0.0000
 41
0.0000
 70
1
  0
VERTEX
  8
0
 10
-0.2379
 20
0.4000
 30
0.0000
  0
VERTEX
  8
0
 10
0.2379
 20
0.4000
 30
0.0000
 42
1.0000
  0
VERTEX
  8
0
 10
0.2379
 20
0.5000
 30
0.0000
  0
VERTEX
  8
0
 10
-0.2379
 20
0.5000
 30
0.0000
 42
1.0000
  0
SEQEND
  8
0
  0
POLYLINE
  8
0
 66
1
 10
0.0000
 20
0.0000
 30
0.0000
 40
0.0000
 41
0.0000
 70
1
  0
VERTEX
  8
0
 10
0.4000
 20
0.2379
 30
0.0000
  0
VERTEX
  8
0
 10
0.4000
 20
-0.2379
 30
0.0000
 42
1.0000
  0
VERTEX
  8
0
 10
0.5000
 20
-0.2379
 30
0.0000
  0
VERTEX
  8
0
 10
0.5000
 20
0.2379
 30
0.0000
 42
1.0000
  0
SEQEND
  8
0
  0
POLYLINE
  8
0
 66
1
 10
0.0000
 20
0.0000
 30
0.0000
 40
0.0000
 41
0.0000
 70
1
  0
VERTEX
  8
0
 10
0.2379
 20
-0.4000
 30
0.0000
  0
VERTEX
  8
0
 10
-0.2379
 20
-0.4000
 30
0.0000
 42
1.0000
  0
VERTEX
  8
0
 10
-0.2379
 20
-0.5000
 30
0.0000
  0
VERTEX
  8
0
 10
0.2379
 20
-0.5000
 30
0.0000
 42
1.0000
  0
SEQEND
  8
0
  0
POLYLINE
  8
0
 66
1
 10
0.0000
 20
0.0000
 30
0.0000
 40
0.0000
 41
0.0000
 70
1
  0
VERTEX
  8
0
 10
-0.4000
 20
-0.2379
 30
0.0000
  0
VERTEX
  8
0
 10
-0.4000
 20
0.2379
 30
0.0000
 42
1.0000
  0
VERTEX
  8
0
 10
-0.5000
 20
0.2379
 30
0.0000
  0
VERTEX
  8
0
 10
-0.5000
 20
-0.2379
 30
0.0000
 42
1.0000
  0
SEQEND
  8
0
  0
ENDBLK
  8
0
  0
BLOCK
  8
0
  2
LONGP100
 70
64
 10
0.0000
 20
0.0000
 30
0.0000
  3
LONGP100
  0
POLYLINE
  8
0
 66
1
 10
0.0000
 20
0.0000
 30
0.0000
 40
0.0000
 41
0.0000
 70
1
  0
VERTEX
  8
0
 10
-0.5000
 20
-0.5000
 30
0.0000
  0
VERTEX
  8
0
 10
0.5000
 20
-0.5000
 30
0.0000
 42
1.0000
  0
VERTEX
  8
0
 10
0.5000
 20
0.5000
 30
0.0000
  0
VERTEX
  8
0
 10
-0.5000
 20
0.5000
 30
0.0000
 42
1.0000
  0
SEQEND
  8
0
  0
ENDBLK
  8
0
  0
BLOCK
  8
0
  2
OFFSETP100
 70
64
 10
0.0000
 20
0.0000
 30
0.0000
  3
OFFSETP100
  0
POLYLINE
  8
0
 66
1
 10
0.0000
 20
0.0000
 30
0.0000
 40
0.0000
 41
0.0000
 70
1
  0
VERTEX
  8
0
 10
0.0000
 20
-0.5000
 30
0.0000
  0
VERTEX
  8
0
 10
1.0000
 20
-0.5000
 30
0.0000
 42
1.0000
  0
VERTEX
  8
0
 10
1.0000
 20
0.5000
 30
0.0000
  0
VERTEX
  8
0
 10
0.0000
 20
0.5000
 30
0.0000
 42
1.0000
  0
SEQEND
  8
0
  0
ENDBLK
  8
0
  0
ENDSEC
  0
SECTION
  2
ENTITIES
  0
POLYLINE
  8
20
 66
1
 10
0.0000
 20
0.0000
 30
0.0000
 40
0.0000
 41
0.0000
 70
1
  0
VERTEX
  8
20
 10
9.0000
 20
-0.0762
 30
0.0000
  0
VERTEX
  8
20
 10
30.0000
 20
-0.0762
 30
0.0000
 42
1.0000
  0
VERTEX
  8
20
 10
30.0000
 20
0.0762
 30
0.0000
  0
VERTEX
  8
20
 10
9.0000
 20
0.0762
 30
0.0000
 42
1.0000
  0
SEQEND
  8
0
  0
POLYLINE
  8
20
 66
1
 10
0.0000
 20
0.0000
 30
0.0000
 40
0.0000
 41
0.0000
 70
1
  0
VERTEX
  8
20
 10
50.0000
 20
-0.0762
 30
0.0000
  0
VERTEX
  8
20
 10
51.0000
 20
-0.0762
 30
0.0000
 42
1.0000
  0
VERTEX
  8
20
 10
51.0000
 20
0.0762
 30
0.0000
  0
VERTEX
  8
20
 10
50.0000
 20
0.0762
 30
0.0000
 42
1.0000
  0
SEQEND
  8
0
  0
POLYLINE
  8
20
 66
1
 10
0.0000
 20
0.0000
 30
0.0000
 40
0.0000
 41
0.0000
 70
1
  0
VERTEX
  8
20
 10
51.0000
 20
-0.0762
 30
0.0000
  0
VERTEX
  8
20
 10
71.0000
 20
-0.0762
 30
0.0000
 42
1.0000
  0
VERTEX
  8
20
 10
71.0000
 20
0.0762
 30
0.0000
  0
VERTEX
  8
20
 10
51.0000
 20
0.0762
 30
0.0000
 42
1.0000
  0
SEQEND
  8
0
  0
POLYLINE
  8
20
 66
1
 10
0.0000
 20
0.0000
 30
0.0000
 40
0.0000
 41
0.0000
 70
1
  0
VERTEX
  8
20
 10
8.9238
 20
-0.0000
 30
0.0000
 42
1.0000
  0
VERTEX
  8
20
 10
9.0762
 20
0.0000
 30
0.0000
 42
0.4142
  0
VERTEX
  8
20
 10
3.0000
 20
6.0762
 30
0.0000
 42
1.0000
  0
VERTEX
  8
20
 10
3.0000
 20
5.9238
 30
0.0000
 42
-0.4142
  0
SEQEND
  8
0
  0
POLYLINE
  8
20
 66
1
 10
0.0000
 20
0.0000
 30
0.0000
 40
0.0000
 41
0.0000
 70
1
  0
VERTEX
  8
20
 10
77.0000
 20
5.9238
 30
0.0000
 42
1.0000
  0
VERTEX
  8
20
 10
77.0000
 20
6.0762
 30
0.0000
 42
0.4142
  0
VERTEX
  8
20
 10
70.9238
 20
0.0000
 30
0.0000
 42
1.0000
  0
VERTEX
  8
20
 10
71.0762
 20
-0.0000
 30
0.0000
 42
-0.4142
  0
SEQEND
  8
0
  0
POLYLINE
  8
20
 66
1
 10
0.0000
 20
0.0000
 30
0.0000
 40
0.0000
 41
0.0000
 70
1
  0
VERTEX
  8
20
 10
3.0000
 20
68.0762
 30
0.0000
 42
1.0000
  0
VERTEX
  8
20
 10
3.0000
 20
67.9238
 30
0.0000
 42
0.4142
  0
VERTEX
  8
20
 10
9.0762
 20
74.0000
 30
0.0000
 42
1.0000
  0
VERTEX
  8
20
 10
8.9238
 20
74.0000
 30
0.0000
 42
-0.4142
  0
SEQEND
  8
0
  0
POLYLINE
  8
20
 66
1
 10
0.0000
 20
0.0000
 30
0.0000
 40
0.0000
 41
0.0000
 70
1
  0
VERTEX
  8
20
 10
71.0762
 20
74.0000
 30
0.0000
 42
1.0000
  0
VERTEX
  8
20
 10
70.9238
 20
74.0000
 30
0.0000
 42
0.4142
  0
VERTEX
  8
20
 10
77.0000
 20
67.9238
 30
0.0000
 42
1.0000
  0
VERTEX
  8
20
 10
77.0000
 20
68.0762
 30
0.0000
 42
-0.4142
  0
SEQEND
  8
0
  0
POLYLINE
  8
20
 66
1
 10
0.0000
 20
0.0000
 30
0.0000
 40
0.0000
 41
0.0000
 70
1
  0
VERTEX
  8
20
 10
8.9238
 20
85.0000
 30
0.0000
  0
VERTEX
  8
20
 10
8.9238
 20
74.0000
 30
0.0000
 42
1.0000
  0
VERTEX
  8
20
 10
9.0762
 20
74.0000
 30
0.0000
  0
VERTEX
  8
20
 10
9.0762
 20
85.0000
 30
0.0000
 42
1.0000
  0
SEQEND
  8
0
  0
POLYLINE
  8
20
 66
1
 10
0.0000
 20
0.0000
 30
0.0000
 40
0.0000
 41
0.0000
 70
1
  0
VERTEX
  8
20
 10
70.9238
 20
85.0000
 30
0.0000
  0
VERTEX
  8
20
 10
70.9238
 20
74.0000
 30
0.0000
 42
1.0000
  0
VERTEX
  8
20
 10
71.0762
 20
74.0000
 30
0.0000
  0
VERTEX
  8
20
 10
71.0762
 20
85.0000
 30
0.0000
 42
1.0000
  0
SEQEND
  8
0
  0
POLYLINE
  8
20
 66
1
 10
0.0000
 20
0.0000
 30
0.0000
 40
0.0000
 41
0.0000
 70
1
  0
VERTEX
  8
20
 10
70.9596
 20
84.9354
 30
0.0000
 42
1.0000
  0
VERTEX
  8
20
 10
71.0404
 20
85.0646
 30
0.0000
 42
0.2867
  0
VERTEX
  8
20
 10
8.9596
 20
85.0646
 30
0.0000
 42
1.0000
  0
VERTEX
  8
20
 10
9.0404
 20
84.9354
 30
0.0000
 42
-0.2867
  0
SEQEND
  8
0
  0
POLYLINE
  8
20
 66
1
 10
0.0000
 20
0.0000
 30
0.0000
 40
0.0000
 41
0.0000
 70
1
  0
VERTEX
  8
20
 10
3.0000
 20
68.0762
 30
0.0000
  0
VERTEX
  8
20
 10
0.0000
 20
68.0762
 30
0.0000
 42
1.0000
  0
VERTEX
  8
20
 10
0.0000
 20
67.9238
 30
0.0000
  0
VERTEX
  8
20
 10
3.0000
 20
67.9238
 30
0.0000
 42
1.0000
  0
SEQEND
  8
0
  0
POLYLINE
  8
20
 66
1
 10
0.0000
 20
0.0000
 30
0.0000
 40
0.0000
 41
0.0000
 70
1
  0
VERTEX
  8
20
 10
-0.0762
 20
68.0000
 30
0.0000
  0
VERTEX
  8
20
 10
-0.0762
 20
6.0000
 30
0.0000
 42
1.0000
  0
VERTEX
  8
20
 10
0.0762
 20
6.0000
 30
0.0000
  0
VERTEX
  8
20
 10
0.0762
 20
68.0000
 30
0.0000
 42
1.0000
  0
SEQEND
  8
0
  0
POLYLINE
  8
20
 66
1
 10
0.0000
 20
0.0000
 30
0.0000
 40
0.0000
 41
0.0000
 70
1
  0
VERTEX
  8
20
 10
0.0000
 20
5.9238
 30
0.0000
  0
VERTEX
  8
20
 10
3.0000
 20
5.9238
 30
0.0000
 42
1.0000
  0
VERTEX
  8
20
 10
3.0000
 20
6.0762
 30
0.0000
  0
VERTEX
  8
20
 10
0.0000
 20
6.0762
 30
0.0000
 42
1.0000
  0
SEQEND
  8
0
  0
POLYLINE
  8
20
 66
1
 10
0.0000
 20
0.0000
 30
0.0000
 40
0.0000
 41
0.0000
 70
1
  0
VERTEX
  8
20
 10
77.0000
 20
5.9238
 30
0.0000
  0
VERTEX
  8
20
 10
80.0000
 20
5.9238
 30
0.0000
 42
1.0000
  0
VERTEX
  8
20
 10
80.0000
 20
6.0762
 30
0.0000
  0
VERTEX
  8
20
 10
77.0000
 20
6.0762
 30
0.0000
 42
1.0000
  0
SEQEND
  8
0
  0
POLYLINE
  8
20
 66
1
 10
0.0000
 20
0.0000
 30
0.0000
 40
0.0000
 41
0.0000
 70
1
  0
VERTEX
  8
20
 10
80.0762
 20
6.0000
 30
0.0000
  0
VERTEX
  8
20
 10
80.0762
 20
68.0000
 30
0.0000
 42
1.0000
  0
VERTEX
  8
20
 10
79.9238
 20
68.0000
 30
0.0000
  0
VERTEX
  8
20
 10
79.9238
 20
6.0000
 30
0.0000
 42
1.0000
  0
SEQEND
  8
0
  0
POLYLINE
  8
20
 66
1
 10
0.0000
 20
0.0000
 30
0.0000
 40
0.0000
 41
0.0000
 70
1
  0
VERTEX
  8
20
 10
80.0000
 20
68.0762
 30
0.0000
  0
VERTEX
  8
20
 10
77.0000
 20
68.0762
 30
0.0000
 42
1.0000
  0
VERTEX
  8
20
 10
77.0000
 20
67.9238
 30
0.0000
  0
VERTEX
  8
20
 10
80.0000
 20
67.9238
 30
0.0000
 42
1.0000
  0
SEQEND
  8
0
  0
POLYLINE
  8
20
 66
1
 10
0.0000
 20
0.0000
 30
0.0000
 40
0.0000
 41
0.0000
 70
1
  0
VERTEX
  8
20
 10
49.9238
 20
0.0000
 30
0.0000
 42
1.0000
  0
VERTEX
  8
20
 10
50.0762
 20
0.0000
 30
0.0000
 42
1.0000
  0
VERTEX
  8
20
 10
29.9238
 20
0.0000
 30
0.0000
 42
1.0000
  0
VERTEX
  8
20
 10
30.0762
 20
-0.0000
 30
0.0000
 42
-1.0000
  0
SEQEND
  8
0
  0
POLYLINE
  8
21
 66
1
 10
0.0000
 20
0.0000
 30
0.0000
 40
0.0000
 41
0.0000
 70
1
  0
VERTEX
  8
21
 10
64.8935
 20
80.7415
 30
0.0000
 42
1.0000
  0
VERTEX
  8
21
 10
65.5665
 20
81.8185
 30
0.0000
 42
0.2867
  0
VERTEX
  8
21
 10
15.3635
 20
81.8185
 30
0.0000
 42
1.0000
  0
VERTEX
  8
21
 10
16.0365
 20
80.7415
 30
0.0000
 42
-0.2867
  0
SEQEND
  8
0
  0
POLYLINE
  8
21
 66
1
 10
0.0000
 20
0.0000
 30
0.0000
 40
0.0000
 41
0.0000
 70
1
  0
VERTEX
  8
21
 10
13.3350
 20
20.3200
 30
0.0000
  0
VERTEX
  8
21
 10
13.3350
 20
45.7200
 30
0.0000
 42
1.0000
  0
VERTEX
  8
21
 10
12.0650
 20
45.7200
 30
0.0000
  0
VERTEX
  8
21
 10
12.0650
 20
20.3200
 30
0.0000
 42
1.0000
  0
SEQEND
  8
0
  0
POLYLINE
  8
21
 66
1
 10
0.0000
 20
0.0000
 30
0.0000
 40
0.0000
 41
0.0000
 70
1
  0
VERTEX
  8
21
 10
15.2880
 20
58.3438
 30
0.0000
  0
VERTEX
  8
21
 10
15.6690
 20
58.3438
 30
0.0000
 42
1.0000
  0
VERTEX
  8
21
 10
15.6690
 20
58.4962
 30
0.0000
  0
VERTEX
  8
21
 10
15.2880
 20
58.4962
 30
0.0000
 42
1.0000
  0
SEQEND
  8
0
  0
POLYLINE
  8
21
 66
1
 10
0.0000
 20
0.0000
 30
0.0000
 40
0.0000
 41
0.0000
 70
1
  0
VERTEX
  8
21
 10
15.7452
 20
58.0390
 30
0.0000
  0
VERTEX
  8
21
 10
15.7452
 20
58.4200
 30
0.0000
 42
1.0000
  0
VERTEX
  8
21
 10
15.5928
 20
58.4200
 30
0.0000
  0
VERTEX
  8
21
 10
15.5928
 20
58.0390
 30
0.0000
 42
1.0000
  0
SEQEND
  8
0
  0
POLYLINE
  8
21
 66
1
 10
0.0000
 20
0.0000
 30
0.0000
 40
0.0000
 41
0.0000
 70
1
  0
VERTEX
  8
21
 10
15.6690
 20
58.3438
 30
0.0000
  0
VERTEX
  8
21
 10
16.0500
 20
58.3438
 30
0.0000
 42
1.0000
  0
VERTEX
  8
21
 10
16.0500
 20
58.4962
 30
0.0000
  0
VERTEX
  8
21
 10
15.6690
 20
58.4962
 30
0.0000
 42
1.0000
  0
SEQEND
  8
0
  0
POLYLINE
  8
21
 66
1
 10
0.0000
 20
0.0000
 30
0.0000
 40
0.0000
 41
0.0000
 70
1
  0
VERTEX
  8
21
 10
15.7452
 20
58.4200
 30
0.0000
  0
VERTEX
  8
21
 10
15.7452
 20
58.8010
 30
0.0000
 42
1.0000
  0
VERTEX
  8
21
 10
15.5928
 20
58.8010
 30
0.0000
  0
VERTEX
  8
21
 10
15.5928
 20
58.4200
 30
0.0000
 42
1.0000
  0
SEQEND
  8
0
  0
CIRCLE
  8
21
 10
17.3200
 20
57.1500
 30
0.0000
 40
2.7178
  0
CIRCLE
  8
21
 10
17.3200
 20
57.1500
 30
0.0000
 40
2.8702
  0
POLYLINE
  8
21
 66
1
 10
0.0000
 20
0.0000
 30
0.0000
 40
0.0000
 41
0.0000
 70
1
  0
VERTEX
  8
21
 10
28.9080
 20
21.5138
 30
0.0000
  0
VERTEX
  8
21
 10
29.2890
 20
21.5138
 30
0.0000
 42
1.0000
  0
VERTEX
  8
21
 10
29.2890
 20
21.6662
 30
0.0000
  0
VERTEX
  8
21
 10
28.9080
 20
21.6662
 30
0.0000
 42
1.0000
  0
SEQEND
  8
0
  0
POLYLINE
  8
21
 66
1
 10
0.0000
 20
0.0000
 30
0.0000
 40
0.0000
 41
0.0000
 70
1
  0
VERTEX
  8
21
 10
29.3652
 20
21.2090
 30
0.0000
  0
VERTEX
  8
21
 10
29.3652
 20
21.5900
 30
0.0000
 42
1.0000
  0
VERTEX
  8
21
 10
29.2128
 20
21.5900
 30
0.0000
  0
VERTEX
  8
21
 10
29.2128
 20
21.2090
 30
0.0000
 42
1.0000
  0
SEQEND
  8
0
  0
POLYLINE
  8
21
 66
1
 10
0.0000
 20
0.0000
 30
0.0000
 40
0.0000
 41
0.0000
 70
1
  0
VERTEX
  8
21
 10
29.2890
 20
21.5138
 30
0.0000
  0
VERTEX
  8
21
 10
29.6700
 20
21.5138
 30
0.0000
 42
1.0000
  0
VERTEX
  8
21
 10
29.6700
 20
21.6662
 30
0.0000
  0
VERTEX
  8
21
 10
29.2890
 20
21.6662
 30
0.0000
 42
1.0000
  0
SEQEND
  8
0
  0
POLYLINE
  8
21
 66
1
 10
0.0000
 20
0.0000
 30
0.0000
 40
0.0000
 41
0.0000
 70
1
  0
VERTEX
  8
21
 10
29.3652
 20
21.5900
 30
0.0000
  0
VERTEX
  8
21
 10
29.3652
 20
21.9710
 30
0.0000
 42
1.0000
  0
VERTEX
  8
21
 10
29.2128
 20
21.9710
 30
0.0000
  0
VERTEX
  8
21
 10
29.2128
 20
21.5900
 30
0.0000
 42
1.0000
  0
SEQEND
  8
0
  0
CIRCLE
  8
21
 10
30.9400
 20
20.3200
 30
0.0000
 40
2.7178
  0
CIRCLE
  8
21
 10
30.9400
 20
20.3200
 30
0.0000
 40
2.8702
  0
POLYLINE
  8
21
 66
1
 10
0.0000
 20
0.0000
 30
0.0000
 40
0.0000
 41
0.0000
 70
1
  0
VERTEX
  8
21
 10
49.9110
 20
20.1168
 30
0.0000
  0
VERTEX
  8
21
 10
50.6730
 20
20.1168
 30
0.0000
 42
1.0000
  0
VERTEX
  8
21
 10
50.6730
 20
20.2692
 30
0.0000
  0
VERTEX
  8
21
 10
49.9110
 20
20.2692
 30
0.0000
 42
1.0000
  0
SEQEND
  8
0
  0
POLYLINE
  8
21
 66
1
 10
0.0000
 20
0.0000
 30
0.0000
 40
0.0000
 41
0.0000
 70
1
  0
VERTEX
  8
21
 10
50.3682
 20
19.8120
 30
0.0000
  0
VERTEX
  8
21
 10
50.3682
 20
20.5740
 30
0.0000
 42
1.0000
  0
VERTEX
  8
21
 10
50.2158
 20
20.5740
 30
0.0000
  0
VERTEX
  8
21
 10
50.2158
 20
19.8120
 30
0.0000
 42
1.0000
  0
SEQEND
  8
0
  0
CIRCLE
  8
21
 10
53.3400
 20
19.0500
 30
0.0000
 40
3.9878
  0
CIRCLE
  8
21
 10
53.3400
 20
19.0500
 30
0.0000
 40
4.1402
  0
POLYLINE
  8
21
 66
1
 10
0.0000
 20
0.0000
 30
0.0000
 40
0.0000
 41
0.0000
 70
1
  0
VERTEX
  8
21
 10
64.3434
 20
84.5195
 30
0.0000
  0
VERTEX
  8
21
 10
64.4704
 20
84.7395
 30
0.0000
 42
1.0000
  0
VERTEX
  8
21
 10
64.2944
 20
84.8411
 30
0.0000
  0
VERTEX
  8
21
 10
64.1674
 20
84.6211
 30
0.0000
 42
1.0000
  0
SEQEND
  8
0
  0
POLYLINE
  8
21
 66
1
 10
0.0000
 20
0.0000
 30
0.0000
 40
0.0000
 41
0.0000
 70
1
  0
VERTEX
  8
21
 10
64.3316
 20
84.7023
 30
0.0000
  0
VERTEX
  8
21
 10
64.3756
 20
84.6769
 30
0.0000
 42
1.0000
  0
VERTEX
  8
21
 10
64.4772
 20
84.8529
 30
0.0000
  0
VERTEX
  8
21
 10
64.4332
 20
84.8783
 30
0.0000
 42
1.0000
  0
SEQEND
  8
0
  0
POLYLINE
  8
21
 66
1
 10
0.0000
 20
0.0000
 30
0.0000
 40
0.0000
 41
0.0000
 70
1
  0
VERTEX
  8
21
 10
64.3384
 20
84.8157
 30
0.0000
  0
VERTEX
  8
21
 10
64.3359
 20
84.8113
 30
0.0000
 42
1.0000
  0
VERTEX
  8
21
 10
64.5118
 20
84.7097
 30
0.0000
  0
VERTEX
  8
21
 10
64.5144
 20
84.7141
 30
0.0000
 42
1.0000
  0
SEQEND
  8
0
  0
POLYLINE
  8
21
 66
1
 10
0.0000
 20
0.0000
 30
0.0000
 40
0.0000
 41
0.0000
 70
1
  0
VERTEX
  8
21
 10
64.3730
 20
84.6725
 30
0.0000
  0
VERTEX
  8
21
 10
68.6603
 20
82.1973
 30
0.0000
 42
1.0000
  0
VERTEX
  8
21
 10
68.7619
 20
82.3733
 30
0.0000
  0
VERTEX
  8
21
 10
64.4746
 20
84.8485
 30
0.0000
 42
1.0000
  0
SEQEND
  8
0
  0
POLYLINE
  8
21
 66
1
 10
0.0000
 20
0.0000
 30
0.0000
 40
0.0000
 41
0.0000
 70
1
  0
VERTEX
  8
21
 10
68.6231
 20
82.3361
 30
0.0000
  0
VERTEX
  8
21
 10
68.5075
 20
82.1359
 30
0.0000
 42
1.0000
  0
VERTEX
  8
21
 10
68.6835
 20
82.0343
 30
0.0000
  0
VERTEX
  8
21
 10
68.7991
 20
82.2345
 30
0.0000
 42
1.0000
  0
SEQEND
  8
0
  0
POLYLINE
  8
21
 66
1
 10
0.0000
 20
0.0000
 30
0.0000
 40
0.0000
 41
0.0000
 70
1
  0
VERTEX
  8
21
 10
61.8092
 20
80.5772
 30
0.0000
  0
VERTEX
  8
21
 10
61.6733
 20
80.3419
 30
0.0000
 42
1.0000
  0
VERTEX
  8
21
 10
61.8493
 20
80.2403
 30
0.0000
  0
VERTEX
  8
21
 10
61.9852
 20
80.4756
 30
0.0000
 42
1.0000
  0
SEQEND
  8
0
  0
POLYLINE
  8
21
 66
1
 10
0.0000
 20
0.0000
 30
0.0000
 40
0.0000
 41
0.0000
 70
1
  0
VERTEX
  8
21
 10
61.7105
 20
80.2031
 30
0.0000
  0
VERTEX
  8
21
 10
61.7545
 20
80.1777
 30
0.0000
 42
1.0000
  0
VERTEX
  8
21
 10
61.8561
 20
80.3536
 30
0.0000
  0
VERTEX
  8
21
 10
61.8121
 20
80.3790
 30
0.0000
 42
1.0000
  0
SEQEND
  8
0
  0
POLYLINE
  8
21
 66
1
 10
0.0000
 20
0.0000
 30
0.0000
 40
0.0000
 41
0.0000
 70
1
  0
VERTEX
  8
21
 10
61.7173
 20
80.3164
 30
0.0000
  0
VERTEX
  8
21
 10
61.7160
 20
80.3142
 30
0.0000
 42
1.0000
  0
VERTEX
  8
21
 10
61.8920
 20
80.2127
 30
0.0000
  0
VERTEX
  8
21
 10
61.8933
 20
80.2149
 30
0.0000
 42
1.0000
  0
SEQEND
  8
0
  0
POLYLINE
  8
21
 66
1
 10
0.0000
 20
0.0000
 30
0.0000
 40
0.0000
 41
0.0000
 70
1
  0
VERTEX
  8
21
 10
61.7532
 20
80.1755
 30
0.0000
  0
VERTEX
  8
21
 10
66.0558
 20
77.6914
 30
0.0000
 42
1.0000
  0
VERTEX
  8
21
 10
66.1574
 20
77.8673
 30
0.0000
  0
VERTEX
  8
21
 10
61.8548
 20
80.3514
 30
0.0000
 42
1.0000
  0
SEQEND
  8
0
  0
POLYLINE
  8
21
 66
1
 10
0.0000
 20
0.0000
 30
0.0000
 40
0.0000
 41
0.0000
 70
1
  0
VERTEX
  8
21
 10
66.1946
 20
77.7285
 30
0.0000
  0
VERTEX
  8
21
 10
66.3077
 20
77.9243
 30
0.0000
 42
1.0000
  0
VERTEX
  8
21
 10
66.1317
 20
78.0259
 30
0.0000
  0
VERTEX
  8
21
 10
66.0186
 20
77.8301
 30
0.0000
 42
1.0000
  0
SEQEND
  8
0
  0
POLYLINE
  8
21
 66
1
 10
0.0000
 20
0.0000
 30
0.0000
 40
0.0000
 41
0.0000
 70
1
  0
VERTEX
  8
21
 10
62.6738
 20
81.7293
 30
0.0000
  0
VERTEX
  8
21
 10
63.5247
 20
83.2031
 30
0.0000
 42
1.0000
  0
VERTEX
  8
21
 10
63.3487
 20
83.3047
 30
0.0000
  0
VERTEX
  8
21
 10
62.4978
 20
81.8309
 30
0.0000
 42
1.0000
  0
SEQEND
  8
0
  0
POLYLINE
  8
21
 66
1
 10
0.0000
 20
0.0000
 30
0.0000
 40
0.0000
 41
0.0000
 70
1
  0
VERTEX
  8
21
 10
67.7735
 20
80.8087
 30
0.0000
  0
VERTEX
  8
21
 10
67.3417
 20
80.0608
 30
0.0000
 42
1.0000
  0
VERTEX
  8
21
 10
67.5177
 20
79.9592
 30
0.0000
  0
VERTEX
  8
21
 10
67.9495
 20
80.7071
 30
0.0000
 42
1.0000
  0
SEQEND
  8
0
  0
POLYLINE
  8
21
 66
1
 10
0.0000
 20
0.0000
 30
0.0000
 40
0.0000
 41
0.0000
 70
1
  0
VERTEX
  8
21
 10
67.3417
 20
80.0608
 30
0.0000
  0
VERTEX
  8
21
 10
66.9099
 20
79.3129
 30
0.0000
 42
1.0000
  0
VERTEX
  8
21
 10
67.0859
 20
79.2113
 30
0.0000
  0
VERTEX
  8
21
 10
67.5177
 20
79.9592
 30
0.0000
 42
1.0000
  0
SEQEND
  8
0
  0
POLYLINE
  8
21
 66
1
 10
0.0000
 20
0.0000
 30
0.0000
 40
0.0000
 41
0.0000
 70
1
  0
VERTEX
  8
21
 10
67.4034
 20
80.1081
 30
0.0000
  0
VERTEX
  8
21
 10
63.9337
 20
79.1784
 30
0.0000
 42
1.0000
  0
VERTEX
  8
21
 10
63.9863
 20
78.9822
 30
0.0000
  0
VERTEX
  8
21
 10
67.4560
 20
79.9119
 30
0.0000
 42
1.0000
  0
SEQEND
  8
0
  0
CIRCLE
  8
21
 10
66.2759
 20
77.3766
 30
0.0000
 40
0.2032
  0
POLYLINE
  8
21
 66
1
 10
0.0000
 20
0.0000
 30
0.0000
 40
0.0000
 41
0.0000
 70
1
  0
VERTEX
  8
21
 10
52.1051
 20
89.2597
 30
0.0000
  0
VERTEX
  8
21
 10
52.1709
 20
89.5050
 30
0.0000
 42
1.0000
  0
VERTEX
  8
21
 10
51.9746
 20
89.5576
 30
0.0000
  0
VERTEX
  8
21
 10
51.9089
 20
89.3123
 30
0.0000
 42
1.0000
  0
SEQEND
  8
0
  0
POLYLINE
  8
21
 66
1
 10
0.0000
 20
0.0000
 30
0.0000
 40
0.0000
 41
0.0000
 70
1
  0
VERTEX
  8
21
 10
52.0464
 20
89.4332
 30
0.0000
  0
VERTEX
  8
21
 10
52.0955
 20
89.4200
 30
0.0000
 42
1.0000
  0
VERTEX
  8
21
 10
52.1481
 20
89.6163
 30
0.0000
  0
VERTEX
  8
21
 10
52.0990
 20
89.6294
 30
0.0000
 42
1.0000
  0
SEQEND
  8
0
  0
POLYLINE
  8
21
 66
1
 10
0.0000
 20
0.0000
 30
0.0000
 40
0.0000
 41
0.0000
 70
1
  0
VERTEX
  8
21
 10
52.0237
 20
89.5445
 30
0.0000
  0
VERTEX
  8
21
 10
52.0224
 20
89.5395
 30
0.0000
 42
1.0000
  0
VERTEX
  8
21
 10
52.2186
 20
89.4870
 30
0.0000
  0
VERTEX
  8
21
 10
52.2199
 20
89.4919
 30
0.0000
 42
1.0000
  0
SEQEND
  8
0
  0
POLYLINE
  8
21
 66
1
 10
0.0000
 20
0.0000
 30
0.0000
 40
0.0000
 41
0.0000
 70
1
  0
VERTEX
  8
21
 10
52.0942
 20
89.4151
 30
0.0000
  0
VERTEX
  8
21
 10
56.8760
 20
88.1338
 30
0.0000
 42
1.0000
  0
VERTEX
  8
21
 10
56.9286
 20
88.3301
 30
0.0000
  0
VERTEX
  8
21
 10
52.1468
 20
89.6114
 30
0.0000
 42
1.0000
  0
SEQEND
  8
0
  0
POLYLINE
  8
21
 66
1
 10
0.0000
 20
0.0000
 30
0.0000
 40
0.0000
 41
0.0000
 70
1
  0
VERTEX
  8
21
 10
56.8041
 20
88.2583
 30
0.0000
  0
VERTEX
  8
21
 10
56.7443
 20
88.0350
 30
0.0000
 42
1.0000
  0
VERTEX
  8
21
 10
56.9406
 20
87.9824
 30
0.0000
  0
VERTEX
  8
21
 10
57.0004
 20
88.2057
 30
0.0000
 42
1.0000
  0
SEQEND
  8
0
  0
POLYLINE
  8
21
 66
1
 10
0.0000
 20
0.0000
 30
0.0000
 40
0.0000
 41
0.0000
 70
1
  0
VERTEX
  8
21
 10
50.6776
 20
84.7958
 30
0.0000
  0
VERTEX
  8
21
 10
50.6073
 20
84.5333
 30
0.0000
 42
1.0000
  0
VERTEX
  8
21
 10
50.8036
 20
84.4807
 30
0.0000
  0
VERTEX
  8
21
 10
50.8739
 20
84.7432
 30
0.0000
 42
1.0000
  0
SEQEND
  8
0
  0
POLYLINE
  8
21
 66
1
 10
0.0000
 20
0.0000
 30
0.0000
 40
0.0000
 41
0.0000
 70
1
  0
VERTEX
  8
21
 10
50.6791
 20
84.4088
 30
0.0000
  0
VERTEX
  8
21
 10
50.7282
 20
84.3957
 30
0.0000
 42
1.0000
  0
VERTEX
  8
21
 10
50.7808
 20
84.5920
 30
0.0000
  0
VERTEX
  8
21
 10
50.7317
 20
84.6051
 30
0.0000
 42
1.0000
  0
SEQEND
  8
0
  0
POLYLINE
  8
21
 66
1
 10
0.0000
 20
0.0000
 30
0.0000
 40
0.0000
 41
0.0000
 70
1
  0
VERTEX
  8
21
 10
50.6564
 20
84.5201
 30
0.0000
  0
VERTEX
  8
21
 10
50.6557
 20
84.5176
 30
0.0000
 42
1.0000
  0
VERTEX
  8
21
 10
50.8520
 20
84.4651
 30
0.0000
  0
VERTEX
  8
21
 10
50.8527
 20
84.4676
 30
0.0000
 42
1.0000
  0
SEQEND
  8
0
  0
POLYLINE
  8
21
 66
1
 10
0.0000
 20
0.0000
 30
0.0000
 40
0.0000
 41
0.0000
 70
1
  0
VERTEX
  8
21
 10
50.7276
 20
84.3932
 30
0.0000
  0
VERTEX
  8
21
 10
55.5265
 20
83.1074
 30
0.0000
 42
1.0000
  0
VERTEX
  8
21
 10
55.5791
 20
83.3037
 30
0.0000
  0
VERTEX
  8
21
 10
50.7801
 20
84.5895
 30
0.0000
 42
1.0000
  0
SEQEND
  8
0
  0
POLYLINE
  8
21
 66
1
 10
0.0000
 20
0.0000
 30
0.0000
 40
0.0000
 41
0.0000
 70
1
  0
VERTEX
  8
21
 10
55.6509
 20
83.1792
 30
0.0000
  0
VERTEX
  8
21
 10
55.7094
 20
83.3976
 30
0.0000
 42
1.0000
  0
VERTEX
  8
21
 10
55.5132
 20
83.4502
 30
0.0000
  0
VERTEX
  8
21
 10
55.4547
 20
83.2318
 30
0.0000
 42
1.0000
  0
SEQEND
  8
0
  0
POLYLINE
  8
21
 66
1
 10
0.0000
 20
0.0000
 30
0.0000
 40
0.0000
 41
0.0000
 70
1
  0
VERTEX
  8
21
 10
51.2146
 20
86.1324
 30
0.0000
  0
VERTEX
  8
21
 10
51.6551
 20
87.7762
 30
0.0000
 42
1.0000
  0
VERTEX
  8
21
 10
51.4588
 20
87.8288
 30
0.0000
  0
VERTEX
  8
21
 10
51.0183
 20
86.1850
 30
0.0000
 42
1.0000
  0
SEQEND
  8
0
  0
POLYLINE
  8
21
 66
1
 10
0.0000
 20
0.0000
 30
0.0000
 40
0.0000
 41
0.0000
 70
1
  0
VERTEX
  8
21
 10
56.3788
 20
86.5631
 30
0.0000
  0
VERTEX
  8
21
 10
56.1553
 20
85.7289
 30
0.0000
 42
1.0000
  0
VERTEX
  8
21
 10
56.3516
 20
85.6763
 30
0.0000
  0
VERTEX
  8
21
 10
56.5751
 20
86.5105
 30
0.0000
 42
1.0000
  0
SEQEND
  8
0
  0
POLYLINE
  8
21
 66
1
 10
0.0000
 20
0.0000
 30
0.0000
 40
0.0000
 41
0.0000
 70
1
  0
VERTEX
  8
21
 10
56.1553
 20
85.7289
 30
0.0000
  0
VERTEX
  8
21
 10
55.9318
 20
84.8947
 30
0.0000
 42
1.0000
  0
VERTEX
  8
21
 10
56.1281
 20
84.8421
 30
0.0000
  0
VERTEX
  8
21
 10
56.3516
 20
85.6763
 30
0.0000
 42
1.0000
  0
SEQEND
  8
0
  0
POLYLINE
  8
21
 66
1
 10
0.0000
 20
0.0000
 30
0.0000
 40
0.0000
 41
0.0000
 70
1
  0
VERTEX
  8
21
 10
56.2027
 20
85.7906
 30
0.0000
  0
VERTEX
  8
21
 10
53.0918
 20
83.9945
 30
0.0000
 42
1.0000
  0
VERTEX
  8
21
 10
53.1934
 20
83.8186
 30
0.0000
  0
VERTEX
  8
21
 10
56.3042
 20
85.6146
 30
0.0000
 42
1.0000
  0
SEQEND
  8
0
  0
CIRCLE
  8
21
 10
55.8206
 20
82.8603
 30
0.0000
 40
0.2032
  0
POLYLINE
  8
21
 66
1
 10
0.0000
 20
0.0000
 30
0.0000
 40
0.0000
 41
0.0000
 70
1
  0
VERTEX
  8
21
 10
37.4424
 20
91.2622
 30
0.0000
  0
VERTEX
  8
21
 10
37.4424
 20
91.5162
 30
0.0000
 42
1.0000
  0
VERTEX
  8
21
 10
37.2392
 20
91.5162
 30
0.0000
  0
VERTEX
  8
21
 10
37.2392
 20
91.2622
 30
0.0000
 42
1.0000
  0
SEQEND
  8
0
  0
POLYLINE
  8
21
 66
1
 10
0.0000
 20
0.0000
 30
0.0000
 40
0.0000
 41
0.0000
 70
1
  0
VERTEX
  8
21
 10
37.3408
 20
91.4146
 30
0.0000
  0
VERTEX
  8
21
 10
37.3916
 20
91.4146
 30
0.0000
 42
1.0000
  0
VERTEX
  8
21
 10
37.3916
 20
91.6178
 30
0.0000
  0
VERTEX
  8
21
 10
37.3408
 20
91.6178
 30
0.0000
 42
1.0000
  0
SEQEND
  8
0
  0
POLYLINE
  8
21
 66
1
 10
0.0000
 20
0.0000
 30
0.0000
 40
0.0000
 41
0.0000
 70
1
  0
VERTEX
  8
21
 10
37.2900
 20
91.5162
 30
0.0000
  0
VERTEX
  8
21
 10
37.2900
 20
91.5111
 30
0.0000
 42
1.0000
  0
VERTEX
  8
21
 10
37.4932
 20
91.5111
 30
0.0000
  0
VERTEX
  8
21
 10
37.4932
 20
91.5162
 30
0.0000
 42
1.0000
  0
SEQEND
  8
0
  0
POLYLINE
  8
21
 66
1
 10
0.0000
 20
0.0000
 30
0.0000
 40
0.0000
 41
0.0000
 70
1
  0
VERTEX
  8
21
 10
37.3916
 20
91.4095
 30
0.0000
  0
VERTEX
  8
21
 10
42.3421
 20
91.4095
 30
0.0000
 42
1.0000
  0
VERTEX
  8
21
 10
42.3421
 20
91.6127
 30
0.0000
  0
VERTEX
  8
21
 10
37.3916
 20
91.6127
 30
0.0000
 42
1.0000
  0
SEQEND
  8
0
  0
POLYLINE
  8
21
 66
1
 10
0.0000
 20
0.0000
 30
0.0000
 40
0.0000
 41
0.0000
 70
1
  0
VERTEX
  8
21
 10
42.2405
 20
91.5111
 30
0.0000
  0
VERTEX
  8
21
 10
42.2405
 20
91.2800
 30
0.0000
 42
1.0000
  0
VERTEX
  8
21
 10
42.4437
 20
91.2800
 30
0.0000
  0
VERTEX
  8
21
 10
42.4437
 20
91.5111
 30
0.0000
 42
1.0000
  0
SEQEND
  8
0
  0
POLYLINE
  8
21
 66
1
 10
0.0000
 20
0.0000
 30
0.0000
 40
0.0000
 41
0.0000
 70
1
  0
VERTEX
  8
21
 10
37.2189
 20
86.5810
 30
0.0000
  0
VERTEX
  8
21
 10
37.2189
 20
86.3092
 30
0.0000
 42
1.0000
  0
VERTEX
  8
21
 10
37.4221
 20
86.3092
 30
0.0000
  0
VERTEX
  8
21
 10
37.4221
 20
86.5810
 30
0.0000
 42
1.0000
  0
SEQEND
  8
0
  0
POLYLINE
  8
21
 66
1
 10
0.0000
 20
0.0000
 30
0.0000
 40
0.0000
 41
0.0000
 70
1
  0
VERTEX
  8
21
 10
37.3205
 20
86.2076
 30
0.0000
  0
VERTEX
  8
21
 10
37.3713
 20
86.2076
 30
0.0000
 42
1.0000
  0
VERTEX
  8
21
 10
37.3713
 20
86.4108
 30
0.0000
  0
VERTEX
  8
21
 10
37.3205
 20
86.4108
 30
0.0000
 42
1.0000
  0
SEQEND
  8
0
  0
POLYLINE
  8
21
 66
1
 10
0.0000
 20
0.0000
 30
0.0000
 40
0.0000
 41
0.0000
 70
1
  0
VERTEX
  8
21
 10
37.2697
 20
86.3092
 30
0.0000
  0
VERTEX
  8
21
 10
37.2697
 20
86.3067
 30
0.0000
 42
1.0000
  0
VERTEX
  8
21
 10
37.4729
 20
86.3067
 30
0.0000
  0
VERTEX
  8
21
 10
37.4729
 20
86.3092
 30
0.0000
 42
1.0000
  0
SEQEND
  8
0
  0
POLYLINE
  8
21
 66
1
 10
0.0000
 20
0.0000
 30
0.0000
 40
0.0000
 41
0.0000
 70
1
  0
VERTEX
  8
21
 10
37.3713
 20
86.2051
 30
0.0000
  0
VERTEX
  8
21
 10
42.3395
 20
86.2051
 30
0.0000
 42
1.0000
  0
VERTEX
  8
21
 10
42.3395
 20
86.4083
 30
0.0000
  0
VERTEX
  8
21
 10
37.3713
 20
86.4083
 30
0.0000
 42
1.0000
  0
SEQEND
  8
0
  0
POLYLINE
  8
21
 66
1
 10
0.0000
 20
0.0000
 30
0.0000
 40
0.0000
 41
0.0000
 70
1
  0
VERTEX
  8
21
 10
42.4411
 20
86.3067
 30
0.0000
  0
VERTEX
  8
21
 10
42.4411
 20
86.5327
 30
0.0000
 42
1.0000
  0
VERTEX
  8
21
 10
42.2379
 20
86.5327
 30
0.0000
  0
VERTEX
  8
21
 10
42.2379
 20
86.3067
 30
0.0000
 42
1.0000
  0
SEQEND
  8
0
  0
POLYLINE
  8
21
 66
1
 10
0.0000
 20
0.0000
 30
0.0000
 40
0.0000
 41
0.0000
 70
1
  0
VERTEX
  8
21
 10
37.3916
 20
88.0110
 30
0.0000
  0
VERTEX
  8
21
 10
37.3916
 20
89.7128
 30
0.0000
 42
1.0000
  0
VERTEX
  8
21
 10
37.1884
 20
89.7128
 30
0.0000
  0
VERTEX
  8
21
 10
37.1884
 20
88.0110
 30
0.0000
 42
1.0000
  0
SEQEND
  8
0
  0
POLYLINE
  8
21
 66
1
 10
0.0000
 20
0.0000
 30
0.0000
 40
0.0000
 41
0.0000
 70
1
  0
VERTEX
  8
21
 10
42.2684
 20
89.7636
 30
0.0000
  0
VERTEX
  8
21
 10
42.2684
 20
88.9000
 30
0.0000
 42
1.0000
  0
VERTEX
  8
21
 10
42.4716
 20
88.9000
 30
0.0000
  0
VERTEX
  8
21
 10
42.4716
 20
89.7636
 30
0.0000
 42
1.0000
  0
SEQEND
  8
0
  0
POLYLINE
  8
21
 66
1
 10
0.0000
 20
0.0000
 30
0.0000
 40
0.0000
 41
0.0000
 70
1
  0
VERTEX
  8
21
 10
42.2684
 20
88.9000
 30
0.0000
  0
VERTEX
  8
21
 10
42.2684
 20
88.0364
 30
0.0000
 42
1.0000
  0
VERTEX
  8
21
 10
42.4716
 20
88.0364
 30
0.0000
  0
VERTEX
  8
21
 10
42.4716
 20
88.9000
 30
0.0000
 42
1.0000
  0
SEQEND
  8
0
  0
POLYLINE
  8
21
 66
1
 10
0.0000
 20
0.0000
 30
0.0000
 40
0.0000
 41
0.0000
 70
1
  0
VERTEX
  8
21
 10
42.2982
 20
88.9718
 30
0.0000
  0
VERTEX
  8
21
 10
39.7582
 20
86.4318
 30
0.0000
 42
1.0000
  0
VERTEX
  8
21
 10
39.9018
 20
86.2882
 30
0.0000
  0
VERTEX
  8
21
 10
42.4418
 20
88.8282
 30
0.0000
 42
1.0000
  0
SEQEND
  8
0
  0
CIRCLE
  8
21
 10
42.6875
 20
86.0425
 30
0.0000
 40
0.2032
  0
POLYLINE
  8
21
 66
1
 10
0.0000
 20
0.0000
 30
0.0000
 40
0.0000
 41
0.0000
 70
1
  0
VERTEX
  8
21
 10
24.2124
 20
88.0238
 30
0.0000
  0
VERTEX
  8
21
 10
24.1466
 20
88.2691
 30
0.0000
 42
1.0000
  0
VERTEX
  8
21
 10
23.9504
 20
88.2165
 30
0.0000
  0
VERTEX
  8
21
 10
24.0161
 20
87.9712
 30
0.0000
 42
1.0000
  0
SEQEND
  8
0
  0
POLYLINE
  8
21
 66
1
 10
0.0000
 20
0.0000
 30
0.0000
 40
0.0000
 41
0.0000
 70
1
  0
VERTEX
  8
21
 10
24.0748
 20
88.1447
 30
0.0000
  0
VERTEX
  8
21
 10
24.1239
 20
88.1578
 30
0.0000
 42
1.0000
  0
VERTEX
  8
21
 10
24.0713
 20
88.3541
 30
0.0000
  0
VERTEX
  8
21
 10
24.0222
 20
88.3409
 30
0.0000
 42
1.0000
  0
SEQEND
  8
0
  0
POLYLINE
  8
21
 66
1
 10
0.0000
 20
0.0000
 30
0.0000
 40
0.0000
 41
0.0000
 70
1
  0
VERTEX
  8
21
 10
23.9994
 20
88.2297
 30
0.0000
  0
VERTEX
  8
21
 10
24.0007
 20
88.2247
 30
0.0000
 42
1.0000
  0
VERTEX
  8
21
 10
24.1970
 20
88.2773
 30
0.0000
  0
VERTEX
  8
21
 10
24.1957
 20
88.2822
 30
0.0000
 42
1.0000
  0
SEQEND
  8
0
  0
POLYLINE
  8
21
 66
1
 10
0.0000
 20
0.0000
 30
0.0000
 40
0.0000
 41
0.0000
 70
1
  0
VERTEX
  8
21
 10
24.1252
 20
88.1529
 30
0.0000
  0
VERTEX
  8
21
 10
28.9069
 20
89.4342
 30
0.0000
 42
1.0000
  0
VERTEX
  8
21
 10
28.8544
 20
89.6305
 30
0.0000
  0
VERTEX
  8
21
 10
24.0726
 20
88.3492
 30
0.0000
 42
1.0000
  0
SEQEND
  8
0
  0
POLYLINE
  8
21
 66
1
 10
0.0000
 20
0.0000
 30
0.0000
 40
0.0000
 41
0.0000
 70
1
  0
VERTEX
  8
21
 10
28.7825
 20
89.5060
 30
0.0000
  0
VERTEX
  8
21
 10
28.8423
 20
89.2828
 30
0.0000
 42
1.0000
  0
VERTEX
  8
21
 10
29.0386
 20
89.3353
 30
0.0000
  0
VERTEX
  8
21
 10
28.9788
 20
89.5586
 30
0.0000
 42
1.0000
  0
SEQEND
  8
0
  0
POLYLINE
  8
21
 66
1
 10
0.0000
 20
0.0000
 30
0.0000
 40
0.0000
 41
0.0000
 70
1
  0
VERTEX
  8
21
 10
25.2081
 20
83.4442
 30
0.0000
  0
VERTEX
  8
21
 10
25.2784
 20
83.1817
 30
0.0000
 42
1.0000
  0
VERTEX
  8
21
 10
25.4747
 20
83.2343
 30
0.0000
  0
VERTEX
  8
21
 10
25.4043
 20
83.4968
 30
0.0000
 42
1.0000
  0
SEQEND
  8
0
  0
POLYLINE
  8
21
 66
1
 10
0.0000
 20
0.0000
 30
0.0000
 40
0.0000
 41
0.0000
 70
1
  0
VERTEX
  8
21
 10
25.4028
 20
83.1098
 30
0.0000
  0
VERTEX
  8
21
 10
25.4519
 20
83.1230
 30
0.0000
 42
1.0000
  0
VERTEX
  8
21
 10
25.3993
 20
83.3193
 30
0.0000
  0
VERTEX
  8
21
 10
25.3502
 20
83.3061
 30
0.0000
 42
1.0000
  0
SEQEND
  8
0
  0
POLYLINE
  8
21
 66
1
 10
0.0000
 20
0.0000
 30
0.0000
 40
0.0000
 41
0.0000
 70
1
  0
VERTEX
  8
21
 10
25.3275
 20
83.1948
 30
0.0000
  0
VERTEX
  8
21
 10
25.3281
 20
83.1923
 30
0.0000
 42
1.0000
  0
VERTEX
  8
21
 10
25.5244
 20
83.2450
 30
0.0000
  0
VERTEX
  8
21
 10
25.5237
 20
83.2475
 30
0.0000
 42
1.0000
  0
SEQEND
  8
0
  0
POLYLINE
  8
21
 66
1
 10
0.0000
 20
0.0000
 30
0.0000
 40
0.0000
 41
0.0000
 70
1
  0
VERTEX
  8
21
 10
25.4526
 20
83.1205
 30
0.0000
  0
VERTEX
  8
21
 10
30.2515
 20
84.4064
 30
0.0000
 42
1.0000
  0
VERTEX
  8
21
 10
30.1989
 20
84.6027
 30
0.0000
  0
VERTEX
  8
21
 10
25.4000
 20
83.3168
 30
0.0000
 42
1.0000
  0
SEQEND
  8
0
  0
POLYLINE
  8
21
 66
1
 10
0.0000
 20
0.0000
 30
0.0000
 40
0.0000
 41
0.0000
 70
1
  0
VERTEX
  8
21
 10
30.3234
 20
84.5308
 30
0.0000
  0
VERTEX
  8
21
 10
30.2648
 20
84.7492
 30
0.0000
 42
1.0000
  0
VERTEX
  8
21
 10
30.0686
 20
84.6966
 30
0.0000
  0
VERTEX
  8
21
 10
30.1271
 20
84.4782
 30
0.0000
 42
1.0000
  0
SEQEND
  8
0
  0
POLYLINE
  8
21
 66
1
 10
0.0000
 20
0.0000
 30
0.0000
 40
0.0000
 41
0.0000
 70
1
  0
VERTEX
  8
21
 10
25.0048
 20
84.8702
 30
0.0000
  0
VERTEX
  8
21
 10
24.5643
 20
86.5140
 30
0.0000
 42
1.0000
  0
VERTEX
  8
21
 10
24.3680
 20
86.4614
 30
0.0000
  0
VERTEX
  8
21
 10
24.8085
 20
84.8176
 30
0.0000
 42
1.0000
  0
SEQEND
  8
0
  0
POLYLINE
  8
21
 66
1
 10
0.0000
 20
0.0000
 30
0.0000
 40
0.0000
 41
0.0000
 70
1
  0
VERTEX
  8
21
 10
29.2618
 20
87.8253
 30
0.0000
  0
VERTEX
  8
21
 10
29.4853
 20
86.9911
 30
0.0000
 42
1.0000
  0
VERTEX
  8
21
 10
29.6816
 20
87.0437
 30
0.0000
  0
VERTEX
  8
21
 10
29.4581
 20
87.8779
 30
0.0000
 42
1.0000
  0
SEQEND
  8
0
  0
POLYLINE
  8
21
 66
1
 10
0.0000
 20
0.0000
 30
0.0000
 40
0.0000
 41
0.0000
 70
1
  0
VERTEX
  8
21
 10
29.4853
 20
86.9911
 30
0.0000
  0
VERTEX
  8
21
 10
29.7088
 20
86.1569
 30
0.0000
 42
1.0000
  0
VERTEX
  8
21
 10
29.9051
 20
86.2095
 30
0.0000
  0
VERTEX
  8
21
 10
29.6816
 20
87.0437
 30
0.0000
 42
1.0000
  0
SEQEND
  8
0
  0
POLYLINE
  8
21
 66
1
 10
0.0000
 20
0.0000
 30
0.0000
 40
0.0000
 41
0.0000
 70
1
  0
VERTEX
  8
21
 10
29.4955
 20
87.0682
 30
0.0000
  0
VERTEX
  8
21
 10
27.6994
 20
83.9573
 30
0.0000
 42
1.0000
  0
VERTEX
  8
21
 10
27.8754
 20
83.8557
 30
0.0000
  0
VERTEX
  8
21
 10
29.6714
 20
86.9666
 30
0.0000
 42
1.0000
  0
SEQEND
  8
0
  0
CIRCLE
  8
21
 10
30.6297
 20
84.3394
 30
0.0000
 40
0.2032
  0
POLYLINE
  8
21
 66
1
 10
0.0000
 20
0.0000
 30
0.0000
 40
0.0000
 41
0.0000
 70
1
  0
VERTEX
  8
21
 10
12.4512
 20
82.1319
 30
0.0000
  0
VERTEX
  8
21
 10
12.3242
 20
82.3519
 30
0.0000
 42
1.0000
  0
VERTEX
  8
21
 10
12.1482
 20
82.2503
 30
0.0000
  0
VERTEX
  8
21
 10
12.2752
 20
82.0303
 30
0.0000
 42
1.0000
  0
SEQEND
  8
0
  0
POLYLINE
  8
21
 66
1
 10
0.0000
 20
0.0000
 30
0.0000
 40
0.0000
 41
0.0000
 70
1
  0
VERTEX
  8
21
 10
12.2870
 20
82.2131
 30
0.0000
  0
VERTEX
  8
21
 10
12.3310
 20
82.2385
 30
0.0000
 42
1.0000
  0
VERTEX
  8
21
 10
12.2294
 20
82.4145
 30
0.0000
  0
VERTEX
  8
21
 10
12.1854
 20
82.3891
 30
0.0000
 42
1.0000
  0
SEQEND
  8
0
  0
POLYLINE
  8
21
 66
1
 10
0.0000
 20
0.0000
 30
0.0000
 40
0.0000
 41
0.0000
 70
1
  0
VERTEX
  8
21
 10
12.1922
 20
82.2757
 30
0.0000
  0
VERTEX
  8
21
 10
12.1947
 20
82.2713
 30
0.0000
 42
1.0000
  0
VERTEX
  8
21
 10
12.3707
 20
82.3729
 30
0.0000
  0
VERTEX
  8
21
 10
12.3682
 20
82.3773
 30
0.0000
 42
1.0000
  0
SEQEND
  8
0
  0
POLYLINE
  8
21
 66
1
 10
0.0000
 20
0.0000
 30
0.0000
 40
0.0000
 41
0.0000
 70
1
  0
VERTEX
  8
21
 10
12.3335
 20
82.2341
 30
0.0000
  0
VERTEX
  8
21
 10
16.6207
 20
84.7093
 30
0.0000
 42
1.0000
  0
VERTEX
  8
21
 10
16.5191
 20
84.8853
 30
0.0000
  0
VERTEX
  8
21
 10
12.2319
 20
82.4101
 30
0.0000
 42
1.0000
  0
SEQEND
  8
0
  0
POLYLINE
  8
21
 66
1
 10
0.0000
 20
0.0000
 30
0.0000
 40
0.0000
 41
0.0000
 70
1
  0
VERTEX
  8
21
 10
16.4820
 20
84.7465
 30
0.0000
  0
VERTEX
  8
21
 10
16.5975
 20
84.5464
 30
0.0000
 42
1.0000
  0
VERTEX
  8
21
 10
16.7735
 20
84.6480
 30
0.0000
  0
VERTEX
  8
21
 10
16.6579
 20
84.8481
 30
0.0000
 42
1.0000
  0
SEQEND
  8
0
  0
POLYLINE
  8
21
 66
1
 10
0.0000
 20
0.0000
 30
0.0000
 40
0.0000
 41
0.0000
 70
1
  0
VERTEX
  8
21
 10
14.5982
 20
77.9661
 30
0.0000
  0
VERTEX
  8
21
 10
14.7341
 20
77.7307
 30
0.0000
 42
1.0000
  0
VERTEX
  8
21
 10
14.9101
 20
77.8323
 30
0.0000
  0
VERTEX
  8
21
 10
14.7742
 20
78.0677
 30
0.0000
 42
1.0000
  0
SEQEND
  8
0
  0
POLYLINE
  8
21
 66
1
 10
0.0000
 20
0.0000
 30
0.0000
 40
0.0000
 41
0.0000
 70
1
  0
VERTEX
  8
21
 10
14.8729
 20
77.6936
 30
0.0000
  0
VERTEX
  8
21
 10
14.9169
 20
77.7190
 30
0.0000
 42
1.0000
  0
VERTEX
  8
21
 10
14.8153
 20
77.8949
 30
0.0000
  0
VERTEX
  8
21
 10
14.7713
 20
77.8695
 30
0.0000
 42
1.0000
  0
SEQEND
  8
0
  0
POLYLINE
  8
21
 66
1
 10
0.0000
 20
0.0000
 30
0.0000
 40
0.0000
 41
0.0000
 70
1
  0
VERTEX
  8
21
 10
14.7781
 20
77.7561
 30
0.0000
  0
VERTEX
  8
21
 10
14.7794
 20
77.7539
 30
0.0000
 42
1.0000
  0
VERTEX
  8
21
 10
14.9553
 20
77.8556
 30
0.0000
  0
VERTEX
  8
21
 10
14.9540
 20
77.8578
 30
0.0000
 42
1.0000
  0
SEQEND
  8
0
  0
POLYLINE
  8
21
 66
1
 10
0.0000
 20
0.0000
 30
0.0000
 40
0.0000
 41
0.0000
 70
1
  0
VERTEX
  8
21
 10
14.9182
 20
77.7168
 30
0.0000
  0
VERTEX
  8
21
 10
19.2208
 20
80.2009
 30
0.0000
 42
1.0000
  0
VERTEX
  8
21
 10
19.1192
 20
80.3768
 30
0.0000
  0
VERTEX
  8
21
 10
14.8166
 20
77.8927
 30
0.0000
 42
1.0000
  0
SEQEND
  8
0
  0
POLYLINE
  8
21
 66
1
 10
0.0000
 20
0.0000
 30
0.0000
 40
0.0000
 41
0.0000
 70
1
  0
VERTEX
  8
21
 10
19.2580
 20
80.3397
 30
0.0000
  0
VERTEX
  8
21
 10
19.1449
 20
80.5354
 30
0.0000
 42
1.0000
  0
VERTEX
  8
21
 10
18.9690
 20
80.4338
 30
0.0000
  0
VERTEX
  8
21
 10
19.0820
 20
80.2381
 30
0.0000
 42
1.0000
  0
SEQEND
  8
0
  0
POLYLINE
  8
21
 66
1
 10
0.0000
 20
0.0000
 30
0.0000
 40
0.0000
 41
0.0000
 70
1
  0
VERTEX
  8
21
 10
14.0328
 20
79.2909
 30
0.0000
  0
VERTEX
  8
21
 10
13.1819
 20
80.7647
 30
0.0000
 42
1.0000
  0
VERTEX
  8
21
 10
13.0059
 20
80.6631
 30
0.0000
  0
VERTEX
  8
21
 10
13.8568
 20
79.1893
 30
0.0000
 42
1.0000
  0
SEQEND
  8
0
  0
POLYLINE
  8
21
 66
1
 10
0.0000
 20
0.0000
 30
0.0000
 40
0.0000
 41
0.0000
 70
1
  0
VERTEX
  8
21
 10
17.3799
 20
83.2471
 30
0.0000
  0
VERTEX
  8
21
 10
17.8117
 20
82.4992
 30
0.0000
 42
1.0000
  0
VERTEX
  8
21
 10
17.9877
 20
82.6008
 30
0.0000
  0
VERTEX
  8
21
 10
17.5559
 20
83.3487
 30
0.0000
 42
1.0000
  0
SEQEND
  8
0
  0
POLYLINE
  8
21
 66
1
 10
0.0000
 20
0.0000
 30
0.0000
 40
0.0000
 41
0.0000
 70
1
  0
VERTEX
  8
21
 10
17.8117
 20
82.4992
 30
0.0000
  0
VERTEX
  8
21
 10
18.2435
 20
81.7513
 30
0.0000
 42
1.0000
  0
VERTEX
  8
21
 10
18.4195
 20
81.8529
 30
0.0000
  0
VERTEX
  8
21
 10
17.9877
 20
82.6008
 30
0.0000
 42
1.0000
  0
SEQEND
  8
0
  0
POLYLINE
  8
21
 66
1
 10
0.0000
 20
0.0000
 30
0.0000
 40
0.0000
 41
0.0000
 70
1
  0
VERTEX
  8
21
 10
17.8016
 20
82.5763
 30
0.0000
  0
VERTEX
  8
21
 10
16.8719
 20
79.1066
 30
0.0000
 42
1.0000
  0
VERTEX
  8
21
 10
17.0681
 20
79.0540
 30
0.0000
  0
VERTEX
  8
21
 10
17.9978
 20
82.5237
 30
0.0000
 42
1.0000
  0
SEQEND
  8
0
  0
CIRCLE
  8
21
 10
19.6034
 20
80.2341
 30
0.0000
 40
0.2032
  0
CIRCLE
  8
21
 10
75.0000
 20
63.0000
 30
0.0000
 40
3.3528
  0
CIRCLE
  8
21
 10
75.0000
 20
63.0000
 30
0.0000
 40
3.5052
  0
CIRCLE
  8
21
 10
75.0000
 20
63.0000
 30
0.0000
 40
1.4984
  0
CIRCLE
  8
21
 10
75.0000
 20
63.0000
 30
0.0000
 40
1.7016
  0
CIRCLE
  8
21
 10
5.0000
 20
63.0000
 30
0.0000
 40
3.3528
  0
CIRCLE
  8
21
 10
5.0000
 20
63.0000
 30
0.0000
 40
3.5052
  0
CIRCLE
  8
21
 10
5.0000
 20
63.0000
 30
0.0000
 40
1.4984
  0
CIRCLE
  8
21
 10
5.0000
 20
63.0000
 30
0.0000
 40
1.7016
  0
CIRCLE
  8
21
 10
75.0000
 20
11.0000
 30
0.0000
 40
3.3528
  0
CIRCLE
  8
21
 10
75.0000
 20
11.0000
 30
0.0000
 40
3.5052
  0
CIRCLE
  8
21
 10
75.0000
 20
11.0000
 30
0.0000
 40
1.4984
  0
CIRCLE
  8
21
 10
75.0000
 20
11.0000
 30
0.0000
 40
1.7016
  0
CIRCLE
  8
21
 10
5.0000
 20
11.0000
 30
0.0000
 40
3.3528
  0
CIRCLE
  8
21
 10
5.0000
 20
11.0000
 30
0.0000
 40
3.5052
  0
CIRCLE
  8
21
 10
5.0000
 20
11.0000
 30
0.0000
 40
1.4984
  0
CIRCLE
  8
21
 10
5.0000
 20
11.0000
 30
0.0000
 40
1.7016
  0
POLYLINE
  8
21
 66
1
 10
0.0000
 20
0.0000
 30
0.0000
 40
0.0000
 41
0.0000
 70
1
  0
VERTEX
  8
21
 10
11.5062
 20
20.1450
 30
0.0000
  0
VERTEX
  8
21
 10
11.5062
 20
21.4150
 30
0.0000
 42
1.0000
  0
VERTEX
  8
21
 10
11.3538
 20
21.4150
 30
0.0000
  0
VERTEX
  8
21
 10
11.3538
 20
20.1450
 30
0.0000
 42
1.0000
  0
SEQEND
  8
0
  0
POLYLINE
  8
21
 66
1
 10
0.0000
 20
0.0000
 30
0.0000
 40
0.0000
 41
0.0000
 70
1
  0
VERTEX
  8
21
 10
11.4839
 20
21.3611
 30
0.0000
  0
VERTEX
  8
21
 10
12.1189
 20
21.9961
 30
0.0000
 42
1.0000
  0
VERTEX
  8
21
 10
12.0111
 20
22.1039
 30
0.0000
  0
VERTEX
  8
21
 10
11.3761
 20
21.4689
 30
0.0000
 42
1.0000
  0
SEQEND
  8
0
  0
POLYLINE
  8
21
 66
1
 10
0.0000
 20
0.0000
 30
0.0000
 40
0.0000
 41
0.0000
 70
1
  0
VERTEX
  8
21
 10
12.0650
 20
21.9738
 30
0.0000
  0
VERTEX
  8
21
 10
13.3350
 20
21.9738
 30
0.0000
 42
1.0000
  0
VERTEX
  8
21
 10
13.3350
 20
22.1262
 30
0.0000
  0
VERTEX
  8
21
 10
12.0650
 20
22.1262
 30
0.0000
 42
1.0000
  0
SEQEND
  8
0
  0
POLYLINE
  8
21
 66
1
 10
0.0000
 20
0.0000
 30
0.0000
 40
0.0000
 41
0.0000
 70
1
  0
VERTEX
  8
21
 10
13.2811
 20
21.9961
 30
0.0000
  0
VERTEX
  8
21
 10
13.9161
 20
21.3611
 30
0.0000
 42
1.0000
  0
VERTEX
  8
21
 10
14.0239
 20
21.4689
 30
0.0000
  0
VERTEX
  8
21
 10
13.3889
 20
22.1039
 30
0.0000
 42
1.0000
  0
SEQEND
  8
0
  0
POLYLINE
  8
21
 66
1
 10
0.0000
 20
0.0000
 30
0.0000
 40
0.0000
 41
0.0000
 70
1
  0
VERTEX
  8
21
 10
12.0650
 20
19.4338
 30
0.0000
  0
VERTEX
  8
21
 10
13.3350
 20
19.4338
 30
0.0000
 42
1.0000
  0
VERTEX
  8
21
 10
13.3350
 20
19.5862
 30
0.0000
  0
VERTEX
  8
21
 10
12.0650
 20
19.5862
 30
0.0000
 42
1.0000
  0
SEQEND
  8
0
  0
POLYLINE
  8
21
 66
1
 10
0.0000
 20
0.0000
 30
0.0000
 40
0.0000
 41
0.0000
 70
1
  0
VERTEX
  8
21
 10
11.3761
 20
20.0911
 30
0.0000
  0
VERTEX
  8
21
 10
12.0111
 20
19.4561
 30
0.0000
 42
1.0000
  0
VERTEX
  8
21
 10
12.1189
 20
19.5639
 30
0.0000
  0
VERTEX
  8
21
 10
11.4839
 20
20.1989
 30
0.0000
 42
1.0000
  0
SEQEND
  8
0
  0
POLYLINE
  8
21
 66
1
 10
0.0000
 20
0.0000
 30
0.0000
 40
0.0000
 41
0.0000
 70
1
  0
VERTEX
  8
21
 10
13.3889
 20
19.4561
 30
0.0000
  0
VERTEX
  8
21
 10
14.0239
 20
20.0911
 30
0.0000
 42
1.0000
  0
VERTEX
  8
21
 10
13.9161
 20
20.1989
 30
0.0000
  0
VERTEX
  8
21
 10
13.2811
 20
19.5639
 30
0.0000
 42
1.0000
  0
SEQEND
  8
0
  0
POLYLINE
  8
21
 66
1
 10
0.0000
 20
0.0000
 30
0.0000
 40
0.0000
 41
0.0000
 70
1
  0
VERTEX
  8
21
 10
13.8938
 20
21.4150
 30
0.0000
  0
VERTEX
  8
21
 10
13.8938
 20
20.1450
 30
0.0000
 42
1.0000
  0
VERTEX
  8
21
 10
14.0462
 20
20.1450
 30
0.0000
  0
VERTEX
  8
21
 10
14.0462
 20
21.4150
 30
0.0000
 42
1.0000
  0
SEQEND
  8
0
  0
POLYLINE
  8
21
 66
1
 10
0.0000
 20
0.0000
 30
0.0000
 40
0.0000
 41
0.0000
 70
1
  0
VERTEX
  8
21
 10
12.1189
 20
22.1039
 30
0.0000
  0
VERTEX
  8
21
 10
11.4839
 20
22.7389
 30
0.0000
 42
1.0000
  0
VERTEX
  8
21
 10
11.3761
 20
22.6311
 30
0.0000
  0
VERTEX
  8
21
 10
12.0111
 20
21.9961
 30
0.0000
 42
1.0000
  0
SEQEND
  8
0
  0
POLYLINE
  8
21
 66
1
 10
0.0000
 20
0.0000
 30
0.0000
 40
0.0000
 41
0.0000
 70
1
  0
VERTEX
  8
21
 10
11.5062
 20
22.6850
 30
0.0000
  0
VERTEX
  8
21
 10
11.5062
 20
23.9550
 30
0.0000
 42
1.0000
  0
VERTEX
  8
21
 10
11.3538
 20
23.9550
 30
0.0000
  0
VERTEX
  8
21
 10
11.3538
 20
22.6850
 30
0.0000
 42
1.0000
  0
SEQEND
  8
0
  0
POLYLINE
  8
21
 66
1
 10
0.0000
 20
0.0000
 30
0.0000
 40
0.0000
 41
0.0000
 70
1
  0
VERTEX
  8
21
 10
11.4839
 20
23.9011
 30
0.0000
  0
VERTEX
  8
21
 10
12.1189
 20
24.5361
 30
0.0000
 42
1.0000
  0
VERTEX
  8
21
 10
12.0111
 20
24.6439
 30
0.0000
  0
VERTEX
  8
21
 10
11.3761
 20
24.0089
 30
0.0000
 42
1.0000
  0
SEQEND
  8
0
  0
POLYLINE
  8
21
 66
1
 10
0.0000
 20
0.0000
 30
0.0000
 40
0.0000
 41
0.0000
 70
1
  0
VERTEX
  8
21
 10
12.0650
 20
24.5138
 30
0.0000
  0
VERTEX
  8
21
 10
13.3350
 20
24.5138
 30
0.0000
 42
1.0000
  0
VERTEX
  8
21
 10
13.3350
 20
24.6662
 30
0.0000
  0
VERTEX
  8
21
 10
12.0650
 20
24.6662
 30
0.0000
 42
1.0000
  0
SEQEND
  8
0
  0
POLYLINE
  8
21
 66
1
 10
0.0000
 20
0.0000
 30
0.0000
 40
0.0000
 41
0.0000
 70
1
  0
VERTEX
  8
21
 10
13.2811
 20
24.5361
 30
0.0000
  0
VERTEX
  8
21
 10
13.9161
 20
23.9011
 30
0.0000
 42
1.0000
  0
VERTEX
  8
21
 10
14.0239
 20
24.0089
 30
0.0000
  0
VERTEX
  8
21
 10
13.3889
 20
24.6439
 30
0.0000
 42
1.0000
  0
SEQEND
  8
0
  0
POLYLINE
  8
21
 66
1
 10
0.0000
 20
0.0000
 30
0.0000
 40
0.0000
 41
0.0000
 70
1
  0
VERTEX
  8
21
 10
13.8938
 20
23.9550
 30
0.0000
  0
VERTEX
  8
21
 10
13.8938
 20
22.6850
 30
0.0000
 42
1.0000
  0
VERTEX
  8
21
 10
14.0462
 20
22.6850
 30
0.0000
  0
VERTEX
  8
21
 10
14.0462
 20
23.9550
 30
0.0000
 42
1.0000
  0
SEQEND
  8
0
  0
POLYLINE
  8
21
 66
1
 10
0.0000
 20
0.0000
 30
0.0000
 40
0.0000
 41
0.0000
 70
1
  0
VERTEX
  8
21
 10
13.9161
 20
22.7389
 30
0.0000
  0
VERTEX
  8
21
 10
13.2811
 20
22.1039
 30
0.0000
 42
1.0000
  0
VERTEX
  8
21
 10
13.3889
 20
21.9961
 30
0.0000
  0
VERTEX
  8
21
 10
14.0239
 20
22.6311
 30
0.0000
 42
1.0000
  0
SEQEND
  8
0
  0
POLYLINE
  8
21
 66
1
 10
0.0000
 20
0.0000
 30
0.0000
 40
0.0000
 41
0.0000
 70
1
  0
VERTEX
  8
21
 10
11.5062
 20
41.7350
 30
0.0000
  0
VERTEX
  8
21
 10
11.5062
 20
43.0050
 30
0.0000
 42
1.0000
  0
VERTEX
  8
21
 10
11.3538
 20
43.0050
 30
0.0000
  0
VERTEX
  8
21
 10
11.3538
 20
41.7350
 30
0.0000
 42
1.0000
  0
SEQEND
  8
0
  0
POLYLINE
  8
21
 66
1
 10
0.0000
 20
0.0000
 30
0.0000
 40
0.0000
 41
0.0000
 70
1
  0
VERTEX
  8
21
 10
11.4839
 20
42.9511
 30
0.0000
  0
VERTEX
  8
21
 10
12.1189
 20
43.5861
 30
0.0000
 42
1.0000
  0
VERTEX
  8
21
 10
12.0111
 20
43.6939
 30
0.0000
  0
VERTEX
  8
21
 10
11.3761
 20
43.0589
 30
0.0000
 42
1.0000
  0
SEQEND
  8
0
  0
POLYLINE
  8
21
 66
1
 10
0.0000
 20
0.0000
 30
0.0000
 40
0.0000
 41
0.0000
 70
1
  0
VERTEX
  8
21
 10
12.0650
 20
43.5638
 30
0.0000
  0
VERTEX
  8
21
 10
13.3350
 20
43.5638
 30
0.0000
 42
1.0000
  0
VERTEX
  8
21
 10
13.3350
 20
43.7162
 30
0.0000
  0
VERTEX
  8
21
 10
12.0650
 20
43.7162
 30
0.0000
 42
1.0000
  0
SEQEND
  8
0
  0
POLYLINE
  8
21
 66
1
 10
0.0000
 20
0.0000
 30
0.0000
 40
0.0000
 41
0.0000
 70
1
  0
VERTEX
  8
21
 10
13.2811
 20
43.5861
 30
0.0000
  0
VERTEX
  8
21
 10
13.9161
 20
42.9511
 30
0.0000
 42
1.0000
  0
VERTEX
  8
21
 10
14.0239
 20
43.0589
 30
0.0000
  0
VERTEX
  8
21
 10
13.3889
 20
43.6939
 30
0.0000
 42
1.0000
  0
SEQEND
  8
0
  0
POLYLINE
  8
21
 66
1
 10
0.0000
 20
0.0000
 30
0.0000
 40
0.0000
 41
0.0000
 70
1
  0
VERTEX
  8
21
 10
12.0650
 20
41.0238
 30
0.0000
  0
VERTEX
  8
21
 10
13.3350
 20
41.0238
 30
0.0000
 42
1.0000
  0
VERTEX
  8
21
 10
13.3350
 20
41.1762
 30
0.0000
  0
VERTEX
  8
21
 10
12.0650
 20
41.1762
 30
0.0000
 42
1.0000
  0
SEQEND
  8
0
  0
POLYLINE
  8
21
 66
1
 10
0.0000
 20
0.0000
 30
0.0000
 40
0.0000
 41
0.0000
 70
1
  0
VERTEX
  8
21
 10
11.3761
 20
41.6811
 30
0.0000
  0
VERTEX
  8
21
 10
12.0111
 20
41.0461
 30
0.0000
 42
1.0000
  0
VERTEX
  8
21
 10
12.1189
 20
41.1539
 30
0.0000
  0
VERTEX
  8
21
 10
11.4839
 20
41.7889
 30
0.0000
 42
1.0000
  0
SEQEND
  8
0
  0
POLYLINE
  8
21
 66
1
 10
0.0000
 20
0.0000
 30
0.0000
 40
0.0000
 41
0.0000
 70
1
  0
VERTEX
  8
21
 10
13.3889
 20
41.0461
 30
0.0000
  0
VERTEX
  8
21
 10
14.0239
 20
41.6811
 30
0.0000
 42
1.0000
  0
VERTEX
  8
21
 10
13.9161
 20
41.7889
 30
0.0000
  0
VERTEX
  8
21
 10
13.2811
 20
41.1539
 30
0.0000
 42
1.0000
  0
SEQEND
  8
0
  0
POLYLINE
  8
21
 66
1
 10
0.0000
 20
0.0000
 30
0.0000
 40
0.0000
 41
0.0000
 70
1
  0
VERTEX
  8
21
 10
13.8938
 20
43.0050
 30
0.0000
  0
VERTEX
  8
21
 10
13.8938
 20
41.7350
 30
0.0000
 42
1.0000
  0
VERTEX
  8
21
 10
14.0462
 20
41.7350
 30
0.0000
  0
VERTEX
  8
21
 10
14.0462
 20
43.0050
 30
0.0000
 42
1.0000
  0
SEQEND
  8
0
  0
POLYLINE
  8
21
 66
1
 10
0.0000
 20
0.0000
 30
0.0000
 40
0.0000
 41
0.0000
 70
1
  0
VERTEX
  8
21
 10
12.1189
 20
43.6939
 30
0.0000
  0
VERTEX
  8
21
 10
11.4839
 20
44.3289
 30
0.0000
 42
1.0000
  0
VERTEX
  8
21
 10
11.3761
 20
44.2211
 30
0.0000
  0
VERTEX
  8
21
 10
12.0111
 20
43.5861
 30
0.0000
 42
1.0000
  0
SEQEND
  8
0
  0
POLYLINE
  8
21
 66
1
 10
0.0000
 20
0.0000
 30
0.0000
 40
0.0000
 41
0.0000
 70
1
  0
VERTEX
  8
21
 10
11.5062
 20
44.2750
 30
0.0000
  0
VERTEX
  8
21
 10
11.5062
 20
45.5450
 30
0.0000
 42
1.0000
  0
VERTEX
  8
21
 10
11.3538
 20
45.5450
 30
0.0000
  0
VERTEX
  8
21
 10
11.3538
 20
44.2750
 30
0.0000
 42
1.0000
  0
SEQEND
  8
0
  0
POLYLINE
  8
21
 66
1
 10
0.0000
 20
0.0000
 30
0.0000
 40
0.0000
 41
0.0000
 70
1
  0
VERTEX
  8
21
 10
11.4839
 20
45.4911
 30
0.0000
  0
VERTEX
  8
21
 10
12.1189
 20
46.1261
 30
0.0000
 42
1.0000
  0
VERTEX
  8
21
 10
12.0111
 20
46.2339
 30
0.0000
  0
VERTEX
  8
21
 10
11.3761
 20
45.5989
 30
0.0000
 42
1.0000
  0
SEQEND
  8
0
  0
POLYLINE
  8
21
 66
1
 10
0.0000
 20
0.0000
 30
0.0000
 40
0.0000
 41
0.0000
 70
1
  0
VERTEX
  8
21
 10
12.0650
 20
46.1038
 30
0.0000
  0
VERTEX
  8
21
 10
13.3350
 20
46.1038
 30
0.0000
 42
1.0000
  0
VERTEX
  8
21
 10
13.3350
 20
46.2562
 30
0.0000
  0
VERTEX
  8
21
 10
12.0650
 20
46.2562
 30
0.0000
 42
1.0000
  0
SEQEND
  8
0
  0
POLYLINE
  8
21
 66
1
 10
0.0000
 20
0.0000
 30
0.0000
 40
0.0000
 41
0.0000
 70
1
  0
VERTEX
  8
21
 10
13.2811
 20
46.1261
 30
0.0000
  0
VERTEX
  8
21
 10
13.9161
 20
45.4911
 30
0.0000
 42
1.0000
  0
VERTEX
  8
21
 10
14.0239
 20
45.5989
 30
0.0000
  0
VERTEX
  8
21
 10
13.3889
 20
46.2339
 30
0.0000
 42
1.0000
  0
SEQEND
  8
0
  0
POLYLINE
  8
21
 66
1
 10
0.0000
 20
0.0000
 30
0.0000
 40
0.0000
 41
0.0000
 70
1
  0
VERTEX
  8
21
 10
13.8938
 20
45.5450
 30
0.0000
  0
VERTEX
  8
21
 10
13.8938
 20
44.2750
 30
0.0000
 42
1.0000
  0
VERTEX
  8
21
 10
14.0462
 20
44.2750
 30
0.0000
  0
VERTEX
  8
21
 10
14.0462
 20
45.5450
 30
0.0000
 42
1.0000
  0
SEQEND
  8
0
  0
POLYLINE
  8
21
 66
1
 10
0.0000
 20
0.0000
 30
0.0000
 40
0.0000
 41
0.0000
 70
1
  0
VERTEX
  8
21
 10
13.9161
 20
44.3289
 30
0.0000
  0
VERTEX
  8
21
 10
13.2811
 20
43.6939
 30
0.0000
 42
1.0000
  0
VERTEX
  8
21
 10
13.3889
 20
43.5861
 30
0.0000
  0
VERTEX
  8
21
 10
14.0239
 20
44.2211
 30
0.0000
 42
1.0000
  0
SEQEND
  8
0
  0
POLYLINE
  8
21
 66
1
 10
0.0000
 20
0.0000
 30
0.0000
 40
0.0000
 41
0.0000
 70
1
  0
VERTEX
  8
21
 10
62.9038
 20
13.6830
 30
0.0000
  0
VERTEX
  8
21
 10
62.9038
 20
10.6350
 30
0.0000
 42
1.0000
  0
VERTEX
  8
21
 10
63.0562
 20
10.6350
 30
0.0000
  0
VERTEX
  8
21
 10
63.0562
 20
13.6830
 30
0.0000
 42
1.0000
  0
SEQEND
  8
0
  0
POLYLINE
  8
21
 66
1
 10
0.0000
 20
0.0000
 30
0.0000
 40
0.0000
 41
0.0000
 70
1
  0
VERTEX
  8
21
 10
62.9800
 20
13.7592
 30
0.0000
  0
VERTEX
  8
21
 10
52.8200
 20
13.7592
 30
0.0000
 42
1.0000
  0
VERTEX
  8
21
 10
52.8200
 20
13.6068
 30
0.0000
  0
VERTEX
  8
21
 10
62.9800
 20
13.6068
 30
0.0000
 42
1.0000
  0
SEQEND
  8
0
  0
POLYLINE
  8
21
 66
1
 10
0.0000
 20
0.0000
 30
0.0000
 40
0.0000
 41
0.0000
 70
1
  0
VERTEX
  8
21
 10
62.9800
 20
13.6068
 30
0.0000
  0
VERTEX
  8
21
 10
63.4880
 20
13.6068
 30
0.0000
 42
1.0000
  0
VERTEX
  8
21
 10
63.4880
 20
13.7592
 30
0.0000
  0
VERTEX
  8
21
 10
62.9800
 20
13.7592
 30
0.0000
 42
1.0000
  0
SEQEND
  8
0
  0
POLYLINE
  8
21
 66
1
 10
0.0000
 20
0.0000
 30
0.0000
 40
0.0000
 41
0.0000
 70
1
  0
VERTEX
  8
21
 10
63.4118
 20
13.6830
 30
0.0000
  0
VERTEX
  8
21
 10
63.4118
 20
8.8570
 30
0.0000
 42
1.0000
  0
VERTEX
  8
21
 10
63.5642
 20
8.8570
 30
0.0000
  0
VERTEX
  8
21
 10
63.5642
 20
13.6830
 30
0.0000
 42
1.0000
  0
SEQEND
  8
0
  0
POLYLINE
  8
21
 66
1
 10
0.0000
 20
0.0000
 30
0.0000
 40
0.0000
 41
0.0000
 70
1
  0
VERTEX
  8
21
 10
63.5221
 20
8.9252
 30
0.0000
  0
VERTEX
  8
21
 10
63.0141
 20
9.1792
 30
0.0000
 42
1.0000
  0
VERTEX
  8
21
 10
62.9459
 20
9.0428
 30
0.0000
  0
VERTEX
  8
21
 10
63.4539
 20
8.7888
 30
0.0000
 42
1.0000
  0
SEQEND
  8
0
  0
POLYLINE
  8
21
 66
1
 10
0.0000
 20
0.0000
 30
0.0000
 40
0.0000
 41
0.0000
 70
1
  0
VERTEX
  8
21
 10
63.5221
 20
2.0672
 30
0.0000
  0
VERTEX
  8
21
 10
63.0141
 20
2.3212
 30
0.0000
 42
1.0000
  0
VERTEX
  8
21
 10
62.9459
 20
2.1848
 30
0.0000
  0
VERTEX
  8
21
 10
63.4539
 20
1.9308
 30
0.0000
 42
1.0000
  0
SEQEND
  8
0
  0
POLYLINE
  8
21
 66
1
 10
0.0000
 20
0.0000
 30
0.0000
 40
0.0000
 41
0.0000
 70
1
  0
VERTEX
  8
21
 10
62.9038
 20
2.2530
 30
0.0000
  0
VERTEX
  8
21
 10
62.9038
 20
1.2370
 30
0.0000
 42
1.0000
  0
VERTEX
  8
21
 10
63.0562
 20
1.2370
 30
0.0000
  0
VERTEX
  8
21
 10
63.0562
 20
2.2530
 30
0.0000
 42
1.0000
  0
SEQEND
  8
0
  0
POLYLINE
  8
21
 66
1
 10
0.0000
 20
0.0000
 30
0.0000
 40
0.0000
 41
0.0000
 70
1
  0
VERTEX
  8
21
 10
63.4539
 20
3.7182
 30
0.0000
  0
VERTEX
  8
21
 10
62.9459
 20
3.4642
 30
0.0000
 42
1.0000
  0
VERTEX
  8
21
 10
63.0141
 20
3.3278
 30
0.0000
  0
VERTEX
  8
21
 10
63.5221
 20
3.5818
 30
0.0000
 42
1.0000
  0
SEQEND
  8
0
  0
POLYLINE
  8
21
 66
1
 10
0.0000
 20
0.0000
 30
0.0000
 40
0.0000
 41
0.0000
 70
1
  0
VERTEX
  8
21
 10
62.9038
 20
3.3960
 30
0.0000
  0
VERTEX
  8
21
 10
62.9038
 20
2.2530
 30
0.0000
 42
1.0000
  0
VERTEX
  8
21
 10
63.0562
 20
2.2530
 30
0.0000
  0
VERTEX
  8
21
 10
63.0562
 20
3.3960
 30
0.0000
 42
1.0000
  0
SEQEND
  8
0
  0
POLYLINE
  8
21
 66
1
 10
0.0000
 20
0.0000
 30
0.0000
 40
0.0000
 41
0.0000
 70
1
  0
VERTEX
  8
21
 10
63.4118
 20
3.6500
 30
0.0000
  0
VERTEX
  8
21
 10
63.4118
 20
1.9990
 30
0.0000
 42
1.0000
  0
VERTEX
  8
21
 10
63.5642
 20
1.9990
 30
0.0000
  0
VERTEX
  8
21
 10
63.5642
 20
3.6500
 30
0.0000
 42
1.0000
  0
SEQEND
  8
0
  0
POLYLINE
  8
21
 66
1
 10
0.0000
 20
0.0000
 30
0.0000
 40
0.0000
 41
0.0000
 70
1
  0
VERTEX
  8
21
 10
58.4334
 20
1.2370
 30
0.0000
  0
VERTEX
  8
21
 10
58.4334
 20
3.1420
 30
0.0000
 42
1.0000
  0
VERTEX
  8
21
 10
58.2810
 20
3.1420
 30
0.0000
  0
VERTEX
  8
21
 10
58.2810
 20
1.2370
 30
0.0000
 42
1.0000
  0
SEQEND
  8
0
  0
POLYLINE
  8
21
 66
1
 10
0.0000
 20
0.0000
 30
0.0000
 40
0.0000
 41
0.0000
 70
1
  0
VERTEX
  8
21
 10
62.3450
 20
7.7140
 30
0.0000
  0
VERTEX
  8
21
 10
62.3450
 20
3.1420
 30
0.0000
 42
1.0000
  0
VERTEX
  8
21
 10
62.4974
 20
3.1420
 30
0.0000
  0
VERTEX
  8
21
 10
62.4974
 20
7.7140
 30
0.0000
 42
1.0000
  0
SEQEND
  8
0
  0
POLYLINE
  8
21
 66
1
 10
0.0000
 20
0.0000
 30
0.0000
 40
0.0000
 41
0.0000
 70
1
  0
VERTEX
  8
21
 10
58.3572
 20
1.1608
 30
0.0000
  0
VERTEX
  8
21
 10
62.4212
 20
1.1608
 30
0.0000
 42
1.0000
  0
VERTEX
  8
21
 10
62.4212
 20
1.3132
 30
0.0000
  0
VERTEX
  8
21
 10
58.3572
 20
1.3132
 30
0.0000
 42
1.0000
  0
SEQEND
  8
0
  0
POLYLINE
  8
21
 66
1
 10
0.0000
 20
0.0000
 30
0.0000
 40
0.0000
 41
0.0000
 70
1
  0
VERTEX
  8
21
 10
62.4212
 20
1.1608
 30
0.0000
  0
VERTEX
  8
21
 10
62.9800
 20
1.1608
 30
0.0000
 42
1.0000
  0
VERTEX
  8
21
 10
62.9800
 20
1.3132
 30
0.0000
  0
VERTEX
  8
21
 10
62.4212
 20
1.3132
 30
0.0000
 42
1.0000
  0
SEQEND
  8
0
  0
POLYLINE
  8
21
 66
1
 10
0.0000
 20
0.0000
 30
0.0000
 40
0.0000
 41
0.0000
 70
1
  0
VERTEX
  8
21
 10
57.4936
 20
1.2370
 30
0.0000
  0
VERTEX
  8
21
 10
57.4936
 20
3.1420
 30
0.0000
 42
1.0000
  0
VERTEX
  8
21
 10
57.3412
 20
3.1420
 30
0.0000
  0
VERTEX
  8
21
 10
57.3412
 20
1.2370
 30
0.0000
 42
1.0000
  0
SEQEND
  8
0
  0
POLYLINE
  8
21
 66
1
 10
0.0000
 20
0.0000
 30
0.0000
 40
0.0000
 41
0.0000
 70
1
  0
VERTEX
  8
21
 10
57.4174
 20
1.1608
 30
0.0000
  0
VERTEX
  8
21
 10
58.3572
 20
1.1608
 30
0.0000
 42
1.0000
  0
VERTEX
  8
21
 10
58.3572
 20
1.3132
 30
0.0000
  0
VERTEX
  8
21
 10
57.4174
 20
1.3132
 30
0.0000
 42
1.0000
  0
SEQEND
  8
0
  0
POLYLINE
  8
21
 66
1
 10
0.0000
 20
0.0000
 30
0.0000
 40
0.0000
 41
0.0000
 70
1
  0
VERTEX
  8
21
 10
53.2772
 20
7.7140
 30
0.0000
  0
VERTEX
  8
21
 10
53.2772
 20
3.1420
 30
0.0000
 42
1.0000
  0
VERTEX
  8
21
 10
53.4296
 20
3.1420
 30
0.0000
  0
VERTEX
  8
21
 10
53.4296
 20
7.7140
 30
0.0000
 42
1.0000
  0
SEQEND
  8
0
  0
POLYLINE
  8
21
 66
1
 10
0.0000
 20
0.0000
 30
0.0000
 40
0.0000
 41
0.0000
 70
1
  0
VERTEX
  8
21
 10
52.8200
 20
1.1608
 30
0.0000
  0
VERTEX
  8
21
 10
53.3534
 20
1.1608
 30
0.0000
 42
1.0000
  0
VERTEX
  8
21
 10
53.3534
 20
1.3132
 30
0.0000
  0
VERTEX
  8
21
 10
52.8200
 20
1.3132
 30
0.0000
 42
1.0000
  0
SEQEND
  8
0
  0
POLYLINE
  8
21
 66
1
 10
0.0000
 20
0.0000
 30
0.0000
 40
0.0000
 41
0.0000
 70
1
  0
VERTEX
  8
21
 10
53.3534
 20
1.1608
 30
0.0000
  0
VERTEX
  8
21
 10
57.4174
 20
1.1608
 30
0.0000
 42
1.0000
  0
VERTEX
  8
21
 10
57.4174
 20
1.3132
 30
0.0000
  0
VERTEX
  8
21
 10
53.3534
 20
1.3132
 30
0.0000
 42
1.0000
  0
SEQEND
  8
0
  0
POLYLINE
  8
21
 66
1
 10
0.0000
 20
0.0000
 30
0.0000
 40
0.0000
 41
0.0000
 70
1
  0
VERTEX
  8
21
 10
58.3572
 20
3.0658
 30
0.0000
  0
VERTEX
  8
21
 10
62.4212
 20
3.0658
 30
0.0000
 42
1.0000
  0
VERTEX
  8
21
 10
62.4212
 20
3.2182
 30
0.0000
  0
VERTEX
  8
21
 10
58.3572
 20
3.2182
 30
0.0000
 42
1.0000
  0
SEQEND
  8
0
  0
POLYLINE
  8
21
 66
1
 10
0.0000
 20
0.0000
 30
0.0000
 40
0.0000
 41
0.0000
 70
1
  0
VERTEX
  8
21
 10
58.4334
 20
3.1420
 30
0.0000
  0
VERTEX
  8
21
 10
58.4334
 20
7.7140
 30
0.0000
 42
1.0000
  0
VERTEX
  8
21
 10
58.2810
 20
7.7140
 30
0.0000
  0
VERTEX
  8
21
 10
58.2810
 20
3.1420
 30
0.0000
 42
1.0000
  0
SEQEND
  8
0
  0
POLYLINE
  8
21
 66
1
 10
0.0000
 20
0.0000
 30
0.0000
 40
0.0000
 41
0.0000
 70
1
  0
VERTEX
  8
21
 10
62.3450
 20
3.1420
 30
0.0000
  0
VERTEX
  8
21
 10
62.3450
 20
1.2370
 30
0.0000
 42
1.0000
  0
VERTEX
  8
21
 10
62.4974
 20
1.2370
 30
0.0000
  0
VERTEX
  8
21
 10
62.4974
 20
3.1420
 30
0.0000
 42
1.0000
  0
SEQEND
  8
0
  0
POLYLINE
  8
21
 66
1
 10
0.0000
 20
0.0000
 30
0.0000
 40
0.0000
 41
0.0000
 70
1
  0
VERTEX
  8
21
 10
57.4174
 20
3.2182
 30
0.0000
  0
VERTEX
  8
21
 10
53.3534
 20
3.2182
 30
0.0000
 42
1.0000
  0
VERTEX
  8
21
 10
53.3534
 20
3.0658
 30
0.0000
  0
VERTEX
  8
21
 10
57.4174
 20
3.0658
 30
0.0000
 42
1.0000
  0
SEQEND
  8
0
  0
POLYLINE
  8
21
 66
1
 10
0.0000
 20
0.0000
 30
0.0000
 40
0.0000
 41
0.0000
 70
1
  0
VERTEX
  8
21
 10
57.4936
 20
3.1420
 30
0.0000
  0
VERTEX
  8
21
 10
57.4936
 20
7.7140
 30
0.0000
 42
1.0000
  0
VERTEX
  8
21
 10
57.3412
 20
7.7140
 30
0.0000
  0
VERTEX
  8
21
 10
57.3412
 20
3.1420
 30
0.0000
 42
1.0000
  0
SEQEND
  8
0
  0
POLYLINE
  8
21
 66
1
 10
0.0000
 20
0.0000
 30
0.0000
 40
0.0000
 41
0.0000
 70
1
  0
VERTEX
  8
21
 10
53.2772
 20
3.1420
 30
0.0000
  0
VERTEX
  8
21
 10
53.2772
 20
1.2370
 30
0.0000
 42
1.0000
  0
VERTEX
  8
21
 10
53.4296
 20
1.2370
 30
0.0000
  0
VERTEX
  8
21
 10
53.4296
 20
3.1420
 30
0.0000
 42
1.0000
  0
SEQEND
  8
0
  0
POLYLINE
  8
21
 66
1
 10
0.0000
 20
0.0000
 30
0.0000
 40
0.0000
 41
0.0000
 70
1
  0
VERTEX
  8
21
 10
62.1164
 20
3.7770
 30
0.0000
  0
VERTEX
  8
21
 10
62.1164
 20
6.9520
 30
0.0000
 42
1.0000
  0
VERTEX
  8
21
 10
61.9640
 20
6.9520
 30
0.0000
  0
VERTEX
  8
21
 10
61.9640
 20
3.7770
 30
0.0000
 42
1.0000
  0
SEQEND
  8
0
  0
POLYLINE
  8
21
 66
1
 10
0.0000
 20
0.0000
 30
0.0000
 40
0.0000
 41
0.0000
 70
1
  0
VERTEX
  8
21
 10
62.0402
 20
3.8532
 30
0.0000
  0
VERTEX
  8
21
 10
58.7382
 20
3.8532
 30
0.0000
 42
1.0000
  0
VERTEX
  8
21
 10
58.7382
 20
3.7008
 30
0.0000
  0
VERTEX
  8
21
 10
62.0402
 20
3.7008
 30
0.0000
 42
1.0000
  0
SEQEND
  8
0
  0
POLYLINE
  8
21
 66
1
 10
0.0000
 20
0.0000
 30
0.0000
 40
0.0000
 41
0.0000
 70
1
  0
VERTEX
  8
21
 10
58.8144
 20
3.7770
 30
0.0000
  0
VERTEX
  8
21
 10
58.8144
 20
6.9520
 30
0.0000
 42
1.0000
  0
VERTEX
  8
21
 10
58.6620
 20
6.9520
 30
0.0000
  0
VERTEX
  8
21
 10
58.6620
 20
3.7770
 30
0.0000
 42
1.0000
  0
SEQEND
  8
0
  0
POLYLINE
  8
21
 66
1
 10
0.0000
 20
0.0000
 30
0.0000
 40
0.0000
 41
0.0000
 70
1
  0
VERTEX
  8
21
 10
57.1126
 20
3.7770
 30
0.0000
  0
VERTEX
  8
21
 10
57.1126
 20
6.9520
 30
0.0000
 42
1.0000
  0
VERTEX
  8
21
 10
56.9602
 20
6.9520
 30
0.0000
  0
VERTEX
  8
21
 10
56.9602
 20
3.7770
 30
0.0000
 42
1.0000
  0
SEQEND
  8
0
  0
POLYLINE
  8
21
 66
1
 10
0.0000
 20
0.0000
 30
0.0000
 40
0.0000
 41
0.0000
 70
1
  0
VERTEX
  8
21
 10
57.0364
 20
3.8532
 30
0.0000
  0
VERTEX
  8
21
 10
53.7344
 20
3.8532
 30
0.0000
 42
1.0000
  0
VERTEX
  8
21
 10
53.7344
 20
3.7008
 30
0.0000
  0
VERTEX
  8
21
 10
57.0364
 20
3.7008
 30
0.0000
 42
1.0000
  0
SEQEND
  8
0
  0
POLYLINE
  8
21
 66
1
 10
0.0000
 20
0.0000
 30
0.0000
 40
0.0000
 41
0.0000
 70
1
  0
VERTEX
  8
21
 10
53.8106
 20
3.7770
 30
0.0000
  0
VERTEX
  8
21
 10
53.8106
 20
6.9520
 30
0.0000
 42
1.0000
  0
VERTEX
  8
21
 10
53.6582
 20
6.9520
 30
0.0000
  0
VERTEX
  8
21
 10
53.6582
 20
3.7770
 30
0.0000
 42
1.0000
  0
SEQEND
  8
0
  0
POLYLINE
  8
21
 66
1
 10
0.0000
 20
0.0000
 30
0.0000
 40
0.0000
 41
0.0000
 70
1
  0
VERTEX
  8
21
 10
52.8962
 20
1.2370
 30
0.0000
  0
VERTEX
  8
21
 10
52.8962
 20
8.0950
 30
0.0000
 42
1.0000
  0
VERTEX
  8
21
 10
52.7438
 20
8.0950
 30
0.0000
  0
VERTEX
  8
21
 10
52.7438
 20
1.2370
 30
0.0000
 42
1.0000
  0
SEQEND
  8
0
  0
POLYLINE
  8
21
 66
1
 10
0.0000
 20
0.0000
 30
0.0000
 40
0.0000
 41
0.0000
 70
1
  0
VERTEX
  8
21
 10
52.8962
 20
8.0950
 30
0.0000
  0
VERTEX
  8
21
 10
52.8962
 20
10.6350
 30
0.0000
 42
1.0000
  0
VERTEX
  8
21
 10
52.7438
 20
10.6350
 30
0.0000
  0
VERTEX
  8
21
 10
52.7438
 20
8.0950
 30
0.0000
 42
1.0000
  0
SEQEND
  8
0
  0
POLYLINE
  8
21
 66
1
 10
0.0000
 20
0.0000
 30
0.0000
 40
0.0000
 41
0.0000
 70
1
  0
VERTEX
  8
21
 10
62.9038
 20
9.1110
 30
0.0000
  0
VERTEX
  8
21
 10
62.9038
 20
8.0950
 30
0.0000
 42
1.0000
  0
VERTEX
  8
21
 10
63.0562
 20
8.0950
 30
0.0000
  0
VERTEX
  8
21
 10
63.0562
 20
9.1110
 30
0.0000
 42
1.0000
  0
SEQEND
  8
0
  0
POLYLINE
  8
21
 66
1
 10
0.0000
 20
0.0000
 30
0.0000
 40
0.0000
 41
0.0000
 70
1
  0
VERTEX
  8
21
 10
62.9038
 20
8.0950
 30
0.0000
  0
VERTEX
  8
21
 10
62.9038
 20
3.3960
 30
0.0000
 42
1.0000
  0
VERTEX
  8
21
 10
63.0562
 20
3.3960
 30
0.0000
  0
VERTEX
  8
21
 10
63.0562
 20
8.0950
 30
0.0000
 42
1.0000
  0
SEQEND
  8
0
  0
POLYLINE
  8
21
 66
1
 10
0.0000
 20
0.0000
 30
0.0000
 40
0.0000
 41
0.0000
 70
1
  0
VERTEX
  8
21
 10
52.8200
 20
10.5588
 30
0.0000
  0
VERTEX
  8
21
 10
62.9800
 20
10.5588
 30
0.0000
 42
1.0000
  0
VERTEX
  8
21
 10
62.9800
 20
10.7112
 30
0.0000
  0
VERTEX
  8
21
 10
52.8200
 20
10.7112
 30
0.0000
 42
1.0000
  0
SEQEND
  8
0
  0
POLYLINE
  8
21
 66
1
 10
0.0000
 20
0.0000
 30
0.0000
 40
0.0000
 41
0.0000
 70
1
  0
VERTEX
  8
21
 10
52.8962
 20
10.6350
 30
0.0000
  0
VERTEX
  8
21
 10
52.8962
 20
13.6830
 30
0.0000
 42
1.0000
  0
VERTEX
  8
21
 10
52.7438
 20
13.6830
 30
0.0000
  0
VERTEX
  8
21
 10
52.7438
 20
10.6350
 30
0.0000
 42
1.0000
  0
SEQEND
  8
0
  0
POLYLINE
  8
21
 66
1
 10
0.0000
 20
0.0000
 30
0.0000
 40
0.0000
 41
0.0000
 70
1
  0
VERTEX
  8
21
 10
62.9038
 20
10.6350
 30
0.0000
  0
VERTEX
  8
21
 10
62.9038
 20
9.1110
 30
0.0000
 42
1.0000
  0
VERTEX
  8
21
 10
63.0562
 20
9.1110
 30
0.0000
  0
VERTEX
  8
21
 10
63.0562
 20
10.6350
 30
0.0000
 42
1.0000
  0
SEQEND
  8
0
  0
POLYLINE
  8
21
 66
1
 10
0.0000
 20
0.0000
 30
0.0000
 40
0.0000
 41
0.0000
 70
1
  0
VERTEX
  8
21
 10
58.4334
 20
10.8890
 30
0.0000
  0
VERTEX
  8
21
 10
58.4334
 20
13.4290
 30
0.0000
 42
1.0000
  0
VERTEX
  8
21
 10
58.2810
 20
13.4290
 30
0.0000
  0
VERTEX
  8
21
 10
58.2810
 20
10.8890
 30
0.0000
 42
1.0000
  0
SEQEND
  8
0
  0
POLYLINE
  8
21
 66
1
 10
0.0000
 20
0.0000
 30
0.0000
 40
0.0000
 41
0.0000
 70
1
  0
VERTEX
  8
21
 10
58.3572
 20
13.3528
 30
0.0000
  0
VERTEX
  8
21
 10
62.4212
 20
13.3528
 30
0.0000
 42
1.0000
  0
VERTEX
  8
21
 10
62.4212
 20
13.5052
 30
0.0000
  0
VERTEX
  8
21
 10
58.3572
 20
13.5052
 30
0.0000
 42
1.0000
  0
SEQEND
  8
0
  0
POLYLINE
  8
21
 66
1
 10
0.0000
 20
0.0000
 30
0.0000
 40
0.0000
 41
0.0000
 70
1
  0
VERTEX
  8
21
 10
62.3450
 20
13.4290
 30
0.0000
  0
VERTEX
  8
21
 10
62.3450
 20
10.8890
 30
0.0000
 42
1.0000
  0
VERTEX
  8
21
 10
62.4974
 20
10.8890
 30
0.0000
  0
VERTEX
  8
21
 10
62.4974
 20
13.4290
 30
0.0000
 42
1.0000
  0
SEQEND
  8
0
  0
POLYLINE
  8
21
 66
1
 10
0.0000
 20
0.0000
 30
0.0000
 40
0.0000
 41
0.0000
 70
1
  0
VERTEX
  8
21
 10
62.4212
 20
10.9652
 30
0.0000
  0
VERTEX
  8
21
 10
58.3572
 20
10.9652
 30
0.0000
 42
1.0000
  0
VERTEX
  8
21
 10
58.3572
 20
10.8128
 30
0.0000
  0
VERTEX
  8
21
 10
62.4212
 20
10.8128
 30
0.0000
 42
1.0000
  0
SEQEND
  8
0
  0
POLYLINE
  8
21
 66
1
 10
0.0000
 20
0.0000
 30
0.0000
 40
0.0000
 41
0.0000
 70
1
  0
VERTEX
  8
21
 10
57.4936
 20
10.8890
 30
0.0000
  0
VERTEX
  8
21
 10
57.4936
 20
13.4290
 30
0.0000
 42
1.0000
  0
VERTEX
  8
21
 10
57.3412
 20
13.4290
 30
0.0000
  0
VERTEX
  8
21
 10
57.3412
 20
10.8890
 30
0.0000
 42
1.0000
  0
SEQEND
  8
0
  0
POLYLINE
  8
21
 66
1
 10
0.0000
 20
0.0000
 30
0.0000
 40
0.0000
 41
0.0000
 70
1
  0
VERTEX
  8
21
 10
57.4174
 20
10.9652
 30
0.0000
  0
VERTEX
  8
21
 10
53.3534
 20
10.9652
 30
0.0000
 42
1.0000
  0
VERTEX
  8
21
 10
53.3534
 20
10.8128
 30
0.0000
  0
VERTEX
  8
21
 10
57.4174
 20
10.8128
 30
0.0000
 42
1.0000
  0
SEQEND
  8
0
  0
POLYLINE
  8
21
 66
1
 10
0.0000
 20
0.0000
 30
0.0000
 40
0.0000
 41
0.0000
 70
1
  0
VERTEX
  8
21
 10
53.4296
 20
10.8890
 30
0.0000
  0
VERTEX
  8
21
 10
53.4296
 20
13.4290
 30
0.0000
 42
1.0000
  0
VERTEX
  8
21
 10
53.2772
 20
13.4290
 30
0.0000
  0
VERTEX
  8
21
 10
53.2772
 20
10.8890
 30
0.0000
 42
1.0000
  0
SEQEND
  8
0
  0
POLYLINE
  8
21
 66
1
 10
0.0000
 20
0.0000
 30
0.0000
 40
0.0000
 41
0.0000
 70
1
  0
VERTEX
  8
21
 10
57.4174
 20
13.5052
 30
0.0000
  0
VERTEX
  8
21
 10
53.3534
 20
13.5052
 30
0.0000
 42
1.0000
  0
VERTEX
  8
21
 10
53.3534
 20
13.3528
 30
0.0000
  0
VERTEX
  8
21
 10
57.4174
 20
13.3528
 30
0.0000
 42
1.0000
  0
SEQEND
  8
0
  0
POLYLINE
  8
21
 66
1
 10
0.0000
 20
0.0000
 30
0.0000
 40
0.0000
 41
0.0000
 70
1
  0
VERTEX
  8
21
 10
61.8070
 20
11.6020
 30
0.0000
 42
1.0000
  0
VERTEX
  8
21
 10
61.9078
 20
11.4878
 30
0.0000
 42
0.4171
  0
VERTEX
  8
21
 10
61.9697
 20
12.5655
 30
0.0000
 42
1.0000
  0
VERTEX
  8
21
 10
61.8565
 20
12.4635
 30
0.0000
 42
-0.4171
  0
SEQEND
  8
0
  0
POLYLINE
  8
21
 66
1
 10
0.0000
 20
0.0000
 30
0.0000
 40
0.0000
 41
0.0000
 70
1
  0
VERTEX
  8
21
 10
58.9636
 20
11.6851
 30
0.0000
 42
1.0000
  0
VERTEX
  8
21
 10
58.8684
 20
11.5661
 30
0.0000
 42
0.3420
  0
VERTEX
  8
21
 10
61.9495
 20
11.5179
 30
0.0000
 42
1.0000
  0
VERTEX
  8
21
 10
61.8581
 20
11.6399
 30
0.0000
 42
-0.3420
  0
SEQEND
  8
0
  0
POLYLINE
  8
21
 66
1
 10
0.0000
 20
0.0000
 30
0.0000
 40
0.0000
 41
0.0000
 70
1
  0
VERTEX
  8
21
 10
61.8603
 20
12.4686
 30
0.0000
 42
1.0000
  0
VERTEX
  8
21
 10
61.9753
 20
12.5686
 30
0.0000
 42
0.4664
  0
VERTEX
  8
21
 10
58.7044
 20
12.5117
 30
0.0000
 42
1.0000
  0
VERTEX
  8
21
 10
58.8228
 20
12.4159
 30
0.0000
 42
-0.4664
  0
SEQEND
  8
0
  0
POLYLINE
  8
21
 66
1
 10
0.0000
 20
0.0000
 30
0.0000
 40
0.0000
 41
0.0000
 70
1
  0
VERTEX
  8
21
 10
58.8699
 20
12.4624
 30
0.0000
 42
1.0000
  0
VERTEX
  8
21
 10
58.7589
 20
12.5668
 30
0.0000
 42
0.4889
  0
VERTEX
  8
21
 10
58.9211
 20
11.5231
 30
0.0000
 42
1.0000
  0
VERTEX
  8
21
 10
58.9951
 20
11.6563
 30
0.0000
 42
-0.4889
  0
SEQEND
  8
0
  0
POLYLINE
  8
21
 66
1
 10
0.0000
 20
0.0000
 30
0.0000
 40
0.0000
 41
0.0000
 70
1
  0
VERTEX
  8
21
 10
58.7791
 20
11.8304
 30
0.0000
  0
VERTEX
  8
21
 10
61.8271
 20
12.4654
 30
0.0000
 42
1.0000
  0
VERTEX
  8
21
 10
61.7961
 20
12.6146
 30
0.0000
  0
VERTEX
  8
21
 10
58.7481
 20
11.9796
 30
0.0000
 42
1.0000
  0
SEQEND
  8
0
  0
POLYLINE
  8
21
 66
1
 10
0.0000
 20
0.0000
 30
0.0000
 40
0.0000
 41
0.0000
 70
1
  0
VERTEX
  8
21
 10
58.9061
 20
11.7034
 30
0.0000
  0
VERTEX
  8
21
 10
61.9541
 20
12.3384
 30
0.0000
 42
1.0000
  0
VERTEX
  8
21
 10
61.9231
 20
12.4876
 30
0.0000
  0
VERTEX
  8
21
 10
58.8751
 20
11.8526
 30
0.0000
 42
1.0000
  0
SEQEND
  8
0
  0
POLYLINE
  8
21
 66
1
 10
0.0000
 20
0.0000
 30
0.0000
 40
0.0000
 41
0.0000
 70
1
  0
VERTEX
  8
21
 10
56.8032
 20
11.6020
 30
0.0000
 42
1.0000
  0
VERTEX
  8
21
 10
56.9040
 20
11.4878
 30
0.0000
 42
0.4171
  0
VERTEX
  8
21
 10
56.9659
 20
12.5655
 30
0.0000
 42
1.0000
  0
VERTEX
  8
21
 10
56.8527
 20
12.4635
 30
0.0000
 42
-0.4171
  0
SEQEND
  8
0
  0
POLYLINE
  8
21
 66
1
 10
0.0000
 20
0.0000
 30
0.0000
 40
0.0000
 41
0.0000
 70
1
  0
VERTEX
  8
21
 10
53.9598
 20
11.6851
 30
0.0000
 42
1.0000
  0
VERTEX
  8
21
 10
53.8646
 20
11.5661
 30
0.0000
 42
0.3420
  0
VERTEX
  8
21
 10
56.9457
 20
11.5178
 30
0.0000
 42
1.0000
  0
VERTEX
  8
21
 10
56.8543
 20
11.6398
 30
0.0000
 42
-0.3420
  0
SEQEND
  8
0
  0
POLYLINE
  8
21
 66
1
 10
0.0000
 20
0.0000
 30
0.0000
 40
0.0000
 41
0.0000
 70
1
  0
VERTEX
  8
21
 10
56.8567
 20
12.4688
 30
0.0000
 42
1.0000
  0
VERTEX
  8
21
 10
56.9717
 20
12.5688
 30
0.0000
 42
0.4664
  0
VERTEX
  8
21
 10
53.7006
 20
12.5117
 30
0.0000
 42
1.0000
  0
VERTEX
  8
21
 10
53.8190
 20
12.4159
 30
0.0000
 42
-0.4664
  0
SEQEND
  8
0
  0
POLYLINE
  8
21
 66
1
 10
0.0000
 20
0.0000
 30
0.0000
 40
0.0000
 41
0.0000
 70
1
  0
VERTEX
  8
21
 10
53.8661
 20
12.4624
 30
0.0000
 42
1.0000
  0
VERTEX
  8
21
 10
53.7551
 20
12.5668
 30
0.0000
 42
0.4889
  0
VERTEX
  8
21
 10
53.9173
 20
11.5231
 30
0.0000
 42
1.0000
  0
VERTEX
  8
21
 10
53.9913
 20
11.6563
 30
0.0000
 42
-0.4889
  0
SEQEND
  8
0
  0
POLYLINE
  8
21
 66
1
 10
0.0000
 20
0.0000
 30
0.0000
 40
0.0000
 41
0.0000
 70
1
  0
VERTEX
  8
21
 10
53.7753
 20
11.8304
 30
0.0000
  0
VERTEX
  8
21
 10
56.8233
 20
12.4654
 30
0.0000
 42
1.0000
  0
VERTEX
  8
21
 10
56.7923
 20
12.6146
 30
0.0000
  0
VERTEX
  8
21
 10
53.7443
 20
11.9796
 30
0.0000
 42
1.0000
  0
SEQEND
  8
0
  0
POLYLINE
  8
21
 66
1
 10
0.0000
 20
0.0000
 30
0.0000
 40
0.0000
 41
0.0000
 70
1
  0
VERTEX
  8
21
 10
53.9023
 20
11.7034
 30
0.0000
  0
VERTEX
  8
21
 10
56.9503
 20
12.3384
 30
0.0000
 42
1.0000
  0
VERTEX
  8
21
 10
56.9193
 20
12.4876
 30
0.0000
  0
VERTEX
  8
21
 10
53.8713
 20
11.8526
 30
0.0000
 42
1.0000
  0
SEQEND
  8
0
  0
POLYLINE
  8
21
 66
1
 10
0.0000
 20
0.0000
 30
0.0000
 40
0.0000
 41
0.0000
 70
1
  0
VERTEX
  8
21
 10
53.3534
 20
7.6378
 30
0.0000
  0
VERTEX
  8
21
 10
53.7344
 20
7.6378
 30
0.0000
 42
1.0000
  0
VERTEX
  8
21
 10
53.7344
 20
7.7902
 30
0.0000
  0
VERTEX
  8
21
 10
53.3534
 20
7.7902
 30
0.0000
 42
1.0000
  0
SEQEND
  8
0
  0
POLYLINE
  8
21
 66
1
 10
0.0000
 20
0.0000
 30
0.0000
 40
0.0000
 41
0.0000
 70
1
  0
VERTEX
  8
21
 10
57.4174
 20
7.7902
 30
0.0000
  0
VERTEX
  8
21
 10
57.0364
 20
7.7902
 30
0.0000
 42
1.0000
  0
VERTEX
  8
21
 10
57.0364
 20
7.6378
 30
0.0000
  0
VERTEX
  8
21
 10
57.4174
 20
7.6378
 30
0.0000
 42
1.0000
  0
SEQEND
  8
0
  0
POLYLINE
  8
21
 66
1
 10
0.0000
 20
0.0000
 30
0.0000
 40
0.0000
 41
0.0000
 70
1
  0
VERTEX
  8
21
 10
52.8200
 20
8.0188
 30
0.0000
  0
VERTEX
  8
21
 10
53.7344
 20
8.0188
 30
0.0000
 42
1.0000
  0
VERTEX
  8
21
 10
53.7344
 20
8.1712
 30
0.0000
  0
VERTEX
  8
21
 10
52.8200
 20
8.1712
 30
0.0000
 42
1.0000
  0
SEQEND
  8
0
  0
POLYLINE
  8
21
 66
1
 10
0.0000
 20
0.0000
 30
0.0000
 40
0.0000
 41
0.0000
 70
1
  0
VERTEX
  8
21
 10
57.0364
 20
8.0188
 30
0.0000
  0
VERTEX
  8
21
 10
58.7382
 20
8.0188
 30
0.0000
 42
1.0000
  0
VERTEX
  8
21
 10
58.7382
 20
8.1712
 30
0.0000
  0
VERTEX
  8
21
 10
57.0364
 20
8.1712
 30
0.0000
 42
1.0000
  0
SEQEND
  8
0
  0
POLYLINE
  8
21
 66
1
 10
0.0000
 20
0.0000
 30
0.0000
 40
0.0000
 41
0.0000
 70
1
  0
VERTEX
  8
21
 10
62.9800
 20
8.1712
 30
0.0000
  0
VERTEX
  8
21
 10
62.0402
 20
8.1712
 30
0.0000
 42
1.0000
  0
VERTEX
  8
21
 10
62.0402
 20
8.0188
 30
0.0000
  0
VERTEX
  8
21
 10
62.9800
 20
8.0188
 30
0.0000
 42
1.0000
  0
SEQEND
  8
0
  0
POLYLINE
  8
21
 66
1
 10
0.0000
 20
0.0000
 30
0.0000
 40
0.0000
 41
0.0000
 70
1
  0
VERTEX
  8
21
 10
62.4212
 20
7.7902
 30
0.0000
  0
VERTEX
  8
21
 10
62.0402
 20
7.7902
 30
0.0000
 42
1.0000
  0
VERTEX
  8
21
 10
62.0402
 20
7.6378
 30
0.0000
  0
VERTEX
  8
21
 10
62.4212
 20
7.6378
 30
0.0000
 42
1.0000
  0
SEQEND
  8
0
  0
POLYLINE
  8
21
 66
1
 10
0.0000
 20
0.0000
 30
0.0000
 40
0.0000
 41
0.0000
 70
1
  0
VERTEX
  8
21
 10
58.3572
 20
7.6378
 30
0.0000
  0
VERTEX
  8
21
 10
58.7382
 20
7.6378
 30
0.0000
 42
1.0000
  0
VERTEX
  8
21
 10
58.7382
 20
7.7902
 30
0.0000
  0
VERTEX
  8
21
 10
58.3572
 20
7.7902
 30
0.0000
 42
1.0000
  0
SEQEND
  8
0
  0
POLYLINE
  8
21
 66
1
 10
0.0000
 20
0.0000
 30
0.0000
 40
0.0000
 41
0.0000
 70
1
  0
VERTEX
  8
21
 10
53.5074
 20
9.6329
 30
0.0000
  0
VERTEX
  8
21
 10
53.8249
 20
9.8869
 30
0.0000
 42
1.0000
  0
VERTEX
  8
21
 10
53.7455
 20
9.9861
 30
0.0000
  0
VERTEX
  8
21
 10
53.4280
 20
9.7321
 30
0.0000
 42
1.0000
  0
SEQEND
  8
0
  0
POLYLINE
  8
21
 66
1
 10
0.0000
 20
0.0000
 30
0.0000
 40
0.0000
 41
0.0000
 70
1
  0
VERTEX
  8
21
 10
53.7217
 20
9.9365
 30
0.0000
  0
VERTEX
  8
21
 10
53.7217
 20
8.7935
 30
0.0000
 42
1.0000
  0
VERTEX
  8
21
 10
53.8487
 20
8.7935
 30
0.0000
  0
VERTEX
  8
21
 10
53.8487
 20
9.9365
 30
0.0000
 42
1.0000
  0
SEQEND
  8
0
  0
POLYLINE
  8
21
 66
1
 10
0.0000
 20
0.0000
 30
0.0000
 40
0.0000
 41
0.0000
 70
1
  0
VERTEX
  8
21
 10
53.4677
 20
8.7300
 30
0.0000
  0
VERTEX
  8
21
 10
54.1027
 20
8.7300
 30
0.0000
 42
1.0000
  0
VERTEX
  8
21
 10
54.1027
 20
8.8570
 30
0.0000
  0
VERTEX
  8
21
 10
53.4677
 20
8.8570
 30
0.0000
 42
1.0000
  0
SEQEND
  8
0
  0
POLYLINE
  8
21
 66
1
 10
0.0000
 20
0.0000
 30
0.0000
 40
0.0000
 41
0.0000
 70
1
  0
VERTEX
  8
21
 10
59.1192
 20
9.6508
 30
0.0000
 42
1.0000
  0
VERTEX
  8
21
 10
59.2462
 20
9.6508
 30
0.0000
 42
0.4142
  0
VERTEX
  8
21
 10
58.8970
 20
10.0000
 30
0.0000
 42
1.0000
  0
VERTEX
  8
21
 10
58.8970
 20
9.8730
 30
0.0000
 42
-0.4142
  0
SEQEND
  8
0
  0
POLYLINE
  8
21
 66
1
 10
0.0000
 20
0.0000
 30
0.0000
 40
0.0000
 41
0.0000
 70
1
  0
VERTEX
  8
21
 10
58.8969
 20
9.8730
 30
0.0000
 42
1.0000
  0
VERTEX
  8
21
 10
58.8970
 20
10.0000
 30
0.0000
 42
0.3252
  0
VERTEX
  8
21
 10
58.4873
 20
9.7021
 30
0.0000
 42
1.0000
  0
VERTEX
  8
21
 10
58.6081
 20
9.6629
 30
0.0000
 42
-0.3252
  0
SEQEND
  8
0
  0
POLYLINE
  8
21
 66
1
 10
0.0000
 20
0.0000
 30
0.0000
 40
0.0000
 41
0.0000
 70
1
  0
VERTEX
  8
21
 10
59.0437
 20
9.4745
 30
0.0000
 42
1.0000
  0
VERTEX
  8
21
 10
59.1312
 20
9.3825
 30
0.0000
 42
0.2053
  0
VERTEX
  8
21
 10
59.2462
 20
9.6508
 30
0.0000
 42
1.0000
  0
VERTEX
  8
21
 10
59.1192
 20
9.6507
 30
0.0000
 42
-0.2053
  0
SEQEND
  8
0
  0
POLYLINE
  8
21
 66
1
 10
0.0000
 20
0.0000
 30
0.0000
 40
0.0000
 41
0.0000
 70
1
  0
VERTEX
  8
21
 10
59.0391
 20
9.4696
 30
0.0000
  0
VERTEX
  8
21
 10
58.4993
 20
8.8346
 30
0.0000
 42
1.0000
  0
VERTEX
  8
21
 10
58.5961
 20
8.7524
 30
0.0000
  0
VERTEX
  8
21
 10
59.1358
 20
9.3874
 30
0.0000
 42
1.0000
  0
SEQEND
  8
0
  0
POLYLINE
  8
21
 66
1
 10
0.0000
 20
0.0000
 30
0.0000
 40
0.0000
 41
0.0000
 70
1
  0
VERTEX
  8
21
 10
58.5477
 20
8.7300
 30
0.0000
  0
VERTEX
  8
21
 10
59.1827
 20
8.7300
 30
0.0000
 42
1.0000
  0
VERTEX
  8
21
 10
59.1827
 20
8.8570
 30
0.0000
  0
VERTEX
  8
21
 10
58.5477
 20
8.8570
 30
0.0000
 42
1.0000
  0
SEQEND
  8
0
  0
POLYLINE
  8
21
 66
1
 10
0.0000
 20
0.0000
 30
0.0000
 40
0.0000
 41
0.0000
 70
1
  0
VERTEX
  8
21
 10
76.7200
 20
49.5716
 30
0.0000
  0
VERTEX
  8
21
 10
75.1200
 20
49.5716
 30
0.0000
 42
1.0000
  0
VERTEX
  8
21
 10
75.1200
 20
49.3684
 30
0.0000
  0
VERTEX
  8
21
 10
76.7200
 20
49.3684
 30
0.0000
 42
1.0000
  0
SEQEND
  8
0
  0
POLYLINE
  8
21
 66
1
 10
0.0000
 20
0.0000
 30
0.0000
 40
0.0000
 41
0.0000
 70
1
  0
VERTEX
  8
21
 10
73.1200
 20
49.5716
 30
0.0000
  0
VERTEX
  8
21
 10
71.5200
 20
49.5716
 30
0.0000
 42
1.0000
  0
VERTEX
  8
21
 10
71.5200
 20
49.3684
 30
0.0000
  0
VERTEX
  8
21
 10
73.1200
 20
49.3684
 30
0.0000
 42
1.0000
  0
SEQEND
  8
0
  0
POLYLINE
  8
21
 66
1
 10
0.0000
 20
0.0000
 30
0.0000
 40
0.0000
 41
0.0000
 70
1
  0
VERTEX
  8
21
 10
71.6216
 20
49.4700
 30
0.0000
  0
VERTEX
  8
21
 10
71.6216
 20
54.6700
 30
0.0000
 42
1.0000
  0
VERTEX
  8
21
 10
71.4184
 20
54.6700
 30
0.0000
  0
VERTEX
  8
21
 10
71.4184
 20
49.4700
 30
0.0000
 42
1.0000
  0
SEQEND
  8
0
  0
POLYLINE
  8
21
 66
1
 10
0.0000
 20
0.0000
 30
0.0000
 40
0.0000
 41
0.0000
 70
1
  0
VERTEX
  8
21
 10
71.5200
 20
54.5684
 30
0.0000
  0
VERTEX
  8
21
 10
73.1200
 20
54.5684
 30
0.0000
 42
1.0000
  0
VERTEX
  8
21
 10
73.1200
 20
54.7716
 30
0.0000
  0
VERTEX
  8
21
 10
71.5200
 20
54.7716
 30
0.0000
 42
1.0000
  0
SEQEND
  8
0
  0
POLYLINE
  8
21
 66
1
 10
0.0000
 20
0.0000
 30
0.0000
 40
0.0000
 41
0.0000
 70
1
  0
VERTEX
  8
21
 10
75.1200
 20
54.5684
 30
0.0000
  0
VERTEX
  8
21
 10
76.7200
 20
54.5684
 30
0.0000
 42
1.0000
  0
VERTEX
  8
21
 10
76.7200
 20
54.7716
 30
0.0000
  0
VERTEX
  8
21
 10
75.1200
 20
54.7716
 30
0.0000
 42
1.0000
  0
SEQEND
  8
0
  0
POLYLINE
  8
21
 66
1
 10
0.0000
 20
0.0000
 30
0.0000
 40
0.0000
 41
0.0000
 70
1
  0
VERTEX
  8
21
 10
76.6184
 20
54.6700
 30
0.0000
  0
VERTEX
  8
21
 10
76.6184
 20
49.4700
 30
0.0000
 42
1.0000
  0
VERTEX
  8
21
 10
76.8216
 20
49.4700
 30
0.0000
  0
VERTEX
  8
21
 10
76.8216
 20
54.6700
 30
0.0000
 42
1.0000
  0
SEQEND
  8
0
  0
POLYLINE
  8
21
 66
1
 10
0.0000
 20
0.0000
 30
0.0000
 40
0.0000
 41
0.0000
 70
1
  0
VERTEX
  8
21
 10
71.6200
 20
53.9684
 30
0.0000
  0
VERTEX
  8
21
 10
72.1200
 20
53.9684
 30
0.0000
 42
1.0000
  0
VERTEX
  8
21
 10
72.1200
 20
54.1716
 30
0.0000
  0
VERTEX
  8
21
 10
71.6200
 20
54.1716
 30
0.0000
 42
1.0000
  0
SEQEND
  8
0
  0
POLYLINE
  8
21
 66
1
 10
0.0000
 20
0.0000
 30
0.0000
 40
0.0000
 41
0.0000
 70
1
  0
VERTEX
  8
21
 10
72.0184
 20
54.0700
 30
0.0000
  0
VERTEX
  8
21
 10
72.0184
 20
50.0700
 30
0.0000
 42
1.0000
  0
VERTEX
  8
21
 10
72.2216
 20
50.0700
 30
0.0000
  0
VERTEX
  8
21
 10
72.2216
 20
54.0700
 30
0.0000
 42
1.0000
  0
SEQEND
  8
0
  0
POLYLINE
  8
21
 66
1
 10
0.0000
 20
0.0000
 30
0.0000
 40
0.0000
 41
0.0000
 70
1
  0
VERTEX
  8
21
 10
72.1200
 20
49.9684
 30
0.0000
  0
VERTEX
  8
21
 10
72.6200
 20
49.9684
 30
0.0000
 42
1.0000
  0
VERTEX
  8
21
 10
72.6200
 20
50.1716
 30
0.0000
  0
VERTEX
  8
21
 10
72.1200
 20
50.1716
 30
0.0000
 42
1.0000
  0
SEQEND
  8
0
  0
POLYLINE
  8
21
 66
1
 10
0.0000
 20
0.0000
 30
0.0000
 40
0.0000
 41
0.0000
 70
1
  0
VERTEX
  8
21
 10
72.7216
 20
50.0700
 30
0.0000
  0
VERTEX
  8
21
 10
72.7216
 20
54.0700
 30
0.0000
 42
1.0000
  0
VERTEX
  8
21
 10
72.5184
 20
54.0700
 30
0.0000
  0
VERTEX
  8
21
 10
72.5184
 20
50.0700
 30
0.0000
 42
1.0000
  0
SEQEND
  8
0
  0
POLYLINE
  8
21
 66
1
 10
0.0000
 20
0.0000
 30
0.0000
 40
0.0000
 41
0.0000
 70
1
  0
VERTEX
  8
21
 10
72.6200
 20
53.9684
 30
0.0000
  0
VERTEX
  8
21
 10
73.1200
 20
53.9684
 30
0.0000
 42
1.0000
  0
VERTEX
  8
21
 10
73.1200
 20
54.1716
 30
0.0000
  0
VERTEX
  8
21
 10
72.6200
 20
54.1716
 30
0.0000
 42
1.0000
  0
SEQEND
  8
0
  0
POLYLINE
  8
21
 66
1
 10
0.0000
 20
0.0000
 30
0.0000
 40
0.0000
 41
0.0000
 70
1
  0
VERTEX
  8
21
 10
73.0184
 20
54.0700
 30
0.0000
  0
VERTEX
  8
21
 10
73.0184
 20
50.5700
 30
0.0000
 42
1.0000
  0
VERTEX
  8
21
 10
73.2216
 20
50.5700
 30
0.0000
  0
VERTEX
  8
21
 10
73.2216
 20
54.0700
 30
0.0000
 42
1.0000
  0
SEQEND
  8
0
  0
POLYLINE
  8
21
 66
1
 10
0.0000
 20
0.0000
 30
0.0000
 40
0.0000
 41
0.0000
 70
1
  0
VERTEX
  8
21
 10
73.1200
 20
50.4684
 30
0.0000
  0
VERTEX
  8
21
 10
73.6200
 20
50.4684
 30
0.0000
 42
1.0000
  0
VERTEX
  8
21
 10
73.6200
 20
50.6716
 30
0.0000
  0
VERTEX
  8
21
 10
73.1200
 20
50.6716
 30
0.0000
 42
1.0000
  0
SEQEND
  8
0
  0
POLYLINE
  8
21
 66
1
 10
0.0000
 20
0.0000
 30
0.0000
 40
0.0000
 41
0.0000
 70
1
  0
VERTEX
  8
21
 10
73.7216
 20
50.5700
 30
0.0000
  0
VERTEX
  8
21
 10
73.7216
 20
53.5700
 30
0.0000
 42
1.0000
  0
VERTEX
  8
21
 10
73.5184
 20
53.5700
 30
0.0000
  0
VERTEX
  8
21
 10
73.5184
 20
50.5700
 30
0.0000
 42
1.0000
  0
SEQEND
  8
0
  0
POLYLINE
  8
21
 66
1
 10
0.0000
 20
0.0000
 30
0.0000
 40
0.0000
 41
0.0000
 70
1
  0
VERTEX
  8
21
 10
73.6200
 20
53.4684
 30
0.0000
  0
VERTEX
  8
21
 10
74.1200
 20
53.4684
 30
0.0000
 42
1.0000
  0
VERTEX
  8
21
 10
74.1200
 20
53.6716
 30
0.0000
  0
VERTEX
  8
21
 10
73.6200
 20
53.6716
 30
0.0000
 42
1.0000
  0
SEQEND
  8
0
  0
POLYLINE
  8
21
 66
1
 10
0.0000
 20
0.0000
 30
0.0000
 40
0.0000
 41
0.0000
 70
1
  0
VERTEX
  8
21
 10
74.0184
 20
53.5700
 30
0.0000
  0
VERTEX
  8
21
 10
74.0184
 20
50.5700
 30
0.0000
 42
1.0000
  0
VERTEX
  8
21
 10
74.2216
 20
50.5700
 30
0.0000
  0
VERTEX
  8
21
 10
74.2216
 20
53.5700
 30
0.0000
 42
1.0000
  0
SEQEND
  8
0
  0
POLYLINE
  8
21
 66
1
 10
0.0000
 20
0.0000
 30
0.0000
 40
0.0000
 41
0.0000
 70
1
  0
VERTEX
  8
21
 10
74.1200
 20
50.4684
 30
0.0000
  0
VERTEX
  8
21
 10
74.6200
 20
50.4684
 30
0.0000
 42
1.0000
  0
VERTEX
  8
21
 10
74.6200
 20
50.6716
 30
0.0000
  0
VERTEX
  8
21
 10
74.1200
 20
50.6716
 30
0.0000
 42
1.0000
  0
SEQEND
  8
0
  0
POLYLINE
  8
21
 66
1
 10
0.0000
 20
0.0000
 30
0.0000
 40
0.0000
 41
0.0000
 70
1
  0
VERTEX
  8
21
 10
74.7216
 20
50.5700
 30
0.0000
  0
VERTEX
  8
21
 10
74.7216
 20
53.5700
 30
0.0000
 42
1.0000
  0
VERTEX
  8
21
 10
74.5184
 20
53.5700
 30
0.0000
  0
VERTEX
  8
21
 10
74.5184
 20
50.5700
 30
0.0000
 42
1.0000
  0
SEQEND
  8
0
  0
POLYLINE
  8
21
 66
1
 10
0.0000
 20
0.0000
 30
0.0000
 40
0.0000
 41
0.0000
 70
1
  0
VERTEX
  8
21
 10
74.6200
 20
53.4684
 30
0.0000
  0
VERTEX
  8
21
 10
75.1200
 20
53.4684
 30
0.0000
 42
1.0000
  0
VERTEX
  8
21
 10
75.1200
 20
53.6716
 30
0.0000
  0
VERTEX
  8
21
 10
74.6200
 20
53.6716
 30
0.0000
 42
1.0000
  0
SEQEND
  8
0
  0
POLYLINE
  8
21
 66
1
 10
0.0000
 20
0.0000
 30
0.0000
 40
0.0000
 41
0.0000
 70
1
  0
VERTEX
  8
21
 10
75.0184
 20
53.5700
 30
0.0000
  0
VERTEX
  8
21
 10
75.0184
 20
50.0700
 30
0.0000
 42
1.0000
  0
VERTEX
  8
21
 10
75.2216
 20
50.0700
 30
0.0000
  0
VERTEX
  8
21
 10
75.2216
 20
53.5700
 30
0.0000
 42
1.0000
  0
SEQEND
  8
0
  0
POLYLINE
  8
21
 66
1
 10
0.0000
 20
0.0000
 30
0.0000
 40
0.0000
 41
0.0000
 70
1
  0
VERTEX
  8
21
 10
75.1200
 20
49.9684
 30
0.0000
  0
VERTEX
  8
21
 10
75.6200
 20
49.9684
 30
0.0000
 42
1.0000
  0
VERTEX
  8
21
 10
75.6200
 20
50.1716
 30
0.0000
  0
VERTEX
  8
21
 10
75.1200
 20
50.1716
 30
0.0000
 42
1.0000
  0
SEQEND
  8
0
  0
POLYLINE
  8
21
 66
1
 10
0.0000
 20
0.0000
 30
0.0000
 40
0.0000
 41
0.0000
 70
1
  0
VERTEX
  8
21
 10
75.7216
 20
50.0700
 30
0.0000
  0
VERTEX
  8
21
 10
75.7216
 20
54.0700
 30
0.0000
 42
1.0000
  0
VERTEX
  8
21
 10
75.5184
 20
54.0700
 30
0.0000
  0
VERTEX
  8
21
 10
75.5184
 20
50.0700
 30
0.0000
 42
1.0000
  0
SEQEND
  8
0
  0
POLYLINE
  8
21
 66
1
 10
0.0000
 20
0.0000
 30
0.0000
 40
0.0000
 41
0.0000
 70
1
  0
VERTEX
  8
21
 10
75.6200
 20
53.9684
 30
0.0000
  0
VERTEX
  8
21
 10
76.1200
 20
53.9684
 30
0.0000
 42
1.0000
  0
VERTEX
  8
21
 10
76.1200
 20
54.1716
 30
0.0000
  0
VERTEX
  8
21
 10
75.6200
 20
54.1716
 30
0.0000
 42
1.0000
  0
SEQEND
  8
0
  0
POLYLINE
  8
21
 66
1
 10
0.0000
 20
0.0000
 30
0.0000
 40
0.0000
 41
0.0000
 70
1
  0
VERTEX
  8
21
 10
76.0184
 20
54.0700
 30
0.0000
  0
VERTEX
  8
21
 10
76.0184
 20
50.0700
 30
0.0000
 42
1.0000
  0
VERTEX
  8
21
 10
76.2216
 20
50.0700
 30
0.0000
  0
VERTEX
  8
21
 10
76.2216
 20
54.0700
 30
0.0000
 42
1.0000
  0
SEQEND
  8
0
  0
POLYLINE
  8
21
 66
1
 10
0.0000
 20
0.0000
 30
0.0000
 40
0.0000
 41
0.0000
 70
1
  0
VERTEX
  8
21
 10
76.1200
 20
49.9684
 30
0.0000
  0
VERTEX
  8
21
 10
76.6200
 20
49.9684
 30
0.0000
 42
1.0000
  0
VERTEX
  8
21
 10
76.6200
 20
50.1716
 30
0.0000
  0
VERTEX
  8
21
 10
76.1200
 20
50.1716
 30
0.0000
 42
1.0000
  0
SEQEND
  8
0
  0
POLYLINE
  8
21
 66
1
 10
0.0000
 20
0.0000
 30
0.0000
 40
0.0000
 41
0.0000
 70
1
  0
VERTEX
  8
21
 10
77.1918
 20
55.4982
 30
0.0000
  0
VERTEX
  8
21
 10
77.6918
 20
55.9982
 30
0.0000
 42
1.0000
  0
VERTEX
  8
21
 10
77.5482
 20
56.1418
 30
0.0000
  0
VERTEX
  8
21
 10
77.0482
 20
55.6418
 30
0.0000
 42
1.0000
  0
SEQEND
  8
0
  0
POLYLINE
  8
21
 66
1
 10
0.0000
 20
0.0000
 30
0.0000
 40
0.0000
 41
0.0000
 70
1
  0
VERTEX
  8
21
 10
77.5482
 20
55.9982
 30
0.0000
  0
VERTEX
  8
21
 10
78.0482
 20
55.4982
 30
0.0000
 42
1.0000
  0
VERTEX
  8
21
 10
78.1918
 20
55.6418
 30
0.0000
  0
VERTEX
  8
21
 10
77.6918
 20
56.1418
 30
0.0000
 42
1.0000
  0
SEQEND
  8
0
  0
POLYLINE
  8
21
 66
1
 10
0.0000
 20
0.0000
 30
0.0000
 40
0.0000
 41
0.0000
 70
1
  0
VERTEX
  8
21
 10
78.0482
 20
55.6418
 30
0.0000
  0
VERTEX
  8
21
 10
77.5482
 20
55.1418
 30
0.0000
 42
1.0000
  0
VERTEX
  8
21
 10
77.6918
 20
54.9982
 30
0.0000
  0
VERTEX
  8
21
 10
78.1918
 20
55.4982
 30
0.0000
 42
1.0000
  0
SEQEND
  8
0
  0
CIRCLE
  8
21
 10
74.1200
 20
52.0700
 30
0.0000
 40
3.8246
  0
CIRCLE
  8
21
 10
74.1200
 20
52.0700
 30
0.0000
 40
4.0278
  0
CIRCLE
  8
21
 10
74.1200
 20
52.0700
 30
0.0000
 40
4.4484
  0
CIRCLE
  8
21
 10
74.1200
 20
52.0700
 30
0.0000
 40
4.6516
  0
POLYLINE
  8
21
 66
1
 10
0.0000
 20
0.0000
 30
0.0000
 40
0.0000
 41
0.0000
 70
1
  0
VERTEX
  8
21
 10
27.9138
 20
13.6830
 30
0.0000
  0
VERTEX
  8
21
 10
27.9138
 20
10.6350
 30
0.0000
 42
1.0000
  0
VERTEX
  8
21
 10
28.0662
 20
10.6350
 30
0.0000
  0
VERTEX
  8
21
 10
28.0662
 20
13.6830
 30
0.0000
 42
1.0000
  0
SEQEND
  8
0
  0
POLYLINE
  8
21
 66
1
 10
0.0000
 20
0.0000
 30
0.0000
 40
0.0000
 41
0.0000
 70
1
  0
VERTEX
  8
21
 10
27.9900
 20
13.7592
 30
0.0000
  0
VERTEX
  8
21
 10
17.8300
 20
13.7592
 30
0.0000
 42
1.0000
  0
VERTEX
  8
21
 10
17.8300
 20
13.6068
 30
0.0000
  0
VERTEX
  8
21
 10
27.9900
 20
13.6068
 30
0.0000
 42
1.0000
  0
SEQEND
  8
0
  0
POLYLINE
  8
21
 66
1
 10
0.0000
 20
0.0000
 30
0.0000
 40
0.0000
 41
0.0000
 70
1
  0
VERTEX
  8
21
 10
27.9900
 20
13.6068
 30
0.0000
  0
VERTEX
  8
21
 10
28.4980
 20
13.6068
 30
0.0000
 42
1.0000
  0
VERTEX
  8
21
 10
28.4980
 20
13.7592
 30
0.0000
  0
VERTEX
  8
21
 10
27.9900
 20
13.7592
 30
0.0000
 42
1.0000
  0
SEQEND
  8
0
  0
POLYLINE
  8
21
 66
1
 10
0.0000
 20
0.0000
 30
0.0000
 40
0.0000
 41
0.0000
 70
1
  0
VERTEX
  8
21
 10
28.4218
 20
13.6830
 30
0.0000
  0
VERTEX
  8
21
 10
28.4218
 20
8.8570
 30
0.0000
 42
1.0000
  0
VERTEX
  8
21
 10
28.5742
 20
8.8570
 30
0.0000
  0
VERTEX
  8
21
 10
28.5742
 20
13.6830
 30
0.0000
 42
1.0000
  0
SEQEND
  8
0
  0
POLYLINE
  8
21
 66
1
 10
0.0000
 20
0.0000
 30
0.0000
 40
0.0000
 41
0.0000
 70
1
  0
VERTEX
  8
21
 10
28.5321
 20
8.9252
 30
0.0000
  0
VERTEX
  8
21
 10
28.0241
 20
9.1792
 30
0.0000
 42
1.0000
  0
VERTEX
  8
21
 10
27.9559
 20
9.0428
 30
0.0000
  0
VERTEX
  8
21
 10
28.4639
 20
8.7888
 30
0.0000
 42
1.0000
  0
SEQEND
  8
0
  0
POLYLINE
  8
21
 66
1
 10
0.0000
 20
0.0000
 30
0.0000
 40
0.0000
 41
0.0000
 70
1
  0
VERTEX
  8
21
 10
28.5321
 20
2.0672
 30
0.0000
  0
VERTEX
  8
21
 10
28.0241
 20
2.3212
 30
0.0000
 42
1.0000
  0
VERTEX
  8
21
 10
27.9559
 20
2.1848
 30
0.0000
  0
VERTEX
  8
21
 10
28.4639
 20
1.9308
 30
0.0000
 42
1.0000
  0
SEQEND
  8
0
  0
POLYLINE
  8
21
 66
1
 10
0.0000
 20
0.0000
 30
0.0000
 40
0.0000
 41
0.0000
 70
1
  0
VERTEX
  8
21
 10
27.9138
 20
2.2530
 30
0.0000
  0
VERTEX
  8
21
 10
27.9138
 20
1.2370
 30
0.0000
 42
1.0000
  0
VERTEX
  8
21
 10
28.0662
 20
1.2370
 30
0.0000
  0
VERTEX
  8
21
 10
28.0662
 20
2.2530
 30
0.0000
 42
1.0000
  0
SEQEND
  8
0
  0
POLYLINE
  8
21
 66
1
 10
0.0000
 20
0.0000
 30
0.0000
 40
0.0000
 41
0.0000
 70
1
  0
VERTEX
  8
21
 10
28.4639
 20
3.7182
 30
0.0000
  0
VERTEX
  8
21
 10
27.9559
 20
3.4642
 30
0.0000
 42
1.0000
  0
VERTEX
  8
21
 10
28.0241
 20
3.3278
 30
0.0000
  0
VERTEX
  8
21
 10
28.5321
 20
3.5818
 30
0.0000
 42
1.0000
  0
SEQEND
  8
0
  0
POLYLINE
  8
21
 66
1
 10
0.0000
 20
0.0000
 30
0.0000
 40
0.0000
 41
0.0000
 70
1
  0
VERTEX
  8
21
 10
27.9138
 20
3.3960
 30
0.0000
  0
VERTEX
  8
21
 10
27.9138
 20
2.2530
 30
0.0000
 42
1.0000
  0
VERTEX
  8
21
 10
28.0662
 20
2.2530
 30
0.0000
  0
VERTEX
  8
21
 10
28.0662
 20
3.3960
 30
0.0000
 42
1.0000
  0
SEQEND
  8
0
  0
POLYLINE
  8
21
 66
1
 10
0.0000
 20
0.0000
 30
0.0000
 40
0.0000
 41
0.0000
 70
1
  0
VERTEX
  8
21
 10
28.4218
 20
3.6500
 30
0.0000
  0
VERTEX
  8
21
 10
28.4218
 20
1.9990
 30
0.0000
 42
1.0000
  0
VERTEX
  8
21
 10
28.5742
 20
1.9990
 30
0.0000
  0
VERTEX
  8
21
 10
28.5742
 20
3.6500
 30
0.0000
 42
1.0000
  0
SEQEND
  8
0
  0
POLYLINE
  8
21
 66
1
 10
0.0000
 20
0.0000
 30
0.0000
 40
0.0000
 41
0.0000
 70
1
  0
VERTEX
  8
21
 10
23.4434
 20
1.2370
 30
0.0000
  0
VERTEX
  8
21
 10
23.4434
 20
3.1420
 30
0.0000
 42
1.0000
  0
VERTEX
  8
21
 10
23.2910
 20
3.1420
 30
0.0000
  0
VERTEX
  8
21
 10
23.2910
 20
1.2370
 30
0.0000
 42
1.0000
  0
SEQEND
  8
0
  0
POLYLINE
  8
21
 66
1
 10
0.0000
 20
0.0000
 30
0.0000
 40
0.0000
 41
0.0000
 70
1
  0
VERTEX
  8
21
 10
27.3550
 20
7.7140
 30
0.0000
  0
VERTEX
  8
21
 10
27.3550
 20
3.1420
 30
0.0000
 42
1.0000
  0
VERTEX
  8
21
 10
27.5074
 20
3.1420
 30
0.0000
  0
VERTEX
  8
21
 10
27.5074
 20
7.7140
 30
0.0000
 42
1.0000
  0
SEQEND
  8
0
  0
POLYLINE
  8
21
 66
1
 10
0.0000
 20
0.0000
 30
0.0000
 40
0.0000
 41
0.0000
 70
1
  0
VERTEX
  8
21
 10
23.3672
 20
1.1608
 30
0.0000
  0
VERTEX
  8
21
 10
27.4312
 20
1.1608
 30
0.0000
 42
1.0000
  0
VERTEX
  8
21
 10
27.4312
 20
1.3132
 30
0.0000
  0
VERTEX
  8
21
 10
23.3672
 20
1.3132
 30
0.0000
 42
1.0000
  0
SEQEND
  8
0
  0
POLYLINE
  8
21
 66
1
 10
0.0000
 20
0.0000
 30
0.0000
 40
0.0000
 41
0.0000
 70
1
  0
VERTEX
  8
21
 10
27.4312
 20
1.1608
 30
0.0000
  0
VERTEX
  8
21
 10
27.9900
 20
1.1608
 30
0.0000
 42
1.0000
  0
VERTEX
  8
21
 10
27.9900
 20
1.3132
 30
0.0000
  0
VERTEX
  8
21
 10
27.4312
 20
1.3132
 30
0.0000
 42
1.0000
  0
SEQEND
  8
0
  0
POLYLINE
  8
21
 66
1
 10
0.0000
 20
0.0000
 30
0.0000
 40
0.0000
 41
0.0000
 70
1
  0
VERTEX
  8
21
 10
22.5036
 20
1.2370
 30
0.0000
  0
VERTEX
  8
21
 10
22.5036
 20
3.1420
 30
0.0000
 42
1.0000
  0
VERTEX
  8
21
 10
22.3512
 20
3.1420
 30
0.0000
  0
VERTEX
  8
21
 10
22.3512
 20
1.2370
 30
0.0000
 42
1.0000
  0
SEQEND
  8
0
  0
POLYLINE
  8
21
 66
1
 10
0.0000
 20
0.0000
 30
0.0000
 40
0.0000
 41
0.0000
 70
1
  0
VERTEX
  8
21
 10
22.4274
 20
1.1608
 30
0.0000
  0
VERTEX
  8
21
 10
23.3672
 20
1.1608
 30
0.0000
 42
1.0000
  0
VERTEX
  8
21
 10
23.3672
 20
1.3132
 30
0.0000
  0
VERTEX
  8
21
 10
22.4274
 20
1.3132
 30
0.0000
 42
1.0000
  0
SEQEND
  8
0
  0
POLYLINE
  8
21
 66
1
 10
0.0000
 20
0.0000
 30
0.0000
 40
0.0000
 41
0.0000
 70
1
  0
VERTEX
  8
21
 10
18.2872
 20
7.7140
 30
0.0000
  0
VERTEX
  8
21
 10
18.2872
 20
3.1420
 30
0.0000
 42
1.0000
  0
VERTEX
  8
21
 10
18.4396
 20
3.1420
 30
0.0000
  0
VERTEX
  8
21
 10
18.4396
 20
7.7140
 30
0.0000
 42
1.0000
  0
SEQEND
  8
0
  0
POLYLINE
  8
21
 66
1
 10
0.0000
 20
0.0000
 30
0.0000
 40
0.0000
 41
0.0000
 70
1
  0
VERTEX
  8
21
 10
17.8300
 20
1.1608
 30
0.0000
  0
VERTEX
  8
21
 10
18.3634
 20
1.1608
 30
0.0000
 42
1.0000
  0
VERTEX
  8
21
 10
18.3634
 20
1.3132
 30
0.0000
  0
VERTEX
  8
21
 10
17.8300
 20
1.3132
 30
0.0000
 42
1.0000
  0
SEQEND
  8
0
  0
POLYLINE
  8
21
 66
1
 10
0.0000
 20
0.0000
 30
0.0000
 40
0.0000
 41
0.0000
 70
1
  0
VERTEX
  8
21
 10
18.3634
 20
1.1608
 30
0.0000
  0
VERTEX
  8
21
 10
22.4274
 20
1.1608
 30
0.0000
 42
1.0000
  0
VERTEX
  8
21
 10
22.4274
 20
1.3132
 30
0.0000
  0
VERTEX
  8
21
 10
18.3634
 20
1.3132
 30
0.0000
 42
1.0000
  0
SEQEND
  8
0
  0
POLYLINE
  8
21
 66
1
 10
0.0000
 20
0.0000
 30
0.0000
 40
0.0000
 41
0.0000
 70
1
  0
VERTEX
  8
21
 10
23.3672
 20
3.0658
 30
0.0000
  0
VERTEX
  8
21
 10
27.4312
 20
3.0658
 30
0.0000
 42
1.0000
  0
VERTEX
  8
21
 10
27.4312
 20
3.2182
 30
0.0000
  0
VERTEX
  8
21
 10
23.3672
 20
3.2182
 30
0.0000
 42
1.0000
  0
SEQEND
  8
0
  0
POLYLINE
  8
21
 66
1
 10
0.0000
 20
0.0000
 30
0.0000
 40
0.0000
 41
0.0000
 70
1
  0
VERTEX
  8
21
 10
23.4434
 20
3.1420
 30
0.0000
  0
VERTEX
  8
21
 10
23.4434
 20
7.7140
 30
0.0000
 42
1.0000
  0
VERTEX
  8
21
 10
23.2910
 20
7.7140
 30
0.0000
  0
VERTEX
  8
21
 10
23.2910
 20
3.1420
 30
0.0000
 42
1.0000
  0
SEQEND
  8
0
  0
POLYLINE
  8
21
 66
1
 10
0.0000
 20
0.0000
 30
0.0000
 40
0.0000
 41
0.0000
 70
1
  0
VERTEX
  8
21
 10
27.3550
 20
3.1420
 30
0.0000
  0
VERTEX
  8
21
 10
27.3550
 20
1.2370
 30
0.0000
 42
1.0000
  0
VERTEX
  8
21
 10
27.5074
 20
1.2370
 30
0.0000
  0
VERTEX
  8
21
 10
27.5074
 20
3.1420
 30
0.0000
 42
1.0000
  0
SEQEND
  8
0
  0
POLYLINE
  8
21
 66
1
 10
0.0000
 20
0.0000
 30
0.0000
 40
0.0000
 41
0.0000
 70
1
  0
VERTEX
  8
21
 10
22.4274
 20
3.2182
 30
0.0000
  0
VERTEX
  8
21
 10
18.3634
 20
3.2182
 30
0.0000
 42
1.0000
  0
VERTEX
  8
21
 10
18.3634
 20
3.0658
 30
0.0000
  0
VERTEX
  8
21
 10
22.4274
 20
3.0658
 30
0.0000
 42
1.0000
  0
SEQEND
  8
0
  0
POLYLINE
  8
21
 66
1
 10
0.0000
 20
0.0000
 30
0.0000
 40
0.0000
 41
0.0000
 70
1
  0
VERTEX
  8
21
 10
22.5036
 20
3.1420
 30
0.0000
  0
VERTEX
  8
21
 10
22.5036
 20
7.7140
 30
0.0000
 42
1.0000
  0
VERTEX
  8
21
 10
22.3512
 20
7.7140
 30
0.0000
  0
VERTEX
  8
21
 10
22.3512
 20
3.1420
 30
0.0000
 42
1.0000
  0
SEQEND
  8
0
  0
POLYLINE
  8
21
 66
1
 10
0.0000
 20
0.0000
 30
0.0000
 40
0.0000
 41
0.0000
 70
1
  0
VERTEX
  8
21
 10
18.2872
 20
3.1420
 30
0.0000
  0
VERTEX
  8
21
 10
18.2872
 20
1.2370
 30
0.0000
 42
1.0000
  0
VERTEX
  8
21
 10
18.4396
 20
1.2370
 30
0.0000
  0
VERTEX
  8
21
 10
18.4396
 20
3.1420
 30
0.0000
 42
1.0000
  0
SEQEND
  8
0
  0
POLYLINE
  8
21
 66
1
 10
0.0000
 20
0.0000
 30
0.0000
 40
0.0000
 41
0.0000
 70
1
  0
VERTEX
  8
21
 10
27.1264
 20
3.7770
 30
0.0000
  0
VERTEX
  8
21
 10
27.1264
 20
6.9520
 30
0.0000
 42
1.0000
  0
VERTEX
  8
21
 10
26.9740
 20
6.9520
 30
0.0000
  0
VERTEX
  8
21
 10
26.9740
 20
3.7770
 30
0.0000
 42
1.0000
  0
SEQEND
  8
0
  0
POLYLINE
  8
21
 66
1
 10
0.0000
 20
0.0000
 30
0.0000
 40
0.0000
 41
0.0000
 70
1
  0
VERTEX
  8
21
 10
27.0502
 20
3.8532
 30
0.0000
  0
VERTEX
  8
21
 10
23.7482
 20
3.8532
 30
0.0000
 42
1.0000
  0
VERTEX
  8
21
 10
23.7482
 20
3.7008
 30
0.0000
  0
VERTEX
  8
21
 10
27.0502
 20
3.7008
 30
0.0000
 42
1.0000
  0
SEQEND
  8
0
  0
POLYLINE
  8
21
 66
1
 10
0.0000
 20
0.0000
 30
0.0000
 40
0.0000
 41
0.0000
 70
1
  0
VERTEX
  8
21
 10
23.8244
 20
3.7770
 30
0.0000
  0
VERTEX
  8
21
 10
23.8244
 20
6.9520
 30
0.0000
 42
1.0000
  0
VERTEX
  8
21
 10
23.6720
 20
6.9520
 30
0.0000
  0
VERTEX
  8
21
 10
23.6720
 20
3.7770
 30
0.0000
 42
1.0000
  0
SEQEND
  8
0
  0
POLYLINE
  8
21
 66
1
 10
0.0000
 20
0.0000
 30
0.0000
 40
0.0000
 41
0.0000
 70
1
  0
VERTEX
  8
21
 10
22.1226
 20
3.7770
 30
0.0000
  0
VERTEX
  8
21
 10
22.1226
 20
6.9520
 30
0.0000
 42
1.0000
  0
VERTEX
  8
21
 10
21.9702
 20
6.9520
 30
0.0000
  0
VERTEX
  8
21
 10
21.9702
 20
3.7770
 30
0.0000
 42
1.0000
  0
SEQEND
  8
0
  0
POLYLINE
  8
21
 66
1
 10
0.0000
 20
0.0000
 30
0.0000
 40
0.0000
 41
0.0000
 70
1
  0
VERTEX
  8
21
 10
22.0464
 20
3.8532
 30
0.0000
  0
VERTEX
  8
21
 10
18.7444
 20
3.8532
 30
0.0000
 42
1.0000
  0
VERTEX
  8
21
 10
18.7444
 20
3.7008
 30
0.0000
  0
VERTEX
  8
21
 10
22.0464
 20
3.7008
 30
0.0000
 42
1.0000
  0
SEQEND
  8
0
  0
POLYLINE
  8
21
 66
1
 10
0.0000
 20
0.0000
 30
0.0000
 40
0.0000
 41
0.0000
 70
1
  0
VERTEX
  8
21
 10
18.8206
 20
3.7770
 30
0.0000
  0
VERTEX
  8
21
 10
18.8206
 20
6.9520
 30
0.0000
 42
1.0000
  0
VERTEX
  8
21
 10
18.6682
 20
6.9520
 30
0.0000
  0
VERTEX
  8
21
 10
18.6682
 20
3.7770
 30
0.0000
 42
1.0000
  0
SEQEND
  8
0
  0
POLYLINE
  8
21
 66
1
 10
0.0000
 20
0.0000
 30
0.0000
 40
0.0000
 41
0.0000
 70
1
  0
VERTEX
  8
21
 10
17.9062
 20
1.2370
 30
0.0000
  0
VERTEX
  8
21
 10
17.9062
 20
8.0950
 30
0.0000
 42
1.0000
  0
VERTEX
  8
21
 10
17.7538
 20
8.0950
 30
0.0000
  0
VERTEX
  8
21
 10
17.7538
 20
1.2370
 30
0.0000
 42
1.0000
  0
SEQEND
  8
0
  0
POLYLINE
  8
21
 66
1
 10
0.0000
 20
0.0000
 30
0.0000
 40
0.0000
 41
0.0000
 70
1
  0
VERTEX
  8
21
 10
17.9062
 20
8.0950
 30
0.0000
  0
VERTEX
  8
21
 10
17.9062
 20
10.6350
 30
0.0000
 42
1.0000
  0
VERTEX
  8
21
 10
17.7538
 20
10.6350
 30
0.0000
  0
VERTEX
  8
21
 10
17.7538
 20
8.0950
 30
0.0000
 42
1.0000
  0
SEQEND
  8
0
  0
POLYLINE
  8
21
 66
1
 10
0.0000
 20
0.0000
 30
0.0000
 40
0.0000
 41
0.0000
 70
1
  0
VERTEX
  8
21
 10
27.9138
 20
9.1110
 30
0.0000
  0
VERTEX
  8
21
 10
27.9138
 20
8.0950
 30
0.0000
 42
1.0000
  0
VERTEX
  8
21
 10
28.0662
 20
8.0950
 30
0.0000
  0
VERTEX
  8
21
 10
28.0662
 20
9.1110
 30
0.0000
 42
1.0000
  0
SEQEND
  8
0
  0
POLYLINE
  8
21
 66
1
 10
0.0000
 20
0.0000
 30
0.0000
 40
0.0000
 41
0.0000
 70
1
  0
VERTEX
  8
21
 10
27.9138
 20
8.0950
 30
0.0000
  0
VERTEX
  8
21
 10
27.9138
 20
3.3960
 30
0.0000
 42
1.0000
  0
VERTEX
  8
21
 10
28.0662
 20
3.3960
 30
0.0000
  0
VERTEX
  8
21
 10
28.0662
 20
8.0950
 30
0.0000
 42
1.0000
  0
SEQEND
  8
0
  0
POLYLINE
  8
21
 66
1
 10
0.0000
 20
0.0000
 30
0.0000
 40
0.0000
 41
0.0000
 70
1
  0
VERTEX
  8
21
 10
17.8300
 20
10.5588
 30
0.0000
  0
VERTEX
  8
21
 10
27.9900
 20
10.5588
 30
0.0000
 42
1.0000
  0
VERTEX
  8
21
 10
27.9900
 20
10.7112
 30
0.0000
  0
VERTEX
  8
21
 10
17.8300
 20
10.7112
 30
0.0000
 42
1.0000
  0
SEQEND
  8
0
  0
POLYLINE
  8
21
 66
1
 10
0.0000
 20
0.0000
 30
0.0000
 40
0.0000
 41
0.0000
 70
1
  0
VERTEX
  8
21
 10
17.9062
 20
10.6350
 30
0.0000
  0
VERTEX
  8
21
 10
17.9062
 20
13.6830
 30
0.0000
 42
1.0000
  0
VERTEX
  8
21
 10
17.7538
 20
13.6830
 30
0.0000
  0
VERTEX
  8
21
 10
17.7538
 20
10.6350
 30
0.0000
 42
1.0000
  0
SEQEND
  8
0
  0
POLYLINE
  8
21
 66
1
 10
0.0000
 20
0.0000
 30
0.0000
 40
0.0000
 41
0.0000
 70
1
  0
VERTEX
  8
21
 10
27.9138
 20
10.6350
 30
0.0000
  0
VERTEX
  8
21
 10
27.9138
 20
9.1110
 30
0.0000
 42
1.0000
  0
VERTEX
  8
21
 10
28.0662
 20
9.1110
 30
0.0000
  0
VERTEX
  8
21
 10
28.0662
 20
10.6350
 30
0.0000
 42
1.0000
  0
SEQEND
  8
0
  0
POLYLINE
  8
21
 66
1
 10
0.0000
 20
0.0000
 30
0.0000
 40
0.0000
 41
0.0000
 70
1
  0
VERTEX
  8
21
 10
23.4434
 20
10.8890
 30
0.0000
  0
VERTEX
  8
21
 10
23.4434
 20
13.4290
 30
0.0000
 42
1.0000
  0
VERTEX
  8
21
 10
23.2910
 20
13.4290
 30
0.0000
  0
VERTEX
  8
21
 10
23.2910
 20
10.8890
 30
0.0000
 42
1.0000
  0
SEQEND
  8
0
  0
POLYLINE
  8
21
 66
1
 10
0.0000
 20
0.0000
 30
0.0000
 40
0.0000
 41
0.0000
 70
1
  0
VERTEX
  8
21
 10
23.3672
 20
13.3528
 30
0.0000
  0
VERTEX
  8
21
 10
27.4312
 20
13.3528
 30
0.0000
 42
1.0000
  0
VERTEX
  8
21
 10
27.4312
 20
13.5052
 30
0.0000
  0
VERTEX
  8
21
 10
23.3672
 20
13.5052
 30
0.0000
 42
1.0000
  0
SEQEND
  8
0
  0
POLYLINE
  8
21
 66
1
 10
0.0000
 20
0.0000
 30
0.0000
 40
0.0000
 41
0.0000
 70
1
  0
VERTEX
  8
21
 10
27.3550
 20
13.4290
 30
0.0000
  0
VERTEX
  8
21
 10
27.3550
 20
10.8890
 30
0.0000
 42
1.0000
  0
VERTEX
  8
21
 10
27.5074
 20
10.8890
 30
0.0000
  0
VERTEX
  8
21
 10
27.5074
 20
13.4290
 30
0.0000
 42
1.0000
  0
SEQEND
  8
0
  0
POLYLINE
  8
21
 66
1
 10
0.0000
 20
0.0000
 30
0.0000
 40
0.0000
 41
0.0000
 70
1
  0
VERTEX
  8
21
 10
27.4312
 20
10.9652
 30
0.0000
  0
VERTEX
  8
21
 10
23.3672
 20
10.9652
 30
0.0000
 42
1.0000
  0
VERTEX
  8
21
 10
23.3672
 20
10.8128
 30
0.0000
  0
VERTEX
  8
21
 10
27.4312
 20
10.8128
 30
0.0000
 42
1.0000
  0
SEQEND
  8
0
  0
POLYLINE
  8
21
 66
1
 10
0.0000
 20
0.0000
 30
0.0000
 40
0.0000
 41
0.0000
 70
1
  0
VERTEX
  8
21
 10
22.5036
 20
10.8890
 30
0.0000
  0
VERTEX
  8
21
 10
22.5036
 20
13.4290
 30
0.0000
 42
1.0000
  0
VERTEX
  8
21
 10
22.3512
 20
13.4290
 30
0.0000
  0
VERTEX
  8
21
 10
22.3512
 20
10.8890
 30
0.0000
 42
1.0000
  0
SEQEND
  8
0
  0
POLYLINE
  8
21
 66
1
 10
0.0000
 20
0.0000
 30
0.0000
 40
0.0000
 41
0.0000
 70
1
  0
VERTEX
  8
21
 10
22.4274
 20
10.9652
 30
0.0000
  0
VERTEX
  8
21
 10
18.3634
 20
10.9652
 30
0.0000
 42
1.0000
  0
VERTEX
  8
21
 10
18.3634
 20
10.8128
 30
0.0000
  0
VERTEX
  8
21
 10
22.4274
 20
10.8128
 30
0.0000
 42
1.0000
  0
SEQEND
  8
0
  0
POLYLINE
  8
21
 66
1
 10
0.0000
 20
0.0000
 30
0.0000
 40
0.0000
 41
0.0000
 70
1
  0
VERTEX
  8
21
 10
18.4396
 20
10.8890
 30
0.0000
  0
VERTEX
  8
21
 10
18.4396
 20
13.4290
 30
0.0000
 42
1.0000
  0
VERTEX
  8
21
 10
18.2872
 20
13.4290
 30
0.0000
  0
VERTEX
  8
21
 10
18.2872
 20
10.8890
 30
0.0000
 42
1.0000
  0
SEQEND
  8
0
  0
POLYLINE
  8
21
 66
1
 10
0.0000
 20
0.0000
 30
0.0000
 40
0.0000
 41
0.0000
 70
1
  0
VERTEX
  8
21
 10
22.4274
 20
13.5052
 30
0.0000
  0
VERTEX
  8
21
 10
18.3634
 20
13.5052
 30
0.0000
 42
1.0000
  0
VERTEX
  8
21
 10
18.3634
 20
13.3528
 30
0.0000
  0
VERTEX
  8
21
 10
22.4274
 20
13.3528
 30
0.0000
 42
1.0000
  0
SEQEND
  8
0
  0
POLYLINE
  8
21
 66
1
 10
0.0000
 20
0.0000
 30
0.0000
 40
0.0000
 41
0.0000
 70
1
  0
VERTEX
  8
21
 10
26.8170
 20
11.6020
 30
0.0000
 42
1.0000
  0
VERTEX
  8
21
 10
26.9178
 20
11.4878
 30
0.0000
 42
0.4171
  0
VERTEX
  8
21
 10
26.9797
 20
12.5655
 30
0.0000
 42
1.0000
  0
VERTEX
  8
21
 10
26.8665
 20
12.4635
 30
0.0000
 42
-0.4171
  0
SEQEND
  8
0
  0
POLYLINE
  8
21
 66
1
 10
0.0000
 20
0.0000
 30
0.0000
 40
0.0000
 41
0.0000
 70
1
  0
VERTEX
  8
21
 10
23.9736
 20
11.6851
 30
0.0000
 42
1.0000
  0
VERTEX
  8
21
 10
23.8784
 20
11.5661
 30
0.0000
 42
0.3420
  0
VERTEX
  8
21
 10
26.9595
 20
11.5179
 30
0.0000
 42
1.0000
  0
VERTEX
  8
21
 10
26.8681
 20
11.6399
 30
0.0000
 42
-0.3420
  0
SEQEND
  8
0
  0
POLYLINE
  8
21
 66
1
 10
0.0000
 20
0.0000
 30
0.0000
 40
0.0000
 41
0.0000
 70
1
  0
VERTEX
  8
21
 10
26.8703
 20
12.4686
 30
0.0000
 42
1.0000
  0
VERTEX
  8
21
 10
26.9853
 20
12.5686
 30
0.0000
 42
0.4664
  0
VERTEX
  8
21
 10
23.7144
 20
12.5117
 30
0.0000
 42
1.0000
  0
VERTEX
  8
21
 10
23.8328
 20
12.4159
 30
0.0000
 42
-0.4664
  0
SEQEND
  8
0
  0
POLYLINE
  8
21
 66
1
 10
0.0000
 20
0.0000
 30
0.0000
 40
0.0000
 41
0.0000
 70
1
  0
VERTEX
  8
21
 10
23.8799
 20
12.4624
 30
0.0000
 42
1.0000
  0
VERTEX
  8
21
 10
23.7689
 20
12.5668
 30
0.0000
 42
0.4889
  0
VERTEX
  8
21
 10
23.9311
 20
11.5231
 30
0.0000
 42
1.0000
  0
VERTEX
  8
21
 10
24.0051
 20
11.6563
 30
0.0000
 42
-0.4889
  0
SEQEND
  8
0
  0
POLYLINE
  8
21
 66
1
 10
0.0000
 20
0.0000
 30
0.0000
 40
0.0000
 41
0.0000
 70
1
  0
VERTEX
  8
21
 10
23.7891
 20
11.8304
 30
0.0000
  0
VERTEX
  8
21
 10
26.8371
 20
12.4654
 30
0.0000
 42
1.0000
  0
VERTEX
  8
21
 10
26.8061
 20
12.6146
 30
0.0000
  0
VERTEX
  8
21
 10
23.7581
 20
11.9796
 30
0.0000
 42
1.0000
  0
SEQEND
  8
0
  0
POLYLINE
  8
21
 66
1
 10
0.0000
 20
0.0000
 30
0.0000
 40
0.0000
 41
0.0000
 70
1
  0
VERTEX
  8
21
 10
23.9161
 20
11.7034
 30
0.0000
  0
VERTEX
  8
21
 10
26.9641
 20
12.3384
 30
0.0000
 42
1.0000
  0
VERTEX
  8
21
 10
26.9331
 20
12.4876
 30
0.0000
  0
VERTEX
  8
21
 10
23.8851
 20
11.8526
 30
0.0000
 42
1.0000
  0
SEQEND
  8
0
  0
POLYLINE
  8
21
 66
1
 10
0.0000
 20
0.0000
 30
0.0000
 40
0.0000
 41
0.0000
 70
1
  0
VERTEX
  8
21
 10
21.8132
 20
11.6020
 30
0.0000
 42
1.0000
  0
VERTEX
  8
21
 10
21.9140
 20
11.4878
 30
0.0000
 42
0.4171
  0
VERTEX
  8
21
 10
21.9759
 20
12.5655
 30
0.0000
 42
1.0000
  0
VERTEX
  8
21
 10
21.8627
 20
12.4635
 30
0.0000
 42
-0.4171
  0
SEQEND
  8
0
  0
POLYLINE
  8
21
 66
1
 10
0.0000
 20
0.0000
 30
0.0000
 40
0.0000
 41
0.0000
 70
1
  0
VERTEX
  8
21
 10
18.9698
 20
11.6851
 30
0.0000
 42
1.0000
  0
VERTEX
  8
21
 10
18.8746
 20
11.5661
 30
0.0000
 42
0.3420
  0
VERTEX
  8
21
 10
21.9557
 20
11.5178
 30
0.0000
 42
1.0000
  0
VERTEX
  8
21
 10
21.8643
 20
11.6398
 30
0.0000
 42
-0.3420
  0
SEQEND
  8
0
  0
POLYLINE
  8
21
 66
1
 10
0.0000
 20
0.0000
 30
0.0000
 40
0.0000
 41
0.0000
 70
1
  0
VERTEX
  8
21
 10
21.8667
 20
12.4688
 30
0.0000
 42
1.0000
  0
VERTEX
  8
21
 10
21.9817
 20
12.5688
 30
0.0000
 42
0.4664
  0
VERTEX
  8
21
 10
18.7106
 20
12.5117
 30
0.0000
 42
1.0000
  0
VERTEX
  8
21
 10
18.8290
 20
12.4159
 30
0.0000
 42
-0.4664
  0
SEQEND
  8
0
  0
POLYLINE
  8
21
 66
1
 10
0.0000
 20
0.0000
 30
0.0000
 40
0.0000
 41
0.0000
 70
1
  0
VERTEX
  8
21
 10
18.8761
 20
12.4624
 30
0.0000
 42
1.0000
  0
VERTEX
  8
21
 10
18.7651
 20
12.5668
 30
0.0000
 42
0.4889
  0
VERTEX
  8
21
 10
18.9273
 20
11.5231
 30
0.0000
 42
1.0000
  0
VERTEX
  8
21
 10
19.0013
 20
11.6563
 30
0.0000
 42
-0.4889
  0
SEQEND
  8
0
  0
POLYLINE
  8
21
 66
1
 10
0.0000
 20
0.0000
 30
0.0000
 40
0.0000
 41
0.0000
 70
1
  0
VERTEX
  8
21
 10
18.7853
 20
11.8304
 30
0.0000
  0
VERTEX
  8
21
 10
21.8333
 20
12.4654
 30
0.0000
 42
1.0000
  0
VERTEX
  8
21
 10
21.8023
 20
12.6146
 30
0.0000
  0
VERTEX
  8
21
 10
18.7543
 20
11.9796
 30
0.0000
 42
1.0000
  0
SEQEND
  8
0
  0
POLYLINE
  8
21
 66
1
 10
0.0000
 20
0.0000
 30
0.0000
 40
0.0000
 41
0.0000
 70
1
  0
VERTEX
  8
21
 10
18.9123
 20
11.7034
 30
0.0000
  0
VERTEX
  8
21
 10
21.9603
 20
12.3384
 30
0.0000
 42
1.0000
  0
VERTEX
  8
21
 10
21.9293
 20
12.4876
 30
0.0000
  0
VERTEX
  8
21
 10
18.8813
 20
11.8526
 30
0.0000
 42
1.0000
  0
SEQEND
  8
0
  0
POLYLINE
  8
21
 66
1
 10
0.0000
 20
0.0000
 30
0.0000
 40
0.0000
 41
0.0000
 70
1
  0
VERTEX
  8
21
 10
18.3634
 20
7.6378
 30
0.0000
  0
VERTEX
  8
21
 10
18.7444
 20
7.6378
 30
0.0000
 42
1.0000
  0
VERTEX
  8
21
 10
18.7444
 20
7.7902
 30
0.0000
  0
VERTEX
  8
21
 10
18.3634
 20
7.7902
 30
0.0000
 42
1.0000
  0
SEQEND
  8
0
  0
POLYLINE
  8
21
 66
1
 10
0.0000
 20
0.0000
 30
0.0000
 40
0.0000
 41
0.0000
 70
1
  0
VERTEX
  8
21
 10
22.4274
 20
7.7902
 30
0.0000
  0
VERTEX
  8
21
 10
22.0464
 20
7.7902
 30
0.0000
 42
1.0000
  0
VERTEX
  8
21
 10
22.0464
 20
7.6378
 30
0.0000
  0
VERTEX
  8
21
 10
22.4274
 20
7.6378
 30
0.0000
 42
1.0000
  0
SEQEND
  8
0
  0
POLYLINE
  8
21
 66
1
 10
0.0000
 20
0.0000
 30
0.0000
 40
0.0000
 41
0.0000
 70
1
  0
VERTEX
  8
21
 10
17.8300
 20
8.0188
 30
0.0000
  0
VERTEX
  8
21
 10
18.7444
 20
8.0188
 30
0.0000
 42
1.0000
  0
VERTEX
  8
21
 10
18.7444
 20
8.1712
 30
0.0000
  0
VERTEX
  8
21
 10
17.8300
 20
8.1712
 30
0.0000
 42
1.0000
  0
SEQEND
  8
0
  0
POLYLINE
  8
21
 66
1
 10
0.0000
 20
0.0000
 30
0.0000
 40
0.0000
 41
0.0000
 70
1
  0
VERTEX
  8
21
 10
22.0464
 20
8.0188
 30
0.0000
  0
VERTEX
  8
21
 10
23.7482
 20
8.0188
 30
0.0000
 42
1.0000
  0
VERTEX
  8
21
 10
23.7482
 20
8.1712
 30
0.0000
  0
VERTEX
  8
21
 10
22.0464
 20
8.1712
 30
0.0000
 42
1.0000
  0
SEQEND
  8
0
  0
POLYLINE
  8
21
 66
1
 10
0.0000
 20
0.0000
 30
0.0000
 40
0.0000
 41
0.0000
 70
1
  0
VERTEX
  8
21
 10
27.9900
 20
8.1712
 30
0.0000
  0
VERTEX
  8
21
 10
27.0502
 20
8.1712
 30
0.0000
 42
1.0000
  0
VERTEX
  8
21
 10
27.0502
 20
8.0188
 30
0.0000
  0
VERTEX
  8
21
 10
27.9900
 20
8.0188
 30
0.0000
 42
1.0000
  0
SEQEND
  8
0
  0
POLYLINE
  8
21
 66
1
 10
0.0000
 20
0.0000
 30
0.0000
 40
0.0000
 41
0.0000
 70
1
  0
VERTEX
  8
21
 10
27.4312
 20
7.7902
 30
0.0000
  0
VERTEX
  8
21
 10
27.0502
 20
7.7902
 30
0.0000
 42
1.0000
  0
VERTEX
  8
21
 10
27.0502
 20
7.6378
 30
0.0000
  0
VERTEX
  8
21
 10
27.4312
 20
7.6378
 30
0.0000
 42
1.0000
  0
SEQEND
  8
0
  0
POLYLINE
  8
21
 66
1
 10
0.0000
 20
0.0000
 30
0.0000
 40
0.0000
 41
0.0000
 70
1
  0
VERTEX
  8
21
 10
23.3672
 20
7.6378
 30
0.0000
  0
VERTEX
  8
21
 10
23.7482
 20
7.6378
 30
0.0000
 42
1.0000
  0
VERTEX
  8
21
 10
23.7482
 20
7.7902
 30
0.0000
  0
VERTEX
  8
21
 10
23.3672
 20
7.7902
 30
0.0000
 42
1.0000
  0
SEQEND
  8
0
  0
POLYLINE
  8
21
 66
1
 10
0.0000
 20
0.0000
 30
0.0000
 40
0.0000
 41
0.0000
 70
1
  0
VERTEX
  8
21
 10
18.5174
 20
9.6329
 30
0.0000
  0
VERTEX
  8
21
 10
18.8349
 20
9.8869
 30
0.0000
 42
1.0000
  0
VERTEX
  8
21
 10
18.7555
 20
9.9861
 30
0.0000
  0
VERTEX
  8
21
 10
18.4380
 20
9.7321
 30
0.0000
 42
1.0000
  0
SEQEND
  8
0
  0
POLYLINE
  8
21
 66
1
 10
0.0000
 20
0.0000
 30
0.0000
 40
0.0000
 41
0.0000
 70
1
  0
VERTEX
  8
21
 10
18.7317
 20
9.9365
 30
0.0000
  0
VERTEX
  8
21
 10
18.7317
 20
8.7935
 30
0.0000
 42
1.0000
  0
VERTEX
  8
21
 10
18.8587
 20
8.7935
 30
0.0000
  0
VERTEX
  8
21
 10
18.8587
 20
9.9365
 30
0.0000
 42
1.0000
  0
SEQEND
  8
0
  0
POLYLINE
  8
21
 66
1
 10
0.0000
 20
0.0000
 30
0.0000
 40
0.0000
 41
0.0000
 70
1
  0
VERTEX
  8
21
 10
18.4777
 20
8.7300
 30
0.0000
  0
VERTEX
  8
21
 10
19.1127
 20
8.7300
 30
0.0000
 42
1.0000
  0
VERTEX
  8
21
 10
19.1127
 20
8.8570
 30
0.0000
  0
VERTEX
  8
21
 10
18.4777
 20
8.8570
 30
0.0000
 42
1.0000
  0
SEQEND
  8
0
  0
POLYLINE
  8
21
 66
1
 10
0.0000
 20
0.0000
 30
0.0000
 40
0.0000
 41
0.0000
 70
1
  0
VERTEX
  8
21
 10
24.1292
 20
9.6508
 30
0.0000
 42
1.0000
  0
VERTEX
  8
21
 10
24.2562
 20
9.6508
 30
0.0000
 42
0.4142
  0
VERTEX
  8
21
 10
23.9070
 20
10.0000
 30
0.0000
 42
1.0000
  0
VERTEX
  8
21
 10
23.9070
 20
9.8730
 30
0.0000
 42
-0.4142
  0
SEQEND
  8
0
  0
POLYLINE
  8
21
 66
1
 10
0.0000
 20
0.0000
 30
0.0000
 40
0.0000
 41
0.0000
 70
1
  0
VERTEX
  8
21
 10
23.9069
 20
9.8730
 30
0.0000
 42
1.0000
  0
VERTEX
  8
21
 10
23.9070
 20
10.0000
 30
0.0000
 42
0.3252
  0
VERTEX
  8
21
 10
23.4973
 20
9.7021
 30
0.0000
 42
1.0000
  0
VERTEX
  8
21
 10
23.6181
 20
9.6629
 30
0.0000
 42
-0.3252
  0
SEQEND
  8
0
  0
POLYLINE
  8
21
 66
1
 10
0.0000
 20
0.0000
 30
0.0000
 40
0.0000
 41
0.0000
 70
1
  0
VERTEX
  8
21
 10
24.0537
 20
9.4745
 30
0.0000
 42
1.0000
  0
VERTEX
  8
21
 10
24.1412
 20
9.3825
 30
0.0000
 42
0.2053
  0
VERTEX
  8
21
 10
24.2562
 20
9.6508
 30
0.0000
 42
1.0000
  0
VERTEX
  8
21
 10
24.1292
 20
9.6507
 30
0.0000
 42
-0.2053
  0
SEQEND
  8
0
  0
POLYLINE
  8
21
 66
1
 10
0.0000
 20
0.0000
 30
0.0000
 40
0.0000
 41
0.0000
 70
1
  0
VERTEX
  8
21
 10
24.0491
 20
9.4696
 30
0.0000
  0
VERTEX
  8
21
 10
23.5093
 20
8.8346
 30
0.0000
 42
1.0000
  0
VERTEX
  8
21
 10
23.6061
 20
8.7524
 30
0.0000
  0
VERTEX
  8
21
 10
24.1458
 20
9.3874
 30
0.0000
 42
1.0000
  0
SEQEND
  8
0
  0
POLYLINE
  8
21
 66
1
 10
0.0000
 20
0.0000
 30
0.0000
 40
0.0000
 41
0.0000
 70
1
  0
VERTEX
  8
21
 10
23.5577
 20
8.7300
 30
0.0000
  0
VERTEX
  8
21
 10
24.1927
 20
8.7300
 30
0.0000
 42
1.0000
  0
VERTEX
  8
21
 10
24.1927
 20
8.8570
 30
0.0000
  0
VERTEX
  8
21
 10
23.5577
 20
8.8570
 30
0.0000
 42
1.0000
  0
SEQEND
  8
0
  0
POLYLINE
  8
21
 66
1
 10
0.0000
 20
0.0000
 30
0.0000
 40
0.0000
 41
0.0000
 70
1
  0
VERTEX
  8
21
 10
58.8283
 20
14.9920
 30
0.0000
 42
1.0000
  0
VERTEX
  8
21
 10
58.7019
 20
14.9800
 30
0.0000
 42
0.1440
  0
VERTEX
  8
21
 10
59.2755
 20
13.5497
 30
0.0000
 42
1.0000
  0
VERTEX
  8
21
 10
59.3753
 20
13.6283
 30
0.0000
 42
-0.1440
  0
SEQEND
  8
0
  0
POLYLINE
  8
21
 66
1
 10
0.0000
 20
0.0000
 30
0.0000
 40
0.0000
 41
0.0000
 70
1
  0
VERTEX
  8
21
 10
60.6524
 20
17.7278
 30
0.0000
 42
1.0000
  0
VERTEX
  8
21
 10
60.6150
 20
17.8492
 30
0.0000
 42
0.3557
  0
VERTEX
  8
21
 10
58.7019
 20
14.9800
 30
0.0000
 42
1.0000
  0
VERTEX
  8
21
 10
58.8283
 20
14.9920
 30
0.0000
 42
-0.3557
  0
SEQEND
  8
0
  0
POLYLINE
  8
21
 66
1
 10
0.0000
 20
0.0000
 30
0.0000
 40
0.0000
 41
0.0000
 70
1
  0
VERTEX
  8
21
 10
63.4646
 20
13.6283
 30
0.0000
 42
1.0000
  0
VERTEX
  8
21
 10
63.5644
 20
13.5497
 30
0.0000
 42
0.5267
  0
VERTEX
  8
21
 10
62.2250
 20
17.8491
 30
0.0000
 42
1.0000
  0
VERTEX
  8
21
 10
62.1876
 20
17.7277
 30
0.0000
 42
-0.5267
  0
SEQEND
  8
0
  0
POLYLINE
  8
21
 66
1
 10
0.0000
 20
0.0000
 30
0.0000
 40
0.0000
 41
0.0000
 70
1
  0
VERTEX
  8
21
 10
59.3255
 20
13.5255
 30
0.0000
  0
VERTEX
  8
21
 10
63.5145
 20
13.5255
 30
0.0000
 42
1.0000
  0
VERTEX
  8
21
 10
63.5145
 20
13.6525
 30
0.0000
  0
VERTEX
  8
21
 10
59.3255
 20
13.6525
 30
0.0000
 42
1.0000
  0
SEQEND
  8
0
  0
POLYLINE
  8
21
 66
1
 10
0.0000
 20
0.0000
 30
0.0000
 40
0.0000
 41
0.0000
 70
1
  0
VERTEX
  8
21
 10
58.7651
 20
14.9225
 30
0.0000
  0
VERTEX
  8
21
 10
59.1663
 20
14.9225
 30
0.0000
 42
1.0000
  0
VERTEX
  8
21
 10
59.1663
 20
15.0495
 30
0.0000
  0
VERTEX
  8
21
 10
58.7651
 20
15.0495
 30
0.0000
 42
1.0000
  0
SEQEND
  8
0
  0
POLYLINE
  8
21
 66
1
 10
0.0000
 20
0.0000
 30
0.0000
 40
0.0000
 41
0.0000
 70
1
  0
VERTEX
  8
21
 10
61.1337
 20
14.9225
 30
0.0000
  0
VERTEX
  8
21
 10
61.7063
 20
14.9225
 30
0.0000
 42
1.0000
  0
VERTEX
  8
21
 10
61.7063
 20
15.0495
 30
0.0000
  0
VERTEX
  8
21
 10
61.1337
 20
15.0495
 30
0.0000
 42
1.0000
  0
SEQEND
  8
0
  0
POLYLINE
  8
21
 66
1
 10
0.0000
 20
0.0000
 30
0.0000
 40
0.0000
 41
0.0000
 70
1
  0
VERTEX
  8
21
 10
63.6737
 20
14.9225
 30
0.0000
  0
VERTEX
  8
21
 10
64.0749
 20
14.9225
 30
0.0000
 42
1.0000
  0
VERTEX
  8
21
 10
64.0749
 20
15.0495
 30
0.0000
  0
VERTEX
  8
21
 10
63.6737
 20
15.0495
 30
0.0000
 42
1.0000
  0
SEQEND
  8
0
  0
POLYLINE
  8
21
 66
1
 10
0.0000
 20
0.0000
 30
0.0000
 40
0.0000
 41
0.0000
 70
1
  0
VERTEX
  8
21
 10
67.1350
 20
24.2062
 30
0.0000
  0
VERTEX
  8
21
 10
65.8650
 20
24.2062
 30
0.0000
 42
1.0000
  0
VERTEX
  8
21
 10
65.8650
 20
24.0538
 30
0.0000
  0
VERTEX
  8
21
 10
67.1350
 20
24.0538
 30
0.0000
 42
1.0000
  0
SEQEND
  8
0
  0
POLYLINE
  8
21
 66
1
 10
0.0000
 20
0.0000
 30
0.0000
 40
0.0000
 41
0.0000
 70
1
  0
VERTEX
  8
21
 10
65.9189
 20
24.1839
 30
0.0000
  0
VERTEX
  8
21
 10
65.2839
 20
24.8189
 30
0.0000
 42
1.0000
  0
VERTEX
  8
21
 10
65.1761
 20
24.7111
 30
0.0000
  0
VERTEX
  8
21
 10
65.8111
 20
24.0761
 30
0.0000
 42
1.0000
  0
SEQEND
  8
0
  0
POLYLINE
  8
21
 66
1
 10
0.0000
 20
0.0000
 30
0.0000
 40
0.0000
 41
0.0000
 70
1
  0
VERTEX
  8
21
 10
65.3062
 20
24.7650
 30
0.0000
  0
VERTEX
  8
21
 10
65.3062
 20
26.0350
 30
0.0000
 42
1.0000
  0
VERTEX
  8
21
 10
65.1538
 20
26.0350
 30
0.0000
  0
VERTEX
  8
21
 10
65.1538
 20
24.7650
 30
0.0000
 42
1.0000
  0
SEQEND
  8
0
  0
POLYLINE
  8
21
 66
1
 10
0.0000
 20
0.0000
 30
0.0000
 40
0.0000
 41
0.0000
 70
1
  0
VERTEX
  8
21
 10
65.2839
 20
25.9811
 30
0.0000
  0
VERTEX
  8
21
 10
65.9189
 20
26.6161
 30
0.0000
 42
1.0000
  0
VERTEX
  8
21
 10
65.8111
 20
26.7239
 30
0.0000
  0
VERTEX
  8
21
 10
65.1761
 20
26.0889
 30
0.0000
 42
1.0000
  0
SEQEND
  8
0
  0
POLYLINE
  8
21
 66
1
 10
0.0000
 20
0.0000
 30
0.0000
 40
0.0000
 41
0.0000
 70
1
  0
VERTEX
  8
21
 10
67.8462
 20
24.7650
 30
0.0000
  0
VERTEX
  8
21
 10
67.8462
 20
26.0350
 30
0.0000
 42
1.0000
  0
VERTEX
  8
21
 10
67.6938
 20
26.0350
 30
0.0000
  0
VERTEX
  8
21
 10
67.6938
 20
24.7650
 30
0.0000
 42
1.0000
  0
SEQEND
  8
0
  0
POLYLINE
  8
21
 66
1
 10
0.0000
 20
0.0000
 30
0.0000
 40
0.0000
 41
0.0000
 70
1
  0
VERTEX
  8
21
 10
67.1889
 20
24.0761
 30
0.0000
  0
VERTEX
  8
21
 10
67.8239
 20
24.7111
 30
0.0000
 42
1.0000
  0
VERTEX
  8
21
 10
67.7161
 20
24.8189
 30
0.0000
  0
VERTEX
  8
21
 10
67.0811
 20
24.1839
 30
0.0000
 42
1.0000
  0
SEQEND
  8
0
  0
POLYLINE
  8
21
 66
1
 10
0.0000
 20
0.0000
 30
0.0000
 40
0.0000
 41
0.0000
 70
1
  0
VERTEX
  8
21
 10
67.8239
 20
26.0889
 30
0.0000
  0
VERTEX
  8
21
 10
67.1889
 20
26.7239
 30
0.0000
 42
1.0000
  0
VERTEX
  8
21
 10
67.0811
 20
26.6161
 30
0.0000
  0
VERTEX
  8
21
 10
67.7161
 20
25.9811
 30
0.0000
 42
1.0000
  0
SEQEND
  8
0
  0
POLYLINE
  8
21
 66
1
 10
0.0000
 20
0.0000
 30
0.0000
 40
0.0000
 41
0.0000
 70
1
  0
VERTEX
  8
21
 10
65.8650
 20
26.5938
 30
0.0000
  0
VERTEX
  8
21
 10
67.1350
 20
26.5938
 30
0.0000
 42
1.0000
  0
VERTEX
  8
21
 10
67.1350
 20
26.7462
 30
0.0000
  0
VERTEX
  8
21
 10
65.8650
 20
26.7462
 30
0.0000
 42
1.0000
  0
SEQEND
  8
0
  0
POLYLINE
  8
21
 66
1
 10
0.0000
 20
0.0000
 30
0.0000
 40
0.0000
 41
0.0000
 70
1
  0
VERTEX
  8
21
 10
65.1761
 20
24.8189
 30
0.0000
  0
VERTEX
  8
21
 10
64.5411
 20
24.1839
 30
0.0000
 42
1.0000
  0
VERTEX
  8
21
 10
64.6489
 20
24.0761
 30
0.0000
  0
VERTEX
  8
21
 10
65.2839
 20
24.7111
 30
0.0000
 42
1.0000
  0
SEQEND
  8
0
  0
POLYLINE
  8
21
 66
1
 10
0.0000
 20
0.0000
 30
0.0000
 40
0.0000
 41
0.0000
 70
1
  0
VERTEX
  8
21
 10
64.5950
 20
24.2062
 30
0.0000
  0
VERTEX
  8
21
 10
63.3250
 20
24.2062
 30
0.0000
 42
1.0000
  0
VERTEX
  8
21
 10
63.3250
 20
24.0538
 30
0.0000
  0
VERTEX
  8
21
 10
64.5950
 20
24.0538
 30
0.0000
 42
1.0000
  0
SEQEND
  8
0
  0
POLYLINE
  8
21
 66
1
 10
0.0000
 20
0.0000
 30
0.0000
 40
0.0000
 41
0.0000
 70
1
  0
VERTEX
  8
21
 10
63.3789
 20
24.1839
 30
0.0000
  0
VERTEX
  8
21
 10
62.7439
 20
24.8189
 30
0.0000
 42
1.0000
  0
VERTEX
  8
21
 10
62.6361
 20
24.7111
 30
0.0000
  0
VERTEX
  8
21
 10
63.2711
 20
24.0761
 30
0.0000
 42
1.0000
  0
SEQEND
  8
0
  0
POLYLINE
  8
21
 66
1
 10
0.0000
 20
0.0000
 30
0.0000
 40
0.0000
 41
0.0000
 70
1
  0
VERTEX
  8
21
 10
62.7662
 20
24.7650
 30
0.0000
  0
VERTEX
  8
21
 10
62.7662
 20
26.0350
 30
0.0000
 42
1.0000
  0
VERTEX
  8
21
 10
62.6138
 20
26.0350
 30
0.0000
  0
VERTEX
  8
21
 10
62.6138
 20
24.7650
 30
0.0000
 42
1.0000
  0
SEQEND
  8
0
  0
POLYLINE
  8
21
 66
1
 10
0.0000
 20
0.0000
 30
0.0000
 40
0.0000
 41
0.0000
 70
1
  0
VERTEX
  8
21
 10
62.7439
 20
25.9811
 30
0.0000
  0
VERTEX
  8
21
 10
63.3789
 20
26.6161
 30
0.0000
 42
1.0000
  0
VERTEX
  8
21
 10
63.2711
 20
26.7239
 30
0.0000
  0
VERTEX
  8
21
 10
62.6361
 20
26.0889
 30
0.0000
 42
1.0000
  0
SEQEND
  8
0
  0
POLYLINE
  8
21
 66
1
 10
0.0000
 20
0.0000
 30
0.0000
 40
0.0000
 41
0.0000
 70
1
  0
VERTEX
  8
21
 10
63.3250
 20
26.5938
 30
0.0000
  0
VERTEX
  8
21
 10
64.5950
 20
26.5938
 30
0.0000
 42
1.0000
  0
VERTEX
  8
21
 10
64.5950
 20
26.7462
 30
0.0000
  0
VERTEX
  8
21
 10
63.3250
 20
26.7462
 30
0.0000
 42
1.0000
  0
SEQEND
  8
0
  0
POLYLINE
  8
21
 66
1
 10
0.0000
 20
0.0000
 30
0.0000
 40
0.0000
 41
0.0000
 70
1
  0
VERTEX
  8
21
 10
64.5411
 20
26.6161
 30
0.0000
  0
VERTEX
  8
21
 10
65.1761
 20
25.9811
 30
0.0000
 42
1.0000
  0
VERTEX
  8
21
 10
65.2839
 20
26.0889
 30
0.0000
  0
VERTEX
  8
21
 10
64.6489
 20
26.7239
 30
0.0000
 42
1.0000
  0
SEQEND
  8
0
  0
POLYLINE
  8
22
 66
1
 10
0.0000
 20
0.0000
 30
0.0000
 40
0.0000
 41
0.0000
 70
1
  0
VERTEX
  8
22
 10
79.2700
 20
29.7335
 30
0.0000
  0
VERTEX
  8
22
 10
73.4700
 20
29.7335
 30
0.0000
 42
1.0000
  0
VERTEX
  8
22
 10
73.4700
 20
29.6065
 30
0.0000
  0
VERTEX
  8
22
 10
79.2700
 20
29.6065
 30
0.0000
 42
1.0000
  0
SEQEND
  8
0
  0
POLYLINE
  8
22
 66
1
 10
0.0000
 20
0.0000
 30
0.0000
 40
0.0000
 41
0.0000
 70
1
  0
VERTEX
  8
22
 10
55.3335
 20
29.6700
 30
0.0000
  0
VERTEX
  8
22
 10
55.3335
 20
45.6700
 30
0.0000
 42
1.0000
  0
VERTEX
  8
22
 10
55.2065
 20
45.6700
 30
0.0000
  0
VERTEX
  8
22
 10
55.2065
 20
29.6700
 30
0.0000
 42
1.0000
  0
SEQEND
  8
0
  0
POLYLINE
  8
22
 66
1
 10
0.0000
 20
0.0000
 30
0.0000
 40
0.0000
 41
0.0000
 70
1
  0
VERTEX
  8
22
 10
55.2700
 20
45.6065
 30
0.0000
  0
VERTEX
  8
22
 10
73.4700
 20
45.6065
 30
0.0000
 42
1.0000
  0
VERTEX
  8
22
 10
73.4700
 20
45.7335
 30
0.0000
  0
VERTEX
  8
22
 10
55.2700
 20
45.7335
 30
0.0000
 42
1.0000
  0
SEQEND
  8
0
  0
POLYLINE
  8
22
 66
1
 10
0.0000
 20
0.0000
 30
0.0000
 40
0.0000
 41
0.0000
 70
1
  0
VERTEX
  8
22
 10
73.4700
 20
45.6065
 30
0.0000
  0
VERTEX
  8
22
 10
79.2700
 20
45.6065
 30
0.0000
 42
1.0000
  0
VERTEX
  8
22
 10
79.2700
 20
45.7335
 30
0.0000
  0
VERTEX
  8
22
 10
73.4700
 20
45.7335
 30
0.0000
 42
1.0000
  0
SEQEND
  8
0
  0
POLYLINE
  8
22
 66
1
 10
0.0000
 20
0.0000
 30
0.0000
 40
0.0000
 41
0.0000
 70
1
  0
VERTEX
  8
22
 10
79.2065
 20
45.6700
 30
0.0000
  0
VERTEX
  8
22
 10
79.2065
 20
29.6700
 30
0.0000
 42
1.0000
  0
VERTEX
  8
22
 10
79.3335
 20
29.6700
 30
0.0000
  0
VERTEX
  8
22
 10
79.3335
 20
45.6700
 30
0.0000
 42
1.0000
  0
SEQEND
  8
0
  0
POLYLINE
  8
22
 66
1
 10
0.0000
 20
0.0000
 30
0.0000
 40
0.0000
 41
0.0000
 70
1
  0
VERTEX
  8
22
 10
73.4065
 20
45.6700
 30
0.0000
  0
VERTEX
  8
22
 10
73.4065
 20
29.6700
 30
0.0000
 42
1.0000
  0
VERTEX
  8
22
 10
73.5335
 20
29.6700
 30
0.0000
  0
VERTEX
  8
22
 10
73.5335
 20
45.6700
 30
0.0000
 42
1.0000
  0
SEQEND
  8
0
  0
POLYLINE
  8
22
 66
1
 10
0.0000
 20
0.0000
 30
0.0000
 40
0.0000
 41
0.0000
 70
1
  0
VERTEX
  8
22
 10
73.4700
 20
29.7335
 30
0.0000
  0
VERTEX
  8
22
 10
55.2700
 20
29.7335
 30
0.0000
 42
1.0000
  0
VERTEX
  8
22
 10
55.2700
 20
29.6065
 30
0.0000
  0
VERTEX
  8
22
 10
73.4700
 20
29.6065
 30
0.0000
 42
1.0000
  0
SEQEND
  8
0
  0
POLYLINE
  8
21
 66
1
 10
0.0000
 20
0.0000
 30
0.0000
 40
0.0000
 41
0.0000
 70
1
  0
VERTEX
  8
21
 10
73.6700
 20
42.1652
 30
0.0000
  0
VERTEX
  8
21
 10
78.5700
 20
42.1652
 30
0.0000
 42
1.0000
  0
VERTEX
  8
21
 10
78.5700
 20
42.7748
 30
0.0000
  0
VERTEX
  8
21
 10
73.6700
 20
42.7748
 30
0.0000
 42
1.0000
  0
SEQEND
  8
0
  0
POLYLINE
  8
21
 66
1
 10
0.0000
 20
0.0000
 30
0.0000
 40
0.0000
 41
0.0000
 70
1
  0
VERTEX
  8
21
 10
78.2652
 20
42.4700
 30
0.0000
  0
VERTEX
  8
21
 10
78.2652
 20
41.5700
 30
0.0000
 42
1.0000
  0
VERTEX
  8
21
 10
78.8748
 20
41.5700
 30
0.0000
  0
VERTEX
  8
21
 10
78.8748
 20
42.4700
 30
0.0000
 42
1.0000
  0
SEQEND
  8
0
  0
POLYLINE
  8
21
 66
1
 10
0.0000
 20
0.0000
 30
0.0000
 40
0.0000
 41
0.0000
 70
1
  0
VERTEX
  8
21
 10
78.5700
 20
41.8748
 30
0.0000
  0
VERTEX
  8
21
 10
74.8700
 20
41.8748
 30
0.0000
 42
1.0000
  0
VERTEX
  8
21
 10
74.8700
 20
41.2652
 30
0.0000
  0
VERTEX
  8
21
 10
78.5700
 20
41.2652
 30
0.0000
 42
1.0000
  0
SEQEND
  8
0
  0
POLYLINE
  8
21
 66
1
 10
0.0000
 20
0.0000
 30
0.0000
 40
0.0000
 41
0.0000
 70
1
  0
VERTEX
  8
21
 10
74.5652
 20
41.5700
 30
0.0000
  0
VERTEX
  8
21
 10
74.5652
 20
40.5700
 30
0.0000
 42
1.0000
  0
VERTEX
  8
21
 10
75.1748
 20
40.5700
 30
0.0000
  0
VERTEX
  8
21
 10
75.1748
 20
41.5700
 30
0.0000
 42
1.0000
  0
SEQEND
  8
0
  0
POLYLINE
  8
21
 66
1
 10
0.0000
 20
0.0000
 30
0.0000
 40
0.0000
 41
0.0000
 70
1
  0
VERTEX
  8
21
 10
74.8700
 20
40.2652
 30
0.0000
  0
VERTEX
  8
21
 10
78.4700
 20
40.2652
 30
0.0000
 42
1.0000
  0
VERTEX
  8
21
 10
78.4700
 20
40.8748
 30
0.0000
  0
VERTEX
  8
21
 10
74.8700
 20
40.8748
 30
0.0000
 42
1.0000
  0
SEQEND
  8
0
  0
POLYLINE
  8
21
 66
1
 10
0.0000
 20
0.0000
 30
0.0000
 40
0.0000
 41
0.0000
 70
1
  0
VERTEX
  8
21
 10
78.1652
 20
40.5700
 30
0.0000
  0
VERTEX
  8
21
 10
78.1652
 20
39.3700
 30
0.0000
 42
1.0000
  0
VERTEX
  8
21
 10
78.7748
 20
39.3700
 30
0.0000
  0
VERTEX
  8
21
 10
78.7748
 20
40.5700
 30
0.0000
 42
1.0000
  0
SEQEND
  8
0
  0
POLYLINE
  8
21
 66
1
 10
0.0000
 20
0.0000
 30
0.0000
 40
0.0000
 41
0.0000
 70
1
  0
VERTEX
  8
21
 10
78.4700
 20
39.6748
 30
0.0000
  0
VERTEX
  8
21
 10
74.8700
 20
39.6748
 30
0.0000
 42
1.0000
  0
VERTEX
  8
21
 10
74.8700
 20
39.0652
 30
0.0000
  0
VERTEX
  8
21
 10
78.4700
 20
39.0652
 30
0.0000
 42
1.0000
  0
SEQEND
  8
0
  0
POLYLINE
  8
21
 66
1
 10
0.0000
 20
0.0000
 30
0.0000
 40
0.0000
 41
0.0000
 70
1
  0
VERTEX
  8
21
 10
74.5652
 20
39.3700
 30
0.0000
  0
VERTEX
  8
21
 10
74.5652
 20
38.1700
 30
0.0000
 42
1.0000
  0
VERTEX
  8
21
 10
75.1748
 20
38.1700
 30
0.0000
  0
VERTEX
  8
21
 10
75.1748
 20
39.3700
 30
0.0000
 42
1.0000
  0
SEQEND
  8
0
  0
POLYLINE
  8
21
 66
1
 10
0.0000
 20
0.0000
 30
0.0000
 40
0.0000
 41
0.0000
 70
1
  0
VERTEX
  8
21
 10
74.8700
 20
37.8652
 30
0.0000
  0
VERTEX
  8
21
 10
78.4700
 20
37.8652
 30
0.0000
 42
1.0000
  0
VERTEX
  8
21
 10
78.4700
 20
38.4748
 30
0.0000
  0
VERTEX
  8
21
 10
74.8700
 20
38.4748
 30
0.0000
 42
1.0000
  0
SEQEND
  8
0
  0
POLYLINE
  8
21
 66
1
 10
0.0000
 20
0.0000
 30
0.0000
 40
0.0000
 41
0.0000
 70
1
  0
VERTEX
  8
21
 10
78.1652
 20
38.1700
 30
0.0000
  0
VERTEX
  8
21
 10
78.1652
 20
37.0700
 30
0.0000
 42
1.0000
  0
VERTEX
  8
21
 10
78.7748
 20
37.0700
 30
0.0000
  0
VERTEX
  8
21
 10
78.7748
 20
38.1700
 30
0.0000
 42
1.0000
  0
SEQEND
  8
0
  0
POLYLINE
  8
21
 66
1
 10
0.0000
 20
0.0000
 30
0.0000
 40
0.0000
 41
0.0000
 70
1
  0
VERTEX
  8
21
 10
78.4700
 20
37.3748
 30
0.0000
  0
VERTEX
  8
21
 10
74.9700
 20
37.3748
 30
0.0000
 42
1.0000
  0
VERTEX
  8
21
 10
74.9700
 20
36.7652
 30
0.0000
  0
VERTEX
  8
21
 10
78.4700
 20
36.7652
 30
0.0000
 42
1.0000
  0
SEQEND
  8
0
  0
POLYLINE
  8
21
 66
1
 10
0.0000
 20
0.0000
 30
0.0000
 40
0.0000
 41
0.0000
 70
1
  0
VERTEX
  8
21
 10
74.6652
 20
37.0700
 30
0.0000
  0
VERTEX
  8
21
 10
74.6652
 20
35.9700
 30
0.0000
 42
1.0000
  0
VERTEX
  8
21
 10
75.2748
 20
35.9700
 30
0.0000
  0
VERTEX
  8
21
 10
75.2748
 20
37.0700
 30
0.0000
 42
1.0000
  0
SEQEND
  8
0
  0
POLYLINE
  8
21
 66
1
 10
0.0000
 20
0.0000
 30
0.0000
 40
0.0000
 41
0.0000
 70
1
  0
VERTEX
  8
21
 10
74.9700
 20
35.6652
 30
0.0000
  0
VERTEX
  8
21
 10
78.4700
 20
35.6652
 30
0.0000
 42
1.0000
  0
VERTEX
  8
21
 10
78.4700
 20
36.2748
 30
0.0000
  0
VERTEX
  8
21
 10
74.9700
 20
36.2748
 30
0.0000
 42
1.0000
  0
SEQEND
  8
0
  0
POLYLINE
  8
21
 66
1
 10
0.0000
 20
0.0000
 30
0.0000
 40
0.0000
 41
0.0000
 70
1
  0
VERTEX
  8
21
 10
78.1652
 20
35.9700
 30
0.0000
  0
VERTEX
  8
21
 10
78.1652
 20
31.9700
 30
0.0000
 42
1.0000
  0
VERTEX
  8
21
 10
78.7748
 20
31.9700
 30
0.0000
  0
VERTEX
  8
21
 10
78.7748
 20
35.9700
 30
0.0000
 42
1.0000
  0
SEQEND
  8
0
  0
POLYLINE
  8
21
 66
1
 10
0.0000
 20
0.0000
 30
0.0000
 40
0.0000
 41
0.0000
 70
1
  0
VERTEX
  8
21
 10
73.5700
 20
42.7748
 30
0.0000
  0
VERTEX
  8
21
 10
72.9700
 20
42.7748
 30
0.0000
 42
1.0000
  0
VERTEX
  8
21
 10
72.9700
 20
42.1652
 30
0.0000
  0
VERTEX
  8
21
 10
73.5700
 20
42.1652
 30
0.0000
 42
1.0000
  0
SEQEND
  8
0
  0
POLYLINE
  8
21
 66
1
 10
0.0000
 20
0.0000
 30
0.0000
 40
0.0000
 41
0.0000
 70
1
  0
VERTEX
  8
21
 10
72.6652
 20
42.4700
 30
0.0000
  0
VERTEX
  8
21
 10
72.6652
 20
35.9700
 30
0.0000
 42
1.0000
  0
VERTEX
  8
21
 10
73.2748
 20
35.9700
 30
0.0000
  0
VERTEX
  8
21
 10
73.2748
 20
42.4700
 30
0.0000
 42
1.0000
  0
SEQEND
  8
0
  0
POLYLINE
  8
21
 66
1
 10
0.0000
 20
0.0000
 30
0.0000
 40
0.0000
 41
0.0000
 70
1
  0
VERTEX
  8
21
 10
70.0484
 20
33.6518
 30
0.0000
  0
VERTEX
  8
21
 10
70.0484
 20
33.1325
 30
0.0000
 42
1.0000
  0
VERTEX
  8
21
 10
70.1500
 20
33.1325
 30
0.0000
  0
VERTEX
  8
21
 10
70.1500
 20
33.6518
 30
0.0000
 42
1.0000
  0
SEQEND
  8
0
  0
POLYLINE
  8
21
 66
1
 10
0.0000
 20
0.0000
 30
0.0000
 40
0.0000
 41
0.0000
 70
1
  0
VERTEX
  8
21
 10
70.0992
 20
33.1833
 30
0.0000
  0
VERTEX
  8
21
 10
68.9308
 20
33.1833
 30
0.0000
 42
1.0000
  0
VERTEX
  8
21
 10
68.9308
 20
33.0817
 30
0.0000
  0
VERTEX
  8
21
 10
70.0992
 20
33.0817
 30
0.0000
 42
1.0000
  0
SEQEND
  8
0
  0
POLYLINE
  8
21
 66
1
 10
0.0000
 20
0.0000
 30
0.0000
 40
0.0000
 41
0.0000
 70
1
  0
VERTEX
  8
21
 10
68.9816
 20
33.1325
 30
0.0000
  0
VERTEX
  8
21
 10
68.9816
 20
33.6518
 30
0.0000
 42
1.0000
  0
VERTEX
  8
21
 10
68.8800
 20
33.6518
 30
0.0000
  0
VERTEX
  8
21
 10
68.8800
 20
33.1325
 30
0.0000
 42
1.0000
  0
SEQEND
  8
0
  0
POLYLINE
  8
21
 66
1
 10
0.0000
 20
0.0000
 30
0.0000
 40
0.0000
 41
0.0000
 70
1
  0
VERTEX
  8
21
 10
69.5009
 20
33.1325
 30
0.0000
  0
VERTEX
  8
21
 10
69.5009
 20
33.5220
 30
0.0000
 42
1.0000
  0
VERTEX
  8
21
 10
69.3993
 20
33.5220
 30
0.0000
  0
VERTEX
  8
21
 10
69.3993
 20
33.1325
 30
0.0000
 42
1.0000
  0
SEQEND
  8
0
  0
POLYLINE
  8
21
 66
1
 10
0.0000
 20
0.0000
 30
0.0000
 40
0.0000
 41
0.0000
 70
1
  0
VERTEX
  8
21
 10
70.0484
 20
34.4341
 30
0.0000
 42
1.0000
  0
VERTEX
  8
21
 10
70.1500
 20
34.4341
 30
0.0000
 42
0.4142
  0
VERTEX
  8
21
 10
69.8396
 20
34.7446
 30
0.0000
 42
1.0000
  0
VERTEX
  8
21
 10
69.8396
 20
34.6430
 30
0.0000
 42
-0.4142
  0
SEQEND
  8
0
  0
POLYLINE
  8
21
 66
1
 10
0.0000
 20
0.0000
 30
0.0000
 40
0.0000
 41
0.0000
 70
1
  0
VERTEX
  8
21
 10
69.9012
 20
34.0807
 30
0.0000
 42
1.0000
  0
VERTEX
  8
21
 10
69.9727
 20
34.0086
 30
0.0000
 42
0.2000
  0
VERTEX
  8
21
 10
70.1500
 20
34.4341
 30
0.0000
 42
1.0000
  0
VERTEX
  8
21
 10
70.0484
 20
34.4341
 30
0.0000
 42
-0.2000
  0
SEQEND
  8
0
  0
POLYLINE
  8
21
 66
1
 10
0.0000
 20
0.0000
 30
0.0000
 40
0.0000
 41
0.0000
 70
1
  0
VERTEX
  8
21
 10
68.9816
 20
34.3368
 30
0.0000
 42
1.0000
  0
VERTEX
  8
21
 10
68.8800
 20
34.3368
 30
0.0000
 42
0.4142
  0
VERTEX
  8
21
 10
69.1904
 20
34.0263
 30
0.0000
 42
1.0000
  0
VERTEX
  8
21
 10
69.1904
 20
34.1279
 30
0.0000
 42
-0.4142
  0
SEQEND
  8
0
  0
POLYLINE
  8
21
 66
1
 10
0.0000
 20
0.0000
 30
0.0000
 40
0.0000
 41
0.0000
 70
1
  0
VERTEX
  8
21
 10
69.0688
 20
34.5984
 30
0.0000
 42
1.0000
  0
VERTEX
  8
21
 10
68.9875
 20
34.6594
 30
0.0000
 42
0.1623
  0
VERTEX
  8
21
 10
68.8800
 20
34.3368
 30
0.0000
 42
1.0000
  0
VERTEX
  8
21
 10
68.9816
 20
34.3368
 30
0.0000
 42
-0.1623
  0
SEQEND
  8
0
  0
POLYLINE
  8
21
 66
1
 10
0.0000
 20
0.0000
 30
0.0000
 40
0.0000
 41
0.0000
 70
1
  0
VERTEX
  8
21
 10
69.1904
 20
34.1279
 30
0.0000
 42
1.0000
  0
VERTEX
  8
21
 10
69.1904
 20
34.0263
 30
0.0000
 42
0.2656
  0
VERTEX
  8
21
 10
69.4614
 20
34.1812
 30
0.0000
 42
1.0000
  0
VERTEX
  8
21
 10
69.3739
 20
34.2327
 30
0.0000
 42
-0.2656
  0
SEQEND
  8
0
  0
POLYLINE
  8
21
 66
1
 10
0.0000
 20
0.0000
 30
0.0000
 40
0.0000
 41
0.0000
 70
1
  0
VERTEX
  8
21
 10
69.8396
 20
34.6430
 30
0.0000
 42
1.0000
  0
VERTEX
  8
21
 10
69.8396
 20
34.7446
 30
0.0000
 42
0.2656
  0
VERTEX
  8
21
 10
69.5686
 20
34.5898
 30
0.0000
 42
1.0000
  0
VERTEX
  8
21
 10
69.6561
 20
34.5382
 30
0.0000
 42
-0.2656
  0
SEQEND
  8
0
  0
POLYLINE
  8
21
 66
1
 10
0.0000
 20
0.0000
 30
0.0000
 40
0.0000
 41
0.0000
 70
1
  0
VERTEX
  8
21
 10
69.5678
 20
34.5883
 30
0.0000
  0
VERTEX
  8
21
 10
69.3730
 20
34.2313
 30
0.0000
 42
1.0000
  0
VERTEX
  8
21
 10
69.4622
 20
34.1826
 30
0.0000
  0
VERTEX
  8
21
 10
69.6570
 20
34.5396
 30
0.0000
 42
1.0000
  0
SEQEND
  8
0
  0
POLYLINE
  8
21
 66
1
 10
0.0000
 20
0.0000
 30
0.0000
 40
0.0000
 41
0.0000
 70
1
  0
VERTEX
  8
21
 10
70.0992
 20
35.2554
 30
0.0000
  0
VERTEX
  8
21
 10
68.9308
 20
35.2554
 30
0.0000
 42
1.0000
  0
VERTEX
  8
21
 10
68.9308
 20
35.1538
 30
0.0000
  0
VERTEX
  8
21
 10
70.0992
 20
35.1538
 30
0.0000
 42
1.0000
  0
SEQEND
  8
0
  0
POLYLINE
  8
21
 66
1
 10
0.0000
 20
0.0000
 30
0.0000
 40
0.0000
 41
0.0000
 70
1
  0
VERTEX
  8
21
 10
68.9816
 20
35.2046
 30
0.0000
  0
VERTEX
  8
21
 10
68.9816
 20
35.5292
 30
0.0000
 42
1.0000
  0
VERTEX
  8
21
 10
68.8800
 20
35.5292
 30
0.0000
  0
VERTEX
  8
21
 10
68.8800
 20
35.2046
 30
0.0000
 42
1.0000
  0
SEQEND
  8
0
  0
POLYLINE
  8
21
 66
1
 10
0.0000
 20
0.0000
 30
0.0000
 40
0.0000
 41
0.0000
 70
1
  0
VERTEX
  8
21
 10
69.5291
 20
35.5292
 30
0.0000
 42
1.0000
  0
VERTEX
  8
21
 10
69.6307
 20
35.5292
 30
0.0000
 42
1.0000
  0
VERTEX
  8
21
 10
68.8800
 20
35.5292
 30
0.0000
 42
1.0000
  0
VERTEX
  8
21
 10
68.9816
 20
35.5292
 30
0.0000
 42
-1.0000
  0
SEQEND
  8
0
  0
POLYLINE
  8
21
 66
1
 10
0.0000
 20
0.0000
 30
0.0000
 40
0.0000
 41
0.0000
 70
1
  0
VERTEX
  8
21
 10
69.5291
 20
35.5292
 30
0.0000
  0
VERTEX
  8
21
 10
69.5291
 20
35.2046
 30
0.0000
 42
1.0000
  0
VERTEX
  8
21
 10
69.6307
 20
35.2046
 30
0.0000
  0
VERTEX
  8
21
 10
69.6307
 20
35.5292
 30
0.0000
 42
1.0000
  0
SEQEND
  8
0
  0
POLYLINE
  8
21
 66
1
 10
0.0000
 20
0.0000
 30
0.0000
 40
0.0000
 41
0.0000
 70
1
  0
VERTEX
  8
21
 10
69.2301
 20
36.9339
 30
0.0000
  0
VERTEX
  8
21
 10
68.9705
 20
37.2585
 30
0.0000
 42
1.0000
  0
VERTEX
  8
21
 10
68.8911
 20
37.1950
 30
0.0000
  0
VERTEX
  8
21
 10
69.1508
 20
36.8704
 30
0.0000
 42
1.0000
  0
SEQEND
  8
0
  0
POLYLINE
  8
21
 66
1
 10
0.0000
 20
0.0000
 30
0.0000
 40
0.0000
 41
0.0000
 70
1
  0
VERTEX
  8
21
 10
68.9308
 20
37.1759
 30
0.0000
  0
VERTEX
  8
21
 10
70.0992
 20
37.1759
 30
0.0000
 42
1.0000
  0
VERTEX
  8
21
 10
70.0992
 20
37.2775
 30
0.0000
  0
VERTEX
  8
21
 10
68.9308
 20
37.2775
 30
0.0000
 42
1.0000
  0
SEQEND
  8
0
  0
POLYLINE
  8
21
 66
1
 10
0.0000
 20
0.0000
 30
0.0000
 40
0.0000
 41
0.0000
 70
1
  0
VERTEX
  8
21
 10
70.1500
 20
36.9022
 30
0.0000
  0
VERTEX
  8
21
 10
70.1500
 20
37.5513
 30
0.0000
 42
1.0000
  0
VERTEX
  8
21
 10
70.0484
 20
37.5513
 30
0.0000
  0
VERTEX
  8
21
 10
70.0484
 20
36.9022
 30
0.0000
 42
1.0000
  0
SEQEND
  8
0
  0
POLYLINE
  8
21
 66
1
 10
0.0000
 20
0.0000
 30
0.0000
 40
0.0000
 41
0.0000
 70
1
  0
VERTEX
  8
21
 10
69.2229
 20
38.6435
 30
0.0000
 42
1.0000
  0
VERTEX
  8
21
 10
69.2229
 20
38.7451
 30
0.0000
 42
0.4142
  0
VERTEX
  8
21
 10
68.8800
 20
38.4022
 30
0.0000
 42
1.0000
  0
VERTEX
  8
21
 10
68.9816
 20
38.4022
 30
0.0000
 42
-0.4142
  0
SEQEND
  8
0
  0
POLYLINE
  8
21
 66
1
 10
0.0000
 20
0.0000
 30
0.0000
 40
0.0000
 41
0.0000
 70
1
  0
VERTEX
  8
21
 10
68.9816
 20
38.4022
 30
0.0000
 42
1.0000
  0
VERTEX
  8
21
 10
68.8800
 20
38.4022
 30
0.0000
 42
0.3252
  0
VERTEX
  8
21
 10
69.1748
 20
37.9968
 30
0.0000
 42
1.0000
  0
VERTEX
  8
21
 10
69.2061
 20
38.0935
 30
0.0000
 42
-0.3252
  0
SEQEND
  8
0
  0
POLYLINE
  8
21
 66
1
 10
0.0000
 20
0.0000
 30
0.0000
 40
0.0000
 41
0.0000
 70
1
  0
VERTEX
  8
21
 10
69.4133
 20
38.5619
 30
0.0000
 42
1.0000
  0
VERTEX
  8
21
 10
69.4869
 20
38.6319
 30
0.0000
 42
0.2053
  0
VERTEX
  8
21
 10
69.2229
 20
38.7451
 30
0.0000
 42
1.0000
  0
VERTEX
  8
21
 10
69.2229
 20
38.6435
 30
0.0000
 42
-0.2053
  0
SEQEND
  8
0
  0
POLYLINE
  8
21
 66
1
 10
0.0000
 20
0.0000
 30
0.0000
 40
0.0000
 41
0.0000
 70
1
  0
VERTEX
  8
21
 10
69.4172
 20
38.5582
 30
0.0000
  0
VERTEX
  8
21
 10
70.0663
 20
38.0065
 30
0.0000
 42
1.0000
  0
VERTEX
  8
21
 10
70.1321
 20
38.0839
 30
0.0000
  0
VERTEX
  8
21
 10
69.4830
 20
38.6356
 30
0.0000
 42
1.0000
  0
SEQEND
  8
0
  0
POLYLINE
  8
21
 66
1
 10
0.0000
 20
0.0000
 30
0.0000
 40
0.0000
 41
0.0000
 70
1
  0
VERTEX
  8
21
 10
70.1500
 20
38.0452
 30
0.0000
  0
VERTEX
  8
21
 10
70.1500
 20
38.6943
 30
0.0000
 42
1.0000
  0
VERTEX
  8
21
 10
70.0484
 20
38.6943
 30
0.0000
  0
VERTEX
  8
21
 10
70.0484
 20
38.0452
 30
0.0000
 42
1.0000
  0
SEQEND
  8
0
  0
POLYLINE
  8
21
 66
1
 10
0.0000
 20
0.0000
 30
0.0000
 40
0.0000
 41
0.0000
 70
1
  0
VERTEX
  8
21
 10
69.6956
 20
39.1994
 30
0.0000
  0
VERTEX
  8
21
 10
69.6956
 20
39.9784
 30
0.0000
 42
1.0000
  0
VERTEX
  8
21
 10
69.5940
 20
39.9784
 30
0.0000
  0
VERTEX
  8
21
 10
69.5940
 20
39.1994
 30
0.0000
 42
1.0000
  0
SEQEND
  8
0
  0
POLYLINE
  8
21
 66
1
 10
0.0000
 20
0.0000
 30
0.0000
 40
0.0000
 41
0.0000
 70
1
  0
VERTEX
  8
21
 10
69.7746
 20
40.6011
 30
0.0000
  0
VERTEX
  8
21
 10
69.2554
 20
40.6011
 30
0.0000
 42
1.0000
  0
VERTEX
  8
21
 10
69.2554
 20
40.4995
 30
0.0000
  0
VERTEX
  8
21
 10
69.7746
 20
40.4995
 30
0.0000
 42
1.0000
  0
SEQEND
  8
0
  0
POLYLINE
  8
21
 66
1
 10
0.0000
 20
0.0000
 30
0.0000
 40
0.0000
 41
0.0000
 70
1
  0
VERTEX
  8
21
 10
69.2554
 20
41.1486
 30
0.0000
 42
1.0000
  0
VERTEX
  8
21
 10
69.2554
 20
41.2502
 30
0.0000
 42
1.0000
  0
VERTEX
  8
21
 10
69.2554
 20
40.4995
 30
0.0000
 42
1.0000
  0
VERTEX
  8
21
 10
69.2554
 20
40.6011
 30
0.0000
 42
-1.0000
  0
SEQEND
  8
0
  0
POLYLINE
  8
21
 66
1
 10
0.0000
 20
0.0000
 30
0.0000
 40
0.0000
 41
0.0000
 70
1
  0
VERTEX
  8
21
 10
69.2554
 20
41.1486
 30
0.0000
  0
VERTEX
  8
21
 10
69.7746
 20
41.1486
 30
0.0000
 42
1.0000
  0
VERTEX
  8
21
 10
69.7746
 20
41.2502
 30
0.0000
  0
VERTEX
  8
21
 10
69.2554
 20
41.2502
 30
0.0000
 42
1.0000
  0
SEQEND
  8
0
  0
POLYLINE
  8
21
 66
1
 10
0.0000
 20
0.0000
 30
0.0000
 40
0.0000
 41
0.0000
 70
1
  0
VERTEX
  8
21
 10
69.7746
 20
40.6011
 30
0.0000
 42
1.0000
  0
VERTEX
  8
21
 10
69.7746
 20
40.4995
 30
0.0000
 42
1.0000
  0
VERTEX
  8
21
 10
69.7746
 20
41.2502
 30
0.0000
 42
1.0000
  0
VERTEX
  8
21
 10
69.7746
 20
41.1486
 30
0.0000
 42
-1.0000
  0
SEQEND
  8
0
  0
POLYLINE
  8
21
 66
1
 10
0.0000
 20
0.0000
 30
0.0000
 40
0.0000
 41
0.0000
 70
1
  0
VERTEX
  8
21
 10
69.8755
 20
41.0336
 30
0.0000
  0
VERTEX
  8
21
 10
70.1351
 20
41.2933
 30
0.0000
 42
1.0000
  0
VERTEX
  8
21
 10
70.0633
 20
41.3651
 30
0.0000
  0
VERTEX
  8
21
 10
69.8036
 20
41.1055
 30
0.0000
 42
1.0000
  0
SEQEND
  8
0
  0
ENDSEC
  0
EOF
